<svg width="12" height="12" viewBox="0 0 12 12" fill="none" xmlns="http://www.w3.org/2000/svg">
<path d="M10.2678 10.2678C9.53553 11 8.35702 11 6 11C3.643 11 2.46445 11 1.73225 10.2677C0.999999 9.53555 0.999999 8.357 0.999999 6C0.999999 5.82925 0.999999 5.7439 1.0076 5.6571C1.0429 5.25245 1.207 4.85628 1.46815 4.54517C1.5242 4.47843 1.586 4.41658 1.7097 4.29289L4.2929 1.70972C4.4166 1.58603 4.47845 1.52417 4.54515 1.46815C4.8563 1.207 5.25245 1.0429 5.6571 1.00757C5.7439 1 5.82925 1 6 1C8.35702 1 9.53554 1 10.2678 1.73223C11 2.46446 11 3.64298 11 6C11 8.357 11 9.53555 10.2678 10.2678Z" stroke="#1C274C"/>
<path opacity="0.5" d="M6 6L6.25 6C6.95225 6 7.30335 6 7.55557 6.16855C7.66476 6.2415 7.75851 6.33525 7.83147 6.44445C8 6.69665 8 7.04775 8 7.75C8 8.45225 8 8.80335 7.83147 9.05555C7.75851 9.16475 7.66476 9.2585 7.55557 9.33145C7.30334 9.5 6.95225 9.5 6.25 9.5L6 9.5M6 6L5.75 6C5.04775 6 4.69665 6 4.44445 6.16855C4.33525 6.2415 4.2415 6.33525 4.16855 6.44445C4 6.69665 4 7.04775 4 7.75M6 6L6 7.75M6 9.5L5.75 9.5C5.04775 9.5 4.69665 9.5 4.44445 9.33145C4.33525 9.2585 4.2415 9.16475 4.16855 9.05555C4 8.80335 4 8.45225 4 7.75M6 9.5L6 7.75M4 7.75L6 7.75" stroke="#1C274C"/>
</svg>
