<svg width="18" height="18" viewBox="0 0 18 18" fill="none" xmlns="http://www.w3.org/2000/svg">
<g clip-path="url(#clip0_1815_546)">
<path d="M10.9688 1.6875C10.9688 1.37684 10.7169 1.125 10.4062 1.125H5.90625C5.90625 0.81434 5.65442 0.5625 5.34375 0.5625C5.03308 0.5625 4.78125 0.81434 4.78125 1.125V1.15982C2.56145 1.43662 0.84375 3.33022 0.84375 5.625V12.9375C0.84375 15.4228 2.85846 17.4375 5.34375 17.4375H12.6562C15.1415 17.4375 17.1562 15.4228 17.1562 12.9375V5.625C17.1562 3.52817 15.7221 1.76632 13.7812 1.26677V1.125C13.7812 0.81434 13.5294 0.5625 13.2188 0.5625C12.9081 0.5625 12.6562 0.81434 12.6562 1.125V2.53125C12.6562 2.84192 12.9081 3.09375 13.2188 3.09375C13.5294 3.09375 13.7812 2.84192 13.7812 2.53125V2.44204C15.0921 2.90537 16.0312 4.1555 16.0312 5.625V12.9375C16.0312 14.8015 14.5202 16.3125 12.6562 16.3125H5.34375C3.47979 16.3125 1.96875 14.8015 1.96875 12.9375V5.625C1.96875 3.95269 3.18504 2.56446 4.78125 2.29667V2.53125C4.78125 2.84192 5.03308 3.09375 5.34375 3.09375C5.65442 3.09375 5.90625 2.84192 5.90625 2.53125V2.25H10.4062C10.7169 2.25 10.9688 1.99816 10.9688 1.6875Z" fill="#9FA8C4"/>
<path d="M12.2102 10.0085C12.4299 10.2282 12.4299 10.5843 12.2102 10.804L9.11649 13.8977C8.89683 14.1174 8.54066 14.1174 8.321 13.8977L5.22725 10.804C5.00756 10.5843 5.00756 10.2282 5.22725 10.0085C5.44691 9.78882 5.80308 9.78882 6.02274 10.0085L8.15624 12.142L8.15624 4.5C8.15624 4.18933 8.40807 3.9375 8.71874 3.9375C9.02941 3.9375 9.28124 4.18933 9.28124 4.5L9.28124 12.142L11.4147 10.0085C11.6344 9.78882 11.9906 9.78882 12.2102 10.0085Z" fill="#9FA8C4"/>
</g>
<defs>
<clipPath id="clip0_1815_546">
<rect width="18" height="18" fill="white" transform="translate(18) rotate(90)"/>
</clipPath>
</defs>
</svg>
