<svg width="19" height="19" viewBox="0 0 19 19" fill="none" xmlns="http://www.w3.org/2000/svg">
<g clip-path="url(#clip0_1815_557)">
<path d="M11.0293 2.62354C11.0293 2.31287 10.7775 2.06104 10.4668 2.06104H5.9668C5.9668 1.75037 5.71497 1.49854 5.4043 1.49854C5.09363 1.49854 4.8418 1.75037 4.8418 2.06104V2.09585C2.622 2.37265 0.904297 4.26626 0.904297 6.56104V13.8735C0.904297 16.3588 2.919 18.3735 5.4043 18.3735H12.7168C15.2021 18.3735 17.2168 16.3588 17.2168 13.8735V6.56104C17.2168 4.4642 15.7827 2.70235 13.8418 2.2028V2.06104C13.8418 1.75037 13.59 1.49854 13.2793 1.49854C12.9686 1.49854 12.7168 1.75037 12.7168 2.06104V3.46729C12.7168 3.77795 12.9686 4.02979 13.2793 4.02979C13.59 4.02979 13.8418 3.77795 13.8418 3.46729V3.37808C15.1526 3.8414 16.0918 5.09153 16.0918 6.56104V13.8735C16.0918 15.7375 14.5808 17.2485 12.7168 17.2485H5.4043C3.54034 17.2485 2.0293 15.7375 2.0293 13.8735V6.56104C2.0293 4.88872 3.24559 3.50049 4.8418 3.2327V3.46729C4.8418 3.77795 5.09363 4.02979 5.4043 4.02979C5.71497 4.02979 5.9668 3.77795 5.9668 3.46729V3.18604H10.4668C10.7775 3.18604 11.0293 2.9342 11.0293 2.62354Z" fill="#9FA8C4"/>
<path d="M5.29824 8.90059C5.08013 8.67938 5.08266 8.32321 5.30389 8.10512L8.41954 5.03342C8.64075 4.81531 8.99692 4.81784 9.21501 5.03908L12.2867 8.15472C12.5048 8.37593 12.5023 8.7321 12.2811 8.95019C12.0598 9.16831 11.7037 9.16578 11.4856 8.94454L9.36729 6.79593L9.31301 14.4378C9.3108 14.7484 9.05719 14.9984 8.74653 14.9962C8.43587 14.994 8.18583 14.7404 8.18804 14.4298L8.24232 6.78794L6.09371 8.90624C5.8725 9.12436 5.51633 9.12183 5.29824 8.90059Z" fill="#9FA8C4"/>
</g>
<defs>
<clipPath id="clip0_1815_557">
<rect width="18" height="18" fill="white" transform="translate(18.127 1) rotate(90.407)"/>
</clipPath>
</defs>
</svg>
