<svg width="16" height="16" viewBox="0 0 16 16" fill="none" xmlns="http://www.w3.org/2000/svg">
<path d="M1.87502 14.9997C1.39162 14.9997 1 14.6077 1 14.125V1.87502C1 1.39162 1.39162 1 1.87502 1H14.125C14.608 1 15 1.39162 15 1.87502V14.125C15 14.6077 14.608 14.9997 14.125 14.9997H1.87502Z" stroke="#10294D"/>
<path d="M10.2155 2.4165C9.47848 2.4165 8.88086 3.01379 8.88086 3.75113V8.25168C8.88086 8.75786 9.16335 9.19877 9.57911 9.42483V13.5494H10.448V2.4386C10.3729 2.42568 10.2944 2.4165 10.2155 2.4165Z" fill="#10294D"/>
<path d="M7.77328 4.69067C7.77328 4.62642 7.77056 4.56217 7.76512 4.49996L7.55639 2H7.20421V4.71787H6.8952V2.00034H6.54539V4.71787H6.23638V2.00034H5.88658V4.71787H5.57791V2H5.22538L5.01088 4.46699C5.00374 4.54042 5 4.61521 5 4.69067C5 5.44059 5.37938 6.10315 5.95559 6.49715V13.1111H6.83265L6.82993 6.48661C7.39934 6.09227 7.77328 5.43482 7.77328 4.69067Z" fill="#10294D"/>
</svg>
