<svg width="14" height="14" viewBox="0 0 14 14" fill="none" xmlns="http://www.w3.org/2000/svg">
<path d="M10.0625 12.25H1.3125C1.05 12.25 0.875 12.425 0.875 12.6875C0.875 12.95 1.05 13.125 1.3125 13.125H10.0625C10.325 13.125 10.5 12.95 10.5 12.6875C10.5 12.425 10.325 12.25 10.0625 12.25Z" fill="#10294D"/>
<path d="M10.9375 4.8125C10.6313 4.8125 10.325 4.9 10.0625 5.075V4.8125C10.0625 4.55 9.8875 4.375 9.625 4.375H1.75C1.4875 4.375 1.3125 4.55 1.3125 4.8125V7.525C1.3125 9.8875 3.28125 11.8125 5.6875 11.8125C7.525 11.8125 9.1 10.7188 9.75625 9.14375C10.0625 9.45 10.4563 9.625 10.9375 9.625C11.9 9.625 12.6875 8.8375 12.6875 7.875V6.5625C12.6875 5.6 11.9 4.8125 10.9375 4.8125ZM11.8125 7.875C11.8125 8.35625 11.4187 8.75 10.9375 8.75C10.4563 8.75 10.0625 8.35625 10.0625 7.875V7.525V6.5625C10.0625 6.08125 10.4563 5.6875 10.9375 5.6875C11.4187 5.6875 11.8125 6.08125 11.8125 6.5625V7.875Z" fill="#10294D"/>
<path d="M5.68828 3.9373C5.77578 3.9373 5.86328 3.89355 5.95078 3.8498C6.16953 3.71855 6.21328 3.45605 6.08203 3.2373C5.64453 2.58105 5.64453 1.7498 6.08203 1.09355C6.21328 0.874805 6.16953 0.612305 5.95078 0.481055C5.73203 0.349805 5.46953 0.393555 5.33828 0.612305C4.72578 1.5748 4.72578 2.7998 5.33828 3.71855C5.42578 3.8498 5.55703 3.9373 5.68828 3.9373Z" fill="#10294D"/>
<path d="M3.93828 3.9375C4.02578 3.9375 4.11328 3.89375 4.20078 3.85C4.41953 3.71875 4.46328 3.45625 4.33203 3.2375C3.89453 2.58125 3.89453 1.75 4.33203 1.09375C4.46328 0.875 4.41953 0.6125 4.20078 0.48125C3.98203 0.39375 3.71953 0.4375 3.58828 0.6125C2.97578 1.575 2.97578 2.8 3.58828 3.71875C3.67578 3.85 3.80703 3.9375 3.93828 3.9375Z" fill="#10294D"/>
<path d="M7.43828 3.9373C7.52578 3.9373 7.61328 3.89355 7.70078 3.8498C7.91953 3.71855 7.96328 3.45605 7.83203 3.2373C7.39453 2.58105 7.39453 1.7498 7.83203 1.09355C7.96328 0.874805 7.91953 0.612305 7.70078 0.481055C7.48203 0.349805 7.21953 0.393555 7.08828 0.612305C6.47578 1.5748 6.47578 2.7998 7.08828 3.71855C7.17578 3.8498 7.30703 3.9373 7.43828 3.9373Z" fill="#10294D"/>
</svg>
