<svg width="20" height="20" viewBox="0 0 20 20" fill="none" xmlns="http://www.w3.org/2000/svg">
<path d="M7.04789 1.88005C8.01877 1.65232 9.00932 1.53846 9.99999 1.53846C10.4248 1.53846 10.7692 1.19406 10.7692 0.769232C10.7692 0.3444 10.4248 0 9.99999 0C8.89144 0 7.78299 0.127422 6.69656 0.382255C3.5635 1.11716 1.11717 3.56349 0.382258 6.69656C-0.127419 8.86932 -0.127419 11.1307 0.382258 13.3034C1.11718 16.4365 3.5635 18.8827 6.69656 19.6178C8.86932 20.1274 11.1307 20.1274 13.3034 19.6178C16.4364 18.8827 18.8828 16.4365 19.6178 13.3034C19.8725 12.217 20 11.1084 20 9.99999C20 9.5751 19.6555 9.23076 19.2308 9.23076C18.8059 9.23076 18.4615 9.5751 18.4615 9.99999C18.4615 10.9905 18.3476 11.9812 18.1199 12.9521C17.5184 15.5163 15.5163 17.5184 12.9521 18.1199C11.0103 18.5754 8.98966 18.5754 7.0479 18.1199C4.4837 17.5184 2.48154 15.5163 1.88006 12.9521C1.4246 11.0103 1.4246 8.98965 1.88006 7.04789C2.48154 4.48369 4.4837 2.48154 7.04789 1.88005Z" fill="#3C8BF7"/>
<path fill-rule="evenodd" clip-rule="evenodd" d="M14.7371 0.770099C15.3131 0.274944 16.0495 0 16.8143 0C18.5742 0 20.0009 1.42664 20.0009 3.1865C20.0009 3.95132 19.726 4.68775 19.2308 5.26373C19.1788 5.32421 19.1243 5.38293 19.0675 5.43969L15.3851 9.12221C13.6856 10.8217 11.5561 12.0273 9.22445 12.6103L8.51267 12.7882C7.72757 12.9845 7.01638 12.2733 7.21267 11.4882L7.39061 10.7764C7.97356 8.44477 9.17923 6.31529 10.8787 4.61578L14.5612 0.933299C14.618 0.876532 14.6767 0.82211 14.7371 0.770099ZM16.9487 5.38294C16.4152 5.16778 15.933 4.82574 15.5541 4.44682C15.1751 4.06788 14.8331 3.58564 14.618 3.05225L11.9666 5.70364C10.4746 7.19563 9.41311 9.06243 8.89389 11.107C10.9384 10.5878 12.8052 9.52632 14.2972 8.03432L16.9487 5.38294Z" fill="#3C8BF7"/>
</svg>
