<svg width="52" height="52" viewBox="0 0 52 52" fill="none" xmlns="http://www.w3.org/2000/svg">
<circle cx="26" cy="26" r="25.75" stroke="#10294D" stroke-width="0.5" stroke-dasharray="1 1"/>
<path d="M19.288 29.08C18.9093 29.08 18.568 28.9947 18.264 28.824C17.96 28.648 17.72 28.4107 17.544 28.112C17.368 27.8133 17.28 27.4747 17.28 27.096C17.28 26.7227 17.3653 26.3867 17.536 26.088C17.712 25.7893 17.9467 25.5547 18.24 25.384C18.5387 25.208 18.872 25.12 19.24 25.12C19.592 25.12 19.9013 25.2 20.168 25.36C20.44 25.52 20.6507 25.7413 20.8 26.024C20.9547 26.3067 21.032 26.6267 21.032 26.984C21.032 27.0373 21.0293 27.096 21.024 27.16C21.0187 27.2187 21.008 27.288 20.992 27.368H17.784V26.768H20.608L20.344 27C20.344 26.744 20.2987 26.528 20.208 26.352C20.1173 26.1707 19.9893 26.032 19.824 25.936C19.6587 25.8347 19.4587 25.784 19.224 25.784C18.9787 25.784 18.7627 25.8373 18.576 25.944C18.3893 26.0507 18.2453 26.2 18.144 26.392C18.0427 26.584 17.992 26.8107 17.992 27.072C17.992 27.3387 18.0453 27.5733 18.152 27.776C18.2587 27.9733 18.4107 28.128 18.608 28.24C18.8053 28.3467 19.032 28.4 19.288 28.4C19.5013 28.4 19.696 28.3627 19.872 28.288C20.0533 28.2133 20.208 28.1013 20.336 27.952L20.8 28.424C20.6187 28.6373 20.3947 28.8 20.128 28.912C19.8667 29.024 19.5867 29.08 19.288 29.08ZM23.4891 29.08C23.0517 29.08 22.6784 29 22.3691 28.84C22.0597 28.68 21.7851 28.448 21.5451 28.144L22.0571 27.632C22.2331 27.8773 22.4357 28.064 22.6651 28.192C22.8944 28.3147 23.1771 28.376 23.5131 28.376C23.8437 28.376 24.1077 28.304 24.3051 28.16C24.5077 28.016 24.6091 27.8187 24.6091 27.568C24.6091 27.36 24.5611 27.192 24.4651 27.064C24.3691 26.936 24.2384 26.832 24.0731 26.752C23.9131 26.6667 23.7371 26.592 23.5451 26.528C23.3531 26.4587 23.1611 26.3867 22.9691 26.312C22.7771 26.232 22.6011 26.136 22.4411 26.024C22.2811 25.9067 22.1504 25.7547 22.0491 25.568C21.9531 25.3813 21.9051 25.1467 21.9051 24.864C21.9051 24.5493 21.9797 24.2827 22.1291 24.064C22.2837 23.84 22.4917 23.6693 22.7531 23.552C23.0197 23.4293 23.3184 23.368 23.6491 23.368C24.0117 23.368 24.3371 23.44 24.6251 23.584C24.9131 23.7227 25.1477 23.9067 25.3291 24.136L24.8171 24.648C24.6517 24.456 24.4731 24.312 24.2811 24.216C24.0944 24.12 23.8784 24.072 23.6331 24.072C23.3344 24.072 23.0971 24.1387 22.9211 24.272C22.7451 24.4 22.6571 24.5813 22.6571 24.816C22.6571 25.0027 22.7051 25.1547 22.8011 25.272C22.9024 25.384 23.0331 25.48 23.1931 25.56C23.3531 25.64 23.5291 25.7147 23.7211 25.784C23.9184 25.848 24.1131 25.92 24.3051 26C24.4971 26.08 24.6731 26.1813 24.8331 26.304C24.9931 26.4267 25.1211 26.5867 25.2171 26.784C25.3184 26.976 25.3691 27.2187 25.3691 27.512C25.3691 28.0027 25.1984 28.3867 24.8571 28.664C24.5211 28.9413 24.0651 29.08 23.4891 29.08ZM26.3826 29V23.448H27.1346V29H26.3826ZM28.4451 29V23.448H28.9731L31.3251 27.312H30.9651L33.3171 23.448H33.8451V29H33.0931V24.768L33.2691 24.816L31.4131 27.864H30.8851L29.0291 24.816L29.1971 24.768V29H28.4451Z" fill="black"/>
<path d="M38.193 34.2521C38.6909 33.7556 39.0004 33.0631 39 32.3043L39 29.0934L38.5382 28.9999C38.4521 28.9822 38.3748 28.9348 38.3193 28.8674C38.2637 28.7997 38.2317 28.7183 38.2313 28.6234C38.2317 28.5282 38.2637 28.4464 38.3193 28.3788C38.3748 28.3117 38.4521 28.2639 38.5382 28.247L39 28.1528L39 23.9062L38.5382 23.8124C38.4521 23.7951 38.3748 23.7476 38.3193 23.6803C38.2637 23.6125 38.2317 23.5309 38.2313 23.436C38.2317 23.3406 38.2637 23.2593 38.3193 23.1916C38.3748 23.1243 38.4521 23.0768 38.5382 23.0595L39 22.9657L39 19.7547C39.0004 18.996 38.6909 18.3034 38.193 17.807C37.6966 17.3092 37.004 16.9996 36.2453 17L18.8332 17C18.1028 17 17.4022 17.2904 16.8855 17.807L13.807 20.8855C13.2903 21.4022 13 22.1028 13 22.8332L13 32.3043C12.9996 33.0631 13.3091 33.7556 13.807 34.2521C14.3034 34.7499 14.9959 35.0594 15.7547 35.059L36.2453 35.059C37.004 35.0594 37.6966 34.7499 38.193 34.2521ZM15.7547 33.9065C15.3105 33.9061 14.9139 33.7281 14.6217 33.4373C14.331 33.1455 14.1529 32.7488 14.1525 32.3043L14.1525 22.8332C14.1525 22.4086 14.3214 22.0008 14.6217 21.7002L17.7002 18.6217C18.0009 18.3214 18.4086 18.1525 18.8332 18.1525L36.2453 18.1525C36.6895 18.1529 37.0865 18.331 37.3783 18.6217C37.669 18.9139 37.8471 19.3105 37.8475 19.7547L37.8475 22.1061C37.6881 22.1977 37.5468 22.3166 37.4309 22.4571C37.2112 22.7217 37.0784 23.0661 37.0788 23.436C37.0784 23.8058 37.2112 24.1506 37.4309 24.4148C37.5468 24.555 37.6882 24.6739 37.8475 24.7659L37.8475 27.2932C37.6881 27.3852 37.5468 27.504 37.4309 27.6443C37.2112 27.9088 37.0784 28.2533 37.0788 28.6234C37.0784 28.9929 37.2112 29.3373 37.4309 29.6019C37.5468 29.7424 37.6882 29.8613 37.8475 29.9529L37.8475 32.3043C37.8471 32.7488 37.669 33.1455 37.3783 33.4373C37.0865 33.7281 36.6895 33.9061 36.2453 33.9065L15.7547 33.9065Z" fill="black"/>
</svg>
