<svg width="16" height="16" viewBox="0 0 16 16" fill="none" xmlns="http://www.w3.org/2000/svg">
<path d="M1.87502 14.9997C1.39162 14.9997 1 14.6077 1 14.125V1.87502C1 1.39162 1.39162 1 1.87502 1H14.125C14.608 1 15 1.39162 15 1.87502V14.125C15 14.6077 14.608 14.9997 14.125 14.9997H1.87502Z" stroke="#10294D"/>
<path d="M10.2174 2.4165C9.48044 2.4165 8.88281 3.01379 8.88281 3.75113V8.25168C8.88281 8.75786 9.16531 9.19877 9.58106 9.42483V13.5494H10.45V2.4386C10.3748 2.42568 10.2963 2.4165 10.2174 2.4165Z" fill="#10294D"/>
<path d="M7.52328 5.12866C7.52328 5.06441 7.52056 5.00016 7.51512 4.93795L7.30639 2.43799H6.95421V5.15586H6.6452V2.43833H6.29539V5.15586H5.98638V2.43833H5.63658V5.15586H5.32791V2.43799H4.97538L4.76088 4.90498C4.75374 4.97841 4.75 5.05319 4.75 5.12866C4.75 5.87858 5.12938 6.54114 5.70559 6.93514V13.5491H6.58265L6.57993 6.9246C7.14934 6.53026 7.52328 5.8728 7.52328 5.12866Z" fill="#10294D"/>
</svg>
