<svg width="14" height="14" viewBox="0 0 14 14" fill="none" xmlns="http://www.w3.org/2000/svg">
<g clip-path="url(#clip0_2358_968)">
<path d="M7.00001 14C10.866 14 14 10.866 14 7.00001C14 3.13401 10.866 0 7.00001 0C3.13401 0 0 3.13401 0 7.00001C0 10.866 3.13401 14 7.00001 14Z" fill="#9FA8C4"/>
<path d="M7.00098 11.5205C9.49759 11.5205 11.5215 9.49662 11.5215 7.00001C11.5215 4.5034 9.49759 2.47949 7.00098 2.47949C4.50437 2.47949 2.48047 4.5034 2.48047 7.00001C2.48047 9.49662 4.50437 11.5205 7.00098 11.5205Z" fill="#E6E6E6"/>
<path d="M10.9641 4.06391C10.6308 2.7011 9.38906 1.69491 7.91674 1.72477C6.28878 1.7578 4.95531 3.08011 4.90945 4.70777C4.87164 6.05016 5.6952 7.20529 6.86795 7.66108C7.25409 7.81117 7.58203 8.07685 7.82093 8.41531C8.28875 9.07814 9.06873 9.5049 9.94696 9.48168C11.2634 9.4469 12.3427 8.38192 12.394 7.066C12.4239 6.29893 12.1102 5.6047 11.5946 5.12425C11.2877 4.83829 11.0637 4.47139 10.9641 4.06391Z" fill="white"/>
<path d="M8.45434 6.35985C9.33198 6.35985 10.0434 5.64839 10.0434 4.77075C10.0434 3.89311 9.33198 3.18164 8.45434 3.18164C7.5767 3.18164 6.86523 3.89311 6.86523 4.77075C6.86523 5.64839 7.5767 6.35985 8.45434 6.35985Z" fill="#F4C67D"/>
<path d="M7.69337 4.77083C7.69337 4.0364 8.19165 3.41871 8.86849 3.23646C8.73645 3.20092 8.5977 3.18164 8.45442 3.18164C7.57672 3.18164 6.86523 3.89315 6.86523 4.77083C6.86523 5.64853 7.57674 6.36002 8.45442 6.36002C8.59773 6.36002 8.73645 6.34074 8.86849 6.30519C8.19162 6.12295 7.69337 5.50525 7.69337 4.77083Z" fill="#E0B16E"/>
<path d="M8.91326 9.96946C6.8778 9.61189 4.96609 8.74211 3.35921 7.44247C2.86131 7.03975 2.13873 7.08224 1.69177 7.54085C1.68592 7.54684 1.68012 7.5528 1.67427 7.55879C1.16483 8.08144 1.21484 8.92904 1.78222 9.38811C3.72045 10.9564 6.02681 12.0057 8.48249 12.4366C9.20136 12.5628 9.87319 12.0436 9.93256 11.3162C9.93324 11.3078 9.9339 11.2995 9.93461 11.2912C9.9867 10.6529 9.544 10.0803 8.91326 9.96946Z" fill="#C4A174"/>
<path d="M9.12044 12.1007C6.6647 11.6698 4.3584 10.6204 2.42017 9.05217C1.85279 8.5931 1.8028 7.7455 2.31222 7.22282C2.31801 7.21683 2.32386 7.21087 2.32972 7.20488C2.33521 7.19925 2.34093 7.19397 2.3465 7.18848C2.10492 7.23455 1.87515 7.35251 1.69179 7.54064C1.68599 7.54663 1.68014 7.55259 1.67429 7.55857C1.16485 8.08122 1.2148 8.92882 1.78224 9.38792C3.72047 10.9562 6.02683 12.0055 8.48251 12.4364C8.89548 12.5089 9.29268 12.3682 9.56737 12.0975C9.42415 12.1249 9.2734 12.1276 9.12044 12.1007Z" fill="#B58E64"/>
<path d="M10.6307 7.57979C10.7698 7.57979 10.8825 7.46705 10.8825 7.32798C10.8825 7.18891 10.7698 7.07617 10.6307 7.07617C10.4916 7.07617 10.3789 7.18891 10.3789 7.32798C10.3789 7.46705 10.4916 7.57979 10.6307 7.57979Z" fill="#F2F2F2"/>
<path d="M10.8651 6.11934C11.0042 6.11934 11.1169 6.0066 11.1169 5.86753C11.1169 5.72846 11.0042 5.61572 10.8651 5.61572C10.726 5.61572 10.6133 5.72846 10.6133 5.86753C10.6133 6.0066 10.726 6.11934 10.8651 6.11934Z" fill="#F2F2F2"/>
<path d="M8.49986 7.43965C8.63893 7.43965 8.75166 7.32691 8.75166 7.18784C8.75166 7.04877 8.63893 6.93604 8.49986 6.93604C8.36079 6.93604 8.24805 7.04877 8.24805 7.18784C8.24805 7.32691 8.36079 7.43965 8.49986 7.43965Z" fill="#F2F2F2"/>
<path d="M6.17759 5.67842C6.31666 5.67842 6.4294 5.56568 6.4294 5.42661C6.4294 5.28754 6.31666 5.1748 6.17759 5.1748C6.03852 5.1748 5.92578 5.28754 5.92578 5.42661C5.92578 5.56568 6.03852 5.67842 6.17759 5.67842Z" fill="#F2F2F2"/>
</g>
<defs>
<clipPath id="clip0_2358_968">
<rect width="14" height="14" fill="white"/>
</clipPath>
</defs>
</svg>
