<svg width="14" height="14" viewBox="0 0 14 14" fill="none" xmlns="http://www.w3.org/2000/svg">
<g clip-path="url(#clip0_1813_595)">
<path d="M0.77777 9.0744C0.349992 9.0744 0 8.72441 0 8.29663V5.70404C0 5.27626 0.349992 4.92627 0.77777 4.92627C1.20555 4.92627 1.55554 5.27626 1.55554 5.70404V8.29663C1.55557 8.72441 1.20555 9.0744 0.77777 9.0744Z" fill="#38454F"/>
<path d="M2.07465 9.85211C1.64687 9.85211 1.29688 9.50212 1.29688 9.07434V4.92621C1.29688 4.49843 1.64687 4.14844 2.07465 4.14844C2.50242 4.14844 2.85242 4.49843 2.85242 4.92621V9.07434C2.85242 9.50212 2.50242 9.85211 2.07465 9.85211Z" fill="#546A79"/>
<path d="M13.2231 4.92627C13.6509 4.92627 14.0009 5.27626 14.0009 5.70404V8.29663C14.0009 8.72441 13.6509 9.0744 13.2231 9.0744C12.7953 9.0744 12.4453 8.72441 12.4453 8.29663V5.70404C12.4453 5.27626 12.7953 4.92627 13.2231 4.92627Z" fill="#38454F"/>
<path d="M11.9262 4.14844C12.354 4.14844 12.704 4.49843 12.704 4.92621V9.07434C12.704 9.50212 12.354 9.85211 11.9262 9.85211C11.4984 9.85211 11.1484 9.50212 11.1484 9.07434V4.92624C11.1484 4.49846 11.4984 4.14844 11.9262 4.14844Z" fill="#546A79"/>
<path d="M4.14844 8.2967H9.85214V5.7041H4.14844V8.2967Z" fill="#BDC3C7"/>
<path d="M3.36957 10.6298C2.94179 10.6298 2.5918 10.2799 2.5918 9.85208V4.14838C2.5918 3.7206 2.94179 3.37061 3.36957 3.37061C3.79734 3.37061 4.14734 3.7206 4.14734 4.14838V9.85208C4.14734 10.2798 3.79734 10.6298 3.36957 10.6298Z" fill="#38454F"/>
<path d="M10.6293 3.37061C11.0571 3.37061 11.4071 3.7206 11.4071 4.14838V9.85208C11.4071 10.2799 11.0571 10.6298 10.6293 10.6298C10.2016 10.6298 9.85156 10.2799 9.85156 9.85208V4.14838C9.85153 3.7206 10.2016 3.37061 10.6293 3.37061Z" fill="#38454F"/>
<path d="M6.22164 5.96336C6.22164 5.82024 6.1055 5.7041 5.96238 5.7041C5.81926 5.7041 5.70312 5.82024 5.70312 5.96336C5.70312 6.10648 5.81926 6.22261 5.96238 6.22261C6.1055 6.22261 6.22164 6.10648 6.22164 5.96336Z" fill="#ECF0F1"/>
<path d="M7.25875 5.96336C7.25875 5.82024 7.14261 5.7041 6.99949 5.7041C6.85637 5.7041 6.74023 5.82024 6.74023 5.96336C6.74023 6.10648 6.85637 6.22261 6.99949 6.22261C7.14258 6.22261 7.25875 6.10648 7.25875 5.96336Z" fill="#ECF0F1"/>
<path d="M8.29586 5.96336C8.29586 5.82024 8.17972 5.7041 8.0366 5.7041C7.89348 5.7041 7.77734 5.82024 7.77734 5.96336C7.77734 6.10648 7.89348 6.22261 8.0366 6.22261C8.17972 6.22261 8.29586 6.10648 8.29586 5.96336Z" fill="#ECF0F1"/>
<path d="M6.73922 6.48191C6.73922 6.33879 6.62308 6.22266 6.47996 6.22266C6.33684 6.22266 6.2207 6.33879 6.2207 6.48191C6.2207 6.62503 6.33684 6.74117 6.47996 6.74117C6.62308 6.74117 6.73922 6.62503 6.73922 6.48191Z" fill="#ECF0F1"/>
<path d="M7.77633 6.48191C7.77633 6.33879 7.66016 6.22266 7.51707 6.22266C7.37398 6.22266 7.25781 6.33879 7.25781 6.48191C7.25781 6.62503 7.37395 6.74117 7.51707 6.74117C7.66019 6.74117 7.77633 6.62503 7.77633 6.48191Z" fill="#ECF0F1"/>
<path d="M6.22164 7.00047C6.22164 6.85735 6.1055 6.74121 5.96238 6.74121C5.81926 6.74121 5.70312 6.85735 5.70312 7.00047C5.70312 7.14359 5.81926 7.25972 5.96238 7.25972C6.1055 7.25975 6.22164 7.14359 6.22164 7.00047Z" fill="#ECF0F1"/>
<path d="M7.25875 7.00047C7.25875 6.85735 7.14261 6.74121 6.99949 6.74121C6.85637 6.74121 6.74023 6.85735 6.74023 7.00047C6.74023 7.14359 6.85637 7.25972 6.99949 7.25972C7.14258 7.25975 7.25875 7.14359 7.25875 7.00047Z" fill="#ECF0F1"/>
<path d="M8.29586 7.00047C8.29586 6.85735 8.17972 6.74121 8.0366 6.74121C7.89348 6.74121 7.77734 6.85735 7.77734 7.00047C7.77734 7.14359 7.89348 7.25972 8.0366 7.25972C8.17972 7.25972 8.29586 7.14359 8.29586 7.00047Z" fill="#ECF0F1"/>
<path d="M6.22164 8.03758C6.22164 7.89446 6.1055 7.77832 5.96238 7.77832C5.81926 7.77832 5.70312 7.89446 5.70312 8.03758C5.70312 8.1807 5.81926 8.29683 5.96238 8.29683C6.1055 8.29683 6.22164 8.18067 6.22164 8.03758Z" fill="#ECF0F1"/>
<path d="M7.25875 8.03758C7.25875 7.89446 7.14261 7.77832 6.99949 7.77832C6.85637 7.77832 6.74023 7.89446 6.74023 8.03758C6.74023 8.1807 6.85637 8.29683 6.99949 8.29683C7.14258 8.29683 7.25875 8.18067 7.25875 8.03758Z" fill="#ECF0F1"/>
<path d="M8.29586 8.03758C8.29586 7.89446 8.17972 7.77832 8.0366 7.77832C7.89348 7.77832 7.77734 7.89446 7.77734 8.03758C7.77734 8.1807 7.89348 8.29683 8.0366 8.29683C8.17972 8.29683 8.29586 8.18067 8.29586 8.03758Z" fill="#ECF0F1"/>
<path d="M6.73922 7.51902C6.73922 7.3759 6.62308 7.25977 6.47996 7.25977C6.33684 7.25977 6.2207 7.3759 6.2207 7.51902C6.2207 7.66214 6.33684 7.77828 6.47996 7.77828C6.62308 7.77828 6.73922 7.66212 6.73922 7.51902Z" fill="#ECF0F1"/>
<path d="M7.77633 7.51902C7.77633 7.3759 7.66016 7.25977 7.51707 7.25977C7.37398 7.25977 7.25781 7.3759 7.25781 7.51902C7.25781 7.66214 7.37395 7.77828 7.51707 7.77828C7.66019 7.77828 7.77633 7.66212 7.77633 7.51902Z" fill="#ECF0F1"/>
</g>
<defs>
<clipPath id="clip0_1813_595">
<rect width="14" height="14" fill="white"/>
</clipPath>
</defs>
</svg>
