<svg width="10" height="15" viewBox="0 0 10 15" fill="none" xmlns="http://www.w3.org/2000/svg">
<path d="M9.54517 1.87744H7.38817V2.78645V3.10961C7.38817 3.43245 7.26726 3.72377 7.03857 3.95231C6.80987 4.18098 6.51839 4.3019 6.19586 4.3019H3.80399C3.48148 4.3019 3.19013 4.18098 2.96143 3.95247C2.73259 3.72377 2.6117 3.43245 2.6117 3.10961V2.78645V1.87744H0.454672C0.331559 1.87744 0.224893 1.92238 0.135008 2.01227C0.0450975 2.10246 0 2.20897 0 2.33178V14.1495C0 14.2724 0.0449423 14.3791 0.135008 14.4689C0.224893 14.5589 0.331404 14.604 0.454672 14.604H3.49143C3.48037 14.5517 3.47356 14.4979 3.47356 14.4414V13.6948V12.3718C3.47356 12.1655 3.54874 11.9866 3.70003 11.8351C3.851 11.6846 4.02984 11.6088 4.23668 11.6088H5.76304C5.96954 11.6088 6.14838 11.6848 6.29968 11.8351C6.45064 11.9866 6.52631 12.1654 6.52631 12.3718V13.6948V14.4415C6.52631 14.498 6.51966 14.5518 6.50844 14.604H9.54533C9.66831 14.604 9.77498 14.5589 9.86499 14.469C9.9549 14.3789 10 14.2724 10 14.1495V2.33178C10 2.20882 9.9549 2.10231 9.86499 2.01227C9.7748 1.92238 9.66831 1.87744 9.54517 1.87744ZM8.77877 10.4619C8.72416 10.5166 8.65962 10.5438 8.58491 10.5438H8.0334C7.95869 10.5438 7.89394 10.5166 7.83936 10.4619C7.78477 10.4074 7.75754 10.3428 7.75754 10.2681V9.71659C7.75754 9.64204 7.78477 9.57734 7.83936 9.52275C7.89394 9.46832 7.95851 9.44073 8.0334 9.44073H8.58491C8.65962 9.44073 8.72416 9.4683 8.77877 9.52275C8.83336 9.5775 8.86075 9.64204 8.86075 9.71659V10.2681C8.86075 10.3428 8.83336 10.4076 8.77877 10.4619ZM8.86075 11.9226V12.4742C8.86075 12.549 8.83336 12.6137 8.77877 12.668C8.72416 12.7228 8.65962 12.7499 8.58491 12.7499H8.0334C7.95869 12.7499 7.89394 12.7228 7.83936 12.668C7.78477 12.6136 7.75754 12.549 7.75754 12.4742V11.9226C7.75754 11.8481 7.78477 11.7834 7.83936 11.7288C7.89394 11.6744 7.95851 11.647 8.0334 11.647H8.58491C8.65962 11.647 8.72416 11.6744 8.77877 11.7288C8.83336 11.7835 8.86075 11.8481 8.86075 11.9226ZM8.77877 8.25573C8.72416 8.31048 8.65962 8.33771 8.58491 8.33771H8.0334C7.95869 8.33771 7.89394 8.31048 7.83936 8.25573C7.78477 8.2013 7.75754 8.13673 7.75754 8.0619V7.51054C7.75754 7.43583 7.78477 7.37108 7.83936 7.31665C7.89394 7.26206 7.95851 7.2347 8.0334 7.2347H8.58491C8.65962 7.2347 8.72416 7.26209 8.77877 7.31665C8.83336 7.37124 8.86075 7.43583 8.86075 7.51054V8.0619C8.86075 8.13673 8.83336 8.20143 8.77877 8.25573ZM8.77877 6.04966C8.72416 6.10442 8.65962 6.13163 8.58491 6.13163H8.0334C7.95869 6.13163 7.89394 6.1044 7.83936 6.04966C7.78477 5.99522 7.75754 5.93065 7.75754 5.85579V5.30428C7.75754 5.22976 7.78477 5.16501 7.83936 5.11042C7.89394 5.05599 7.95851 5.0286 8.0334 5.0286H8.58491C8.65962 5.0286 8.72416 5.05599 8.77877 5.11042C8.83336 5.16519 8.86075 5.22976 8.86075 5.30428V5.85579C8.86075 5.93065 8.83336 5.99538 8.77877 6.04966ZM8.77877 3.84358C8.72416 3.89835 8.65962 3.92539 8.58491 3.92539H8.0334C7.95869 3.92539 7.89394 3.89835 7.83936 3.84358C7.78477 3.78914 7.75754 3.72458 7.75754 3.64972V3.09818C7.75754 3.02365 7.78477 2.95893 7.83936 2.90431C7.89394 2.84988 7.95851 2.8225 8.0334 2.8225H8.58491C8.65962 2.8225 8.72416 2.84988 8.77877 2.90431C8.83336 2.95906 8.86075 3.02363 8.86075 3.09818V3.64972C8.86075 3.72458 8.83336 3.7893 8.77877 3.84358ZM5.55146 5.30428C5.55146 5.22976 5.57869 5.16501 5.63328 5.11042C5.68787 5.05599 5.75243 5.0286 5.82714 5.0286H6.37865C6.4532 5.0286 6.51777 5.05599 6.57252 5.11042C6.6271 5.16519 6.65433 5.22976 6.65433 5.30428V5.85579C6.65433 5.93065 6.6271 5.99538 6.57252 6.04966C6.51777 6.10442 6.4532 6.13163 6.37865 6.13163H5.82714C5.75243 6.13163 5.68787 6.1044 5.63328 6.04966C5.57869 5.99522 5.55146 5.93065 5.55146 5.85579V5.30428ZM5.55146 7.51051C5.55146 7.43581 5.57869 7.37106 5.63328 7.31663C5.68787 7.26204 5.75243 7.23468 5.82714 7.23468H6.37865C6.4532 7.23468 6.51777 7.26206 6.57252 7.31663C6.6271 7.37121 6.65433 7.43581 6.65433 7.51051V8.06187C6.65433 8.13673 6.6271 8.2014 6.57252 8.25571C6.51777 8.31045 6.4532 8.33768 6.37865 8.33768H5.82714C5.75243 8.33768 5.68787 8.31045 5.63328 8.25571C5.57869 8.20127 5.55146 8.13671 5.55146 8.06187V7.51051ZM2.16054 10.4619C2.1058 10.5166 2.04123 10.5438 1.96652 10.5438H1.41501C1.3403 10.5438 1.27558 10.5166 1.22115 10.4619C1.16638 10.4074 1.13918 10.3428 1.13918 10.2681V9.71659C1.13918 9.64204 1.16641 9.57734 1.22115 9.52275C1.27558 9.46832 1.3403 9.44073 1.41501 9.44073H1.96652C2.04123 9.44073 2.1058 9.4683 2.16054 9.52275C2.21497 9.5775 2.24236 9.64204 2.24236 9.71659V10.2681C2.24236 10.3428 2.21497 10.4076 2.16054 10.4619ZM2.24236 11.9226V12.4742C2.24236 12.549 2.21497 12.6137 2.16054 12.668C2.1058 12.7228 2.04123 12.7499 1.96652 12.7499H1.41501C1.3403 12.7499 1.27558 12.7228 1.22115 12.668C1.16638 12.6136 1.13918 12.549 1.13918 12.4742V11.9226C1.13918 11.8481 1.16641 11.7834 1.22115 11.7288C1.27558 11.6744 1.3403 11.647 1.41501 11.647H1.96652C2.04123 11.647 2.1058 11.6744 2.16054 11.7288C2.21497 11.7835 2.24236 11.8481 2.24236 11.9226ZM2.16054 8.25573C2.1058 8.31048 2.04123 8.33771 1.96652 8.33771H1.41501C1.3403 8.33771 1.27558 8.31048 1.22115 8.25573C1.16638 8.2013 1.13918 8.13673 1.13918 8.0619V7.51054C1.13918 7.43583 1.16641 7.37108 1.22115 7.31665C1.27558 7.26206 1.3403 7.2347 1.41501 7.2347H1.96652C2.04123 7.2347 2.1058 7.26209 2.16054 7.31665C2.21497 7.37124 2.24236 7.43583 2.24236 7.51054V8.0619C2.24236 8.13673 2.21497 8.20143 2.16054 8.25573ZM2.16054 6.04966C2.1058 6.10442 2.04123 6.13163 1.96652 6.13163H1.41501C1.3403 6.13163 1.27558 6.1044 1.22115 6.04966C1.16638 5.99522 1.13918 5.93065 1.13918 5.85579V5.30428C1.13918 5.22976 1.16641 5.16501 1.22115 5.11042C1.27558 5.05599 1.3403 5.0286 1.41501 5.0286H1.96652C2.04123 5.0286 2.1058 5.05599 2.16054 5.11042C2.21497 5.16519 2.24236 5.22976 2.24236 5.30428V5.85579C2.24236 5.93065 2.21497 5.99538 2.16054 6.04966ZM2.16054 3.84358C2.1058 3.89835 2.04123 3.92539 1.96652 3.92539H1.41501C1.3403 3.92539 1.27558 3.89835 1.22115 3.84358C1.16638 3.78914 1.13918 3.72458 1.13918 3.64972V3.09818C1.13918 3.02365 1.16641 2.95893 1.22115 2.90431C1.27558 2.84988 1.3403 2.8225 1.41501 2.8225H1.96652C2.04123 2.8225 2.1058 2.84988 2.16054 2.90431C2.21497 2.95906 2.24236 3.02363 2.24236 3.09818V3.64972C2.24236 3.72458 2.21497 3.7893 2.16054 3.84358ZM4.44844 10.2681C4.44844 10.3428 4.42105 10.4076 4.36662 10.4619C4.31185 10.5165 4.24728 10.5438 4.1726 10.5438H3.62106C3.54636 10.5438 3.48181 10.5165 3.4272 10.4619C3.37259 10.4074 3.34538 10.3428 3.34538 10.2681V9.71659C3.34538 9.64204 3.37259 9.57734 3.4272 9.5227C3.48179 9.4683 3.54636 9.44073 3.62106 9.44073H4.1726C4.24713 9.44073 4.31185 9.4683 4.36662 9.5227C4.42105 9.5775 4.44844 9.64204 4.44844 9.71659V10.2681ZM4.44844 8.0619C4.44844 8.13676 4.42105 8.20143 4.36662 8.25573C4.31185 8.31048 4.24728 8.33771 4.1726 8.33771H3.62106C3.54636 8.33771 3.48181 8.31048 3.4272 8.25573C3.37259 8.2013 3.34538 8.13673 3.34538 8.0619V7.51054C3.34538 7.43583 3.37259 7.37108 3.4272 7.31665C3.48179 7.26206 3.54636 7.2347 3.62106 7.2347H4.1726C4.24713 7.2347 4.31185 7.26209 4.36662 7.31665C4.42105 7.37124 4.44844 7.43583 4.44844 7.51054V8.0619ZM4.44844 5.85579C4.44844 5.93065 4.42105 5.99538 4.36662 6.04966C4.31185 6.10442 4.24728 6.13163 4.1726 6.13163H3.62106C3.54636 6.13163 3.48181 6.1044 3.4272 6.04966C3.37259 5.99522 3.34538 5.93065 3.34538 5.85579V5.30428C3.34538 5.22976 3.37259 5.16501 3.4272 5.11042C3.48179 5.05599 3.54636 5.0286 3.62106 5.0286H4.1726C4.24713 5.0286 4.31185 5.05599 4.36662 5.11042C4.42105 5.16519 4.44844 5.22976 4.44844 5.30428V5.85579ZM6.37881 10.5438H5.8273C5.75259 10.5438 5.68802 10.5166 5.63343 10.4619C5.57885 10.4074 5.55162 10.3428 5.55162 10.2681V9.71659C5.55162 9.64204 5.57885 9.57734 5.63343 9.52275C5.68802 9.46832 5.75259 9.44073 5.8273 9.44073H6.37881C6.45336 9.44073 6.51793 9.4683 6.57267 9.52275C6.62726 9.5775 6.65449 9.64204 6.65449 9.71659V10.2681C6.65449 10.3428 6.62726 10.4076 6.57267 10.4619C6.51793 10.5165 6.45336 10.5438 6.37881 10.5438Z" fill="#9FA8C4"/>
<path d="M3.34564 3.65742C3.47604 3.76835 3.62781 3.82708 3.80362 3.82708H4.38014H5.61926H6.19562C6.37128 3.82708 6.52304 3.76835 6.6536 3.65742C6.66992 3.64364 6.68701 3.6321 6.70266 3.61659C6.84304 3.47623 6.9133 3.30722 6.9133 3.10955V2.7864V1.87739V0.717681C6.9133 0.520017 6.8432 0.351005 6.70266 0.210644C6.56232 0.0702579 6.39328 0 6.19565 0H3.80362C3.60596 0 3.43694 0.0702579 3.29658 0.210644C3.15622 0.351005 3.08594 0.520017 3.08594 0.717681V1.87736V2.78637V3.10953C3.08594 3.30719 3.15604 3.4762 3.29658 3.61656C3.31223 3.6321 3.32947 3.64351 3.34564 3.65742ZM3.72384 1.87739V0.797299C3.72384 0.754245 3.73967 0.71675 3.77117 0.685254C3.80266 0.653758 3.84016 0.637933 3.88321 0.637933H4.2021C4.24531 0.637933 4.28265 0.653758 4.31415 0.685254C4.34564 0.716905 4.36147 0.754245 4.36147 0.797299V1.5946H5.63715V0.797299C5.63715 0.754245 5.65298 0.71675 5.68447 0.685254C5.71597 0.653758 5.75346 0.637933 5.79652 0.637933H6.11541C6.15862 0.637933 6.19596 0.653758 6.22745 0.685254C6.25895 0.716905 6.27475 0.754245 6.27475 0.797299V1.87739V2.7864V2.8225V3.0298C6.27475 3.07301 6.25895 3.11035 6.22745 3.14185C6.19577 3.1735 6.15843 3.18917 6.11541 3.18917H5.79652C5.75331 3.18917 5.71597 3.1735 5.68447 3.14185C5.65282 3.11035 5.63715 3.07301 5.63715 3.0298V2.90051V2.7864V2.23251H4.36178V2.7864V2.90051V3.0298C4.36178 3.07301 4.34595 3.11035 4.31446 3.14185C4.2828 3.1735 4.24546 3.18917 4.20241 3.18917H3.88352C3.84031 3.18917 3.80297 3.1735 3.77148 3.14185C3.73982 3.11035 3.72415 3.07301 3.72415 3.0298V2.8225V2.7864V1.87739H3.72384Z" fill="#9FA8C4"/>
</svg>
