<svg width="14" height="37" viewBox="0 0 14 37" fill="none" xmlns="http://www.w3.org/2000/svg">
<path d="M7.00175 27.0925C9.49677 27.0925 11.5194 29.1152 11.5194 31.6102C11.5194 34.1052 9.49677 36.1279 7.00175 36.1279C4.50674 36.1279 2.48403 34.1052 2.48403 31.6102C2.48403 29.1152 4.50674 27.0925 7.00175 27.0925ZM6.99995 0C10.8659 0 14 3.134 14 7C14 12.118 12.2118 18.8383 11.2266 22.1688C10.6674 24.0588 8.9267 25.2905 7.00284 25.2905C5.07481 25.2905 3.33222 24.0536 2.77497 22.1601L2.37315 20.7562C1.37104 17.1543 0 11.4313 0 7C0 3.134 3.134 0 6.99995 0Z" fill="#FF0000"/>
</svg>
