<svg width="10" height="12" viewBox="0 0 10 12" fill="none" xmlns="http://www.w3.org/2000/svg">
<path fill-rule="evenodd" clip-rule="evenodd" d="M5.18987 10.6623C5.10447 10.725 5.02487 10.7819 4.95213 10.8329C4.87453 10.7814 4.78847 10.7222 4.69513 10.6555C4.25507 10.3406 3.68433 9.8784 3.12225 9.30193C1.96935 8.11947 1 6.61007 1 5C1 2.79086 2.79086 1 5 1C7.20913 1 9 2.79086 9 5C9 6.5928 7.98793 8.09787 6.79287 9.29287C6.21307 9.87274 5.6296 10.3399 5.18987 10.6623ZM10 5C10 9 5 12 5 12C4.75 12 0 9 0 5C0 2.23857 2.23857 0 5 0C7.7614 0 10 2.23857 10 5ZM6 5C6 5.55227 5.55227 6 5 6C4.44773 6 4 5.55227 4 5C4 4.44771 4.44773 4 5 4C5.55227 4 6 4.44771 6 5ZM7 5C7 6.1046 6.1046 7 5 7C3.8954 7 3 6.1046 3 5C3 3.89543 3.8954 3 5 3C6.1046 3 7 3.89543 7 5Z" fill="#9DA6B1"/>
</svg>
