<svg width="12" height="13" viewBox="0 0 12 13" fill="none" xmlns="http://www.w3.org/2000/svg">
<path d="M1.82657 7.92018C1.43881 7.94518 1.12612 8.25539 1.0961 8.64063C1.06109 9.09842 1.42131 9.48116 1.8716 9.48367C1.87411 9.48367 1.87411 9.48367 1.87659 9.48367C2.30935 9.48367 2.66207 9.13594 2.66207 8.70569C2.66458 8.25539 2.28684 7.89017 1.82657 7.92018ZM1.8841 9.00335C1.88159 9.00335 1.88159 9.00335 1.8791 9.00335C1.709 9.00335 1.5689 8.86575 1.56641 8.69565C1.5639 8.52305 1.7015 8.38046 1.87411 8.37795C2.04671 8.37544 2.1893 8.51303 2.19181 8.68564C2.1943 8.85827 2.0567 9.00086 1.8841 9.00335Z" fill="#184D87"/>
<path d="M10.9043 1.87608C10.9068 1.4258 10.529 1.06058 10.0687 1.09059C9.681 1.11559 9.36831 1.4258 9.33829 1.81104C9.30328 2.26883 9.6635 2.65157 10.1138 2.65408C10.1163 2.65408 10.1163 2.65408 10.1188 2.65408C10.5515 2.65406 10.9018 2.30635 10.9043 1.87608ZM10.1263 2.17627C10.1238 2.17627 10.1238 2.17627 10.1213 2.17627C9.94868 2.17627 9.81109 2.03867 9.8086 1.86857C9.80609 1.69597 9.94369 1.55338 10.1163 1.55087C10.2889 1.54836 10.4315 1.68595 10.434 1.85856C10.4365 2.03117 10.2989 2.17376 10.1263 2.17627Z" fill="#184D87"/>
<path d="M10.1138 5.18075H10.1163C10.1188 5.18075 10.1188 5.18075 10.1213 5.18075C10.1839 5.18075 10.2439 5.15572 10.2864 5.1132C10.3565 5.04315 12 3.39714 12 1.86618C12 0.838016 11.157 0 10.1213 0C9.08567 0 8.24264 0.838016 8.24264 1.86616C8.24264 2.99437 9.13569 4.18511 9.63351 4.76046C9.33583 4.83051 9.1307 4.97559 9.07817 5.17573C9.04064 5.31581 9.08068 5.50844 9.30331 5.62601C9.60849 5.78612 9.67104 5.89869 9.66853 5.92369C9.65352 6.14632 8.62287 6.51405 8.07003 6.71168C7.04939 7.0769 6.17134 7.38961 6.1238 7.92995C6.08879 8.33771 6.55408 8.59787 6.70666 8.68293C6.94681 8.81801 7.22448 9.02315 7.18696 9.24078C7.04939 10.0563 4.03 10.9944 2.54658 11.3771C3.05439 10.7517 3.76234 9.69857 3.76234 8.69294C3.76234 7.6648 2.9193 6.82678 1.88117 6.82678C0.843011 6.82678 0 7.66731 0 8.69545C0 10.1163 1.41839 11.6373 1.67606 11.9025C1.71358 11.9625 1.77362 12.0025 1.84367 12.01C1.84618 12.01 1.85117 12.01 1.85368 12.01C1.85868 12.01 1.86869 12.01 1.8762 12.0075C1.87871 12.0075 1.87871 12.0075 1.88119 12.0075C1.8837 12.0075 1.8887 12.005 1.89121 12.005C2.44906 11.9475 7.18201 10.7843 7.62479 9.4284C7.72235 9.12821 7.68232 8.68544 6.93935 8.26768C6.59163 8.07256 6.59665 7.96749 6.59665 7.96749C6.61665 7.72985 7.66731 7.35462 8.23016 7.15199C9.27582 6.77927 10.1013 6.48408 10.1389 5.95624C10.1639 5.61353 9.82366 5.37587 9.61353 5.25579C9.70354 5.21576 9.86365 5.17073 10.1138 5.18075ZM1.88117 11.4271C1.47591 10.9844 0.472795 9.76609 0.472795 8.69543C0.472795 7.92744 1.1057 7.29955 1.88117 7.29955C2.65664 7.29955 3.28954 7.92495 3.28954 8.69292C3.28954 9.7636 2.28642 10.9819 1.88117 11.4271ZM8.71292 1.86616C8.71292 1.09817 9.34332 0.472795 10.1213 0.472795C10.8968 0.472795 11.5297 1.09819 11.5297 1.86616C11.5297 2.93682 10.5265 4.15509 10.1213 4.60037C9.71607 4.1526 8.71292 2.93684 8.71292 1.86616Z" fill="#184D87"/>
</svg>
