<svg width="14" height="14" viewBox="0 0 14 14" fill="none" xmlns="http://www.w3.org/2000/svg">
<path d="M11.9129 0.665051C11.9129 0.29833 11.6146 0 11.2477 0H2.75099C2.38427 0 2.08594 0.29833 2.08594 0.665051V12.1111C2.08594 12.478 2.38433 12.7763 2.75099 12.7763H11.2478C11.6146 12.7763 11.913 12.478 11.913 12.1111L11.9129 0.665051ZM11.0813 11.9449H2.91758V0.831647H11.0813V11.9449Z" fill="black"/>
<path d="M11.412 13.1685H2.54079C2.31097 13.1685 2.125 13.3547 2.125 13.5843C2.125 13.8139 2.31097 14.0002 2.54079 14.0002H11.412C11.6416 14.0002 11.8278 13.8139 11.8278 13.5843C11.8278 13.3547 11.6416 13.1685 11.412 13.1685Z" fill="black"/>
<path d="M4.20486 9.82482C4.43468 9.82482 4.62065 9.63856 4.62065 9.40897V3.89876C4.62065 3.66917 4.43468 3.48291 4.20486 3.48291C3.97503 3.48291 3.78906 3.66917 3.78906 3.89876V9.40833C3.789 9.63856 3.97503 9.82482 4.20486 9.82482Z" fill="black"/>
</svg>
