<?xml version="1.0" encoding="UTF-8"?>
<svg version="1.1" xmlns="http://www.w3.org/2000/svg" width="320" height="130">
<path d="M0 0 C0.66 0.99 1.32 1.98 2 3 C4.56282742 3.72965366 4.56282742 3.72965366 7 4 C7 4.66 7 5.32 7 6 C7.63164063 5.96519531 8.26328125 5.93039063 8.9140625 5.89453125 C22.13036785 5.49461423 36.12682946 8.21854153 46.39453125 17.0625 C47.85410912 18.45306105 49.31124296 19.84619306 50.765625 21.2421875 C53.88866463 23.69912427 56.99044049 24.5202041 60.8359375 25.33203125 C63.3211945 26.09914126 64.41517374 26.9572207 66 29 C65.78953863 32.36738191 64.3610324 33.75382864 62 36 C62.52400391 37.42892578 62.52400391 37.42892578 63.05859375 38.88671875 C63.51841666 40.15357779 63.97804162 41.4205087 64.4375 42.6875 C64.66759766 43.31333984 64.89769531 43.93917969 65.13476562 44.58398438 C67.45323428 51.00177442 68.11441759 56.24936215 68 63 C68.99 63 69.98 63 71 63 C71 62.01 71 61.02 71 60 C72.65 60 74.3 60 76 60 C76.33 60.99 76.66 61.98 77 63 C77.66 63.33 78.32 63.66 79 64 C76.03 63.505 76.03 63.505 73 63 C73 63.66 73 64.32 73 65 C71.35 64.67 69.7 64.34 68 64 C68.04640625 64.83660156 68.0928125 65.67320313 68.140625 66.53515625 C68.67474216 83.76043451 63.30485739 99.53744126 52.125 112.75 C44.79806232 120.50793401 34.6456281 127.32875558 23.72021484 128.17700195 C1.19540728 128.72708239 -20.61129117 126.54549191 -37.7109375 110.3828125 C-47.24410685 100.26894248 -49.39539225 86.85048618 -49.375 73.5 C-49.37411377 72.45207275 -49.37322754 71.40414551 -49.37231445 70.32446289 C-49.21608005 59.94399558 -47.74430368 49.963583 -43.375 40.46875 C-41.88554708 36.71126649 -41.68832303 34.07755547 -41.8125 30.0625 C-41.83957031 28.91910156 -41.86664063 27.77570312 -41.89453125 26.59765625 C-41.94673828 25.31181641 -41.94673828 25.31181641 -42 24 C-42.99 24 -43.98 24 -45 24 C-45.33 22.68 -45.66 21.36 -46 20 C-46.66 20 -47.32 20 -48 20 C-48.33 21.32 -48.66 22.64 -49 24 C-49.66 24 -50.32 24 -51 24 C-51 24.99 -51 25.98 -51 27 C-53.31 27 -55.62 27 -58 27 C-58 26.34 -58 25.68 -58 25 C-56.35 25 -54.7 25 -53 25 C-53 23.68 -53 22.36 -53 21 C-52.34 21 -51.68 21 -51 21 C-50.67 19.68 -50.34 18.36 -50 17 C-46.1538875 16.78022214 -43.44162553 17.23267878 -40 19 C-39.34 19.99 -38.68 20.98 -38 22 C-37.01 21.34 -36.02 20.68 -35 20 C-33.948125 19.9175 -32.89625 19.835 -31.8125 19.75 C-28.06020853 19.0118443 -27.11739778 18.54066652 -24.3125 16.25 C-17.00630382 10.35973331 -8.11400802 7.67090147 1 6 C0.34 5.67 -0.32 5.34 -1 5 C-1 4.01 -1 3.02 -1 2 C-1.61875 2.7734375 -1.61875 2.7734375 -2.25 3.5625 C-2.8275 4.036875 -3.405 4.51125 -4 5 C-6.1875 4.6875 -6.1875 4.6875 -8 4 C-8 4.99 -8 5.98 -8 7 C-10.64 6.67 -13.28 6.34 -16 6 C-16 5.67 -16 5.34 -16 5 C-14.02 5 -12.04 5 -10 5 C-9.731875 4.360625 -9.46375 3.72125 -9.1875 3.0625 C-7.13752811 -0.49797749 -3.78010355 -0.38770293 0 0 Z " fill="#F7CA90" transform="translate(75,1)"/>
<path d="M0 0 C0.66 0.99 1.32 1.98 2 3 C4.56282742 3.72965366 4.56282742 3.72965366 7 4 C7 4.66 7 5.32 7 6 C7.63164063 5.96519531 8.26328125 5.93039063 8.9140625 5.89453125 C25.26080328 5.39988924 39.37367264 10.21421114 51.453125 21.265625 C53 23 53 23 53 25 C52.28714844 25.09796875 51.57429688 25.1959375 50.83984375 25.296875 C44.68152277 26.25833561 40.19263839 27.53824107 35 31 C34.63648437 29.89591797 34.63648437 29.89591797 34.265625 28.76953125 C31.66961644 21.21115249 29.45094638 15.72547319 22 12 C15.43644439 9.03077246 8.56560733 9.61102466 1.5625 10.375 C-2.09138496 12.69209778 -2.66253833 15.63097696 -3.84765625 19.6875 C-5 22 -5 22 -7.5390625 23.203125 C-8.35117188 23.46609375 -9.16328125 23.7290625 -10 24 C-12.37638155 27.16850874 -12.24638913 30.13990359 -12 34 C-11.67 34.99 -11.34 35.98 -11 37 C-10.01 37.33 -9.02 37.66 -8 38 C-8.66 42.95 -9.32 47.9 -10 53 C-7.69 53 -5.38 53 -3 53 C-0.30860785 54.79426143 1.72234173 56.72234173 4 59 C3.40832031 59.3403125 2.81664062 59.680625 2.20703125 60.03125 C-6.3914057 65.30533204 -9.81247787 71.05683268 -12.44921875 80.67578125 C-13.10229583 83.43167389 -13.54507451 86.20545773 -14 89 C-15.6 93.8 -15.6 93.8 -18 95 C-18.33 102.26 -18.66 109.52 -19 117 C-20.98 117.99 -22.96 118.98 -25 120 C-36.98521577 112.28316087 -44.57952525 103.96510094 -48.11328125 89.87109375 C-49.25483087 84.4228145 -49.38348041 79.05198975 -49.375 73.5 C-49.37411377 72.45207275 -49.37322754 71.40414551 -49.37231445 70.32446289 C-49.21608005 59.94399558 -47.74430368 49.963583 -43.375 40.46875 C-41.88554708 36.71126649 -41.68832303 34.07755547 -41.8125 30.0625 C-41.83957031 28.91910156 -41.86664063 27.77570312 -41.89453125 26.59765625 C-41.94673828 25.31181641 -41.94673828 25.31181641 -42 24 C-42.99 24 -43.98 24 -45 24 C-45.33 22.68 -45.66 21.36 -46 20 C-46.66 20 -47.32 20 -48 20 C-48.33 21.32 -48.66 22.64 -49 24 C-49.66 24 -50.32 24 -51 24 C-51 24.99 -51 25.98 -51 27 C-53.31 27 -55.62 27 -58 27 C-58 26.34 -58 25.68 -58 25 C-56.35 25 -54.7 25 -53 25 C-53 23.68 -53 22.36 -53 21 C-52.34 21 -51.68 21 -51 21 C-50.67 19.68 -50.34 18.36 -50 17 C-46.1538875 16.78022214 -43.44162553 17.23267878 -40 19 C-39.34 19.99 -38.68 20.98 -38 22 C-37.01 21.34 -36.02 20.68 -35 20 C-33.948125 19.9175 -32.89625 19.835 -31.8125 19.75 C-28.06020853 19.0118443 -27.11739778 18.54066652 -24.3125 16.25 C-17.00630382 10.35973331 -8.11400802 7.67090147 1 6 C0.34 5.67 -0.32 5.34 -1 5 C-1 4.01 -1 3.02 -1 2 C-1.61875 2.7734375 -1.61875 2.7734375 -2.25 3.5625 C-2.8275 4.036875 -3.405 4.51125 -4 5 C-6.1875 4.6875 -6.1875 4.6875 -8 4 C-8 4.99 -8 5.98 -8 7 C-10.64 6.67 -13.28 6.34 -16 6 C-16 5.67 -16 5.34 -16 5 C-14.02 5 -12.04 5 -10 5 C-9.731875 4.360625 -9.46375 3.72125 -9.1875 3.0625 C-7.13752811 -0.49797749 -3.78010355 -0.38770293 0 0 Z " fill="#CFEBF8" transform="translate(75,1)"/>
<path d="M0 0 C3.3203125 0.57421875 3.3203125 0.57421875 7 2 C8.7421875 5.08203125 8.7421875 5.08203125 9.875 8.8125 C10.45894531 10.64748047 10.45894531 10.64748047 11.0546875 12.51953125 C12.61204562 18.2534407 13.10021453 23.08734257 13 29 C13.99 29 14.98 29 16 29 C16 28.01 16 27.02 16 26 C17.65 26 19.3 26 21 26 C21.495 27.485 21.495 27.485 22 29 C22.66 29.33 23.32 29.66 24 30 C22.02 29.67 20.04 29.34 18 29 C18 29.66 18 30.32 18 31 C16.35 30.67 14.7 30.34 13 30 C13.04640625 30.83660156 13.0928125 31.67320313 13.140625 32.53515625 C13.70837889 50.84521924 7.56366762 67.55232165 -5 81 C-6.485 81.99 -6.485 81.99 -8 83 C-11.51380649 82.03716169 -14.6561959 80.47648493 -18 79 C-18 72.73 -18 66.46 -18 60 C-18.99 59.67 -19.98 59.34 -21 59 C-22.1324119 55.86921415 -22.84649315 52.86752496 -23.42578125 49.59375 C-24.46650905 43.72947507 -26.10205462 39.21630168 -29 34 C-28.6390625 34.79664063 -28.278125 35.59328125 -27.90625 36.4140625 C-27.21015625 38.00347656 -27.21015625 38.00347656 -26.5 39.625 C-26.0359375 40.66914062 -25.571875 41.71328125 -25.09375 42.7890625 C-23.97232602 46.08124291 -23.792862 48.55115223 -24 52 C-25.8671875 51.83984375 -25.8671875 51.83984375 -28 51 C-29.1953125 48.56640625 -29.1953125 48.56640625 -30.125 45.5625 C-31.36551553 41.36849961 -31.36551553 41.36849961 -34 38 C-34.26991906 35.31160615 -34.08737357 32.70858064 -34 30 C-33.34 30.33 -32.68 30.66 -32 31 C-31.67386719 30.26394531 -31.34773438 29.52789062 -31.01171875 28.76953125 C-30.57472656 27.79371094 -30.13773437 26.81789063 -29.6875 25.8125 C-29.04361328 24.36810547 -29.04361328 24.36810547 -28.38671875 22.89453125 C-27.05652902 20.11799438 -25.78564108 17.51091433 -24 15 C-23.01 15 -22.02 15 -21 15 C-20.34 16.98 -19.68 18.96 -19 21 C-17.35 21.33 -15.7 21.66 -14 22 C-14.103125 22.721875 -14.20625 23.44375 -14.3125 24.1875 C-14.22397685 27.21792342 -14.22397685 27.21792342 -11.8125 29.8125 C-9.21792342 32.22397685 -9.21792342 32.22397685 -6.1875 32.3125 C-5.1046875 32.1578125 -5.1046875 32.1578125 -4 32 C-4 33.98 -4 35.96 -4 38 C-1.69 39.32 0.62 40.64 3 42 C5.28443672 33.94829679 4.71526889 26.55946819 0.6328125 19.234375 C-2.63363863 14.7644945 -6.76766307 11.74411231 -12 10 C-12 8.35 -12 6.7 -12 5 C-11.13375 5.20625 -10.2675 5.4125 -9.375 5.625 C-5.63571398 6.04047622 -3.45057859 5.39666276 0 4 C0 2.68 0 1.36 0 0 Z " fill="#CEEBF8" transform="translate(130,35)"/>
<path d="M0 0 C3.4372046 3.0120577 4.83332096 5.53057255 6.1875 9.875 C6.51105469 10.88304688 6.83460937 11.89109375 7.16796875 12.9296875 C7.98540401 15.94613876 8.53691258 18.91129427 9 22 C9.36856864 24.23167185 9.36856864 24.23167185 10 26 C10.66 26.33 11.32 26.66 12 27 C13.29471721 30.45804218 13.13324554 33.97222395 13.125 37.625 C13.12886719 39.34589844 13.12886719 39.34589844 13.1328125 41.1015625 C13 44 13 44 12 46 C15.3 46.99 18.6 47.98 22 49 C19.01169422 53.30667597 16.28196525 55.16611606 11.5 57.25 C10.3759375 57.75015625 9.251875 58.2503125 8.09375 58.765625 C-7.30281278 64.90869803 -27.96394835 61.4757177 -43.109375 55.84375 C-45.10893304 54.97437694 -47.06436084 54.00366475 -49 53 C-47.6875 51.5 -47.6875 51.5 -46 50 C-45.01 50 -44.02 50 -43 50 C-43.00523682 49.36908447 -43.01047363 48.73816895 -43.01586914 48.08813477 C-43.03657826 45.24626653 -43.04964066 42.40441412 -43.0625 39.5625 C-43.07087891 38.56927734 -43.07925781 37.57605469 -43.08789062 36.55273438 C-43.09111328 35.60849609 -43.09433594 34.66425781 -43.09765625 33.69140625 C-43.10289307 32.81685791 -43.10812988 31.94230957 -43.11352539 31.04125977 C-43 29 -43 29 -42 28 C-39.66702567 27.95907063 -37.33294775 27.95758277 -35 28 C-33.82573736 30.34852528 -33.88491827 31.73774065 -33.90234375 34.3515625 C-33.90556641 35.20234375 -33.90878906 36.053125 -33.91210938 36.9296875 C-33.92048828 37.81914063 -33.92886719 38.70859375 -33.9375 39.625 C-33.94201172 40.5221875 -33.94652344 41.419375 -33.95117188 42.34375 C-33.96297409 44.56256648 -33.97943845 46.78125018 -34 49 C-33.443125 48.34 -32.88625 47.68 -32.3125 47 C-30 45 -30 45 -27.25 44.75 C-26.5075 44.8325 -25.765 44.915 -25 45 C-25.144375 44.38253906 -25.28875 43.76507813 -25.4375 43.12890625 C-26.7197599 37.27859545 -27.19308096 31.98550963 -27 26 C-23.7 26.66 -20.4 27.32 -17 28 C-16.67 26.35 -16.34 24.7 -16 23 C-15.62230469 23.50144531 -15.24460938 24.00289062 -14.85546875 24.51953125 C-13.04368768 26.26981182 -13.04368768 26.26981182 -10.30078125 26.07421875 C-9.31464844 25.94660156 -8.32851562 25.81898437 -7.3125 25.6875 C-6.31863281 25.56761719 -5.32476562 25.44773437 -4.30078125 25.32421875 C-3.54152344 25.21722656 -2.78226563 25.11023438 -2 25 C-2.495 23.4840625 -2.495 23.4840625 -3 21.9375 C-4.05617882 18.21824173 -4.29829077 14.87778006 -4 11 C-3.34 10.01 -2.68 9.02 -2 8 C0.66313628 10.05787803 1.07337849 11.26599702 2 14.625 C2.495 16.295625 2.495 16.295625 3 18 C3.99 18.33 4.98 18.66 6 19 C5.57312017 17.10174715 5.13300518 15.20646817 4.6875 13.3125 C4.44386719 12.25675781 4.20023438 11.20101562 3.94921875 10.11328125 C3.00636703 7.02088282 1.70399287 4.72543397 0 2 C0 1.34 0 0.68 0 0 Z " fill="#FCD36F" transform="translate(100,68)"/>
<path d="M0 0 C4.06180167 4.28745732 6.39503078 9.81009233 8.25 15.375 C9.013125 14.75625 9.77625 14.1375 10.5625 13.5 C16.05937149 9.84841398 23.13567664 8.99609421 29.625 9.5 C33.48588808 10.4319385 35.4220802 11.63545269 38.25 14.375 C37.93611748 17.40919767 37.39199636 18.2566697 35 20.25 C32.25 21.375 32.25 21.375 29.4375 20.5625 C28.3546875 19.9746875 28.3546875 19.9746875 27.25 19.375 C27.25 20.695 27.25 22.015 27.25 23.375 C24.625 25 24.625 25 21.25 26.375 C17.875 25.5625 17.875 25.5625 15.25 24.375 C14.92 25.695 14.59 27.015 14.25 28.375 C13.26 28.045 12.27 27.715 11.25 27.375 C11.58 26.055 11.91 24.735 12.25 23.375 C11.59 23.375 10.93 23.375 10.25 23.375 C10.25 24.695 10.25 26.015 10.25 27.375 C3.5 28.375 3.5 28.375 1.25 28.375 C0.59 29.695 -0.07 31.015 -0.75 32.375 C-2.10439668 29.66620665 -1.81501451 27.36566732 -1.75 24.375 C-2.41 24.045 -3.07 23.715 -3.75 23.375 C-4.245 24.86 -4.245 24.86 -4.75 26.375 C-5.08 26.045 -5.41 25.715 -5.75 25.375 C-6.28625 26.055625 -6.8225 26.73625 -7.375 27.4375 C-9.75 29.375 -9.75 29.375 -13 29.125 C-13.9075 28.8775 -14.815 28.63 -15.75 28.375 C-15.75 27.715 -15.75 27.055 -15.75 26.375 C-13.77 26.375 -11.79 26.375 -9.75 26.375 C-9.42 24.725 -9.09 23.075 -8.75 21.375 C-10.4 20.715 -12.05 20.055 -13.75 19.375 C-13.75 19.045 -13.75 18.715 -13.75 18.375 C-11.77 18.375 -9.79 18.375 -7.75 18.375 C-7.75 17.715 -7.75 17.055 -7.75 16.375 C-9.4122869 14.58447376 -9.4122869 14.58447376 -11.75 13.375 C-14.20062486 13.443573 -14.20062486 13.443573 -16.6875 14.1875 C-19.43863627 14.88910353 -21.59241401 15.38163279 -24.44140625 15.26171875 C-25.58416016 15.31779297 -25.58416016 15.31779297 -26.75 15.375 C-27.41 16.365 -28.07 17.355 -28.75 18.375 C-26.44 18.375 -24.13 18.375 -21.75 18.375 C-21.75 19.035 -21.75 19.695 -21.75 20.375 C-23.73 20.705 -25.71 21.035 -27.75 21.375 C-27.75 22.695 -27.75 24.015 -27.75 25.375 C-27.09 25.045 -26.43 24.715 -25.75 24.375 C-26.41 24.045 -27.07 23.715 -27.75 23.375 C-26.43 23.045 -25.11 22.715 -23.75 22.375 C-23.09 23.695 -22.43 25.015 -21.75 26.375 C-28.15 28.59038462 -28.15 28.59038462 -31.1875 27.5 C-31.703125 27.12875 -32.21875 26.7575 -32.75 26.375 C-32.75 25.385 -32.75 24.395 -32.75 23.375 C-33.74 23.705 -34.73 24.035 -35.75 24.375 C-40.56012658 20.28639241 -40.56012658 20.28639241 -41.375 16.375 C-40.32278935 11.3243889 -36.88247231 9.12998154 -32.75 6.375 C-31.73973785 4.02563203 -31.73973785 4.02563203 -30.9375 1.375 C-29.08990156 -3.40945267 -29.08990156 -3.40945267 -26.1875 -5.25 C-15.74707242 -6.38895574 -9.04253276 -5.34331481 0 0 Z " fill="#8EB741" transform="translate(102.75,15.625)"/>
<path d="M0 0 C0.66 0.99 1.32 1.98 2 3 C4.56282742 3.72965366 4.56282742 3.72965366 7 4 C7 4.66 7 5.32 7 6 C7.63164063 5.96519531 8.26328125 5.93039063 8.9140625 5.89453125 C25.26080328 5.39988924 39.37367264 10.21421114 51.453125 21.265625 C53 23 53 23 53 25 C52.28714844 25.09796875 51.57429688 25.1959375 50.83984375 25.296875 C44.68152277 26.25833561 40.19263839 27.53824107 35 31 C34.63648437 29.89591797 34.63648437 29.89591797 34.265625 28.76953125 C31.66961644 21.21115249 29.45094638 15.72547319 22 12 C15.43644439 9.03077246 8.56560733 9.61102466 1.5625 10.375 C-2.62469918 13.03029704 -3.56154031 17.41385206 -5 22 C-5.66 22 -6.32 22 -7 22 C-7 21.34 -7 20.68 -7 20 C-10.52994613 18.82335129 -13.29455413 18.80149397 -17 19 C-17.99 19.66 -18.98 20.32 -20 21 C-20 20.34 -20 19.68 -20 19 C-20.99 19.495 -20.99 19.495 -22 20 C-21.7525 21.2065625 -21.7525 21.2065625 -21.5 22.4375 C-19.95099338 33.47417219 -19.95099338 33.47417219 -23.0625 38 C-26.61794591 40.42072913 -28.69626051 41.0755042 -33 41 C-36.74669241 39.02061533 -38.64677369 37.52983947 -41 34 C-41.4140625 31.51953125 -41.4140625 31.51953125 -41.625 28.8125 C-41.69976562 27.91144531 -41.77453125 27.01039062 -41.8515625 26.08203125 C-41.90054688 25.39496094 -41.94953125 24.70789063 -42 24 C-42.99 24 -43.98 24 -45 24 C-45.33 22.68 -45.66 21.36 -46 20 C-46.66 20 -47.32 20 -48 20 C-48.33 21.32 -48.66 22.64 -49 24 C-49.66 24 -50.32 24 -51 24 C-51 24.99 -51 25.98 -51 27 C-53.31 27 -55.62 27 -58 27 C-58 26.34 -58 25.68 -58 25 C-56.35 25 -54.7 25 -53 25 C-53 23.68 -53 22.36 -53 21 C-52.34 21 -51.68 21 -51 21 C-50.67 19.68 -50.34 18.36 -50 17 C-46.1538875 16.78022214 -43.44162553 17.23267878 -40 19 C-39.34 19.99 -38.68 20.98 -38 22 C-37.01 21.34 -36.02 20.68 -35 20 C-33.948125 19.9175 -32.89625 19.835 -31.8125 19.75 C-28.06020853 19.0118443 -27.11739778 18.54066652 -24.3125 16.25 C-17.00630382 10.35973331 -8.11400802 7.67090147 1 6 C0.34 5.67 -0.32 5.34 -1 5 C-1 4.01 -1 3.02 -1 2 C-1.61875 2.7734375 -1.61875 2.7734375 -2.25 3.5625 C-2.8275 4.036875 -3.405 4.51125 -4 5 C-6.1875 4.6875 -6.1875 4.6875 -8 4 C-8 4.99 -8 5.98 -8 7 C-10.64 6.67 -13.28 6.34 -16 6 C-16 5.67 -16 5.34 -16 5 C-14.02 5 -12.04 5 -10 5 C-9.731875 4.360625 -9.46375 3.72125 -9.1875 3.0625 C-7.13752811 -0.49797749 -3.78010355 -0.38770293 0 0 Z " fill="#CDEAF7" transform="translate(75,1)"/>
<path d="M0 0 C0.66 0 1.32 0 2 0 C1.99476318 0.73114014 1.98952637 1.46228027 1.98413086 2.21557617 C1.96329839 5.53954198 1.95031986 8.86349403 1.9375 12.1875 C1.92912109 13.33798828 1.92074219 14.48847656 1.91210938 15.67382812 C1.90888672 16.78564453 1.90566406 17.89746094 1.90234375 19.04296875 C1.89710693 20.06414795 1.89187012 21.08532715 1.88647461 22.13745117 C1.99480533 24.86901616 2.38293132 27.34169374 3 30 C-0.10217621 31.83832664 -2.39408679 32.47446226 -6 32 C-6.66 31.01 -7.32 30.02 -8 29 C-8.66 30.32 -9.32 31.64 -10 33 C-17.75 32.125 -17.75 32.125 -20 31 C-19.855625 31.86882812 -19.71125 32.73765625 -19.5625 33.6328125 C-19.2840625 35.36144531 -19.2840625 35.36144531 -19 37.125 C-18.814375 38.26195312 -18.62875 39.39890625 -18.4375 40.5703125 C-18.03043951 43.76137602 -17.92190098 46.78817791 -18 50 C-19.32 50 -20.64 50 -22 50 C-22.06058594 48.96359375 -22.12117188 47.9271875 -22.18359375 46.859375 C-22.26803371 45.48957127 -22.35267997 44.11978025 -22.4375 42.75 C-22.47681641 42.06808594 -22.51613281 41.38617188 -22.55664062 40.68359375 C-22.80018667 35.75123333 -22.80018667 35.75123333 -24 31 C-24.66 30.67 -25.32 30.34 -26 30 C-25.70245971 22.87391001 -24.28874656 17.3327492 -21 11 C-20.67 11 -20.34 11 -20 11 C-19.67 8.36 -19.34 5.72 -19 3 C-18.01 3 -17.02 3 -16 3 C-15.01 4.485 -15.01 4.485 -14 6 C-13.01 5.34 -12.02 4.68 -11 4 C-10.01 5.485 -10.01 5.485 -9 7 C-9.33 7.99 -9.66 8.98 -10 10 C-12.0625 10.6875 -12.0625 10.6875 -14 11 C-14.33 13.64 -14.66 16.28 -15 19 C-11.04 19 -7.08 19 -3 19 C-3 16.36 -3 13.72 -3 11 C-4.32 11 -5.64 11 -7 11 C-7.6875 9.1875 -7.6875 9.1875 -8 7 C-6.5625 5.25 -6.5625 5.25 -5 4 C-4.01 4.33 -3.02 4.66 -2 5 C-1.34 3.35 -0.68 1.7 0 0 Z " fill="#A5DEF7" transform="translate(93,63)"/>
<path d="M0 0 C2.67500351 3.65583813 2.77059556 7.12056546 2.875 11.5625 C3.6175 11.645 4.36 11.7275 5.125 11.8125 C8.5177671 12.73780012 9.80627504 13.72758061 11.875 16.5625 C12.39724493 20.14360811 12.31780469 21.86139257 10.375 24.9375 C9.88 25.47375 9.385 26.01 8.875 26.5625 C7.555 26.2325 6.235 25.9025 4.875 25.5625 C4.854375 24.469375 4.83375 23.37625 4.8125 22.25 C4.25333817 18.39818591 4.25333817 18.39818591 1.1875 16.625 C-4.94695292 14.58866708 -13.27641338 14.0476308 -19.328125 16.4296875 C-21.12490257 17.62463181 -22.60151299 19.03901299 -24.125 20.5625 C-24.49260731 22.89067964 -24.82741581 25.2243385 -25.125 27.5625 C-28.125 27.5625 -28.125 27.5625 -30.3125 25.9375 C-32.125 23.5625 -32.125 23.5625 -32.6875 20.625 C-31.94139925 16.56289592 -30.24659133 15.1759253 -27.125 12.5625 C-26.135 11.9025 -25.145 11.2425 -24.125 10.5625 C-23.11473785 8.21313203 -23.11473785 8.21313203 -22.3125 5.5625 C-20.46490156 0.77804733 -20.46490156 0.77804733 -17.5625 -1.0625 C-5.2336262 -2.40746805 -5.2336262 -2.40746805 0 0 Z " fill="#C17431" transform="translate(94.125,11.4375)"/>
<path d="M0 0 C0.33 0.66 0.66 1.32 1 2 C1.66 2 2.32 2 3 2 C2.67 3.32 2.34 4.64 2 6 C3.32 6 4.64 6 6 6 C6 6.66 6 7.32 6 8 C7.0209375 8.061875 7.0209375 8.061875 8.0625 8.125 C14.16263757 9.94206225 17.87733762 14.24335843 20.9375 19.6875 C23.40249325 25.04723861 23.88329075 30.17957881 23 36 C21.97265625 38.3203125 21.97265625 38.3203125 21 40 C17.65510004 39.40269644 15.42082645 38.42082645 13 36 C12.75 33.3125 12.75 33.3125 13 31 C12.278125 30.95875 11.55625 30.9175 10.8125 30.875 C6.64763758 29.57926503 5.41181203 27.61771805 3 24 C3.1875 21.625 3.1875 21.625 4 20 C2.824375 20.0928125 2.824375 20.0928125 1.625 20.1875 C0.75875 20.125625 -0.1075 20.06375 -1 20 C-3 17 -3 17 -3 13 C-5.64 12.67 -8.28 12.34 -11 12 C-10.01 9.69 -9.02 7.38 -8 5 C-7.443125 5.165 -6.88625 5.33 -6.3125 5.5 C-3.81308751 6.04041351 -1.54954338 6.07082065 1 6 C0.67 4.02 0.34 2.04 0 0 Z " fill="#AED04B" transform="translate(112,37)"/>
<path d="M0 0 C0.39832031 0.50144531 0.79664062 1.00289063 1.20703125 1.51953125 C2.90350321 3.22742807 2.90350321 3.22742807 5.26171875 3.07421875 C6.46248047 2.88279297 6.46248047 2.88279297 7.6875 2.6875 C8.89986328 2.50767578 8.89986328 2.50767578 10.13671875 2.32421875 C10.75160156 2.21722656 11.36648437 2.11023438 12 2 C12.02685412 4.31243792 12.04632841 6.6249627 12.0625 8.9375 C12.07410156 10.22527344 12.08570312 11.51304688 12.09765625 12.83984375 C12 16 12 16 11 17 C10.5773868 20.70692147 10.48036057 24.30171512 11 28 C13.30317533 30.30487721 13.30317533 30.30487721 16 31 C15.34 32.32 14.68 33.64 14 35 C6.25 34.25 6.25 34.25 4 32 C3.8046875 29.3984375 3.8046875 29.3984375 3.875 26.375 C3.89304687 25.37210938 3.91109375 24.36921875 3.9296875 23.3359375 C3.95289062 22.56507812 3.97609375 21.79421875 4 21 C1.69 21 -0.62 21 -3 21 C-3.33 23.64 -3.66 26.28 -4 29 C-4.33 29 -4.66 29 -5 29 C-5.14285714 20.42857143 -5.14285714 20.42857143 -4 17 C-5.32 17 -6.64 17 -8 17 C-8 20.96 -8 24.92 -8 29 C-8.66 28.67 -9.32 28.34 -10 28 C-9.98839844 27.18015625 -9.97679688 26.3603125 -9.96484375 25.515625 C-9.95130859 23.89914063 -9.95130859 23.89914063 -9.9375 22.25 C-9.92589844 21.18265625 -9.91429688 20.1153125 -9.90234375 19.015625 C-9.98606653 16.43026541 -10.35218967 14.4697769 -11 12 C-11.12447135 8.99277207 -11.04428988 6.01171196 -11 3 C-6.05 3.99 -6.05 3.99 -1 5 C-0.67 3.35 -0.34 1.7 0 0 Z " fill="#945B3F" transform="translate(84,91)"/>
<path d="M0 0 C1.134375 0.020625 2.26875 0.04125 3.4375 0.0625 C4.61176264 2.41102528 4.55258173 3.80024065 4.53515625 6.4140625 C4.53193359 7.26484375 4.52871094 8.115625 4.52539062 8.9921875 C4.51701172 9.88164063 4.50863281 10.77109375 4.5 11.6875 C4.49548828 12.5846875 4.49097656 13.481875 4.48632812 14.40625 C4.47452591 16.62506648 4.45806155 18.84375018 4.4375 21.0625 C5.04078125 20.40765625 5.6440625 19.7528125 6.265625 19.078125 C8.4375 17.0625 8.4375 17.0625 11.1875 16.8125 C11.93 16.895 12.6725 16.9775 13.4375 17.0625 C13.416875 18.031875 13.39625 19.00125 13.375 20 C13.08131501 22.93715895 13.08131501 22.93715895 14.4375 24.0625 C14.4375 20.1025 14.4375 16.1425 14.4375 12.0625 C15.7575 12.0625 17.0775 12.0625 18.4375 12.0625 C18.1075 16.0225 17.7775 19.9825 17.4375 24.0625 C18.0975 24.0625 18.7575 24.0625 19.4375 24.0625 C19.3125 25.875 19.3125 25.875 18.4375 28.0625 C13.99282524 31.02561651 10.69054603 31.38776601 5.4375 31.0625 C2.72112267 30.40965411 0.12422278 29.51535812 -2.5 28.5625 C-3.52577148 28.20478516 -3.52577148 28.20478516 -4.57226562 27.83984375 C-6.23908097 27.25704118 -7.90130316 26.66112949 -9.5625 26.0625 C-9.5625 25.0725 -9.5625 24.0825 -9.5625 23.0625 C-7.9125 22.7325 -6.2625 22.4025 -4.5625 22.0625 C-4.56773682 21.43158447 -4.57297363 20.80066895 -4.57836914 20.15063477 C-4.59907826 17.30876653 -4.61214066 14.46691412 -4.625 11.625 C-4.63337891 10.63177734 -4.64175781 9.63855469 -4.65039062 8.61523438 C-4.65361328 7.67099609 -4.65683594 6.72675781 -4.66015625 5.75390625 C-4.66539307 4.87935791 -4.67062988 4.00480957 -4.67602539 3.10375977 C-4.47703798 -0.47416227 -3.71957376 0.06525568 0 0 Z " fill="#FCD470" transform="translate(61.5625,95.9375)"/>
<path d="M0 0 C3.4372046 3.0120577 4.83332096 5.53057255 6.1875 9.875 C6.51105469 10.88304688 6.83460937 11.89109375 7.16796875 12.9296875 C7.98540401 15.94613876 8.53691258 18.91129427 9 22 C9.36856864 24.23167185 9.36856864 24.23167185 10 26 C10.66 26.33 11.32 26.66 12 27 C14.64428016 34.14625082 13.3707444 43.63224888 12 51 C3.86330935 51.62589928 3.86330935 51.62589928 0.5 49.1875 C-2.27901944 45.13476331 -2.18296245 41.29516906 -2.1875 36.5625 C-2.20167969 35.24378906 -2.21585937 33.92507812 -2.23046875 32.56640625 C-2.02228903 29.3449133 -1.72168766 27.66079001 0 25 C0.66 25 1.32 25 2 25 C1.65775391 23.64455078 1.65775391 23.64455078 1.30859375 22.26171875 C1.02113281 21.08222656 0.73367187 19.90273437 0.4375 18.6875 C0.14746094 17.51574219 -0.14257812 16.34398437 -0.44140625 15.13671875 C-1 12 -1 12 0 9 C0.18175781 9.63808594 0.36351563 10.27617188 0.55078125 10.93359375 C0.80214844 11.75988281 1.05351563 12.58617188 1.3125 13.4375 C1.55613281 14.26121094 1.79976563 15.08492187 2.05078125 15.93359375 C2.36402344 16.61550781 2.67726563 17.29742187 3 18 C3.99 18.33 4.98 18.66 6 19 C5.57312017 17.10174715 5.13300518 15.20646817 4.6875 13.3125 C4.44386719 12.25675781 4.20023437 11.20101562 3.94921875 10.11328125 C3.00636703 7.02088282 1.70399287 4.72543397 0 2 C0 1.34 0 0.68 0 0 Z " fill="#9C622E" transform="translate(100,68)"/>
<path d="M0 0 C0.763125 0.309375 1.52625 0.61875 2.3125 0.9375 C4.18789677 1.67893593 6.08684652 2.36228217 8 3 C7.773125 3.763125 7.54625 4.52625 7.3125 5.3125 C7.209375 6.199375 7.10625 7.08625 7 8 C8.33378575 9.8354799 8.33378575 9.8354799 10 11 C9 13 9 13 6 15 C4.68 13.68 3.36 12.36 2 11 C1.67 16.94 1.34 22.88 1 29 C0.67 29 0.34 29 0 29 C-0.33 26.36 -0.66 23.72 -1 21 C-3.66038099 26.5626148 -4.96232949 31.93267948 -6 38 C-5.01 38.33 -4.02 38.66 -3 39 C-0.61103205 44.76162859 -0.71726897 54.44551635 -2.8359375 60.31640625 C-4 61.9375 -4 61.9375 -7 64 C-9.85649421 64.45936229 -12.07674444 64.29728023 -15 64 C-15 63.67 -15 63.34 -15 63 C-11.535 62.505 -11.535 62.505 -8 62 C-8 55.07 -8 48.14 -8 41 C-11.465 41.495 -11.465 41.495 -15 42 C-15.33 48.93 -15.66 55.86 -16 63 C-16.33 63 -16.66 63 -17 63 C-17.08681476 59.37515001 -17.14032721 55.75056557 -17.1875 52.125 C-17.21263672 51.09246094 -17.23777344 50.05992188 -17.26367188 48.99609375 C-17.27333984 48.00996094 -17.28300781 47.02382812 -17.29296875 46.0078125 C-17.31653442 44.64100342 -17.31653442 44.64100342 -17.34057617 43.24658203 C-17.22818604 42.50520996 -17.1157959 41.76383789 -17 41 C-16.01 40.34 -15.02 39.68 -14 39 C-12.60465407 35.06019972 -11.852964 31.17074899 -11.125 27.0625 C-9.78592811 20.17883358 -6.92504171 14.06575718 -2 9 C0.27773425 7.49954871 2.57257313 6.26039472 5 5 C3.35 3.35 1.7 1.7 0 0 Z " fill="#858858" transform="translate(73,55)"/>
<path d="M0 0 C3.8461125 -0.21977786 6.55837447 0.23267878 10 2 C10.99 3.485 10.99 3.485 12 5 C12.99 4.34 13.98 3.68 15 3 C19.36007907 2.50640614 21.50460646 2.72478136 25.375 4.875 C28.00908379 7.00735354 28.82382874 7.71898327 29.2734375 10.98828125 C29.46054969 15.27027177 29.42962856 17.37508572 26.9375 21 C23.38205409 23.42072913 21.30373949 24.0755042 17 24 C13.25330759 22.02061533 11.35322631 20.52983947 9 17 C8.5859375 14.51953125 8.5859375 14.51953125 8.375 11.8125 C8.30023438 10.91144531 8.22546875 10.01039062 8.1484375 9.08203125 C8.07496094 8.05142578 8.07496094 8.05142578 8 7 C7.01 7 6.02 7 5 7 C4.67 5.68 4.34 4.36 4 3 C3.34 3 2.68 3 2 3 C1.67 4.32 1.34 5.64 1 7 C0.34 7 -0.32 7 -1 7 C-1 7.99 -1 8.98 -1 10 C-3.31 10 -5.62 10 -8 10 C-8 9.34 -8 8.68 -8 8 C-6.35 8 -4.7 8 -3 8 C-3 6.68 -3 5.36 -3 4 C-2.34 4 -1.68 4 -1 4 C-0.67 2.68 -0.34 1.36 0 0 Z " fill="#F8A932" transform="translate(25,18)"/>
<path d="M0 0 C1.17755859 0.13535156 1.17755859 0.13535156 2.37890625 0.2734375 C4.4375 0.625 4.4375 0.625 6.4375 1.625 C6.1075 3.275 5.7775 4.925 5.4375 6.625 C4.49777344 6.49931641 4.49777344 6.49931641 3.5390625 6.37109375 C2.31316406 6.21833984 2.31316406 6.21833984 1.0625 6.0625 C-0.15566406 5.90587891 -0.15566406 5.90587891 -1.3984375 5.74609375 C-3.61149186 5.44262672 -3.61149186 5.44262672 -5.5625 6.625 C-4.17720538 10.0738064 -2.94878495 11.26850033 0.4375 12.75 C3.00470838 13.8920302 4.41949302 14.60699302 6.4375 16.625 C7.52754032 20.31436725 7.58111613 22.21010896 6.3125 25.875 C4.104121 29.11395587 3.26423128 29.87629171 -0.5625 30.625 C-5.37225403 30.53035368 -9.32014778 29.9722425 -13.5625 27.625 C-12.9025 25.975 -12.2425 24.325 -11.5625 22.625 C-10.64017578 22.8415625 -10.64017578 22.8415625 -9.69921875 23.0625 C-8.89097656 23.248125 -8.08273438 23.43375 -7.25 23.625 C-6.44949219 23.810625 -5.64898437 23.99625 -4.82421875 24.1875 C-2.45554062 24.71995823 -2.45554062 24.71995823 0.4375 24.625 C0.4375 22.975 0.4375 21.325 0.4375 19.625 C-0.34496094 19.21507813 -1.12742188 18.80515625 -1.93359375 18.3828125 C-2.94550781 17.84398438 -3.95742187 17.30515625 -5 16.75 C-6.00933594 16.21632813 -7.01867187 15.68265625 -8.05859375 15.1328125 C-10.5625 13.625 -10.5625 13.625 -11.5625 11.625 C-12.14051822 5.38240319 -12.14051822 5.38240319 -9.75 2.25 C-6.37041298 -0.26055036 -4.04454696 -0.49307492 0 0 Z " fill="#313131" transform="translate(186.5625,35.375)"/>
<path d="M0 0 C1.32 1.32 2.64 2.64 4 4 C4.99 3.34 5.98 2.68 7 2 C7.99 3.485 7.99 3.485 9 5 C8.67 5.99 8.34 6.98 8 8 C5.9375 8.6875 5.9375 8.6875 4 9 C3.67 11.64 3.34 14.28 3 17 C4.32 17.33 5.64 17.66 7 18 C7.33 19.32 7.66 20.64 8 22 C6.35 22.33 4.7 22.66 3 23 C2.8453125 23.9590625 2.8453125 23.9590625 2.6875 24.9375 C2.460625 25.618125 2.23375 26.29875 2 27 C1.01 27.33 0.02 27.66 -1 28 C-1.66 26.35 -2.32 24.7 -3 23 C-3.16074442 27.44726238 -2.60640408 31.19731745 -1.5 35.5 C-0.39359592 39.80268255 0.16074442 43.55273762 0 48 C-1.32 48 -2.64 48 -4 48 C-4.06058594 46.96359375 -4.12117188 45.9271875 -4.18359375 44.859375 C-4.26803371 43.48957127 -4.35267997 42.11978025 -4.4375 40.75 C-4.47681641 40.06808594 -4.51613281 39.38617188 -4.55664062 38.68359375 C-4.80018667 33.75123333 -4.80018667 33.75123333 -6 29 C-6.66 28.67 -7.32 28.34 -8 28 C-7.70245971 20.87391001 -6.28874656 15.3327492 -3 9 C-2.67 9 -2.34 9 -2 9 C-1.855625 7.700625 -1.71125 6.40125 -1.5625 5.0625 C-1.125 1.125 -1.125 1.125 0 0 Z " fill="#B2E3F9" transform="translate(75,65)"/>
<path d="M0 0 C2.475 0.495 2.475 0.495 5 1 C5.34515632 4.71043048 5.37710875 6.46684625 3.1875 9.5625 C2.1046875 10.7690625 2.1046875 10.7690625 1 12 C0.505 12.9075 0.01 13.815 -0.5 14.75 C-2 17 -2 17 -4.1875 17.8125 C-4.785625 17.874375 -5.38375 17.93625 -6 18 C-6.33 19.32 -6.66 20.64 -7 22 C-7.66 22 -8.32 22 -9 22 C-9 21.01 -9 20.02 -9 19 C-8.34 19 -7.68 19 -7 19 C-7 18.34 -7 17.68 -7 17 C-8.12148437 17.03480469 -8.12148437 17.03480469 -9.265625 17.0703125 C-10.25046875 17.08835937 -11.2353125 17.10640625 -12.25 17.125 C-13.22453125 17.14820312 -14.1990625 17.17140625 -15.203125 17.1953125 C-18.0196498 16.99862781 -19.60949036 16.44568916 -22 15 C-22 12.69 -22 10.38 -22 8 C-18.04 8.33 -14.08 8.66 -10 9 C-10.33 7.35 -10.66 5.7 -11 4 C-9.906875 4.226875 -8.81375 4.45375 -7.6875 4.6875 C-4.12519861 5.38591494 -4.12519861 5.38591494 -2.125 3.6875 C-0.94444278 1.99224783 -0.94444278 1.99224783 0 0 Z " fill="#F6B572" transform="translate(97,39)"/>
<path d="M0 0 C0.39832031 0.50144531 0.79664062 1.00289063 1.20703125 1.51953125 C2.90350321 3.22742807 2.90350321 3.22742807 5.26171875 3.07421875 C6.46248047 2.88279297 6.46248047 2.88279297 7.6875 2.6875 C9.110625 2.460625 10.53375 2.23375 12 2 C12 6.62 12 11.24 12 16 C9.03 16 6.06 16 3 16 C2.51171875 13.98177083 2.0234375 11.96354167 1.53515625 9.9453125 C1.05153008 7.9414343 1.05153008 7.9414343 0 6 C-0.99 9.3 -1.98 12.6 -3 16 C-5.31 16 -7.62 16 -10 16 C-11.27832408 11.61142284 -11.06690432 7.54949399 -11 3 C-6.05 3.99 -6.05 3.99 -1 5 C-0.67 3.35 -0.34 1.7 0 0 Z " fill="#E83737" transform="translate(84,91)"/>
<path d="M0 0 C1.7074998 1.28062485 3.38263741 2.6072711 5 4 C4.67 5.32 4.34 6.64 4 8 C3.67 7.34 3.34 6.68 3 6 C2.67 6.33 2.34 6.66 2 7 C2.185625 7.804375 2.37125 8.60875 2.5625 9.4375 C2.706875 10.283125 2.85125 11.12875 3 12 C1 14 1 14 -2.625 14.125 C-3.73875 14.08375 -4.8525 14.0425 -6 14 C-6.33 12.68 -6.66 11.36 -7 10 C-7.66 10 -8.32 10 -9 10 C-9.33 11.65 -9.66 13.3 -10 15 C-11.98 15.33 -13.96 15.66 -16 16 C-16.33 15.34 -16.66 14.68 -17 14 C-15.35 13.67 -13.7 13.34 -12 13 C-12.33 12.01 -12.66 11.02 -13 10 C-13.33 10 -13.66 10 -14 10 C-14.33 10.99 -14.66 11.98 -15 13 C-15.99 12.67 -16.98 12.34 -18 12 C-17.67 10.35 -17.34 8.7 -17 7 C-15.02 7 -13.04 7 -11 7 C-11 6.34 -11 5.68 -11 5 C-15.64586892 5.48484276 -15.64586892 5.48484276 -20 7 C-18.63016497 3.83884224 -18.0109362 3.0072908 -15 1 C-13.0625 0.62109375 -13.0625 0.62109375 -11 0.4375 C-1.22766706 -0.46940211 -1.22766706 -0.46940211 0 0 Z " fill="#B04640" transform="translate(92,29)"/>
<path d="M0 0 C2.1571676 0.91944848 3.67366555 1.6931968 5.33203125 3.3515625 C6.33203125 7.1015625 6.33203125 7.1015625 6.33203125 10.3515625 C7.81703125 10.8465625 7.81703125 10.8465625 9.33203125 11.3515625 C9.00203125 12.3415625 8.67203125 13.3315625 8.33203125 14.3515625 C7.34203125 13.6915625 6.35203125 13.0315625 5.33203125 12.3515625 C5.00203125 13.3415625 4.67203125 14.3315625 4.33203125 15.3515625 C4.00203125 15.0215625 3.67203125 14.6915625 3.33203125 14.3515625 C2.79578125 15.0321875 2.25953125 15.7128125 1.70703125 16.4140625 C-0.66796875 18.3515625 -0.66796875 18.3515625 -3.91796875 18.1015625 C-4.82546875 17.8540625 -5.73296875 17.6065625 -6.66796875 17.3515625 C-6.66796875 16.6915625 -6.66796875 16.0315625 -6.66796875 15.3515625 C-4.68796875 15.3515625 -2.70796875 15.3515625 -0.66796875 15.3515625 C-0.33796875 13.7015625 -0.00796875 12.0515625 0.33203125 10.3515625 C-1.31796875 9.6915625 -2.96796875 9.0315625 -4.66796875 8.3515625 C-4.66796875 8.0215625 -4.66796875 7.6915625 -4.66796875 7.3515625 C-2.68796875 7.3515625 -0.70796875 7.3515625 1.33203125 7.3515625 C1.33203125 6.6915625 1.33203125 6.0315625 1.33203125 5.3515625 C-0.33025565 3.56103626 -0.33025565 3.56103626 -2.66796875 2.3515625 C-5.11859361 2.4201355 -5.11859361 2.4201355 -7.60546875 3.1640625 C-10.35660502 3.86566603 -12.51038276 4.35819529 -15.359375 4.23828125 C-16.50212891 4.29435547 -16.50212891 4.29435547 -17.66796875 4.3515625 C-18.65796875 5.8365625 -18.65796875 5.8365625 -19.66796875 7.3515625 C-17.35796875 7.3515625 -15.04796875 7.3515625 -12.66796875 7.3515625 C-12.66796875 8.0115625 -12.66796875 8.6715625 -12.66796875 9.3515625 C-14.64796875 9.6815625 -16.62796875 10.0115625 -18.66796875 10.3515625 C-18.66796875 11.6715625 -18.66796875 12.9915625 -18.66796875 14.3515625 C-18.00796875 14.0215625 -17.34796875 13.6915625 -16.66796875 13.3515625 C-17.32796875 13.0215625 -17.98796875 12.6915625 -18.66796875 12.3515625 C-17.34796875 12.0215625 -16.02796875 11.6915625 -14.66796875 11.3515625 C-14.00796875 12.6715625 -13.34796875 13.9915625 -12.66796875 15.3515625 C-19.00236365 17.54423766 -19.00236365 17.54423766 -22.04296875 16.6640625 C-24.66204633 14.54865369 -24.68532755 12.21765179 -25.10546875 8.9765625 C-24.64325279 5.14677312 -24.53956192 4.7754142 -21.79296875 2.4765625 C-15.31184498 -1.93060167 -7.57759293 -1.84169901 0 0 Z " fill="#5D4240" transform="translate(93.66796875,26.6484375)"/>
<path d="M0 0 C3.0432531 1.9874306 4.62073803 3.32041127 5.4375 6.9375 C5.65601459 10.54299071 5.1569295 12.69267972 3.5 15.9375 C0.14436525 18.70589867 -2.68446902 19.31744462 -7 19 C-9.97160035 17.64339984 -11.70283441 16.29716559 -14 14 C-14.86569409 9.3617022 -14.59358679 5.93825008 -12.0625 1.9375 C-7.94608077 -0.66676523 -4.7460093 -1.04704003 0 0 Z M-7.6875 5.1875 C-9.4374512 7.60409928 -9.37447615 9.07908607 -9 12 C-8.34 12.66 -7.68 13.32 -7 14 C-3.90073181 13.67801034 -3.90073181 13.67801034 -1 13 C-0.23283149 10.14921909 -0.23283149 10.14921909 0 7 C-1.12640605 5.03959519 -1.12640605 5.03959519 -3 4 C-5.93500458 3.7122533 -5.93500458 3.7122533 -7.6875 5.1875 Z " fill="#313131" transform="translate(211,47)"/>
<path d="M0 0 C1.2065625 0.0309375 1.2065625 0.0309375 2.4375 0.0625 C3.4375 3.0625 3.4375 3.0625 2.765625 4.82421875 C2.40984375 5.45972656 2.0540625 6.09523438 1.6875 6.75 C-0.4540304 10.75793363 -2.03466641 14.78456596 -3.5625 19.0625 C-4.2225 18.7325 -4.8825 18.4025 -5.5625 18.0625 C-5.80678343 23.8599423 -5.80678343 23.8599423 -3.5625 29.0625 C-4.2225 29.7225 -4.8825 30.3825 -5.5625 31.0625 C-5.84360115 35.84121948 -5.33216439 40.34830561 -4.5625 45.0625 C-5.2225 45.0625 -5.8825 45.0625 -6.5625 45.0625 C-8.38144682 41.198014 -8.75696959 38.35465707 -8.5390625 34.10546875 C-8.4875 32.99365234 -8.4359375 31.88183594 -8.3828125 30.73632812 C-8.28613281 29.0105957 -8.28613281 29.0105957 -8.1875 27.25 C-8.13078125 26.08017578 -8.0740625 24.91035156 -8.015625 23.70507812 C-7.87448991 20.82357 -7.72310844 17.94297752 -7.5625 15.0625 C-8.2225 15.0625 -8.8825 15.0625 -9.5625 15.0625 C-9.8925 16.7125 -10.2225 18.3625 -10.5625 20.0625 C-11.8825 20.0625 -13.2025 20.0625 -14.5625 20.0625 C-14.5625 15.98480715 -13.4780944 12.6589717 -11.5625 9.0625 C-9.0625 7.375 -9.0625 7.375 -6.5625 6.0625 C-4.80927063 3.53061352 -4.80927063 3.53061352 -3.5625 1.0625 C-2.5625 0.0625 -2.5625 0.0625 0 0 Z " fill="#8B503C" transform="translate(102.5625,47.9375)"/>
<path d="M0 0 C1.98 0 3.96 0 6 0 C7.32 2.64 8.64 5.28 10 8 C12.01279898 5.12521262 12.01279898 5.12521262 13.3125 2.3125 C13.869375 1.549375 14.42625 0.78625 15 0 C17.60546875 -0.14453125 17.60546875 -0.14453125 20 0 C16.71382588 8.8843026 13.07319716 17.44768569 9 26 C7.35 26 5.7 26 4 26 C4.46284893 23.30004789 4.88300114 21.20511362 6.25 18.80859375 C7.36068301 14.64931727 5.52482328 11.87503046 3.625 8.25 C2.94950524 6.90154994 2.27497255 5.55261736 1.6015625 4.203125 C1.07304687 3.14609375 0.54453125 2.0890625 0 1 C0 0.67 0 0.34 0 0 Z " fill="#313131" transform="translate(249,48)"/>
<path d="M0 0 C3.96019358 1.37394471 5.62959584 2.62781178 8.0625 6.0625 C8.63602165 9.14653153 8.75183247 11.9949705 8.0625 15.0625 C6.75 16.84375 6.75 16.84375 5.0625 18.0625 C1.65414333 17.94077298 -0.89803196 17.72082976 -3.8125 15.875 C-5.37182705 13.36275086 -5.61433438 10.97099054 -5.9375 8.0625 C-6.5975 8.0625 -7.2575 8.0625 -7.9375 8.0625 C-7.55429443 5.38006099 -6.86597619 3.96448589 -5.25 1.75 C-2.9375 0.0625 -2.9375 0.0625 0 0 Z " fill="#EEB827" transform="translate(45.9375,20.9375)"/>
<path d="M0 0 C1.134375 0.020625 2.26875 0.04125 3.4375 0.0625 C4.60331918 2.39413836 4.56655609 3.78403482 4.5703125 6.37890625 C4.57224609 7.64831055 4.57224609 7.64831055 4.57421875 8.94335938 C4.57035156 9.82830078 4.56648438 10.71324219 4.5625 11.625 C4.56636719 12.51380859 4.57023437 13.40261719 4.57421875 14.31835938 C4.57292969 15.16333984 4.57164063 16.00832031 4.5703125 16.87890625 C4.56918457 17.65693604 4.56805664 18.43496582 4.56689453 19.23657227 C4.4375 21.0625 4.4375 21.0625 3.4375 22.0625 C0.78286879 22.51709858 -1.88439138 22.76493238 -4.5625 23.0625 C-4.59137512 19.41668313 -4.60925585 15.77089537 -4.625 12.125 C-4.63337891 11.08408203 -4.64175781 10.04316406 -4.65039062 8.97070312 C-4.65522461 7.48666992 -4.65522461 7.48666992 -4.66015625 5.97265625 C-4.66539307 5.05621338 -4.67062988 4.13977051 -4.67602539 3.19555664 C-4.48169769 -0.45571458 -3.80123249 0.06668829 0 0 Z " fill="#C2DA69" transform="translate(61.5625,95.9375)"/>
<path d="M0 0 C2.5 0.375 2.5 0.375 5 1 C5.66 1 6.32 1 7 1 C7.33 0.67 7.66 0.34 8 0 C10.14307896 -0.12537741 12.29078886 -0.17574364 14.4375 -0.1875 C16.19900391 -0.20876953 16.19900391 -0.20876953 17.99609375 -0.23046875 C21 0 21 0 23 2 C23 2.99 23 3.98 23 5 C21.35 5 19.7 5 18 5 C18 5.66 18 6.32 18 7 C19.32 6.67 20.64 6.34 22 6 C22 6.99 22 7.98 22 9 C20.88625 8.938125 19.7725 8.87625 18.625 8.8125 C16.830625 8.9053125 16.830625 8.9053125 15 9 C14.01 10.485 14.01 10.485 13 12 C9.875 12.1875 9.875 12.1875 7 12 C6.67 11.01 6.34 10.02 6 9 C3.69 9 1.38 9 -1 9 C-1.33 7.68 -1.66 6.36 -2 5 C-1.01 4.34 -0.02 3.68 1 3 C0.01 2.67 -0.98 2.34 -2 2 C-1.34 1.34 -0.68 0.68 0 0 Z M10 2 C9.67 2.66 9.34 3.32 9 4 C9.66 4 10.32 4 11 4 C10.67 3.34 10.34 2.68 10 2 Z M14 2 C13.67 3.65 13.34 5.3 13 7 C13.99 7.495 13.99 7.495 15 8 C15 6.02 15 4.04 15 2 C14.67 2 14.34 2 14 2 Z " fill="#313131" transform="translate(233,88)"/>
<path d="M0 0 C0.763125 0.309375 1.52625 0.61875 2.3125 0.9375 C4.18789677 1.67893593 6.08684652 2.36228217 8 3 C7.773125 3.763125 7.54625 4.52625 7.3125 5.3125 C7.209375 6.199375 7.10625 7.08625 7 8 C8.33378575 9.8354799 8.33378575 9.8354799 10 11 C9 13 9 13 6 15 C4.68 13.68 3.36 12.36 2 11 C1.67 16.94 1.34 22.88 1 29 C0.67 29 0.34 29 0 29 C-0.33 26.36 -0.66 23.72 -1 21 C-1.99 23.31 -2.98 25.62 -4 28 C-4.66 28 -5.32 28 -6 28 C-6 28.66 -6 29.32 -6 30 C-6.66 30 -7.32 30 -8 30 C-8 30.66 -8 31.32 -8 32 C-8.66 32 -9.32 32 -10 32 C-9.73302225 26.23328054 -8.78818952 21.82941062 -5.95703125 16.77734375 C-4.86996282 14.91460902 -4.86996282 14.91460902 -4.25 12.3125 C-2.23325681 8.5815251 1.35615195 6.99140533 5 5 C3.35 3.35 1.7 1.7 0 0 Z " fill="#A7DAF1" transform="translate(73,55)"/>
<path d="M0 0 C0.309375 0.9590625 0.309375 0.9590625 0.625 1.9375 C1.88857218 4.32301287 1.88857218 4.32301287 5 4.8125 C7.92386603 5.24729012 7.92386603 5.24729012 10 4 C10.65213292 1.97536745 10.65213292 1.97536745 11 0 C11.66 0 12.32 0 13 0 C14.35439668 2.70879335 14.06501451 5.00933268 14 8 C15.32 8.33 16.64 8.66 18 9 C12.43842552 9.91457003 8.324335 10.32086397 3 8 C3 9.65 3 11.3 3 13 C2.67 13 2.34 13 2 13 C2 11.02 2 9.04 2 7 C1.34 7 0.68 7 0 7 C0.33 9.97 0.66 12.94 1 16 C-1.64 15.67 -4.28 15.34 -7 15 C-6.88658363 12.68690295 -6.75896193 10.37449815 -6.625 8.0625 C-6.55539063 6.77472656 -6.48578125 5.48695312 -6.4140625 4.16015625 C-6.27742188 3.11730469 -6.14078125 2.07445312 -6 1 C-4 0 -4 0 0 0 Z " fill="#D2AB80" transform="translate(72,39)"/>
<path d="M0 0 C3.5 0.125 3.5 0.125 4.5 1.125 C4.59980173 3.39402176 4.62967809 5.66628925 4.625 7.9375 C4.62757812 9.18144531 4.63015625 10.42539063 4.6328125 11.70703125 C4.52767173 14.41286002 4.31143252 16.56834355 3.5 19.125 C0.86 18.795 -1.78 18.465 -4.5 18.125 C-4.52684312 15.31243719 -4.54676188 12.50012759 -4.5625 9.6875 C-4.57087891 8.88505859 -4.57925781 8.08261719 -4.58789062 7.25585938 C-4.5965143 5.21204779 -4.5522815 3.16816098 -4.5 1.125 C-3.5 0.125 -3.5 0.125 0 0 Z " fill="#FBB527" transform="translate(107.5,95.875)"/>
<path d="M0 0 C4.76766749 0.42067654 7.91945338 2.45172641 11 6 C13.71831956 10.26961187 15.70106644 14.38575877 16.625 19.375 C15.77223111 22.95662934 14.01777758 24.03844457 11 26 C10.34 25.67 9.68 25.34 9 25 C9.66 24.01 10.32 23.02 11 22 C11.58345476 19.04253508 11.58345476 19.04253508 11 16 C8.399035 13.399035 6.48886679 12.1629556 3 11 C2.3046875 9.00390625 2.3046875 9.00390625 1.875 6.5625 C1.26876383 3.1726922 1.26876383 3.1726922 0 0 Z " fill="#81A23B" transform="translate(94,12)"/>
<path d="M0 0 C1.18851563 0.00902344 2.37703125 0.01804687 3.6015625 0.02734375 C4.51679687 0.03894531 5.43203125 0.05054688 6.375 0.0625 C7 2.4375 7 2.4375 7.375 5.0625 C4.69172441 7.74577559 2.72984365 7.62629057 -1 8.125 C-6.36068915 8.85184501 -6.36068915 8.85184501 -11.625 10.0625 C-11.17590939 8.58050098 -10.71543436 7.10194764 -10.25 5.625 C-9.99476562 4.80128906 -9.73953125 3.97757813 -9.4765625 3.12890625 C-7.738628 -1.08837518 -4.021403 -0.03942552 0 0 Z " fill="#EBA257" transform="translate(82.625,10.9375)"/>
<path d="M0 0 C0.33 0 0.66 0 1 0 C1.09608673 5.01786275 1.0631506 9.84351937 0.3125 14.8125 C-0.31344074 20.16683092 0.89325168 24.76825275 2.30859375 29.921875 C3.01136096 33.05057873 3.11957306 35.80500795 3 39 C1.68 39 0.36 39 -1 39 C-1.06058594 37.96359375 -1.12117188 36.9271875 -1.18359375 35.859375 C-1.26803371 34.48957127 -1.35267997 33.11978025 -1.4375 31.75 C-1.47681641 31.06808594 -1.51613281 30.38617188 -1.55664062 29.68359375 C-1.80018667 24.75123333 -1.80018667 24.75123333 -3 20 C-3.66 19.67 -4.32 19.34 -5 19 C-4.70245971 11.87391001 -3.28874656 6.3327492 0 0 Z " fill="#CAE7F5" transform="translate(72,74)"/>
<path d="M0 0 C0.3125 2.3125 0.3125 2.3125 0 5 C-0.78375 5.391875 -1.5675 5.78375 -2.375 6.1875 C-5.60983223 8.42107463 -5.58979436 9.43154075 -6.3125 13.1875 C-6.56217135 14.78860345 -6.7978938 16.39219991 -7 18 C-8.65 18 -10.3 18 -12 18 C-12 12.39 -12 6.78 -12 1 C-9.66666667 1 -7.33333333 1 -5 1 C-3 0 -3 0 0 0 Z " fill="#313131" transform="translate(232,47)"/>
<path d="M0 0 C9.72291022 -0.6130031 9.72291022 -0.6130031 14.125 1.5 C16.7324981 4.97666413 16.57194375 7.70196579 17 12 C16.31897217 11.99476318 15.63794434 11.98952637 14.9362793 11.98413086 C11.85336223 11.96335542 8.7704599 11.95033802 5.6875 11.9375 C4.61564453 11.92912109 3.54378906 11.92074219 2.43945312 11.91210938 C1.41142578 11.90888672 0.38339844 11.90566406 -0.67578125 11.90234375 C-1.62364502 11.89710693 -2.57150879 11.89187012 -3.5480957 11.88647461 C-6.13838681 11.89501146 -6.13838681 11.89501146 -9 13 C-9 12.34 -9 11.68 -9 11 C-3.26689311 8.60251894 1.80481527 7.41588046 8 7 C8.33 5.35 8.66 3.7 9 2 C6.03 1.67 3.06 1.34 0 1 C0 0.67 0 0.34 0 0 Z " fill="#D26342" transform="translate(80,10)"/>
<path d="M0 0 C0 1.65 0 3.3 0 5 C-0.804375 5.28875 -1.60875 5.5775 -2.4375 5.875 C-5.1326468 6.73262568 -5.1326468 6.73262568 -6 9 C-6.22467831 10.53668865 -6.40796805 12.07968054 -6.5625 13.625 C-6.64628906 14.44226562 -6.73007813 15.25953125 -6.81640625 16.1015625 C-6.87699219 16.72804688 -6.93757812 17.35453125 -7 18 C-8.65 18 -10.3 18 -12 18 C-12 12.39 -12 6.78 -12 1 C-9.66666667 1 -7.33333333 1 -5 1 C-3 0 -3 0 0 0 Z " fill="#313131" transform="translate(248,47)"/>
<path d="M0 0 C1.65 0 3.3 0 5 0 C5 7.92 5 15.84 5 24 C3.35 24 1.7 24 0 24 C0 16.08 0 8.16 0 0 Z " fill="#313131" transform="translate(271,34)"/>
<path d="M0 0 C2 1 2 1 2.8515625 3.07421875 C4.25894737 7.82947369 5.3961821 11.98169339 5 17 C4.34 17.33 3.68 17.66 3 18 C1.81304447 21.56086658 1.64904582 24.97331024 1.4375 28.6875 C1.37272461 29.7403418 1.37272461 29.7403418 1.30664062 30.81445312 C1.2008264 32.54275206 1.09993419 34.2713511 1 36 C-0.32 36 -1.64 36 -3 36 C-2.84660156 35.32582031 -2.69320312 34.65164062 -2.53515625 33.95703125 C-1.91516143 30.53122048 -1.6647426 27.16106553 -1.4375 23.6875 C-1.35371094 22.43324219 -1.26992187 21.17898437 -1.18359375 19.88671875 C-1.12300781 18.93410156 -1.06242187 17.98148438 -1 17 C-0.34 17 0.32 17 1 17 C0.67 15.989375 0.34 14.97875 0 13.9375 C-1.36951373 9.14905837 -1.58765204 4.76295611 0 0 Z " fill="#C7E2F0" transform="translate(97,76)"/>
<path d="M0 0 C0 2.33333333 0 4.66666667 0 7 C1.32 7 2.64 7 4 7 C4 9.64 4 12.28 4 15 C0.04 15 -3.92 15 -8 15 C-8 12.36 -8 9.72 -8 7 C-7.195625 6.7525 -6.39125 6.505 -5.5625 6.25 C-4.2940625 5.63125 -4.2940625 5.63125 -3 5 C-2.26676204 2.98491642 -2.26676204 2.98491642 -2 1 C-1.34 0.67 -0.68 0.34 0 0 Z " fill="#9A7851" transform="translate(86,67)"/>
<path d="M0 0 C1.17755859 0.12568359 1.17755859 0.12568359 2.37890625 0.25390625 C8.14610559 0.81293539 13.31162979 1.16353027 19 0 C18.69209738 2.84809926 18.34521809 4.58286148 16.5 6.8125 C12.68747075 8.62345139 9.1443639 8.53832485 5 8 C1.9375 6.8125 1.9375 6.8125 0 5 C-0.12109375 2.38671875 -0.12109375 2.38671875 0 0 Z " fill="#FAFDFD" transform="translate(75,47)"/>
<path d="M0 0 C1.7074998 1.28062485 3.38263741 2.6072711 5 4 C4.67 5.32 4.34 6.64 4 8 C3.67 7.34 3.34 6.68 3 6 C-1.26339067 5.92894349 -4.87943108 5.89061606 -9 7 C-9.66 6.67 -10.32 6.34 -11 6 C-15.65275976 5.6947378 -15.65275976 5.6947378 -20 7 C-18.63016497 3.83884224 -18.0109362 3.0072908 -15 1 C-13.0625 0.62109375 -13.0625 0.62109375 -11 0.4375 C-1.22766706 -0.46940211 -1.22766706 -0.46940211 0 0 Z " fill="#FBCB8F" transform="translate(92,29)"/>
<path d="M0 0 C1.26650391 0.00241699 1.26650391 0.00241699 2.55859375 0.00488281 C9.85871099 0.14896407 15.31630642 1.30126468 20.8125 6.3125 C21.98310327 9.07177914 21.64692576 10.57052471 20.6875 13.375 C20.0275 14.035 19.3675 14.695 18.6875 15.375 C17.6975 15.375 16.7075 15.375 15.6875 15.375 C16.26334432 12.98935923 16.90977595 10.70817216 17.6875 8.375 C13.92292069 4.1921341 10.8976307 2.59222427 5.26953125 2.0390625 C-2.4710364 1.95884936 -9.6299817 2.04472814 -16.3125 6.375 C-17.32634985 7.69783266 -18.32885557 9.02955531 -19.3125 10.375 C-19.9725 10.375 -20.6325 10.375 -21.3125 10.375 C-20.99091271 7.37351864 -20.33096979 6.39294208 -18.125 4.25 C-12.31956952 0.37971301 -6.7750366 -0.01331572 0 0 Z " fill="#D48842" transform="translate(84.3125,22.625)"/>
<path d="M0 0 C1.65 0 3.3 0 5 0 C5.33 0.66 5.66 1.32 6 2 C6.66 1.34 7.32 0.68 8 0 C10.625 -0.125 10.625 -0.125 13 0 C13.33 0.99 13.66 1.98 14 3 C12.68 3 11.36 3 10 3 C10 3.99 10 4.98 10 6 C11.32 6 12.64 6 14 6 C13.67 6.99 13.34 7.98 13 9 C8.33333333 9 3.66666667 9 -1 9 C-1.33 7.68 -1.66 6.36 -2 5 C-0.35 4.67 1.3 4.34 3 4 C3 3.34 3 2.68 3 2 C1.68 2.33 0.36 2.66 -1 3 C-0.67 2.01 -0.34 1.02 0 0 Z " fill="#313131" transform="translate(208,88)"/>
<path d="M0 0 C0.33 0 0.66 0 1 0 C1.2475 0.94875 1.495 1.8975 1.75 2.875 C2.64099888 6.05806123 3.82847288 9.02347721 5.125 12.0625 C6.69450701 15.87000774 7.43934203 18.82625076 7 23 C5.1328125 22.83984375 5.1328125 22.83984375 3 22 C1.8046875 19.56640625 1.8046875 19.56640625 0.875 16.5625 C-0.36551553 12.36849961 -0.36551553 12.36849961 -3 9 C-3.26991906 6.31160615 -3.08737357 3.70858064 -3 1 C-2.01 1.495 -2.01 1.495 -1 2 C-0.67 1.34 -0.34 0.68 0 0 Z " fill="#A9DCF2" transform="translate(99,64)"/>
<path d="M0 0 C1.65 0 3.3 0 5 0 C5.3690205 9.41002278 5.3690205 9.41002278 3 14 C-4.75 13.125 -4.75 13.125 -7 12 C-7.33 12.66 -7.66 13.32 -8 14 C-9.26026798 11.47946405 -8.91874445 10.1457902 -8.5625 7.375 C-8.46066406 6.55773437 -8.35882813 5.74046875 -8.25390625 4.8984375 C-8.17011719 4.27195312 -8.08632812 3.64546875 -8 3 C-7.67 3 -7.34 3 -7 3 C-6.67 5.31 -6.34 7.62 -6 10 C-5.01 10 -4.02 10 -3 10 C-2.67 8.68 -2.34 7.36 -2 6 C-0.68 5.67 0.64 5.34 2 5 C2 3.68 2 2.36 2 1 C1.34 0.67 0.68 0.34 0 0 Z " fill="#8ED2EF" transform="translate(80,82)"/>
<path d="M0 0 C0.763125 0.309375 1.52625 0.61875 2.3125 0.9375 C4.18789677 1.67893593 6.08684652 2.36228217 8 3 C7.773125 3.763125 7.54625 4.52625 7.3125 5.3125 C7.1578125 6.6428125 7.1578125 6.6428125 7 8 C8.33378575 9.8354799 8.33378575 9.8354799 10 11 C9 13 9 13 6 15 C4.68 13.68 3.36 12.36 2 11 C1.67 16.94 1.34 22.88 1 29 C0.67 29 0.34 29 0 29 C-0.66 23.39 -1.32 17.78 -2 12 C-2.99 12.495 -2.99 12.495 -4 13 C-2.50164772 8.33845958 0.88463591 7.13389249 5 5 C3.35 3.35 1.7 1.7 0 0 Z " fill="#777A76" transform="translate(73,55)"/>
<path d="M0 0 C1.22589844 -0.0309375 1.22589844 -0.0309375 2.4765625 -0.0625 C9.41659724 -0.10642427 16.02916185 0.82062597 21.4375 5.4375 C21.911875 6.035625 22.38625 6.63375 22.875 7.25 C22.545 8.24 22.215 9.23 21.875 10.25 C21.17375 9.46625 20.4725 8.6825 19.75 7.875 C14.35064358 2.94515283 8.53914743 2.86265923 1.5625 2.875 C0.29599609 2.8752417 0.29599609 2.8752417 -0.99609375 2.87548828 C-7.08113162 2.9873456 -11.98169668 3.79591885 -17.125 7.25 C-18.115 7.91 -19.105 8.57 -20.125 9.25 C-19.14048548 5.60729627 -18.49794587 4.47218052 -15.1875 2.5 C-9.84127116 0.31786578 -5.69299418 0.03492634 0 0 Z " fill="#C07C40" transform="translate(83.125,20.75)"/>
<path d="M0 0 C0.33 1.32 0.66 2.64 1 4 C3.97 4.495 3.97 4.495 7 5 C7 5.66 7 6.32 7 7 C4.36 6.67 1.72 6.34 -1 6 C-1.33 4.35 -1.66 2.7 -2 1 C-2.86625 2.0209375 -2.86625 2.0209375 -3.75 3.0625 C-4.4925 3.701875 -5.235 4.34125 -6 5 C-8.25 4.75 -8.25 4.75 -10 4 C-10 4.99 -10 5.98 -10 7 C-13.3 7 -16.6 7 -20 7 C-20 6.34 -20 5.68 -20 5 C-17.69 5 -15.38 5 -13 5 C-12.67 3.35 -12.34 1.7 -12 0 C-7.6835078 -0.76173392 -4.25566547 -1.16063604 0 0 Z " fill="#CEEBF9" transform="translate(139,9)"/>
<path d="M0 0 C-0.33 0.66 -0.66 1.32 -1 2 C1.31 2 3.62 2 6 2 C6 2.66 6 3.32 6 4 C4.02 4.33 2.04 4.66 0 5 C0 6.32 0 7.64 0 9 C0.66 8.67 1.32 8.34 2 8 C1.34 7.67 0.68 7.34 0 7 C1.32 6.67 2.64 6.34 4 6 C4.66 7.32 5.32 8.64 6 10 C-0.3343949 12.19267516 -0.3343949 12.19267516 -3.375 11.3125 C-5 10 -5 10 -6 7 C-6.03954234 4.66700175 -6.04401732 2.33291811 -6 0 C-3 -1 -3 -1 0 0 Z " fill="#8C413D" transform="translate(75,32)"/>
<path d="M0 0 C2 1 2 1 3.375 2.4375 C5.12624276 4.12138727 6.79490307 5.01150827 9 6 C8.67 8.31 8.34 10.62 8 13 C5.69 13 3.38 13 1 13 C0.1276588 10.00519083 -0.10829766 7.36424089 -0.0625 4.25 C-0.05347656 3.45078125 -0.04445313 2.6515625 -0.03515625 1.828125 C-0.02355469 1.22484375 -0.01195313 0.6215625 0 0 Z " fill="#D64741" transform="translate(73,94)"/>
<path d="M0 0 C0.99 0.33 1.98 0.66 3 1 C3 7.6 3 14.2 3 21 C2.01 21 1.02 21 0 21 C-1.18637743 17.44086771 -1.14615346 14.201855 -1.125 10.5 C-1.12886719 9.82324219 -1.13273437 9.14648438 -1.13671875 8.44921875 C-1.13062416 5.35926233 -0.9844023 2.95320689 0 0 Z " fill="#D89237" transform="translate(99,94)"/>
<path d="M0 0 C0.99 0 1.98 0 3 0 C5.1875 2.5 5.1875 2.5 7 5 C7.33 3.35 7.66 1.7 8 0 C8.66 0 9.32 0 10 0 C10 3.96 10 7.92 10 12 C9.01 12 8.02 12 7 12 C4.8125 9 4.8125 9 3 6 C2.67 7.98 2.34 9.96 2 12 C1.34 12 0.68 12 0 12 C0 8.04 0 4.08 0 0 Z " fill="#313131" transform="translate(173,85)"/>
<path d="M0 0 C1.2065625 0.0309375 1.2065625 0.0309375 2.4375 0.0625 C3.4375 3.0625 3.4375 3.0625 2.66015625 5.10546875 C2.27730469 5.81316406 1.89445312 6.52085938 1.5 7.25 C1.11972656 7.96542969 0.73945312 8.68085937 0.34765625 9.41796875 C0.04730469 9.96066406 -0.25304687 10.50335938 -0.5625 11.0625 C-6.71484375 10.4765625 -6.71484375 10.4765625 -8.5625 10.0625 C-8.8925 9.4025 -9.2225 8.7425 -9.5625 8.0625 C-8.5725 7.4025 -7.5825 6.7425 -6.5625 6.0625 C-5.5215934 4.42107037 -4.51745674 2.75537785 -3.5625 1.0625 C-2.5625 0.0625 -2.5625 0.0625 0 0 Z " fill="#995239" transform="translate(102.5625,47.9375)"/>
<path d="M0 0 C3.81697699 -0.21811297 6.69419699 -0.02021295 10 2 C11.47368421 7.05263158 11.47368421 7.05263158 10 10 C8 9 8 9 7 7 C6.34 7 5.68 7 5 7 C4.67 5.68 4.34 4.36 4 3 C3.34 3 2.68 3 2 3 C1.67 4.32 1.34 5.64 1 7 C0.34 7 -0.32 7 -1 7 C-1 7.99 -1 8.98 -1 10 C-3.31 10 -5.62 10 -8 10 C-8 9.34 -8 8.68 -8 8 C-6.35 8 -4.7 8 -3 8 C-3 6.68 -3 5.36 -3 4 C-2.34 4 -1.68 4 -1 4 C-0.67 2.68 -0.34 1.36 0 0 Z " fill="#D8E4D1" transform="translate(25,18)"/>
<path d="M0 0 C1.32 0 2.64 0 4 0 C4.33 0.99 4.66 1.98 5 3 C6.32 2.67 7.64 2.34 9 2 C8.265611 3.32129824 7.51183106 4.63183171 6.75 5.9375 C6.33234375 6.66839844 5.9146875 7.39929687 5.484375 8.15234375 C3.74406383 10.31857318 2.70438996 10.63594751 0 11 C-0.33 12.32 -0.66 13.64 -1 15 C-1.66 15 -2.32 15 -3 15 C-3 14.01 -3 13.02 -3 12 C-2.34 12 -1.68 12 -1 12 C-1 11.34 -1 10.68 -1 10 C-1.74765625 10.02320313 -2.4953125 10.04640625 -3.265625 10.0703125 C-4.25046875 10.08835937 -5.2353125 10.10640625 -6.25 10.125 C-7.22453125 10.14820313 -8.1990625 10.17140625 -9.203125 10.1953125 C-12.0196498 9.99862781 -13.60949036 9.44568916 -16 8 C-15.67 7.34 -15.34 6.68 -15 6 C-14.4328125 6.32355469 -13.865625 6.64710937 -13.28125 6.98046875 C-9.58208799 8.63369013 -5.97777835 8.47528602 -2 8 C0.87241402 6.56379299 1.71424684 5.83344673 2.75 2.8125 C2.8325 2.214375 2.915 1.61625 3 1 C2.01 0.67 1.02 0.34 0 0 Z " fill="#BE9C72" transform="translate(91,46)"/>
<path d="M0 0 C15.23677522 -0.83616449 15.23677522 -0.83616449 21 4 C22.5 6.75 22.5 6.75 23 9 C21.68 10.32 20.36 11.64 19 13 C18.979375 11.906875 18.95875 10.81375 18.9375 9.6875 C18.39020208 5.79198113 18.39020208 5.79198113 15.125 4.125 C10.25924756 2.46922203 5.09816988 2.2673543 0 2 C0 1.34 0 0.68 0 0 Z " fill="#BB7031" transform="translate(80,24)"/>
<path d="M0 0 C5.47464549 4.8420709 7.60418122 11.59033144 8.25 18.78515625 C8.25 20.85844625 8.1379132 22.93130201 8 25 C7.01 24.34 6.02 23.68 5 23 C4.67 23.66 4.34 24.32 4 25 C3.34 25 2.68 25 2 25 C1.46932659 22.89829344 0.95077143 20.79352402 0.4375 18.6875 C0.14746094 17.51574219 -0.14257812 16.34398437 -0.44140625 15.13671875 C-1 12 -1 12 0 9 C0.18175781 9.63808594 0.36351563 10.27617188 0.55078125 10.93359375 C0.80214844 11.75988281 1.05351563 12.58617188 1.3125 13.4375 C1.55613281 14.26121094 1.79976563 15.08492187 2.05078125 15.93359375 C2.36402344 16.61550781 2.67726563 17.29742187 3 18 C3.99 18.33 4.98 18.66 6 19 C5.57312017 17.10174715 5.13300518 15.20646817 4.6875 13.3125 C4.44386719 12.25675781 4.20023437 11.20101562 3.94921875 10.11328125 C3.00636703 7.02088282 1.70399287 4.72543397 0 2 C0 1.34 0 0.68 0 0 Z " fill="#7E8F94" transform="translate(100,68)"/>
<path d="M0 0 C6.75 -0.125 6.75 -0.125 9 1 C9.125 3.375 9.125 3.375 9 6 C8.34 6.66 7.68 7.32 7 8 C5.68 8 4.36 8 3 8 C3 9.32 3 10.64 3 12 C2.01 12 1.02 12 0 12 C0 8.04 0 4.08 0 0 Z M3 2 C3 3.32 3 4.64 3 6 C3.99 5.67 4.98 5.34 6 5 C5.67 4.01 5.34 3.02 5 2 C4.34 2 3.68 2 3 2 Z " fill="#313131" transform="translate(197,85)"/>
<path d="M0 0 C0.99 0 1.98 0 3 0 C3 3.96 3 7.92 3 12 C0.66705225 12.04241723 -1.66702567 12.04092937 -4 12 C-5 11 -5 11 -5.1875 8.0625 C-5 5 -5 5 -3 3 C-2.01 3 -1.02 3 0 3 C0 2.01 0 1.02 0 0 Z M-1 5 C-1.33 6.65 -1.66 8.3 -2 10 C-1.34 10 -0.68 10 0 10 C0 8.35 0 6.7 0 5 C-0.33 5 -0.66 5 -1 5 Z " fill="#313131" transform="translate(300,85)"/>
<path d="M0 0 C1.32 1.32 2.64 2.64 4 4 C4.99 3.34 5.98 2.68 7 2 C7.99 3.485 7.99 3.485 9 5 C8.67 5.99 8.34 6.98 8 8 C6.67696283 8.3721042 5.34262065 8.70630173 4 9 C3.67 9.66 3.34 10.32 3 11 C2.01 11 1.02 11 0 11 C-0.33 11.99 -0.66 12.98 -1 14 C-1.02685938 11.85423363 -1.04633088 9.70837355 -1.0625 7.5625 C-1.07410156 6.36753906 -1.08570312 5.17257813 -1.09765625 3.94140625 C-1 1 -1 1 0 0 Z " fill="#ABD7EB" transform="translate(75,65)"/>
<path d="M0 0 C1.98907352 3.6640828 2.61460734 6.87335071 2 11 C-0.5 13.375 -0.5 13.375 -3 15 C-3.66 14.67 -4.32 14.34 -5 14 C-4.34 13.01 -3.68 12.02 -3 11 C-2.4161804 8.0850745 -2.4161804 8.0850745 -3 5 C-5.37500791 2.12359384 -5.37500791 2.12359384 -8 0 C-4.71303767 -0.79953138 -3.28976808 -1.09658936 0 0 Z " fill="#7A973A" transform="translate(108,23)"/>
<path d="M0 0 C0 3.23345185 -0.66887922 4.87345328 -1.9375 7.8125 C-3.48588525 11.54941565 -4.57340702 14.94736673 -5 19 C-4.34 19 -3.68 19 -3 19 C-3 18.34 -3 17.68 -3 17 C-2.34 17 -1.68 17 -1 17 C-0.67 16.34 -0.34 15.68 0 15 C-0.33 18.3 -0.66 21.6 -1 25 C-1.66 25 -2.32 25 -3 25 C-3 24.01 -3 23.02 -3 22 C-4.32 22.99 -5.64 23.98 -7 25 C-7.59796033 16.030595 -5.86697329 7.07735173 0 0 Z " fill="#80949A" transform="translate(68,68)"/>
<path d="M0 0 C1.6744239 0.6469365 3.34302621 1.30959426 5 2 C5 2.66 5 3.32 5 4 C6.65 4 8.3 4 10 4 C10.33 4.66 10.66 5.32 11 6 C8.36 6 5.72 6 3 6 C3 5.01 3 4.02 3 3 C2.401875 3.226875 1.80375 3.45375 1.1875 3.6875 C0.465625 3.790625 -0.25625 3.89375 -1 4 C-2.75 2.5625 -2.75 2.5625 -4 1 C-4.33 1.99 -4.66 2.98 -5 4 C-8.941316 6.25218057 -11.65621014 6.01018369 -16 5 C-16 4.67 -16 4.34 -16 4 C-13.69 4 -11.38 4 -9 4 C-9 3.34 -9 2.68 -9 2 C-8.01 2 -7.02 2 -6 2 C-6 1.34 -6 0.68 -6 0 C-3.43417606 -1.28291197 -2.6963913 -0.84743727 0 0 Z " fill="#CEEBF9" transform="translate(38,119)"/>
<path d="M0 0 C0.99 0 1.98 0 3 0 C3 2.31 3 4.62 3 7 C3.66 7 4.32 7 5 7 C5 4.69 5 2.38 5 0 C5.99 0 6.98 0 8 0 C8 2.97 8 5.94 8 9 C5.66705225 9.04241723 3.33297433 9.04092937 1 9 C0 8 0 8 -0.09765625 6.15234375 C-0.06510417 4.1015625 -0.03255208 2.05078125 0 0 Z " fill="#313131" transform="translate(277,88)"/>
<path d="M0 0 C2.5625 0.1875 2.5625 0.1875 4.5625 2.1875 C4.75 5.25 4.75 5.25 4.5625 8.1875 C3.5625 9.1875 3.5625 9.1875 0.625 9.4375 C-0.385625 9.355 -1.39625 9.2725 -2.4375 9.1875 C-4.4375 6.1875 -4.4375 6.1875 -4.125 3.5625 C-3.16420807 0.24340062 -3.16420807 0.24340062 0 0 Z M-0.4375 2.1875 C-0.7675 3.5075 -1.0975 4.8275 -1.4375 6.1875 C-0.4475 6.5175 0.5425 6.8475 1.5625 7.1875 C1.2325 5.5375 0.9025 3.8875 0.5625 2.1875 C0.2325 2.1875 -0.0975 2.1875 -0.4375 2.1875 Z " fill="#313131" transform="translate(188.4375,87.8125)"/>
<path d="M0 0 C0.33 0 0.66 0 1 0 C1.18451025 13.6332574 1.18451025 13.6332574 0 20 C-2.97 20 -5.94 20 -9 20 C-9 18.35 -9 16.7 -9 15 C-6.36 15.33 -3.72 15.66 -1 16 C-0.67 10.72 -0.34 5.44 0 0 Z " fill="#D18C43" transform="translate(112,99)"/>
<path d="M0 0 C0.33 0 0.66 0 1 0 C1.33 4.95 1.66 9.9 2 15 C3.87824891 13.12175109 3.39102397 9.96064724 3.5625 7.4375 C3.64628906 6.23996094 3.73007813 5.04242188 3.81640625 3.80859375 C3.87699219 2.88175781 3.93757813 1.95492187 4 1 C4.33 1 4.66 1 5 1 C5.85919657 16.00730004 5.85919657 16.00730004 3 19.9375 C-1.04124248 22.7158542 -3.18548337 22.48961186 -8 22 C-8 21.67 -8 21.34 -8 21 C-4.535 20.505 -4.535 20.505 -1 20 C-0.67 13.4 -0.34 6.8 0 0 Z " fill="#7A8C56" transform="translate(66,97)"/>
<path d="M0 0 C0.66 0.33 1.32 0.66 2 1 C1.95875 2.2375 1.9175 3.475 1.875 4.75 C1.86341709 8.01637962 2.1431298 10.2146947 4 13 C3.34 13.66 2.68 14.32 2 15 C1.71889885 19.77871948 2.23033561 24.28580561 3 29 C2.34 29 1.68 29 1 29 C-0.77487553 25.20491631 -1.19952581 22.43113263 -0.9765625 18.26171875 C-0.925 17.19501953 -0.8734375 16.12832031 -0.8203125 15.02929688 C-0.75585938 13.92650391 -0.69140625 12.82371094 -0.625 11.6875 C-0.56828125 10.56537109 -0.5115625 9.44324219 -0.453125 8.28710938 C-0.31203308 5.52405926 -0.16065719 2.76197015 0 0 Z " fill="#686C6D" transform="translate(95,64)"/>
<path d="M0 0 C0.33 0.99 0.66 1.98 1 3 C1.99 3.33 2.98 3.66 4 4 C4 4.66 4 5.32 4 6 C2.35 6 0.7 6 -1 6 C-1.33 5.01 -1.66 4.02 -2 3 C-2.99 2.67 -3.98 2.34 -5 2 C-5.33 2.99 -5.66 3.98 -6 5 C-6.66 5 -7.32 5 -8 5 C-8 5.66 -8 6.32 -8 7 C-10.64 6.67 -13.28 6.34 -16 6 C-16 5.67 -16 5.34 -16 5 C-14.35 5 -12.7 5 -11 5 C-10.67 4.01 -10.34 3.02 -10 2 C-6.75515269 -0.28341107 -3.87540045 -0.17615457 0 0 Z " fill="#CFEBF6" transform="translate(145,110)"/>
<path d="M0 0 C1 1 1 1 1.125 4.5 C1 8 1 8 0 9 C-3 9.125 -3 9.125 -6 9 C-7 8 -7 8 -7.0625 4.4375 C-7.041875 3.303125 -7.02125 2.16875 -7 1 C-4.51588385 -0.24205807 -2.74800896 -0.14092354 0 0 Z M-4 2 C-4.33 2.99 -4.66 3.98 -5 5 C-4.67 5.66 -4.34 6.32 -4 7 C-3.01 6.67 -2.02 6.34 -1 6 C-1.33 4.68 -1.66 3.36 -2 2 C-2.66 2 -3.32 2 -4 2 Z " fill="#313131" transform="translate(275,88)"/>
<path d="M0 0 C2.64 0 5.28 0 8 0 C8 0.66 8 1.32 8 2 C6.35 2 4.7 2 3 2 C3 2.99 3 3.98 3 5 C4.32 5 5.64 5 7 5 C7 5.66 7 6.32 7 7 C5.68 7 4.36 7 3 7 C3 8.65 3 10.3 3 12 C2.01 12 1.02 12 0 12 C0 8.04 0 4.08 0 0 Z " fill="#313131" transform="translate(260,85)"/>
<path d="M0 0 C0.66 0 1.32 0 2 0 C2.33 1.65 2.66 3.3 3 5 C3.66 4.34 4.32 3.68 5 3 C5.99 3.33 6.98 3.66 8 4 C7.443125 4.86625 7.443125 4.86625 6.875 5.75 C5.70833333 8 5.70833333 8 6.875 10.25 C7.24625 10.8275 7.6175 11.405 8 12 C4.125 11.125 4.125 11.125 3 10 C2.67 10.66 2.34 11.32 2 12 C1.34 12 0.68 12 0 12 C0 8.04 0 4.08 0 0 Z " fill="#313131" transform="translate(223,85)"/>
<path d="M0 0 C0.33 0 0.66 0 1 0 C1.33 2.64 1.66 5.28 2 8 C3.32 8 4.64 8 6 8 C6.33 10.31 6.66 12.62 7 15 C4.36 14.67 1.72 14.34 -1 14 C-0.67 9.38 -0.34 4.76 0 0 Z " fill="#A9BF58" transform="translate(66,40)"/>
<path d="M0 0 C2.33294775 -0.04241723 4.66702567 -0.04092937 7 0 C8 1 8 1 8.09765625 2.84765625 C8.04882812 5.92382812 8.04882812 5.92382812 8 9 C7.34 9 6.68 9 6 9 C5.67 7.02 5.34 5.04 5 3 C4.67 3 4.34 3 4 3 C3.67 4.98 3.34 6.96 3 9 C2.01 9 1.02 9 0 9 C0 6.03 0 3.06 0 0 Z " fill="#313131" transform="translate(286,88)"/>
<path d="M0 0 C1.32 0 2.64 0 4 0 C4 4.62 4 9.24 4 14 C2.35 13.67 0.7 13.34 -1 13 C-0.67 8.71 -0.34 4.42 0 0 Z " fill="#FBCB8E" transform="translate(76,108)"/>
<path d="M0 0 C1.32 0 2.64 0 4 0 C4.33 4.29 4.66 8.58 5 13 C3.35 13.33 1.7 13.66 0 14 C0 9.38 0 4.76 0 0 Z " fill="#FCCA8D" transform="translate(89,108)"/>
<path d="M0 0 C0.66 0.33 1.32 0.66 2 1 C2.08097324 3.27024968 2.13917704 5.54132075 2.1875 7.8125 C2.22230469 9.07707031 2.25710937 10.34164062 2.29296875 11.64453125 C2 15 2 15 0.48828125 16.94921875 C-0.00285156 17.29597656 -0.49398437 17.64273438 -1 18 C-1.02684312 15.18743719 -1.04676188 12.37512759 -1.0625 9.5625 C-1.07087891 8.76005859 -1.07925781 7.95761719 -1.08789062 7.13085938 C-1.0965143 5.08704779 -1.0522815 3.04316098 -1 1 C-0.67 0.67 -0.34 0.34 0 0 Z " fill="#A7CF61" transform="translate(68,96)"/>
<path d="M0 0 C1.32 1.32 2.64 2.64 4 4 C3.01 4.495 3.01 4.495 2 5 C1.67 5.99 1.34 6.98 1 8 C0.67 7.34 0.34 6.68 0 6 C-0.33 6.99 -0.66 7.98 -1 9 C-7.75 7.375 -7.75 7.375 -10 4 C-7.03 4.33 -4.06 4.66 -1 5 C-0.67 3.35 -0.34 1.7 0 0 Z " fill="#E53637" transform="translate(84,91)"/>
<path d="M0 0 C0.33 0 0.66 0 1 0 C1.01417969 0.75925781 1.02835937 1.51851563 1.04296875 2.30078125 C1.18590588 5.27928194 1.38837227 8.07969297 2 11 C4.35547425 13.28795759 4.35547425 13.28795759 7 14 C6.34 15.32 5.68 16.64 5 18 C3.35 18 1.7 18 0 18 C0.99 17.67 1.98 17.34 3 17 C3 16.34 3 15.68 3 15 C1.68 15.33 0.36 15.66 -1 16 C-0.83628906 15.46890625 -0.67257813 14.9378125 -0.50390625 14.390625 C0.11356377 11.46123236 0.09501925 8.74177064 0.0625 5.75 C0.05347656 4.67234375 0.04445313 3.5946875 0.03515625 2.484375 C0.02355469 1.66453125 0.01195313 0.8446875 0 0 Z " fill="#A37F4E" transform="translate(93,108)"/>
<path d="M0 0 C0.99 0.33 1.98 0.66 3 1 C2.67 1.99 2.34 2.98 2 4 C1.67 4 1.34 4 1 4 C0.67 9.94 0.34 15.88 0 22 C-0.33 22 -0.66 22 -1 22 C-1.66 16.39 -2.32 10.78 -3 5 C-3.99 5.495 -3.99 5.495 -5 6 C-3.63016497 2.83884224 -3.0109362 2.0072908 0 0 Z " fill="#7499A9" transform="translate(74,62)"/>
<path d="M0 0 C0.66 0 1.32 0 2 0 C2.33 2.64 2.66 5.28 3 8 C8.94 8.99 8.94 8.99 15 10 C13.68 10.99 12.36 11.98 11 13 C7.02552186 12.23299545 4.37172297 11.24781532 1 9 C0.48828125 6.8359375 0.48828125 6.8359375 0.3125 4.375 C0.24675781 3.55773438 0.18101563 2.74046875 0.11328125 1.8984375 C0.07589844 1.27195313 0.03851563 0.64546875 0 0 Z " fill="#FBCD92" transform="translate(72,46)"/>
<path d="M0 0 C1.98 0 3.96 0 6 0 C6.625 2.375 6.625 2.375 7 5 C6.34 5.66 5.68 6.32 5 7 C2.375 6.625 2.375 6.625 0 6 C0 4.02 0 2.04 0 0 Z " fill="#B5C9D2" transform="translate(88,36)"/>
<path d="M0 0 C1.35862973 3.90480249 0.89469712 7.7101776 0.5625 11.75 C0.51029297 12.44738281 0.45808594 13.14476563 0.40429688 13.86328125 C0.27525928 15.57596203 0.13840386 17.28805066 0 19 C-1.32 19 -2.64 19 -4 19 C-3.855625 18.31421875 -3.71125 17.6284375 -3.5625 16.921875 C-2.72261998 12.55916488 -2.13097148 8.16270751 -1.5 3.765625 C-1 1 -1 1 0 0 Z " fill="#CCE9F8" transform="translate(98,93)"/>
<path d="M0 0 C0.33 0 0.66 0 1 0 C1.33 2.31 1.66 4.62 2 7 C1.34 7.45375 0.68 7.9075 0 8.375 C-0.66 8.91125 -1.32 9.4475 -2 10 C-2 10.66 -2 11.32 -2 12 C-2.99 12.33 -3.98 12.66 -5 13 C-5.6796875 11.296875 -5.6796875 11.296875 -6 9 C-4.8203125 6.640625 -4.8203125 6.640625 -3.125 4.25 C-2.57070312 3.45078125 -2.01640625 2.6515625 -1.4453125 1.828125 C-0.96835938 1.22484375 -0.49140625 0.6215625 0 0 Z " fill="#B7E4F8" transform="translate(71,66)"/>
<path d="M0 0 C1.32 0 2.64 0 4 0 C4.66 1.65 5.32 3.3 6 5 C5.34 5 4.68 5 4 5 C4 6.32 4 7.64 4 9 C2.68 9 1.36 9 0 9 C-1.36623674 6.26752652 -1.128426 4.01801098 -1 1 C-0.67 0.67 -0.34 0.34 0 0 Z " fill="#ECBA7E" transform="translate(68,39)"/>
<path d="M0 0 C3.625 0.1875 3.625 0.1875 6.625 2.1875 C6.625 2.8475 6.625 3.5075 6.625 4.1875 C5.305 3.8575 3.985 3.5275 2.625 3.1875 C2.625 2.5275 2.625 1.8675 2.625 1.1875 C1.965 1.1875 1.305 1.1875 0.625 1.1875 C0.625 1.8475 0.625 2.5075 0.625 3.1875 C-0.695 2.8575 -2.015 2.5275 -3.375 2.1875 C-3.375 3.1775 -3.375 4.1675 -3.375 5.1875 C-5.025 5.1875 -6.675 5.1875 -8.375 5.1875 C-8.375 3.8675 -8.375 2.5475 -8.375 1.1875 C-7.055 1.1875 -5.735 1.1875 -4.375 1.1875 C-3.375 0.1875 -3.375 0.1875 0 0 Z " fill="#F0F1E1" transform="translate(61.375,18.8125)"/>
<path d="M0 0 C-0.33 0.66 -0.66 1.32 -1 2 C-2.65 2 -4.3 2 -6 2 C-6.33 3.32 -6.66 4.64 -7 6 C-7.99 6 -8.98 6 -10 6 C-9.34 7.32 -8.68 8.64 -8 10 C-10.97 10 -13.94 10 -17 10 C-17 9.67 -17 9.34 -17 9 C-15.35 8.67 -13.7 8.34 -12 8 C-12 6.68 -12 5.36 -12 4 C-10.68 4 -9.36 4 -8 4 C-7.87625 3.360625 -7.7525 2.72125 -7.625 2.0625 C-7.41875 1.381875 -7.2125 0.70125 -7 0 C-4.3333581 -1.33332095 -2.83319697 -0.67102033 0 0 Z " fill="#F3FAFE" transform="translate(47,61)"/>
<path d="M0 0 C2.97 0 5.94 0 9 0 C8.67 1.65 8.34 3.3 8 5 C5.36 5.33 2.72 5.66 0 6 C0 4.02 0 2.04 0 0 Z " fill="#96C95C" transform="translate(57,113)"/>
<path d="M0 0 C1.98 0 3.96 0 6 0 C6 0.99 6 1.98 6 3 C6.66 3.33 7.32 3.66 8 4 C7.34 4 6.68 4 6 4 C5.896875 4.639375 5.79375 5.27875 5.6875 5.9375 C5.460625 6.618125 5.23375 7.29875 5 8 C4.01 8.33 3.02 8.66 2 9 C-0.04698414 6.95301586 0.29954307 2.69588759 0 0 Z " fill="#A6DDF5" transform="translate(72,84)"/>
<path d="M0 0 C0 0.66 0 1.32 0 2 C-0.66 2 -1.32 2 -2 2 C-2 2.99 -2 3.98 -2 5 C-1.34 5 -0.68 5 0 5 C-0.33 5.99 -0.66 6.98 -1 8 C-3.64 6.68 -6.28 5.36 -9 4 C-3.7826087 0 -3.7826087 0 0 0 Z " fill="#F8BA73" transform="translate(90,56)"/>
<path d="M0 0 C2.875 -0.1875 2.875 -0.1875 6 0 C8 3 8 3 7.8125 6.0625 C7 9 7 9 4 11 C0.8125 10.625 0.8125 10.625 -2 10 C-2 9.34 -2 8.68 -2 8 C-0.02 8 1.96 8 4 8 C4.33 6.35 4.66 4.7 5 3 C2.525 2.01 2.525 2.01 0 1 C0 0.67 0 0.34 0 0 Z " fill="#B83B38" transform="translate(89,34)"/>
<path d="M0 0 C0 0.33 0 0.66 0 1 C-0.89203125 1.25394531 -1.7840625 1.50789063 -2.703125 1.76953125 C-3.87359375 2.11371094 -5.0440625 2.45789063 -6.25 2.8125 C-7.41015625 3.14894531 -8.5703125 3.48539063 -9.765625 3.83203125 C-12.72201315 4.89961586 -14.64347706 5.96429083 -17 8 C-16.01548548 4.35729627 -15.37294587 3.22218052 -12.0625 1.25 C-7.37134567 -0.66475687 -4.96652308 -0.99330462 0 0 Z " fill="#A2663E" transform="translate(80,22)"/>
<path d="M0 0 C0.33 0 0.66 0 1 0 C1 2.31 1 4.62 1 7 C-1.97 7 -4.94 7 -8 7 C-7.67 5.68 -7.34 4.36 -7 3 C-4.69 3.33 -2.38 3.66 0 4 C0 2.68 0 1.36 0 0 Z " fill="#DA524C" transform="translate(95,100)"/>
<path d="M0 0 C6.0546875 -0.1953125 6.0546875 -0.1953125 8 0 C10 2 10 2 10 6 C11.32 6.33 12.64 6.66 14 7 C12.35 7 10.7 7 9 7 C8.67 5.68 8.34 4.36 8 3 C6.7934375 3.2784375 6.7934375 3.2784375 5.5625 3.5625 C4.716875 3.706875 3.87125 3.85125 3 4 C2.67 3.67 2.34 3.34 2 3 C1.67 3.99 1.34 4.98 1 6 C0.01 5.67 -0.98 5.34 -2 5 C-1.34 5 -0.68 5 0 5 C0 3.35 0 1.7 0 0 Z " fill="#F1F9FD" transform="translate(120,88)"/>
<path d="M0 0 C0 0.99 0 1.98 0 3 C-0.33 3.33 -0.66 3.66 -1 4 C0.98 4 2.96 4 5 4 C5 3.34 5 2.68 5 2 C5.99 2 6.98 2 8 2 C8.33 1.34 8.66 0.68 9 0 C8.66260373 2.530472 8.3938922 3.6818563 6.375 5.3125 C3.05401826 6.27383682 0.35382798 5.64496692 -3 5 C-2.625 3.0625 -2.625 3.0625 -2 1 C-1.34 0.67 -0.68 0.34 0 0 Z " fill="#8F693F" transform="translate(72,120)"/>
<path d="M0 0 C-4.84803364 2.61047965 -9.76727367 4.36041242 -15 6 C-13.63016497 2.83884224 -13.0109362 2.0072908 -10 0 C-3.1292517 -1.56462585 -3.1292517 -1.56462585 0 0 Z " fill="#E6AF70" transform="translate(87,30)"/>
<path d="M0 0 C0.66 1.32 1.32 2.64 2 4 C1.01 4.495 1.01 4.495 0 5 C-0.99 4.67 -1.98 4.34 -3 4 C-3 5.32 -3 6.64 -3 8 C-2.01 8.66 -1.02 9.32 0 10 C-0.639375 10.12375 -1.27875 10.2475 -1.9375 10.375 C-2.618125 10.58125 -3.29875 10.7875 -4 11 C-4.33 11.66 -4.66 12.32 -5 13 C-5 9.7 -5 6.4 -5 3 C-3.35 3 -1.7 3 0 3 C0 2.01 0 1.02 0 0 Z " fill="#8BD3F2" transform="translate(90,79)"/>
<path d="M0 0 C1.65 0 3.3 0 5 0 C5 1.65 5 3.3 5 5 C3.125 5.625 3.125 5.625 1 6 C0.34 5.34 -0.32 4.68 -1 4 C-0.625 1.875 -0.625 1.875 0 0 Z " fill="#43626A" transform="translate(82,75)"/>
<path d="M0 0 C1.33333333 1.33333333 2.66666667 2.66666667 4 4 C4.598125 4.495 5.19625 4.99 5.8125 5.5 C6.204375 5.995 6.59625 6.49 7 7 C6.6875 9.1875 6.6875 9.1875 6 11 C2.83884224 9.63016497 2.0072908 9.0109362 0 6 C-0.125 2.8125 -0.125 2.8125 0 0 Z " fill="#AF7E50" transform="translate(62,29)"/>
<path d="M0 0 C3.87132028 0.57352893 6.08172796 2.48704352 9 5 C8.67 6.32 8.34 7.64 8 9 C7.67 8.34 7.34 7.68 7 7 C3.97065509 6.34227572 3.97065509 6.34227572 1 6 C1.33 4.68 1.66 3.36 2 2 C1.34 2 0.68 2 0 2 C0 1.34 0 0.68 0 0 Z " fill="#EDB16F" transform="translate(88,28)"/>
<path d="M0 0 C0 1.65 0 3.3 0 5 C-0.66 5 -1.32 5 -2 5 C-2 5.99 -2 6.98 -2 8 C-4.31 8 -6.62 8 -9 8 C-9 7.34 -9 6.68 -9 6 C-7.35 6 -5.7 6 -4 6 C-4 4.68 -4 3.36 -4 2 C-1 0 -1 0 0 0 Z " fill="#CFEBF7" transform="translate(26,20)"/>
<path d="M0 0 C1.9375 0.6875 1.9375 0.6875 4 2 C4.75 4.625 4.75 4.625 5 7 C5.99 7.33 6.98 7.66 8 8 C7.67 8.99 7.34 9.98 7 11 C6.01 10.34 5.02 9.68 4 9 C3.67 9.99 3.34 10.98 3 12 C2.86722656 11.38511719 2.73445313 10.77023438 2.59765625 10.13671875 C2.42105469 9.32847656 2.24445313 8.52023438 2.0625 7.6875 C1.88847656 6.88699219 1.71445313 6.08648437 1.53515625 5.26171875 C1.00113841 2.854599 1.00113841 2.854599 0 0 Z " fill="#704C42" transform="translate(95,30)"/>
<path d="M0 0 C1.2065625 0.0309375 1.2065625 0.0309375 2.4375 0.0625 C2.4375 1.7125 2.4375 3.3625 2.4375 5.0625 C0.7875 5.0625 -0.8625 5.0625 -2.5625 5.0625 C-3.125 3.125 -3.125 3.125 -3.5625 1.0625 C-2.5625 0.0625 -2.5625 0.0625 0 0 Z " fill="#313131" transform="translate(273.5625,59.9375)"/>
<path d="M0 0 C0.66 0 1.32 0 2 0 C2.66 0.99 3.32 1.98 4 3 C6.86724686 2.42655063 7.8614515 2.1385485 10 0 C10 1.65 10 3.3 10 5 C6.7 5 3.4 5 0 5 C0 3.35 0 1.7 0 0 Z " fill="#E4842F" transform="translate(79,77)"/>
<path d="M0 0 C0 0.66 0 1.32 0 2 C0.66 2 1.32 2 2 2 C2 2.66 2 3.32 2 4 C0.68 4 -0.64 4 -2 4 C-2 3.34 -2 2.68 -2 2 C-3.65 2.66 -5.3 3.32 -7 4 C-6.6875 2.0625 -6.6875 2.0625 -6 0 C-3 -1 -3 -1 0 0 Z " fill="#CEEBF8" transform="translate(23,74)"/>
<path d="M0 0 C-0.33 1.32 -0.66 2.64 -1 4 C-1 3.34 -1 2.68 -1 2 C-1.680625 2.33 -2.36125 2.66 -3.0625 3 C-6.50840238 4.17307315 -9.38397422 4.14180493 -13 4 C-13 3.34 -13 2.68 -13 2 C-11.20873548 1.66451233 -9.41697413 1.33167645 -7.625 1 C-6.62726563 0.814375 -5.62953125 0.62875 -4.6015625 0.4375 C-2 0 -2 0 0 0 Z " fill="#F8FBFC" transform="translate(94,47)"/>
<path d="M0 0 C1.98 0 3.96 0 6 0 C6 1.65 6 3.3 6 5 C5.34 4.34 4.68 3.68 4 3 C3.67 3 3.34 3 3 3 C2.67 3.99 2.34 4.98 2 6 C1.01 5.67 0.02 5.34 -1 5 C-0.67 3.35 -0.34 1.7 0 0 Z " fill="#D1E6F0" transform="translate(75,36)"/>
<path d="M0 0 C0.99 0.33 1.98 0.66 3 1 C2.360625 1.598125 1.72125 2.19625 1.0625 2.8125 C-1.20310389 4.90810337 -1.20310389 4.90810337 -2 8 C-1.34 8 -0.68 8 0 8 C0.66 9.32 1.32 10.64 2 12 C1.01 12 0.02 12 -1 12 C-3.17520782 8.73718826 -3.28244319 7.7659092 -3 4 C-2.67 3.01 -2.34 2.02 -2 1 C-1.34 0.67 -0.68 0.34 0 0 Z " fill="#F8BF36" transform="translate(40,21)"/>
<path d="M0 0 C0.33 0 0.66 0 1 0 C1.3690205 9.41002278 1.3690205 9.41002278 -1 14 C-2.32 14 -3.64 14 -5 14 C-4.67 13.01 -4.34 12.02 -4 11 C-3.34 11 -2.68 11 -2 11 C-1.34 7.37 -0.68 3.74 0 0 Z " fill="#6A99AC" transform="translate(84,82)"/>
<path d="M0 0 C0.33 0 0.66 0 1 0 C1.33 2.31 1.66 4.62 2 7 C2.99 7 3.98 7 5 7 C5.33 6.34 5.66 5.68 6 5 C6 5.99 6 6.98 6 8 C5.195625 8.12375 4.39125 8.2475 3.5625 8.375 C2.716875 8.58125 1.87125 8.7875 1 9 C0.67 9.66 0.34 10.32 0 11 C-1.26026798 8.47946405 -0.91874445 7.1457902 -0.5625 4.375 C-0.46066406 3.55773437 -0.35882813 2.74046875 -0.25390625 1.8984375 C-0.17011719 1.27195312 -0.08632812 0.64546875 0 0 Z " fill="#84B3C6" transform="translate(72,85)"/>
<path d="M0 0 C0.99 0.33 1.98 0.66 3 1 C2.67 2.65 2.34 4.3 2 6 C0.68 6 -0.64 6 -2 6 C-2 3 -2 3 0 0 Z " fill="#61899F" transform="translate(90,62)"/>
<path d="M0 0 C2.0625 0.4375 2.0625 0.4375 4 1 C4 1.66 4 2.32 4 3 C3.34 3 2.68 3 2 3 C2 3.66 2 4.32 2 5 C-0.31 5 -2.62 5 -5 5 C-5 4.34 -5 3.68 -5 3 C-4.360625 2.690625 -3.72125 2.38125 -3.0625 2.0625 C-1.06389179 1.1654837 -1.06389179 1.1654837 0 0 Z " fill="#CEEBF9" transform="translate(110,4)"/>
<path d="M0 0 C0.33 0.99 0.66 1.98 1 3 C4.96 2.34 8.92 1.68 13 1 C13 1.66 13 2.32 13 3 C11.58461283 3.33872513 10.16762037 3.67074624 8.75 4 C7.96109375 4.185625 7.1721875 4.37125 6.359375 4.5625 C4 5 4 5 0 5 C0 3.35 0 1.7 0 0 Z " fill="#D1E4EC" transform="translate(80,48)"/>
<path d="M0 0 C2.475 0.495 2.475 0.495 5 1 C4.6875 2.9375 4.6875 2.9375 4 5 C3.01 5.33 2.02 5.66 1 6 C0 5 0 5 -0.0625 2.4375 C-0.041875 1.633125 -0.02125 0.82875 0 0 Z " fill="#F0F5F7" transform="translate(75,47)"/>
<path d="M0 0 C0 1.65 0 3.3 0 5 C-0.66 5 -1.32 5 -2 5 C-2.66 6.98 -3.32 8.96 -4 11 C-5.25460729 8.49078542 -4.86211613 7.61169775 -4.1875 4.9375 C-4.01605469 4.22464844 -3.84460938 3.51179688 -3.66796875 2.77734375 C-2.92596517 0.80300674 -2.24351379 0 0 0 Z " fill="#8DA144" transform="translate(106,37)"/>
<path d="M0 0 C0.33 0 0.66 0 1 0 C1 2.31 1 4.62 1 7 C1.66 7 2.32 7 3 7 C3.33 9.31 3.66 11.62 4 14 C3.34 14 2.68 14 2 14 C-0.3992233 9.35150485 -0.19957409 5.08913926 0 0 Z " fill="#71A6BD" transform="translate(94,79)"/>
<path d="M0 0 C1.98 0 3.96 0 6 0 C6.33 0.99 6.66 1.98 7 3 C7.66 3.33 8.32 3.66 9 4 C8.01 4 7.02 4 6 4 C5.34 3.34 4.68 2.68 4 2 C3.01 2 2.02 2 1 2 C1 2.66 1 3.32 1 4 C0.34 4 -0.32 4 -1 4 C-0.67 2.68 -0.34 1.36 0 0 Z " fill="#F5FBFE" transform="translate(45,103)"/>
<path d="M0 0 C0.33 0 0.66 0 1 0 C1 1.98 1 3.96 1 6 C0.01 6 -0.98 6 -2 6 C-2.33 6.99 -2.66 7.98 -3 9 C-3 6.36 -3 3.72 -3 1 C-2.01 1.495 -2.01 1.495 -1 2 C-0.67 1.34 -0.34 0.68 0 0 Z " fill="#93CCE5" transform="translate(99,64)"/>
<path d="M0 0 C2.31 0 4.62 0 7 0 C6.67 0.99 6.34 1.98 6 3 C4.02 3 2.04 3 0 3 C0 2.01 0 1.02 0 0 Z " fill="#EE544E" transform="translate(75,103)"/>
<path d="M0 0 C1.11375 0.556875 1.11375 0.556875 2.25 1.125 C-0.97791555 3.2769437 -2.03400809 3.32586443 -5.75 3.125 C-6.08 2.465 -6.41 1.805 -6.75 1.125 C-4.02098495 -0.69434337 -3.21400584 -1.02263822 0 0 Z " fill="#80C5E2" transform="translate(92.75,91.875)"/>
<path d="M0 0 C4.455 0.99 4.455 0.99 9 2 C8.01 2.99 7.02 3.98 6 5 C2.8125 4.6875 2.8125 4.6875 0 4 C0 2.68 0 1.36 0 0 Z " fill="#F3C995" transform="translate(86,43)"/>
<path d="M0 0 C0.99 0.33 1.98 0.66 3 1 C3 2.98 3 4.96 3 7 C2.01 7 1.02 7 0 7 C0 4.69 0 2.38 0 0 Z " fill="#F8C88B" transform="translate(99,39)"/>
<path d="M0 0 C-1.3125 2.5 -1.3125 2.5 -3 5 C-3.99 5 -4.98 5 -6 5 C-6 3.35 -6 1.7 -6 0 C-3 -1 -3 -1 0 0 Z " fill="#785746" transform="translate(75,32)"/>
<path d="M0 0 C1.32 1.32 2.64 2.64 4 4 C3.01 4.495 3.01 4.495 2 5 C1.67 5.99 1.34 6.98 1 8 C0.34 7.34 -0.32 6.68 -1 6 C-0.625 2.875 -0.625 2.875 0 0 Z " fill="#C6413E" transform="translate(84,91)"/>
<path d="M0 0 C2 0 2 0 3.625 1.5 C4.07875 1.995 4.5325 2.49 5 3 C4 5 4 5 1 7 C0 6 0 6 -0.0625 2.9375 C-0.041875 1.968125 -0.02125 0.99875 0 0 Z " fill="#668898" transform="translate(78,63)"/>
<path d="M0 0 C1.32 0.66 2.64 1.32 4 2 C4 2.99 4 3.98 4 5 C2.02 5 0.04 5 -2 5 C-1.34 3.35 -0.68 1.7 0 0 Z " fill="#E0B150" transform="translate(73,119)"/>
<path d="M0 0 C1.65 0 3.3 0 5 0 C5 1.65 5 3.3 5 5 C4.01 4.34 3.02 3.68 2 3 C1.34 3.66 0.68 4.32 0 5 C0 3.35 0 1.7 0 0 Z " fill="#E8BA81" transform="translate(103,88)"/>
<path d="M0 0 C0.33 0.66 0.66 1.32 1 2 C3.02463255 2.65213292 3.02463255 2.65213292 5 3 C4.67 3.66 4.34 4.32 4 5 C3.01 5 2.02 5 1 5 C0.67 5.99 0.34 6.98 0 8 C0 5.36 0 2.72 0 0 Z " fill="#8FD6F5" transform="translate(74,71)"/>
<path d="M0 0 C0.99 1.32 1.98 2.64 3 4 C2.01 5.485 2.01 5.485 1 7 C0.01 7 -0.98 7 -2 7 C-1.34 4.69 -0.68 2.38 0 0 Z " fill="#DFDFB4" transform="translate(34,35)"/>
<path d="M0 0 C0.33 0 0.66 0 1 0 C1.36923077 7.50769231 1.36923077 7.50769231 -0.5 10 C-0.995 10.33 -1.49 10.66 -2 11 C-2.24042276 6.91281305 -1.42258812 3.82320557 0 0 Z " fill="#BBD766" transform="translate(69,103)"/>
<path d="M0 0 C0.433125 0.9590625 0.433125 0.9590625 0.875 1.9375 C1.82823451 4.15206079 1.82823451 4.15206079 4 5 C3.67 5.66 3.34 6.32 3 7 C0.03 6.505 0.03 6.505 -3 6 C-2.67 5.01 -2.34 4.02 -2 3 C-1.34 3 -0.68 3 0 3 C0 2.01 0 1.02 0 0 Z " fill="#8C6B49" transform="translate(108,90)"/>
<path d="M0 0 C0.99 0.33 1.98 0.66 3 1 C3 2.32 3 3.64 3 5 C1.0625 4.6875 1.0625 4.6875 -1 4 C-1.33 3.01 -1.66 2.02 -2 1 C-1.34 0.67 -0.68 0.34 0 0 Z " fill="#BFE4F5" transform="translate(93,88)"/>
<path d="M0 0 C1.65 0 3.3 0 5 0 C5 1.65 5 3.3 5 5 C4.67 4.01 4.34 3.02 4 2 C2.68 2.99 1.36 3.98 0 5 C0 3.35 0 1.7 0 0 Z " fill="#EBBB81" transform="translate(61,88)"/>
<path d="M0 0 C0.99 0 1.98 0 3 0 C3.33 1.32 3.66 2.64 4 4 C2.68 4.33 1.36 4.66 0 5 C-0.33 4.01 -0.66 3.02 -1 2 C-0.67 1.34 -0.34 0.68 0 0 Z " fill="#C7EAFA" transform="translate(87,83)"/>
<path d="M0 0 C1.65 0 3.3 0 5 0 C3.25 5.75 3.25 5.75 1 8 C1.020625 7.05125 1.04125 6.1025 1.0625 5.125 C1.22551826 2.09333717 1.22551826 2.09333717 0 0 Z " fill="#729DAF" transform="translate(67,74)"/>
<path d="M0 0 C0.66 0.33 1.32 0.66 2 1 C1.814375 1.61875 1.62875 2.2375 1.4375 2.875 C0.76313824 5.04160178 0.76313824 5.04160178 2 7 C1.01 7 0.02 7 -1 7 C-1.625 5.1875 -1.625 5.1875 -2 3 C-1.34 2.01 -0.68 1.02 0 0 Z " fill="#92BACB" transform="translate(87,67)"/>
<path d="M0 0 C1.32 0 2.64 0 4 0 C4.33 2.31 4.66 4.62 5 7 C4.01 6.67 3.02 6.34 2 6 C2 4.35 2 2.7 2 1 C1.34 0.67 0.68 0.34 0 0 Z " fill="#959C4C" transform="translate(68,48)"/>
<path d="M0 0 C2 3 2 3 2 6 C0.02 6 -1.96 6 -4 6 C-2.68 4.02 -1.36 2.04 0 0 Z " fill="#ECA66B" transform="translate(97,39)"/>
<path d="M0 0 C2 0.25 2 0.25 4 1 C4.33 1.99 4.66 2.98 5 4 C3.35 4.33 1.7 4.66 0 5 C0.33 4.01 0.66 3.02 1 2 C0.34 1.67 -0.32 1.34 -1 1 C-0.67 0.67 -0.34 0.34 0 0 Z " fill="#8B989E" transform="translate(76,38)"/>
<path d="M0 0 C2.00720923 0.28674418 4.0085944 0.61866701 6 1 C6 1.33 6 1.66 6 2 C4.35 2 2.7 2 1 2 C1 3.98 1 5.96 1 8 C0.01 8.495 0.01 8.495 -1 9 C-1.09765625 2.84765625 -1.09765625 2.84765625 -1 1 C-0.67 0.67 -0.34 0.34 0 0 Z " fill="#8D645B" transform="translate(87,34)"/>
<path d="M0 0 C0.99 0.33 1.98 0.66 3 1 C0.38485683 3.12038635 -2.19637616 5.13091744 -5 7 C-3.75023244 3.34683329 -3.32901247 2.21934164 0 0 Z " fill="#775C43" transform="translate(68,23)"/>
<path d="M0 0 C2.62901288 1.52206009 4.84365964 2.84365964 7 5 C6.67 5.99 6.34 6.98 6 8 C3.66666667 5.66666667 1.33333333 3.33333333 -1 1 C-0.67 0.67 -0.34 0.34 0 0 Z " fill="#AC743C" transform="translate(99,23)"/>
<path d="M0 0 C0 0.66 0 1.32 0 2 C-2.31 2.33 -4.62 2.66 -7 3 C-7 2.01 -7 1.02 -7 0 C-3.98968256 -0.93423645 -3.13349732 -1.04449911 0 0 Z " fill="#CEEBF8" transform="translate(56,9)"/>
<path d="M0 0 C1.65 0 3.3 0 5 0 C5 0.66 5 1.32 5 2 C3.02 2.33 1.04 2.66 -1 3 C-0.67 2.01 -0.34 1.02 0 0 Z " fill="#CEEBF9" transform="translate(25,39)"/>
<path d="M0 0 C1.98 0 3.96 0 6 0 C6 0.66 6 1.32 6 2 C4.02 2.33 2.04 2.66 0 3 C0 2.01 0 1.02 0 0 Z " fill="#CEEBF9" transform="translate(21,117)"/>
<path d="M0 0 C0 0.66 0 1.32 0 2 C-1.98 2 -3.96 2 -6 2 C-6 1.34 -6 0.68 -6 0 C-3 -1 -3 -1 0 0 Z " fill="#CEECFA" transform="translate(151,77)"/>
<path d="M0 0 C1.98 0 3.96 0 6 0 C6 0.66 6 1.32 6 2 C4.02 2 2.04 2 0 2 C0 1.34 0 0.68 0 0 Z " fill="#CEEBF9" transform="translate(24,114)"/>
<path d="M0 0 C1.65 0 3.3 0 5 0 C5 0.66 5 1.32 5 2 C3.35 2.33 1.7 2.66 0 3 C0 2.01 0 1.02 0 0 Z " fill="#CEECFA" transform="translate(27,35)"/>
<path d="M0 0 C2.475 0.495 2.475 0.495 5 1 C2 3 2 3 0 3 C0 2.01 0 1.02 0 0 Z " fill="#F6CC58" transform="translate(28,30)"/>
<path d="M0 0 C0.66 0 1.32 0 2 0 C1.67 1.65 1.34 3.3 1 5 C0.34 3.68 -0.32 2.36 -1 1 C-0.67 0.67 -0.34 0.34 0 0 Z " fill="#F7CD52" transform="translate(43,15)"/>
</svg>
