<svg width="10" height="10" viewBox="0 0 10 10" fill="none" xmlns="http://www.w3.org/2000/svg">
<path d="M5.21607 5.29L8.49679 8.57071C8.20893 8.8525 7.88571 9.09714 7.53679 9.30321L5.21607 5.29ZM4.69071 5.095C4.65929 5.04071 4.64286 4.97929 4.64286 4.91643V0.0178571C2.04893 0.201786 0 2.35929 0 5C0 7.76143 2.23857 10 5 10C5.79964 10 6.5525 9.8075 7.22286 9.47393L4.69071 5.095ZM5.43107 5L8.74072 8.30964C9.52179 7.4275 10 6.27107 10 5H5.43107ZM5 4.64286H9.98214C9.79821 2.04893 7.64071 0 5 0V4.64286Z" fill="#9FA8C4"/>
</svg>
