<svg width="14" height="14" viewBox="0 0 14 14" fill="none" xmlns="http://www.w3.org/2000/svg">
<path d="M0.777778 0H13.2222C13.4285 0 13.6263 0.0819442 13.7722 0.227806C13.9181 0.373667 14 0.571498 14 0.777778V13.2222C14 13.4285 13.9181 13.6263 13.7722 13.7722C13.6263 13.9181 13.4285 14 13.2222 14H0.777778C0.571498 14 0.373667 13.9181 0.227806 13.7722C0.0819442 13.6263 0 13.4285 0 13.2222V0.777778C0 0.571498 0.0819442 0.373667 0.227806 0.227806C0.373667 0.0819442 0.571498 0 0.777778 0ZM1.55556 1.55556V12.4444H12.4444V1.55556H1.55556ZM4.66667 3.11111H7.38889C8.11087 3.11111 8.80327 3.39792 9.31379 3.90843C9.82431 4.41895 10.1111 5.11136 10.1111 5.83333C10.1111 6.55531 9.82431 7.24772 9.31379 7.75823C8.80327 8.26875 8.11087 8.55556 7.38889 8.55556H6.22222V10.8889H4.66667V3.11111ZM6.22222 4.66667V7H7.38889C7.69831 7 7.99505 6.87708 8.21385 6.65829C8.43264 6.4395 8.55556 6.14275 8.55556 5.83333C8.55556 5.52391 8.43264 5.22717 8.21385 5.00838C7.99505 4.78958 7.69831 4.66667 7.38889 4.66667H6.22222Z" fill="#10294D"/>
</svg>
