<svg width="13" height="14" viewBox="0 0 13 14" fill="none" xmlns="http://www.w3.org/2000/svg">
<path d="M13 10.5C13 10.7324 12.9077 10.9546 12.7437 11.1187L10.1187 13.7437C9.77685 14.0854 9.22314 14.0854 8.88135 13.7437L6.25635 11.1187C5.91455 10.7769 5.91455 10.2231 6.25635 9.88135C6.59814 9.53955 7.15186 9.53955 7.49365 9.88135L8.625 11.0127L8.625 4.375C8.625 3.89307 9.01807 3.5 9.5 3.5C9.98193 3.5 10.375 3.89307 10.375 4.375L10.375 11.0127L11.5063 9.88135C11.8481 9.53955 12.4019 9.53955 12.7437 9.88135C12.9077 10.0454 13 10.2676 13 10.5Z" fill="#9FA8C4"/>
<path d="M0.750001 3.5C0.750001 3.26758 0.842286 3.04541 1.00635 2.88135L3.63135 0.256348C3.97315 -0.0854494 4.52686 -0.0854494 4.86865 0.256348L7.49365 2.88135C7.83545 3.22314 7.83545 3.77685 7.49365 4.11865C7.15186 4.46045 6.59814 4.46045 6.25635 4.11865L5.125 2.9873L5.125 9.625C5.125 10.1069 4.73193 10.5 4.25 10.5C3.76807 10.5 3.375 10.1069 3.375 9.625L3.375 2.9873L2.24365 4.11865C1.90186 4.46045 1.34815 4.46045 1.00635 4.11865C0.842286 3.95459 0.750001 3.73242 0.750001 3.5Z" fill="#2E3436" fill-opacity="0.34902"/>
</svg>
