<svg width="10" height="12" viewBox="0 0 10 12" fill="none" xmlns="http://www.w3.org/2000/svg">
<path d="M8.77778 6V2.66667C8.77778 1.74619 8.03161 1 7.11111 1H2.66667C1.74619 1 1 1.74619 1 2.66667V9.33333C1 10.2538 1.74619 11 2.66667 11H3.77778" stroke="#9FA8C4" stroke-linecap="round"/>
<path d="M7.10851 1H7.04678C6.5354 1 6.12084 1.41455 6.12084 1.92593C6.12084 2.0282 6.03795 2.11111 5.93567 2.11111H3.8369C3.73463 2.11111 3.65172 2.0282 3.65172 1.92593C3.65172 1.41455 3.23717 1 2.72579 1H2.66406" stroke="#9FA8C4"/>
<path d="M8.77865 9.33366C8.77865 10.2542 8.03248 11.0003 7.11198 11.0003C6.19148 11.0003 5.44531 10.2542 5.44531 9.33366C5.44531 8.41316 6.19148 7.66699 7.11198 7.66699C8.03248 7.66699 8.77865 8.41316 8.77865 9.33366Z" stroke="#9FA8C4"/>
</svg>
