<svg width="14" height="14" viewBox="0 0 14 14" fill="none" xmlns="http://www.w3.org/2000/svg">
<path d="M4 8.1998L5.07813 6.90602C5.50536 6.39338 5.71898 6.137 5.99998 6.137C6.28102 6.137 6.49462 6.39338 6.92188 6.90602L7.07812 7.09358C7.50538 7.60622 7.71898 7.8626 8.00002 7.8626C8.281 7.8626 8.49466 7.60622 8.92186 7.09358L10 5.7998" stroke="#1C274C" stroke-linecap="round"/>
<path d="M13 7C13 9.8284 13 11.2427 12.1213 12.1213C11.2427 13 9.8284 13 7 13C4.17157 13 2.75736 13 1.87868 12.1213C1 11.2427 1 9.8284 1 7C1 4.17157 1 2.75736 1.87868 1.87868C2.75736 1 4.17157 1 7 1C9.8284 1 11.2427 1 12.1213 1.87868C12.7056 2.46293 12.9014 3.28393 12.9669 4.6" stroke="#1C274C" stroke-linecap="round"/>
</svg>
