<svg width="14" height="14" viewBox="0 0 14 14" fill="none" xmlns="http://www.w3.org/2000/svg">
<path d="M9.93795 0H4.06903C1.51976 0 0 1.51976 0 4.06903V9.93095C0 12.4872 1.51976 14.007 4.06903 14.007H9.93095C12.4802 14.007 14 12.4872 14 9.93795V4.06903C14.007 1.51976 12.4872 0 9.93795 0ZM10.3512 5.39269L6.38018 9.36366C6.28213 9.46171 6.14906 9.51774 6.00899 9.51774C5.86892 9.51774 5.73586 9.46171 5.63781 9.36366L3.65582 7.38168C3.45272 7.17858 3.45272 6.84241 3.65582 6.63931C3.85892 6.43621 4.19509 6.43621 4.39819 6.63931L6.00899 8.25011L9.60879 4.65032C9.81189 4.44722 10.1481 4.44722 10.3512 4.65032C10.5543 4.85342 10.5543 5.18258 10.3512 5.39269Z" fill="#1C274C"/>
</svg>
