<svg width="18" height="18" viewBox="0 0 18 18" fill="none" xmlns="http://www.w3.org/2000/svg">
<path opacity="0.5" fill-rule="evenodd" clip-rule="evenodd" d="M1.31802 16.6819C2.63604 18 4.75736 18 9 18C13.2426 18 15.364 18 16.6819 16.6819C18 15.364 18 13.2426 18 9C18 4.75736 18 2.63604 16.6819 1.31802C15.364 -1.19209e-07 13.2426 0 9 0C4.75736 0 2.63604 -1.19209e-07 1.31802 1.31802C-1.19209e-07 2.63604 0 4.75736 0 9C0 13.2426 -1.19209e-07 15.364 1.31802 16.6819Z" fill="#9FA6C1"/>
<path d="M10.28 13.8256L13.4409 5.57638C13.6944 4.91496 13.0846 4.30525 12.4232 4.55869L4.17402 7.71957C3.42662 8.00595 3.40232 9.054 4.1379 9.27747L7.2672 10.2283C7.51056 10.3023 7.69731 10.489 7.77129 10.7324L8.72214 13.8617C8.94561 14.5973 9.99366 14.573 10.28 13.8256Z" fill="#1C274C"/>
</svg>
