<svg width="14" height="12" viewBox="0 0 14 12" fill="none" xmlns="http://www.w3.org/2000/svg">
<path d="M0.701708 5.78665C0.43547 5.93988 0.2254 6.17746 0.106568 6.46432C3.12924e-08 6.72164 0 7.04777 0 7.7001C0 8.35243 3.12924e-08 8.67856 0.106568 8.93588C0.248661 9.27888 0.521206 9.55146 0.864241 9.69356C1.04091 9.76671 1.25007 9.78967 1.575 9.79681V11.2001C1.575 11.49 1.81005 11.7251 2.1 11.7251C2.38995 11.7251 2.625 11.49 2.625 11.2001V9.8001H11.375V11.2001C11.375 11.49 11.6101 11.7251 11.9 11.7251C12.1899 11.7251 12.425 11.49 12.425 11.2001V9.79681C12.7499 9.78967 12.9591 9.76671 13.1358 9.69356C13.4788 9.55146 13.7514 9.27888 13.8935 8.93588C14 8.67856 14 8.35243 14 7.7001C14 7.04777 14 6.72164 13.8935 6.46432C13.7746 6.17746 13.5645 5.93988 13.2983 5.78672L12.075 5.60017L11.9 5.6001H2.1L1.92502 5.60017L0.701708 5.78665Z" fill="#2A375D" fill-opacity="0.7"/>
<path opacity="0.5" d="M6.29949 0H7.69949C10.3393 0 11.6593 -8.34465e-08 12.4794 0.820099C13.1951 1.53583 13.2862 2.63227 13.2978 4.65458V5.78634L12.0762 5.60007H1.92619L0.70288 5.78655L0.701172 5.78753V4.65458C0.712764 2.63227 0.803855 1.53583 1.51958 0.820099C2.33968 -8.34465e-08 3.65962 0 6.29949 0Z" fill="#2A375D" fill-opacity="0.7"/>
<path d="M11.8996 4.55C11.8996 3.71946 11.8982 3.16157 11.8429 2.74541C11.79 2.34785 11.6986 2.17769 11.5876 2.06542C11.4765 1.95315 11.3082 1.86078 10.915 1.80732C10.5034 1.75137 9.95154 1.75 9.13002 1.75H7.63867V4.55H11.8996Z" fill="#2A375D" fill-opacity="0.7"/>
<path d="M6.36051 4.55V1.75H4.86917C4.04767 1.75 3.49584 1.75137 3.0842 1.80732C2.69096 1.86078 2.52265 1.95315 2.41161 2.06542C2.30055 2.17769 2.20918 2.34785 2.15631 2.74541C2.10097 3.16157 2.09961 3.71946 2.09961 4.55H6.36051Z" fill="#2A375D" fill-opacity="0.7"/>
</svg>
