<svg width="15" height="11" viewBox="0 0 15 11" fill="none" xmlns="http://www.w3.org/2000/svg">
<path d="M6.91963 10.7458C7.6116 10.7458 8.23189 10.4278 8.6371 9.93224C8.90672 9.65171 8.90672 9.65171 9.1779 9.93224C9.58311 10.4278 10.2018 10.7458 10.8954 10.7458C11.5873 10.7458 12.2076 10.4278 12.6128 9.93224C12.8824 9.65171 12.8824 9.65171 13.1536 9.93224C13.5588 10.4278 14.1776 10.7458 14.8711 10.7458V10.3078C14.1885 10.3078 13.576 9.91821 13.2814 9.31975C13.1209 8.99091 12.6487 8.99091 12.4866 9.31975C12.1936 9.91821 11.5795 10.3078 10.8969 10.3078C10.2143 10.3078 9.60181 9.91821 9.30725 9.31975C9.14673 8.99091 8.6745 8.99091 8.51242 9.31975C8.21942 9.91821 7.60537 10.3078 6.92275 10.3078C6.24012 10.3078 5.62763 9.91821 5.33308 9.31975C5.17255 8.99091 4.70033 8.99091 4.53824 9.31975C4.24524 9.91821 3.6312 10.3078 2.94857 10.3078C2.25037 10.3078 1.64411 9.90263 1.3589 9.31975C1.18279 8.99558 0.741738 8.99558 0.9272 9.43508C1.26851 10.205 2.0462 10.7458 2.95013 10.7458C3.64211 10.7458 4.26239 10.4278 4.6676 9.93224C4.93722 9.65171 4.93722 9.65171 5.2084 9.93224C5.60737 10.4278 6.2261 10.7458 6.91963 10.7458ZM9.19504 2.42651V1.54284C9.19036 1.30439 8.99711 1.11269 8.7571 1.11269C8.51553 1.11269 8.31916 1.30906 8.31916 1.55063C8.31916 1.55063 8.31916 1.98857 7.88122 1.98857C7.44329 1.98857 7.44328 1.55063 7.44328 1.55063C7.44328 0.825929 8.03084 0.236816 8.7571 0.236816C9.4818 0.236816 10.0709 0.824371 10.0709 1.55063V6.73264C10.2096 6.59549 10.3281 6.43497 10.4153 6.25418C10.5759 5.92534 11.0481 5.92534 11.2102 6.25418C11.5032 6.85265 12.1172 7.24227 12.7998 7.24227C13.4981 7.24227 14.1043 6.83706 14.3895 6.25418C14.5656 5.93001 15.0067 5.93001 14.8212 6.36951C14.4799 7.13941 13.7022 7.68021 12.7983 7.68021C12.1063 7.68021 11.486 7.36228 11.0808 6.86667C10.8112 6.58614 10.8112 6.58614 10.54 6.86667C10.1348 7.36228 9.51609 7.68021 8.82256 7.68021C8.13058 7.68021 7.5103 7.36228 7.10509 6.86667C6.83547 6.58614 6.83547 6.58614 6.56429 6.86667C6.15908 7.36228 5.54036 7.68021 4.84683 7.68021C4.15485 7.68021 3.53457 7.36228 3.12936 6.86667C2.85974 6.58614 2.85974 6.58614 2.58856 6.86667C2.18335 7.36228 1.56463 7.68021 0.871094 7.68021V7.24227C1.55372 7.24227 2.16621 6.85265 2.46076 6.25418C2.62129 5.92534 3.09351 5.92534 3.2556 6.25418C3.5486 6.85265 4.16264 7.24227 4.84527 7.24227C5.33931 7.24227 5.79751 7.03811 6.12479 6.69835V1.5444C6.12012 1.30595 5.92687 1.11425 5.68686 1.11425C5.44529 1.11425 5.24892 1.31062 5.24892 1.55219C5.24892 1.55219 5.24892 1.99013 4.81098 1.99013C4.37304 1.99013 4.37928 1.55219 4.37928 1.55219C4.37928 0.827488 4.96683 0.238375 5.69309 0.238375C6.41779 0.238375 7.00691 0.825929 7.00691 1.55219V2.42807L9.19504 2.42651Z" fill="#10294D"/>
<path d="M6.25391 2.92578H8.17344V3.69414H6.25391V2.92578ZM6.25391 4.4625H8.17344V5.23086H6.25391V4.4625ZM8.17344 6.34922V5.99785H6.82402C7.10156 6.23984 7.4625 6.38203 7.84941 6.38203C7.96016 6.38203 8.06816 6.37109 8.17344 6.34922Z" fill="white"/>
</svg>
