<svg width="14" height="14" viewBox="0 0 14 14" fill="none" xmlns="http://www.w3.org/2000/svg">
<path d="M13.518 10.8065C13.4305 10.5877 13.2118 10.4565 12.9493 10.544L11.8118 10.9377C10.6305 11.3315 9.31803 11.2002 8.22428 10.6752L8.31178 10.5877C9.05553 9.84399 9.05553 8.61899 8.31178 7.87524L5.03053 4.59399C4.46178 3.93774 3.41178 3.93774 2.79928 4.55024L0.874283 6.47524C0.743033 6.60649 0.655533 6.78149 0.655533 7.00024C0.655533 7.21899 0.743033 7.39399 0.874283 7.52524C1.13678 7.78774 1.53053 7.83149 1.79303 7.61274L3.93678 6.21274L5.16178 7.43774L4.02428 8.57524C3.32428 8.53149 2.58053 8.61899 1.88053 8.83774L0.743033 9.23149C0.524283 9.31899 0.393033 9.53774 0.480533 9.80024C0.568033 10.019 0.786783 10.1502 1.04928 10.0627L2.18678 9.66899C3.76178 9.14399 5.51178 9.49399 6.73678 10.6315C7.74303 11.5502 9.05553 12.0315 10.4118 12.0315C10.9805 12.0315 11.593 11.944 12.1618 11.769L13.2993 11.3752C13.4743 11.2877 13.6055 11.0252 13.518 10.8065Z" fill="black"/>
<path d="M10.0625 7.4375C11.2875 7.4375 12.25 6.475 12.25 5.25C12.25 4.025 11.2875 3.0625 10.0625 3.0625C8.8375 3.0625 7.875 4.025 7.875 5.25C7.875 6.475 8.8375 7.4375 10.0625 7.4375Z" fill="black"/>
</svg>
