<svg width="24" height="24" viewBox="0 0 24 24" fill="none" xmlns="http://www.w3.org/2000/svg">
<path d="M17.9613 17.5114C21.2678 14.2877 21.2678 9.06095 17.9613 5.8372C14.6547 2.61346 9.29366 2.61346 5.98708 5.8372C2.68051 9.06095 2.68051 14.2877 5.98708 17.5114C9.29366 20.7352 14.6547 20.7352 17.9613 17.5114Z" fill="#FFAE0D"/>
<path d="M11.6614 7.96338L8.86747 10.6878V12.6833C8.86396 12.9437 8.87047 14.7354 10.387 16.038C11.9781 17.4061 13.9131 17.1061 14.1562 17.0641C14.7943 16.2598 15.4319 15.4553 16.0691 14.6504L14.1712 14.7105C13.7703 14.6719 12.4287 14.4979 11.936 13.5628C11.8303 13.3614 11.7967 13.188 11.7291 12.8411V10.6873H15.1078V7.96338H11.6614Z" fill="#F0F2F5"/>
<path d="M8.37305 7.03516C8.43018 8.00194 8.48748 8.96888 8.54494 9.93598L9.84394 8.71448L8.37305 7.03516Z" fill="white"/>
<path d="M11.404 7.24281L8.37305 7.03516L10.306 8.27767L11.404 7.24281Z" fill="white"/>
</svg>
