<svg width="10" height="14" viewBox="0 0 10 14" fill="none" xmlns="http://www.w3.org/2000/svg">
<path opacity="0.5" d="M7.78995 0.919922L9.31132 1.83642L9.50865 4.29999C9.51403 4.36718 9.51675 4.40079 9.51878 4.43266C9.59245 5.59117 9.14463 6.71765 8.3071 7.48075C8.28406 7.50177 8.25934 7.52348 8.20997 7.56692C8.162 7.60916 8.13797 7.63032 8.11472 7.65127C7.27859 8.40438 6.68685 9.40873 6.42045 10.5271C6.41305 10.5582 6.40579 10.59 6.39133 10.6539L6.21606 11.4276C5.98325 12.4552 5.86678 12.9691 5.62168 13.2926C5.24788 13.7859 4.65999 14.049 4.05799 13.9925C3.6631 13.9555 3.22339 13.6905 2.34393 13.1607L1.87429 12.8779C0.994836 12.3481 0.555107 12.0832 0.326905 11.7449C-0.0210334 11.2292 -0.0965679 10.5664 0.125999 9.98203C0.27197 9.59874 0.64025 9.2366 1.3768 8.5124L1.93134 7.96711C1.97705 7.92214 1.99992 7.89972 2.02201 7.87745C2.81706 7.07755 3.35482 6.04073 3.56185 4.9086C3.56758 4.87713 3.57316 4.84487 3.5842 4.78034C3.59558 4.71401 3.60124 4.68085 3.60717 4.64953C3.82176 3.51119 4.5329 2.54326 5.53132 2.03059C5.55876 2.01648 5.58802 2.00212 5.64647 1.97338L7.78995 0.919922Z" fill="#1C274C"/>
<path fill-rule="evenodd" clip-rule="evenodd" d="M8.3071 7.48057C9.05169 6.80211 9.48826 5.83644 9.52422 4.81639L8.40933 5.18801C7.79413 5.39308 7.11693 5.27229 6.61053 4.86719C6.02829 4.40136 5.22826 4.31661 4.56132 4.65009L3.53462 5.16344L3.50592 5.17776C3.26727 6.20458 2.75356 7.1412 2.02201 7.87727C1.99992 7.89947 1.97705 7.92196 1.93134 7.96693L1.3768 8.51216C0.64025 9.23635 0.27197 9.59849 0.125999 9.98178C-0.0965679 10.5662 -0.0210334 11.2289 0.326905 11.7447C0.555107 12.0829 0.994836 12.3478 1.87429 12.8776L2.34393 13.1606C3.22339 13.6903 3.6631 13.9552 4.05799 13.9923C4.65999 14.0489 5.24788 13.7857 5.62168 13.2924C5.86678 12.9689 5.98325 12.455 6.21606 11.4273L6.39133 10.6536C6.40579 10.5899 6.41305 10.5579 6.42045 10.5269C6.68685 9.40848 7.27858 8.40413 8.11472 7.65102C8.13797 7.63007 8.162 7.60898 8.20997 7.56674C8.25934 7.52323 8.28406 7.50152 8.3071 7.48057Z" fill="#1C274C"/>
<path d="M7.78906 0.919755L9.31043 1.83626L9.63214 1.25493C9.7248 1.08739 9.77117 1.00362 9.77494 0.920907C9.77822 0.848117 9.75895 0.776081 9.7197 0.714673C9.67515 0.644893 9.5931 0.595489 9.42914 0.496687L8.87721 0.164223C8.70194 0.058634 8.6143 0.00583617 8.52751 0.000633891C8.45125 -0.00393993 8.37556 0.0163316 8.31173 0.0584107C8.23918 0.106272 8.1896 0.195793 8.09058 0.374842L7.78906 0.919755Z" fill="#1C274C"/>
</svg>
