<svg width="14" height="10" viewBox="0 0 14 10" fill="none" xmlns="http://www.w3.org/2000/svg">
<path fill-rule="evenodd" clip-rule="evenodd" d="M5.9998 8.8101L6.99964 9.79995L7.9995 8.8101C7.44725 8.2634 6.55205 8.2634 5.9998 8.8101ZM4.00009 6.83059L4.99995 7.82043C6.10233 6.72843 7.89696 6.72843 9.00005 7.82043L9.99991 6.83059C8.34316 5.18979 5.65684 5.18979 4.00009 6.83059ZM0 2.8707L0.999841 3.86037C4.30839 0.585073 9.69161 0.585073 12.9995 3.86037L14 2.8707C10.1335 -0.9569 3.86575 -0.9569 0 2.8707ZM11.9996 4.85022L10.9997 5.84006C8.79428 3.65676 5.20572 3.65676 2.99955 5.84006L1.9997 4.85022C4.76095 2.11672 9.23834 2.11672 11.9996 4.85022Z" fill="#10294D"/>
</svg>
