<svg width="10" height="10" viewBox="0 0 10 10" fill="none" xmlns="http://www.w3.org/2000/svg">
<path d="M4.61523 1.28125C4.63867 1.28125 4.66797 1.29297 4.69336 1.32812C4.58008 1.16602 4.82031 1.23633 4.83398 1.08203C4.9707 0.980469 4.92188 0.914062 4.96094 0.910156L5.00391 0.875C4.91992 0.90625 4.89062 0.912109 4.86719 0.912109C4.86133 0.912109 4.85547 0.912109 4.84961 0.912109C4.84375 0.912109 4.83594 0.912109 4.82812 0.912109C4.79883 0.912109 4.75 0.917969 4.63477 0.953125C4.37109 0.972656 4.18164 1.25781 4.0918 1.26562C4 1.31445 4.00391 1.32422 4.02539 1.32422C4.03125 1.32422 4.03906 1.32227 4.04688 1.32227C4.05469 1.32227 4.06055 1.32031 4.06641 1.32031C4.08789 1.32031 4.08203 1.33008 3.95703 1.38867C3.98633 1.39648 3.73828 1.50586 3.73633 1.67773C3.72852 1.74414 3.75586 1.78906 3.80078 1.78906C3.83984 1.78906 3.88867 1.75977 3.94141 1.68555C4.11719 1.48242 4.48828 1.46289 4.64844 1.33984C4.54883 1.33203 4.56836 1.28125 4.61523 1.28125ZM3.72266 1.34961C3.70508 1.34961 3.72852 1.32812 3.75391 1.30664C3.78125 1.28516 3.8125 1.26367 3.8125 1.26367C3.8125 1.26367 3.8125 1.26367 3.81055 1.26562C3.91602 1.22461 3.85156 1.21484 3.9082 1.1875C3.90625 1.1875 3.90625 1.1875 3.9043 1.1875C3.89258 1.1875 3.91406 1.17188 3.93359 1.1543C3.95312 1.13867 3.9707 1.12109 3.95312 1.12109C3.94336 1.12109 3.91797 1.12695 3.875 1.14453C3.88867 1.125 3.94141 1.11133 4.01562 1.07031C3.9082 1.10547 3.82422 1.12695 3.81445 1.12695C3.80664 1.12695 3.85156 1.11133 3.98633 1.07031C3.99219 1.07031 3.99805 1.07227 4.00195 1.07227C4.01562 1.07227 4.02148 1.06836 4.01953 1.06445C4.01758 1.06055 4.00977 1.05859 3.99609 1.05859C3.80273 1.07422 3.6582 1.19531 3.70117 1.21094C3.72656 1.20312 3.74414 1.19922 3.75586 1.19922C3.78125 1.19922 3.76953 1.2207 3.71875 1.25195C3.74219 1.30664 3.32812 1.44727 3.28125 1.49805C3.30469 1.48438 3.32031 1.48047 3.32812 1.48047C3.35938 1.48047 3.31836 1.54102 3.27734 1.57031C3.30273 1.59375 3.32227 1.60156 3.33789 1.60156C3.37891 1.60156 3.39648 1.54492 3.43164 1.52734C3.43945 1.54297 3.44727 1.55078 3.45703 1.55078C3.49023 1.55078 3.53125 1.46875 3.56445 1.42578C3.57422 1.43555 3.58594 1.44336 3.60156 1.44336C3.63281 1.44336 3.67969 1.41797 3.75391 1.3457C3.73828 1.34766 3.72656 1.34961 3.72266 1.34961ZM3.27344 1.70898C3.20313 1.75195 3.16602 1.76953 3.15039 1.76953C3.12109 1.76953 3.16016 1.71484 3.19531 1.6582C3.23047 1.60352 3.26172 1.54883 3.2168 1.54883C3.19531 1.54883 3.15625 1.56055 3.09375 1.5918C2.92383 1.70508 2.63672 2.01758 2.50977 2.01758C2.50586 2.01758 2.50195 2.01758 2.49805 2.01758C2.70312 1.86719 2.64258 1.57227 2.92969 1.49609C3.21289 1.33398 3.40625 1.38477 3.6582 1.19922C3.58398 1.23633 3.47461 1.27734 3.44922 1.27734C3.43359 1.27734 3.45703 1.25781 3.55859 1.20898C3.54883 1.21094 3.54102 1.21289 3.53516 1.21289C3.4668 1.21289 3.98438 1.02734 4.00977 1.02344C3.79688 1.05273 3.45312 1.23047 3.40625 1.23047C3.40039 1.23047 3.40039 1.22852 3.40039 1.22461C3.4082 1.21875 3.4082 1.21484 3.40039 1.21484C3.375 1.21484 3.26953 1.25 3.16211 1.28516C3.05664 1.32031 2.94922 1.35742 2.92578 1.35742C2.91797 1.35742 2.91797 1.35352 2.92969 1.3457C2.00781 1.86914 1.23828 2.75195 0.998047 3.79883C1.09766 4.02734 1.0293 4.46289 1.19336 4.58984C1.38086 4.74805 1.0332 5.20703 1.125 5.49023C1.21875 6.00195 1.62305 6.35156 1.66602 6.875C1.74023 7.23438 2.01172 7.67383 2.125 7.90234C2.21094 7.98828 2.44727 8.23633 2.48828 8.23633C2.50391 8.23633 2.49414 8.19922 2.43164 8.09961C2.39258 7.98828 2.16602 7.69727 2.27539 7.69727C2.28125 7.69727 2.28711 7.69727 2.29492 7.69922C2.16016 7.5625 2.59375 7.59961 2.29102 7.41406C2.25586 7.37109 2.24805 7.35742 2.25586 7.35742C2.26562 7.35742 2.29297 7.37305 2.32422 7.38867C2.35742 7.4043 2.39648 7.41992 2.42773 7.41992C2.47656 7.41992 2.50977 7.38672 2.49023 7.26562C2.49805 7.26953 2.50586 7.26953 2.51172 7.26953C2.5625 7.26953 2.54492 7.16992 2.54883 7.07031C2.55273 6.9707 2.57812 6.87109 2.71484 6.87109C2.73047 6.87109 2.74805 6.87305 2.76562 6.875C3.08203 6.70312 2.80664 6.22852 3.16992 6.05469C3.15625 5.66016 2.62695 5.64062 2.42773 5.48047C2.39453 5.5 2.36328 5.50586 2.33203 5.50586C2.29688 5.50586 2.26562 5.49805 2.23828 5.48828C2.21094 5.48047 2.18555 5.4707 2.16797 5.4707C2.16406 5.4707 2.16016 5.4707 2.15625 5.47266C2.49609 5.38281 2.24805 4.91016 1.9668 4.91016C1.96094 4.91016 1.95312 4.91016 1.94727 4.91016C1.92578 4.70508 1.82031 4.7832 1.80859 4.61328C1.79102 4.62305 1.77344 4.62695 1.75586 4.62695C1.70898 4.62695 1.66602 4.59375 1.62891 4.5625C1.5918 4.5293 1.56055 4.49805 1.5332 4.49805C1.51172 4.49805 1.49219 4.51953 1.47461 4.58203C1.49414 4.48633 1.48828 4.45508 1.46875 4.45508C1.44922 4.45508 1.41406 4.48828 1.375 4.52148C1.33789 4.55469 1.29492 4.58789 1.26172 4.58789C1.25781 4.58789 1.25586 4.58789 1.25195 4.58789C1.02344 4.42578 1.25391 4.13867 1.13281 3.91797C1.21094 3.83398 1.24219 3.69141 1.20703 3.69141C1.18945 3.69141 1.1543 3.72656 1.09961 3.82227C1.02148 3.62305 1.22852 3.17188 1.4043 3.14648C1.41016 3.14648 1.41406 3.14453 1.41992 3.14453C1.45117 3.14453 1.48242 3.16016 1.50977 3.19336C1.52539 3.28516 1.48633 3.47852 1.50195 3.47852C1.50977 3.47852 1.52539 3.43945 1.56445 3.33789C1.61523 3.10547 1.9707 2.9375 2.00781 2.79492C2.00977 2.79688 2.00977 2.79688 2.01172 2.79688C2.05273 2.79688 2.31641 2.56445 2.43164 2.53906C2.47656 2.49414 2.50781 2.47852 2.53125 2.47852C2.55664 2.47852 2.57031 2.49805 2.58008 2.51562C2.58984 2.53516 2.59766 2.55273 2.60742 2.55273C2.61523 2.55273 2.625 2.54102 2.64258 2.50781C2.58203 2.38867 2.73828 2.27539 2.69531 2.27539C2.67969 2.27539 2.63281 2.29102 2.53711 2.33008C2.52148 2.33789 2.51367 2.33984 2.50977 2.33984C2.49805 2.33984 2.54492 2.30859 2.61328 2.27734C2.68164 2.24609 2.76758 2.21484 2.83984 2.21484C2.875 2.21484 2.90625 2.22266 2.92969 2.24219C3.23242 2.16992 3.06641 2.07031 3.08203 2.07031C3.08203 2.07031 3.08398 2.07031 3.08594 2.07031C3.17188 2.01953 3.14648 1.82812 3.27344 1.70898ZM1.91992 2.50781C1.91602 2.50781 1.93359 2.48242 1.99219 2.41016C2.11328 2.32031 2.21094 2.25977 2.09961 2.20117C2.14844 2.17969 2.19531 2.1543 2.24023 2.12695C2.23828 2.22266 2.1582 2.45508 2.11523 2.45508C2.10547 2.45508 2.0957 2.44141 2.0918 2.41211C2.11719 2.36719 2.11914 2.34961 2.10938 2.34961C2.09375 2.34961 2.04883 2.38867 2.00586 2.42969C1.96289 2.4668 1.92383 2.50781 1.91992 2.50781ZM2.03125 2.56055C1.97852 2.56055 1.98828 2.52734 2.15039 2.49414C2.2207 2.48438 2.16602 2.48828 2.25 2.46875C2.16797 2.53516 2.07617 2.56055 2.03125 2.56055ZM5.06836 2.36328C5.0918 2.35938 5.10938 2.35938 5.12305 2.35938C5.17969 2.35938 5.1543 2.38281 5.12109 2.40625C5.08789 2.42969 5.04688 2.45312 5.07031 2.45312C5.08398 2.45312 5.12109 2.44531 5.19727 2.42383C5.58203 2.39648 5.04687 2.07031 5.13281 1.96094L5.10938 1.95312C4.95117 2.1543 5.21484 2.1582 5.06836 2.36328ZM4.9082 2.37109C4.93555 2.37109 4.9707 2.33984 5.00781 2.25195C5.05859 2.19141 5.03711 2.18359 4.98242 2.1543C4.83203 2.19336 4.8457 2.37109 4.9082 2.37109ZM6.25586 2.99023C6.25 2.99023 6.24609 2.99219 6.24219 2.99414C6.25781 2.99805 6.27344 3.00195 6.28906 3.00195C6.27344 2.99414 6.26367 2.99023 6.25586 2.99023ZM8.87891 3.47656C8.91211 3.54883 8.92969 3.57812 8.93164 3.57812C8.94531 3.57812 8.68555 2.94531 8.57812 2.83203C8.01758 1.91016 7.0957 1.20508 6.04492 0.941406H6.04297C6.01562 0.941406 6.04688 0.955078 6.08398 0.96875C6.12109 0.982422 6.16602 0.996094 6.16602 0.996094C6.16602 0.996094 6.13672 0.986328 6.04688 0.960938C5.94727 0.931641 5.8457 0.910156 5.74219 0.902344C5.72461 0.908203 6.16992 1.08398 6.46875 1.17578C6.36914 1.14453 6.26562 1.11719 6.24023 1.11719C6.22266 1.11719 6.24023 1.12891 6.3125 1.16016C6.22461 1.13477 6.1875 1.12305 6.18359 1.12305C6.17773 1.12305 6.30078 1.16406 6.41602 1.20508C6.5332 1.24609 6.64453 1.28711 6.61328 1.28711C6.60547 1.28711 6.58398 1.2832 6.55078 1.27734C6.65039 1.33203 6.68555 1.35352 6.67969 1.35352C6.66992 1.35352 6.54688 1.29492 6.41992 1.23633C6.29492 1.17773 6.16797 1.11914 6.15039 1.11914C6.14062 1.11914 6.16602 1.13867 6.25195 1.18945C6.36914 1.24023 6.48633 1.29102 6.45312 1.29102C6.4375 1.29102 6.39258 1.28125 6.30469 1.25586C6.5 1.35547 6.16602 1.31641 6.2793 1.45117C6.2168 1.39258 6.19141 1.37305 6.18555 1.37305C6.17969 1.37305 6.19531 1.39648 6.21094 1.41992C6.22656 1.44336 6.23828 1.4668 6.22461 1.4668C6.22266 1.4668 6.22266 1.4668 6.2207 1.4668C6.35742 1.61523 6.125 1.48242 6.29102 1.61523C6.16602 1.55859 5.95312 1.46484 6.04883 1.46484C6.07227 1.46484 6.11719 1.4707 6.1875 1.48633C6.06055 1.33789 5.70117 1.33203 5.69336 1.31445C5.60352 1.32031 5.60156 1.38867 5.61719 1.51367C5.61523 1.71094 5.42188 1.71484 5.44727 1.82812C5.44727 1.82617 5.44922 1.82617 5.44922 1.82617C5.45312 1.82617 5.45508 1.86523 5.4668 1.90625C5.48047 1.94531 5.50391 1.98633 5.55469 1.98633C5.58203 1.98633 5.61719 1.97461 5.66016 1.94531C5.7207 2.05469 5.77539 2.09375 5.81836 2.09375C5.88281 2.09375 5.92188 2.00586 5.91797 1.92578C5.84766 1.88672 5.75586 1.5625 5.85742 1.5625C5.87305 1.5625 5.89258 1.57031 5.91797 1.58789C5.75977 1.97656 6.54297 1.7168 6.09961 1.89453C6.19922 2.02539 6.03711 2.01953 6.08398 2.17773C6.00781 2.19922 5.92383 2.21875 5.84961 2.21875C5.74023 2.21875 5.65625 2.17188 5.66602 2.00781C5.5293 2.08008 5.80273 2.32422 5.53125 2.32422H5.51562C5.38477 2.56445 4.89453 2.48242 5.2793 2.73633C5.30078 2.84766 5.23047 2.86719 5.14062 2.86719C5.11719 2.86719 5.0918 2.86523 5.06641 2.86328C5.04102 2.86133 5.01562 2.86133 4.99219 2.86133C4.89062 2.86133 4.81836 2.88672 4.88086 3.04492C4.83594 3.20898 4.94141 3.28125 5.07031 3.28125C5.22656 3.28125 5.41797 3.17969 5.43164 3.01172C5.51562 2.88477 5.62305 2.83203 5.73438 2.83203C5.91016 2.83203 6.0957 2.96484 6.2168 3.12891C6.22656 3.14453 6.23438 3.15039 6.23828 3.15039C6.24805 3.15039 6.23828 3.11133 6.23438 3.07227C6.23047 3.04102 6.23047 3.00977 6.24219 3C6.06836 2.95117 5.93555 2.74023 5.99414 2.74023C6.01367 2.74023 6.05469 2.76367 6.12109 2.82617C6.125 2.82617 6.12891 2.82617 6.13086 2.82617C6.24023 2.82617 6.32617 2.91211 6.39258 2.99805C6.46094 3.08398 6.51172 3.16992 6.55664 3.16992C6.57422 3.16992 6.5918 3.1543 6.60742 3.11914C6.59961 3.10742 6.58008 3.07422 6.57031 3.04102C6.55859 3 6.55859 2.95898 6.61133 2.95898C6.63281 2.95898 6.66211 2.9668 6.70312 2.98242C6.83594 2.94727 6.61914 2.60156 6.79492 2.60156C6.8125 2.60156 6.83398 2.60547 6.86133 2.61328C6.85937 2.67383 6.88672 2.69531 6.91211 2.69531C6.96289 2.69531 7.01367 2.62305 6.89062 2.60156C6.9375 2.55664 6.96484 2.53906 6.98438 2.53906C7.05273 2.53906 6.99805 2.76562 7.23438 2.76562C7.31445 2.95508 6.53906 2.7793 6.78711 3.14258C6.84375 3.18359 6.91406 3.19141 6.98242 3.19141C7.00391 3.19141 7.02344 3.19141 7.04297 3.18945C7.0625 3.18945 7.08203 3.1875 7.09961 3.1875C7.2207 3.1875 7.30664 3.2168 7.25391 3.4668C7.18945 3.51367 7.11719 3.5293 7.04297 3.5293C6.97656 3.5293 6.91016 3.51758 6.8457 3.50586C6.78125 3.49414 6.71875 3.48242 6.66211 3.48242C6.57422 3.48242 6.50391 3.51172 6.46094 3.61328C6.23242 3.51953 5.93164 3.51562 5.96094 3.23242C5.5625 3.28906 5.14648 3.25977 4.85352 3.50391C4.83594 3.86133 4.22266 3.97656 4.37109 4.38281C4.19336 4.75781 4.58594 5.2832 4.98633 5.2832C5 5.2832 5.01562 5.2832 5.0293 5.28125C5.24805 5.2793 5.46875 5.18164 5.66211 5.18164C5.76172 5.18164 5.85156 5.20703 5.92969 5.28516C5.94727 5.2832 5.96289 5.28125 5.97656 5.28125C6.27539 5.28125 5.88086 5.75586 6.23828 5.83594C6.5625 6.17188 6.03906 6.51758 6.29492 6.83984C6.32227 7.0918 6.44727 7.30273 6.44727 7.54883C6.48047 7.55273 6.51172 7.55469 6.54492 7.55469C6.95703 7.55469 7.21484 7.19531 7.45703 6.92383C7.38281 6.51758 8.0332 6.4375 7.81055 5.98242C7.70703 5.48438 8.30078 5.18945 8.26758 4.69141C8.27344 4.62109 8.25391 4.59961 8.22461 4.59961C8.19531 4.59961 8.15234 4.62109 8.11133 4.64062C8.06836 4.66211 8.02148 4.68164 7.98438 4.68164C7.93555 4.68164 7.89844 4.64844 7.89453 4.53906C7.60742 4.27148 7.47656 3.9082 7.20898 3.61328C7.55664 3.78125 7.75391 4.16016 7.91406 4.50391C7.92773 4.50781 7.94141 4.50977 7.95703 4.50977C8.24023 4.50977 8.63477 3.83203 8.20508 3.66797C8.18164 3.73242 8.15039 3.75586 8.11328 3.75586C8.04883 3.75586 7.97461 3.67773 7.92188 3.60156C7.86914 3.52344 7.8418 3.44531 7.87109 3.44531C7.89062 3.44531 7.93359 3.47656 8.00781 3.55859C8.0918 3.61133 8.17383 3.625 8.25977 3.625C8.34375 3.625 8.42969 3.61133 8.51953 3.60352C8.63281 3.64844 8.68164 3.79297 8.7168 3.79297C8.72266 3.79297 8.73047 3.78711 8.73633 3.77344C8.82617 3.98828 8.92969 4.37109 9.02344 4.47461C8.97461 4.14648 8.96289 3.79883 8.87891 3.47656ZM7.78906 3.02539C7.56836 2.96875 7.49609 2.69531 7.32227 2.53711C7.32031 2.49414 7.38477 2.50195 7.36914 2.42969C7.60352 2.50195 7.52734 2.57422 7.50586 2.58789C7.5918 2.73047 7.83203 2.82812 7.78906 3.02539ZM4.75586 1.53906C4.54297 1.60156 4.51367 1.5332 4.55078 1.66406C4.56641 1.67578 4.5957 1.67969 4.625 1.67969C4.72852 1.68164 4.86914 1.62109 4.75586 1.53906ZM7.88281 6.91992C8.16211 6.68359 8.19727 6.40234 8.21094 6.11719C8.08594 6.36133 7.71484 6.63086 7.88281 6.91992ZM6.61133 3.11133C6.60938 3.11328 6.60938 3.11328 6.60938 3.11523C6.61133 3.11914 6.61328 3.11914 6.61328 3.11914C6.61328 3.11914 6.61328 3.11719 6.61133 3.11133ZM5 0C2.23828 0 0 2.23828 0 5C0 7.76172 2.23828 10 5 10C7.76172 10 10 7.76172 10 5C10 2.23828 7.76172 0 5 0ZM5 9.61523C2.45117 9.61523 0.384766 7.54883 0.384766 5C0.384766 2.45117 2.45117 0.384766 5 0.384766C7.54883 0.384766 9.61523 2.45117 9.61523 5C9.61523 7.54883 7.54883 9.61523 5 9.61523Z" fill="#9FA8C4"/>
</svg>
