<svg width="317" height="254" viewBox="0 0 317 254" fill="none" xmlns="http://www.w3.org/2000/svg">
<path d="M116.71 197.241C91.5677 197.241 89.9219 170.5 81.7018 171.284C75.285 171.899 90.4943 159.853 86.5969 153.146C82.6996 146.439 92.4396 152.059 86.5969 148.6C80.7543 145.142 78.4781 153.482 72.9124 157.622C67.3467 161.763 90.778 125.135 86.5969 131.485C72.6422 152.667 58.5727 176.368 37.026 182.143C33.3568 183.181 29.4268 182.734 26.0838 180.9C15.7765 175.199 15.9521 161.022 17.7488 149.256C24.3276 106.797 46.462 70.6877 72.9124 44.7168C97.0731 20.9951 125.705 4.2711 155.763 0.691234C185.82 -2.88863 217.269 7.40516 240.727 32.3021C264.185 57.199 278.673 97.226 275.674 136.604C275.35 140.853 274.763 145.297 272.696 148.6C271.489 150.568 269.665 152.08 267.509 152.902C265.352 153.725 262.984 153.81 260.774 153.146C256.512 151.951 252.784 148.634 249.393 145.041C233.966 128.776 234.637 219.51 221.905 199.632L203.12 219.441C189.28 197.969 193.728 235.323 145.912 212.952C125.761 209.366 134.773 190.993 116.71 197.241Z" fill="#DDD2FF"/>
<path d="M244.875 228.642C244.875 228.642 249.792 205.406 240.822 192.843C231.852 180.28 248.927 192.701 250.879 204.481C250.879 204.481 253.817 183.414 245.131 168.595C236.445 153.775 252.723 165.913 254.074 181.192C254.074 181.192 256.735 162.401 252.723 151.843C248.711 141.286 255.675 148.074 258.343 154.694C261.011 161.313 257.512 177.7 257.512 177.7C257.512 177.7 264.476 147.392 271.068 149.804C277.661 152.215 261.214 172.093 258.91 182.407C258.91 182.407 266.685 168.507 272.581 171.398C278.478 174.289 263.449 175.734 256.567 196.463L254.148 206.183C254.148 206.183 261.301 192.458 265.982 196.788C270.663 201.117 252.163 208.588 247.853 229.405L244.875 228.642Z" fill="#643DE3"/>
<path opacity="0.2" d="M244.875 228.642C244.875 228.642 249.792 205.406 240.822 192.843C231.852 180.28 248.927 192.701 250.879 204.481C250.879 204.481 253.817 183.414 245.131 168.595C236.445 153.775 252.723 165.913 254.074 181.192C254.074 181.192 256.735 162.401 252.723 151.843C248.711 141.286 255.675 148.074 258.343 154.694C261.011 161.313 257.512 177.7 257.512 177.7C257.512 177.7 264.476 147.392 271.068 149.804C277.661 152.215 261.214 172.093 258.91 182.407C258.91 182.407 266.685 168.507 272.581 171.398C278.478 174.289 263.449 175.734 256.567 196.463L254.148 206.183C254.148 206.183 261.301 192.458 265.982 196.788C270.663 201.117 252.163 208.588 247.853 229.405L244.875 228.642Z" fill="black"/>
<path d="M245.84 229.979C245.84 229.979 246.874 200.685 261.342 188.284C275.81 175.882 251.697 185.697 245.84 199.219C245.84 199.219 248.596 173.12 263.402 157.956C278.208 142.792 255.128 152.553 248.927 170.405C248.927 170.405 251.339 147.102 259.262 135.646C267.185 124.191 256.85 130.243 251.683 137.382C246.516 144.522 245.827 165.19 245.827 165.19C245.827 165.19 246.502 126.811 237.897 127.737C229.292 128.662 243.071 157.348 242.727 170.405C242.727 170.405 237.553 151.438 229.63 153.147C221.707 154.856 239.275 161.056 241.342 187.932V200.3C241.342 200.3 236.864 181.732 229.974 185.521C223.085 189.31 243.071 203.758 242.031 229.979H245.84Z" fill="#643DE3"/>
<path d="M235.642 250.593H252.778C255.318 250.593 258.121 248.419 259.181 245.366L261.572 238.469H226.848L229.239 245.366C230.292 248.419 233.136 250.593 235.642 250.593Z" fill="white" stroke="#263238" stroke-width="0.5" stroke-linecap="round" stroke-linejoin="round"/>
<path d="M226.43 243.089H261.993C263.154 243.089 264.607 241.927 265.269 240.387L269.193 231.404C270.193 229.121 269.787 227.128 268.213 227.128H220.21C218.636 227.128 218.231 229.121 219.23 231.404L223.155 240.387C223.816 241.927 225.269 243.089 226.43 243.089Z" fill="white" stroke="#263238" stroke-width="0.5" stroke-linecap="round" stroke-linejoin="round"/>
<path d="M261.572 231.431H269.191" stroke="#263238" stroke-width="0.5" stroke-linecap="round" stroke-linejoin="round"/>
<path d="M251.631 231.431H256.123" stroke="#263238" stroke-width="0.5" stroke-linecap="round" stroke-linejoin="round"/>
<path d="M219.229 231.431H249.38" stroke="#263238" stroke-width="0.5" stroke-linecap="round" stroke-linejoin="round"/>
<path d="M37.4209 138.517L35.7931 135.815C35.658 135.607 35.5825 135.367 35.5749 135.119C35.5672 134.872 35.6277 134.627 35.7496 134.412C35.8716 134.197 36.0504 134.019 36.2665 133.898C36.4827 133.778 36.7278 133.719 36.9751 133.728H39.3932C39.6249 133.72 39.8547 133.772 40.0604 133.879C40.2661 133.986 40.4408 134.145 40.5677 134.339C40.6945 134.533 40.7693 134.756 40.7849 134.987C40.8004 135.219 40.7561 135.45 40.6563 135.659L39.4067 138.53L37.4209 138.517Z" fill="#263238" stroke="#263238" stroke-width="0.5" stroke-linecap="round" stroke-linejoin="round"/>
<path d="M39.4077 231.917H37.4219V136.788C37.4219 136.657 37.4476 136.528 37.4975 136.408C37.5474 136.287 37.6205 136.178 37.7127 136.085C37.8049 135.993 37.9143 135.92 38.0348 135.87C38.1553 135.82 38.2844 135.795 38.4148 135.795C38.5452 135.795 38.6743 135.82 38.7947 135.87C38.9152 135.92 39.0247 135.993 39.1169 136.085C39.2091 136.178 39.2822 136.287 39.3321 136.408C39.382 136.528 39.4077 136.657 39.4077 136.788V231.917Z" fill="white" stroke="#263238" stroke-width="0.5" stroke-linecap="round" stroke-linejoin="round"/>
<path d="M15.4621 250.978C17.5996 250.978 19.3324 249.246 19.3324 247.108C19.3324 244.971 17.5996 243.238 15.4621 243.238C13.3246 243.238 11.5918 244.971 11.5918 247.108C11.5918 249.246 13.3246 250.978 15.4621 250.978Z" fill="#263238"/>
<path d="M36.1125 250.978C38.25 250.978 39.9828 249.246 39.9828 247.108C39.9828 244.971 38.25 243.238 36.1125 243.238C33.975 243.238 32.2422 244.971 32.2422 247.108C32.2422 249.246 33.975 250.978 36.1125 250.978Z" fill="#263238"/>
<path d="M15.4621 243.238H11.5918V247.108H15.4621V243.238Z" fill="#5C5C5C"/>
<path d="M40.0363 243.238H36.166V247.108H40.0363V243.238Z" fill="#5C5C5C"/>
<path d="M14.557 159.449H37.1236C37.9083 159.449 38.6608 159.76 39.2156 160.315C39.7704 160.87 40.0821 161.623 40.0821 162.407V243.238H11.5918V162.407C11.5918 162.018 11.6685 161.633 11.8176 161.273C11.9667 160.914 12.1853 160.588 12.4607 160.313C12.7361 160.038 13.0631 159.82 13.4228 159.672C13.7825 159.524 14.1679 159.448 14.557 159.449Z" fill="#BFBFBF" stroke="#263238" stroke-width="0.5" stroke-miterlimit="10"/>
<path d="M31.0127 195.936H27.6152V211.924H31.0127V195.936Z" fill="#263238" stroke="#263238" stroke-width="0.5" stroke-linecap="round" stroke-linejoin="round"/>
<path d="M31.012 159.442H27.6348V157.747C27.6348 157.295 27.8141 156.862 28.1333 156.543C28.4525 156.224 28.8855 156.044 29.3369 156.044C29.5601 156.044 29.7811 156.088 29.9872 156.174C30.1934 156.26 30.3806 156.385 30.5381 156.543C30.6956 156.702 30.8203 156.889 30.9051 157.096C30.9899 157.302 31.0331 157.523 31.0323 157.747L31.012 159.442Z" fill="#263238" stroke="#263238" stroke-width="0.5" stroke-linecap="round" stroke-linejoin="round"/>
<path d="M11.5918 164.123C11.5918 163.88 16.6847 159.449 16.6847 159.449" stroke="#263238" stroke-width="0.5" stroke-linecap="round" stroke-linejoin="round"/>
<path d="M39.6768 164.123C39.6768 163.88 34.584 159.449 34.584 159.449" stroke="#263238" stroke-width="0.5" stroke-linecap="round" stroke-linejoin="round"/>
<path d="M11.5918 238.226C11.5918 238.469 16.6847 242.907 16.6847 242.907" stroke="#263238" stroke-width="0.5" stroke-linecap="round" stroke-linejoin="round"/>
<path d="M40.089 238.706C40.089 238.949 34.9961 243.386 34.9961 243.386" stroke="#263238" stroke-width="0.5" stroke-linecap="round" stroke-linejoin="round"/>
<path d="M27.6123 159.449H24.2148V242.988H27.6123V159.449Z" fill="#5C5C5C" stroke="#263238" stroke-width="0.5" stroke-linecap="round" stroke-linejoin="round"/>
<path d="M0.818359 250.796H280.156" stroke="#263238" stroke-width="0.5" stroke-linecap="round" stroke-linejoin="round"/>
<path d="M50.6646 235.517C50.5076 236.059 50.4776 236.63 50.5768 237.186C50.9415 238.537 52.7179 238.976 54.1364 238.841C54.8938 238.814 55.6378 238.633 56.323 238.309C57.0081 237.985 57.6201 237.524 58.1215 236.956C58.6465 236.157 59.0155 235.265 59.209 234.329C60.9786 227.826 62.7461 221.322 64.5112 214.815C65.1892 212.561 65.6883 210.258 66.004 207.926C66.0842 207.494 66.0468 207.048 65.8959 206.635C65.5244 205.825 64.4842 205.622 63.5926 205.568C61.6523 205.444 59.7046 205.51 57.777 205.764C51.1239 206.635 53.238 211.107 53.0489 216.301C52.7989 222.762 52.0013 229.191 50.6646 235.517Z" fill="white" stroke="#263238" stroke-width="0.5" stroke-linecap="round" stroke-linejoin="round"/>
<path d="M59.0267 248.317C58.263 249.051 57.3375 249.595 56.3249 249.905C50.381 252.181 43.9643 254.491 37.811 252.897C37.179 252.803 36.6054 252.475 36.2034 251.978C35.9607 251.572 35.8675 251.095 35.94 250.627C39.3172 251.424 47.1794 251.087 47.4833 250.749C47.7388 250.413 47.8743 250.002 47.8683 249.58C48.0625 247.907 47.7245 246.215 46.9025 244.744C46.568 244.203 46.1285 243.734 45.61 243.365C45.0915 242.996 44.5043 242.735 43.8832 242.596C44.8669 241.908 45.7869 241.132 46.6323 240.28C46.6796 240.232 46.7268 240.171 46.7876 240.117L47.0781 240.171C49.1517 240.962 50.2324 243.197 51.1307 245.237C51.5495 246.203 51.8062 248.696 51.9615 248.783C52.1169 248.871 55.8589 248.108 57.5137 246.858C58.6147 246.034 58.5404 243.616 58.1148 242.313C57.649 241.014 56.7653 239.907 55.6022 239.165C55.0213 238.773 51.6779 238.01 48.7126 237.355C49.5705 236.004 50.3607 234.849 50.8065 235.004C53.5556 236.004 57.8109 236.578 58.5674 236.288C60.3708 235.612 60.0804 241.813 60.1007 243.718C60.1007 245.325 60.0736 247.081 59.0267 248.317Z" fill="#263238" stroke="#263238" stroke-width="0.5" stroke-linecap="round" stroke-linejoin="round"/>
<path d="M46.8906 244.724C47.7127 246.194 48.0506 247.887 47.8565 249.56C47.8625 249.982 47.7269 250.393 47.4715 250.729C47.1675 251.066 39.2851 251.404 35.9281 250.607C35.925 250.576 35.925 250.544 35.9281 250.512C36.2388 247.811 38.7177 245.973 40.9872 244.494C41.9463 243.88 42.919 243.251 43.8646 242.576C44.4869 242.714 45.0754 242.975 45.5951 243.343C46.1148 243.712 46.5554 244.182 46.8906 244.724Z" fill="white" stroke="#263238" stroke-width="0.5" stroke-linecap="round" stroke-linejoin="round"/>
<path d="M57.5229 246.838C55.8681 248.081 52.1194 248.864 51.9708 248.763C51.8222 248.662 51.5588 246.183 51.14 245.217C50.2552 243.191 49.1744 240.941 47.0873 240.151L46.7969 240.097C47.4957 239.22 48.1343 238.297 48.7084 237.334C51.6736 238.01 55.017 238.753 55.5979 239.145C56.761 239.887 57.6448 240.994 58.1106 242.292C58.5159 243.589 58.5902 246.014 57.5229 246.838Z" fill="white" stroke="#263238" stroke-width="0.5" stroke-linecap="round" stroke-linejoin="round"/>
<path d="M42.9027 247.986C42.3687 248.284 41.7471 248.384 41.1466 248.27C40.9426 248.365 40.7597 248.499 40.6088 248.666C40.4579 248.833 40.3422 249.028 40.2684 249.24C40.1947 249.453 40.1645 249.678 40.1796 249.902C40.1947 250.127 40.2548 250.346 40.3563 250.546C40.5339 250.773 40.7764 250.941 41.0515 251.026C41.3266 251.112 41.6213 251.112 41.8963 251.026C42.4502 250.87 43.308 250.776 43.6592 250.35C45.0101 249.857 45.5099 251.424 47.1513 250.735" stroke="#263238" stroke-width="0.5" stroke-linecap="round" stroke-linejoin="round"/>
<path d="M38.9998 248.722C38.7418 248.963 38.5687 249.28 38.5067 249.628C38.4896 249.885 38.5507 250.141 38.6822 250.363C38.8136 250.585 39.0091 250.762 39.243 250.87C39.6923 251.052 40.1787 251.124 40.6614 251.08H40.4588" stroke="#263238" stroke-width="0.5" stroke-linecap="round" stroke-linejoin="round"/>
<path d="M37.4263 248.486C37.2596 248.636 37.1328 248.825 37.0574 249.036C36.9819 249.247 36.9602 249.474 36.9941 249.695C37.0119 249.84 37.0588 249.98 37.1319 250.107C37.205 250.233 37.3028 250.344 37.4196 250.431C37.5379 250.516 37.6771 250.567 37.8223 250.579C37.9674 250.591 38.113 250.563 38.2436 250.499" stroke="#263238" stroke-width="0.5" stroke-linecap="round" stroke-linejoin="round"/>
<path d="M113.65 235.517C113.81 236.059 113.84 236.631 113.738 237.186C113.373 238.537 111.604 238.976 110.178 238.841C109.421 238.814 108.677 238.633 107.992 238.309C107.307 237.985 106.695 237.524 106.193 236.956C105.668 236.157 105.299 235.265 105.106 234.329C103.336 227.826 101.569 221.322 99.8035 214.815C99.1287 212.561 98.6296 210.257 98.3107 207.926C98.2305 207.494 98.2679 207.048 98.4188 206.635C98.7903 205.825 99.8305 205.622 100.722 205.568C102.662 205.444 104.61 205.51 106.538 205.764C113.191 206.635 111.077 211.107 111.266 216.301C111.516 222.762 112.313 229.191 113.65 235.517Z" fill="white" stroke="#263238" stroke-width="0.5" stroke-linecap="round" stroke-linejoin="round"/>
<path d="M70.1394 124.745C68.6737 123.799 57.3938 164.359 52.2536 183.164C50.5723 189.327 49.7205 195.688 49.7207 202.076V207.689C49.7207 207.689 58.2786 213.876 69.2276 212.053L73.4356 194.032L85.1276 157.443L93.4085 197.362L95.3471 211.323C95.3471 211.323 99.6834 212.519 106.512 211.85C109.909 211.448 113.227 210.537 116.353 209.148L116.09 204.711C115.68 197.759 114.777 190.845 113.388 184.022L101.993 128.088C101.993 128.088 89.1667 136.963 70.1394 124.745Z" fill="#263238" stroke="#263238" stroke-width="0.5" stroke-linecap="round" stroke-linejoin="round"/>
<path d="M77.0221 75.5788C77.0221 75.5788 67.9441 70.979 62.2231 70.979C55.7388 70.979 43.7294 61.0432 43.7294 61.0432L33.3411 34.8765L27.9375 36.3422C27.9375 36.3422 28.9237 52.2962 29.5653 56.7677C30.207 61.2391 33.618 69.9794 34.0368 70.7899C34.4556 71.6004 36.4481 74.0523 37.2586 74.2549C38.0692 74.4576 47.6267 81.57 49.8625 82.7926C52.0982 84.0151 61.0411 89.2971 61.0411 89.2971C61.0411 89.2971 65.5125 100.678 66.1204 102.914C66.7283 105.15 68.7614 115.072 68.9641 116.686C69.1667 118.301 64.8641 134.289 65.6814 135.707C66.4987 137.125 76.7925 135.923 84.9248 135.923C93.0572 135.923 102.844 139.611 103.655 137.166C104.465 134.721 101.291 105.555 101.291 105.555C101.291 105.555 105.56 114.295 107.37 117.146C109.18 119.996 112.051 123.853 114.084 123.853C116.117 123.853 141.953 107.993 141.953 107.993L140.737 102.914C136.975 104.623 133.012 105.853 128.944 106.575C123.256 107.386 115.529 109.419 115.529 109.419C115.529 109.419 107.478 86.9803 103.668 82.9277C101.081 80.1651 89.3085 77.3012 87.4578 77.3012C85.607 77.3012 77.0221 75.5788 77.0221 75.5788Z" fill="#643DE3"/>
<mask id="mask0_1_3091" style="mask-type:luminance" maskUnits="userSpaceOnUse" x="27" y="34" width="115" height="105">
<path d="M77.0221 75.5788C77.0221 75.5788 67.9441 70.979 62.2231 70.979C55.7388 70.979 43.7294 61.0432 43.7294 61.0432L33.3411 34.8765L27.9375 36.3422C27.9375 36.3422 28.9237 52.2962 29.5653 56.7677C30.207 61.2391 33.618 69.9794 34.0368 70.7899C34.4556 71.6004 36.4481 74.0523 37.2586 74.2549C38.0692 74.4576 47.6267 81.57 49.8625 82.7926C52.0982 84.0151 61.0411 89.2971 61.0411 89.2971C61.0411 89.2971 65.5125 100.678 66.1204 102.914C66.7283 105.15 68.7614 115.072 68.9641 116.686C69.1667 118.301 64.8641 134.289 65.6814 135.707C66.4987 137.125 76.7925 135.923 84.9248 135.923C93.0572 135.923 102.844 139.611 103.655 137.166C104.465 134.721 101.291 105.555 101.291 105.555C101.291 105.555 105.56 114.295 107.37 117.146C109.18 119.996 112.051 123.853 114.084 123.853C116.117 123.853 141.953 107.993 141.953 107.993L140.737 102.914C136.975 104.623 133.012 105.853 128.944 106.575C123.256 107.386 115.529 109.419 115.529 109.419C115.529 109.419 107.478 86.9803 103.668 82.9277C101.081 80.1651 89.3085 77.3012 87.4578 77.3012C85.607 77.3012 77.0221 75.5788 77.0221 75.5788Z" fill="white"/>
</mask>
<g mask="url(#mask0_1_3091)">
<g opacity="0.2">
<path d="M58.9859 78.7803L64.43 87.1558C66.0646 89.6685 67.6992 92.1811 69.4081 94.633C76.3495 104.602 84.5446 113.638 93.7917 121.516C92.0176 121.812 90.1958 121.591 88.5434 120.881C89.7481 123.221 91.7202 125.076 94.1294 126.136C88.4003 124.588 82.9931 122.031 78.1618 118.584C77.8762 118.996 77.7149 119.481 77.6969 119.981C77.6789 120.482 77.8052 120.977 78.0605 121.408C78.5794 122.255 79.2696 122.984 80.0869 123.549C82.9261 125.743 85.9319 127.712 89.0771 129.439L80.9717 127.723C80.5146 127.564 80.0171 127.564 79.56 127.723C78.8305 128.081 78.763 129.182 79.2223 129.857C79.7563 130.49 80.459 130.959 81.2486 131.208L88.2665 134.221C89.1243 134.592 90.097 135.099 90.2456 136.024L67.5911 135.984C67.2928 136.023 66.9896 136.002 66.6996 135.922C66.4095 135.842 66.1385 135.704 65.9025 135.518C65.5973 135.118 65.4463 134.622 65.477 134.12C65.3149 129.216 67.8816 124.623 68.3476 119.746C68.7799 115.322 67.5101 107.757 66.22 103.535C64.7591 98.2379 62.8777 93.0656 60.5935 88.0677C59.3142 85.1475 58.7625 81.9605 58.9859 78.7803Z" fill="black"/>
</g>
<path opacity="0.2" d="M104.323 97.3416C104.323 97.3416 99.8783 104.434 102.972 109.608C106.065 114.782 103.141 107.466 104.323 97.3416Z" fill="black"/>
<path opacity="0.2" d="M33.158 68.419C32.4618 67.3237 32.0017 66.0952 31.8071 64.8121C31.7315 64.4807 31.7598 64.134 31.8881 63.8192C32.2191 63.1437 42.9182 72.7013 47.572 76.5041C47.6246 76.5506 47.6914 76.5779 47.7615 76.5816C47.8316 76.5853 47.9009 76.5651 47.9581 76.5244C48.0153 76.4837 48.057 76.4248 48.0764 76.3573C48.0958 76.2898 48.0918 76.2177 48.0651 76.1528C47.6321 75.0639 47.3174 73.9317 47.1262 72.7756C48.0448 74.3832 51.0505 77.139 52.9688 78.9019C53.0582 78.9819 53.1686 79.0346 53.287 79.0539C53.4054 79.0731 53.5269 79.0581 53.637 79.0105C53.7471 78.9629 53.8413 78.8847 53.9084 78.7853C53.9755 78.6858 54.0128 78.5693 54.0157 78.4493C54.0157 77.1525 54.0833 74.7952 54.0157 74.1265C57.6699 81.6037 59.5341 84.9336 61.1687 89.7225C61.2565 89.9387 59.3247 88.4932 58.5615 88.0136C51.7395 83.7719 43.2221 77.882 36.3934 73.6334C34.3062 72.3231 33.158 68.419 33.158 68.419Z" fill="black"/>
</g>
<path d="M77.0221 75.5788C77.0221 75.5788 67.9441 70.979 62.2231 70.979C55.7388 70.979 43.7294 61.0432 43.7294 61.0432L33.3411 34.8765L27.9375 36.3422C27.9375 36.3422 28.9237 52.2962 29.5653 56.7677C30.207 61.2391 33.618 69.9794 34.0368 70.7899C34.4556 71.6004 36.4481 74.0523 37.2586 74.2549C38.0692 74.4576 47.6267 81.57 49.8625 82.7926C52.0982 84.0151 61.0411 89.2971 61.0411 89.2971C61.0411 89.2971 65.5125 100.678 66.1204 102.914C66.7283 105.15 68.7614 115.072 68.9641 116.686C69.1667 118.301 64.8641 134.289 65.6814 135.707C66.4987 137.125 76.7925 135.923 84.9248 135.923C93.0572 135.923 102.844 139.611 103.655 137.166C104.465 134.721 101.291 105.555 101.291 105.555C101.291 105.555 105.56 114.295 107.37 117.146C109.18 119.996 112.051 123.853 114.084 123.853C116.117 123.853 141.953 107.993 141.953 107.993L140.737 102.914C136.975 104.623 133.012 105.853 128.944 106.575C123.256 107.386 115.529 109.419 115.529 109.419C115.529 109.419 107.478 86.9803 103.668 82.9277C101.081 80.1651 89.3085 77.3012 87.4578 77.3012C85.607 77.3012 77.0221 75.5788 77.0221 75.5788Z" stroke="#263238" stroke-width="0.5" stroke-linecap="round" stroke-linejoin="round"/>
<path d="M72.8477 108.973C72.8477 108.973 83.8236 121.576 95.2049 124.42" stroke="#263238" stroke-width="0.5" stroke-linecap="round" stroke-linejoin="round"/>
<path d="M103.547 90.2089L103.905 87.8313" stroke="#263238" stroke-width="0.5" stroke-linecap="round" stroke-linejoin="round"/>
<path d="M101.465 103.887L103.194 92.4988" stroke="#263238" stroke-width="0.5" stroke-linecap="round" stroke-linejoin="round"/>
<path d="M101.668 102.063L105.734 93.1133" stroke="#263238" stroke-width="0.5" stroke-linecap="round" stroke-linejoin="round"/>
<path d="M137.211 104.69L139.143 109.608" stroke="#263238" stroke-width="0.5" stroke-linecap="round" stroke-linejoin="round"/>
<path d="M28.1055 40.0436L34.4749 38.2739" stroke="#263238" stroke-width="0.5" stroke-linecap="round" stroke-linejoin="round"/>
<path d="M58.3315 73.9105L57.9668 72.1814" stroke="#263238" stroke-width="0.5" stroke-linecap="round" stroke-linejoin="round"/>
<path d="M53.3927 70.5128L52.2715 68.115" stroke="#263238" stroke-width="0.5" stroke-linecap="round" stroke-linejoin="round"/>
<path d="M60.8103 86.4062L54.3125 72.4785" stroke="#263238" stroke-width="0.5" stroke-linecap="round" stroke-linejoin="round"/>
<path d="M43.5723 60.3879C43.5723 60.3879 45.5986 68.4933 48.2463 72.5865" stroke="#263238" stroke-width="0.5" stroke-linecap="round" stroke-linejoin="round"/>
<path d="M115.683 108.993C114.609 109.987 113.772 111.21 113.234 112.571C112.697 113.932 112.471 115.396 112.576 116.855" stroke="#263238" stroke-width="0.5" stroke-linecap="round" stroke-linejoin="round"/>
<path d="M73.4824 122.117C78.2432 126.082 83.961 128.727 90.0646 129.79" stroke="#263238" stroke-width="0.5" stroke-linecap="round" stroke-linejoin="round"/>
<path d="M75.2913 67.5072C75.2913 67.5072 76.8786 75.6126 77.4257 76.9635C77.9729 78.3143 78.4322 83.9881 83.4169 83.9881C87.9424 83.9881 87.3278 78.49 87.4696 77.2809C87.6115 76.0719 87.625 71.4045 87.625 71.4045C87.625 71.4045 83.0252 72.6271 80.8705 71.1344C78.7159 69.6416 76.8178 66.001 75.987 66.001C75.1562 66.001 75.2913 67.5072 75.2913 67.5072Z" fill="white"/>
<path d="M80.8439 71.1546C78.6757 69.6686 76.7912 66.0212 75.9671 66.0212C75.1431 66.0212 75.2917 67.5072 75.2917 67.5072C75.2917 67.5072 76.109 71.31 76.7236 73.9037C78.2362 75.3397 80.1398 76.2962 82.1947 76.6528C84.0628 76.7994 85.9269 76.3245 87.497 75.3019C87.6118 73.9983 87.6118 71.4316 87.6118 71.4316C87.6118 71.4316 83.012 72.7014 80.8439 71.1546Z" fill="#263238"/>
<path d="M75.2913 67.5072C75.2913 67.5072 76.8786 75.6126 77.4257 76.9635C77.9729 78.3143 78.4322 83.9881 83.4169 83.9881C87.9424 83.9881 87.3278 78.49 87.4696 77.2809C87.6115 76.0719 87.625 71.4045 87.625 71.4045C87.625 71.4045 83.0252 72.6271 80.8705 71.1344C78.7159 69.6416 76.8178 66.001 75.987 66.001C75.1562 66.001 75.2913 67.5072 75.2913 67.5072Z" stroke="#263238" stroke-width="0.5" stroke-linecap="round" stroke-linejoin="round"/>
<path d="M91.4014 51.3978C91.4014 51.3978 91.8067 58.0306 92.2119 61.0093C92.6172 63.9881 92.7523 67.5139 91.2596 69.7901C89.7668 72.0664 88.2876 73.5726 85.1806 73.9847C82.0735 74.3967 78.1492 72.4919 76.9266 70.6074C75.704 68.7229 74.6233 66.8182 74.6233 66.8182C73.7275 66.7915 72.8496 66.5604 72.0566 66.1427C70.8341 65.4673 69.7534 62.3535 70.1654 61.1309C70.5774 59.9084 72.6038 59.78 72.6038 59.78C72.6038 59.78 71.6581 55.5855 71.111 52.7419C70.8313 51.2574 71.1227 49.7221 71.9268 48.4433C72.7308 47.1645 73.9883 46.2367 75.4474 45.8456C78.8246 44.7581 83.8364 44.8932 86.4099 46.2509C88.9833 47.6085 90.726 49.1012 91.4014 51.3978Z" fill="white"/>
<path d="M91.4011 51.3978C91.4011 51.3978 91.8064 58.0306 92.2117 61.0094C92.6169 63.9881 92.752 67.5139 91.2593 69.7901C89.7665 72.0664 88.2873 73.5726 85.1803 73.9847C82.0732 74.3967 78.1489 72.4919 76.9263 70.6074C75.7038 68.7229 74.6231 66.8182 74.6231 66.8182C73.7272 66.7915 72.8493 66.5604 72.0564 66.1427C70.8338 65.4673 69.9422 62.4008 70.1651 61.1309C70.6785 58.159 73.0763 60.7324 73.0763 60.7324C73.0763 60.7324 71.6579 55.5855 71.1107 52.7419C70.831 51.2574 71.1224 49.7221 71.9265 48.4433C72.7306 47.1645 73.988 46.2367 75.4471 45.8456C78.8243 44.7581 83.8361 44.8932 86.4096 46.2509C88.983 47.6085 90.7257 49.1012 91.4011 51.3978Z" stroke="#263238" stroke-width="0.5" stroke-linecap="round" stroke-linejoin="round"/>
<path d="M89.5044 54.5116C89.0219 54.4502 88.5319 54.4912 88.0663 54.632C87.6008 54.7728 87.1702 55.0103 86.8026 55.3289C85.5801 56.4096 87.343 61.5497 87.343 62.3603C87.343 63.1708 84.7695 63.8462 84.7695 63.8462" stroke="#263238" stroke-width="0.5" stroke-linecap="round" stroke-linejoin="round"/>
<path d="M82.281 56.9028C81.8322 56.2463 81.141 55.795 80.3595 55.6481C79.578 55.5012 78.7701 55.6706 78.1135 56.1192L77.8906 56.2814" stroke="#263238" stroke-width="0.5" stroke-linecap="round" stroke-linejoin="round"/>
<path d="M89.436 59.1926C89.5035 59.7802 89.2401 60.307 88.8348 60.3543C88.4296 60.4016 88.0175 59.9693 87.95 59.3749C87.8824 58.7805 88.1459 58.2604 88.5579 58.2064C88.9699 58.1524 89.3549 58.5644 89.436 59.1926Z" fill="#263238"/>
<path d="M140.648 102.583C140.648 102.583 141.662 98.5304 142.479 97.5037C143.296 96.4771 145.12 95.8759 145.728 94.6534C146.336 93.4308 147.153 91.8097 147.754 92.627C148.045 92.9456 148.236 93.3428 148.304 93.7691C148.371 94.1954 148.311 94.6321 148.132 95.0249C147.787 95.8451 147.292 96.594 146.673 97.2336C146.296 97.6233 146.018 98.0983 145.863 98.6182C145.856 98.7895 145.808 98.9566 145.721 99.1045L157.832 94.3764C158.009 94.4614 158.163 94.5881 158.281 94.7458C158.399 94.9034 158.476 95.0873 158.507 95.2815C158.642 95.957 157.751 96.3825 157.339 96.5243C156.927 96.6662 151.874 98.9627 151.874 98.9627L152.428 99.8543L157.656 99.3882C157.772 99.3828 157.889 99.4003 157.998 99.4398C158.107 99.4793 158.208 99.54 158.294 99.6185C158.38 99.6969 158.45 99.7915 158.499 99.8969C158.548 100.002 158.576 100.116 158.582 100.233C158.591 100.438 158.528 100.641 158.405 100.806C158.282 100.971 158.106 101.088 157.906 101.138L152.773 102.077L152.57 102.968L157.123 103.785C157.323 103.819 157.504 103.926 157.629 104.086C157.754 104.246 157.814 104.447 157.798 104.65C157.776 104.838 157.685 105.011 157.543 105.136C157.401 105.261 157.217 105.328 157.028 105.325L152.489 105.204C153.894 106.014 154.448 106.291 155.866 107.061C158.102 107.987 157.055 109.419 155.724 109.088C155.11 108.966 151.631 107.318 151.631 107.318C151.631 107.318 150.003 107.453 148.592 107.656C147.18 107.858 145.336 108.284 144.573 108.284C143.646 108.171 142.731 107.979 141.837 107.71L140.648 102.583Z" fill="white" stroke="#263238" stroke-width="0.5" stroke-linecap="round" stroke-linejoin="round"/>
<path d="M157.319 91.4179L154.529 91.0937C154.448 91.0822 154.366 91.0931 154.291 91.1253C154.216 91.1574 154.151 91.2096 154.103 91.276C154.042 91.3608 153.964 91.4326 153.875 91.4874C153.785 91.5421 153.686 91.5787 153.583 91.595C153.479 91.6113 153.373 91.607 153.272 91.5824C153.17 91.5578 153.074 91.5134 152.989 91.4516C152.867 91.366 152.773 91.2461 152.719 91.1072C152.69 91.0305 152.639 90.9638 152.573 90.9147C152.508 90.8657 152.429 90.8364 152.347 90.8302L149.564 90.4993C149.487 90.4878 149.408 90.4919 149.332 90.5112C149.255 90.5305 149.184 90.5647 149.121 90.6118C149.058 90.6589 149.006 90.718 148.966 90.7856C148.926 90.8532 148.9 90.9281 148.889 91.0059L147.038 106.744C147.026 106.823 147.03 106.903 147.05 106.98C147.069 107.058 147.105 107.13 147.153 107.193C147.202 107.256 147.263 107.309 147.333 107.348C147.402 107.387 147.479 107.411 147.558 107.419L155.313 108.331C155.391 108.345 155.471 108.344 155.548 108.325C155.625 108.307 155.698 108.273 155.761 108.226C155.825 108.178 155.878 108.118 155.917 108.049C155.956 107.98 155.98 107.903 155.988 107.824L157.845 92.0933C157.858 92.014 157.854 91.933 157.834 91.8553C157.813 91.7776 157.778 91.7049 157.728 91.6416C157.679 91.5783 157.617 91.5258 157.547 91.4874C157.476 91.4489 157.399 91.4252 157.319 91.4179Z" fill="#643DE3"/>
<path d="M158.161 91.9246C158.174 91.8185 158.166 91.7109 158.138 91.6079C158.109 91.5049 158.061 91.4086 157.995 91.3245C157.929 91.2404 157.847 91.1701 157.754 91.1178C157.661 91.0654 157.558 91.032 157.452 91.0195L149.59 90.0941C149.484 90.0809 149.376 90.0888 149.273 90.1173C149.17 90.1459 149.074 90.1945 148.99 90.2604C148.906 90.3263 148.835 90.4082 148.783 90.5014C148.731 90.5946 148.697 90.6972 148.685 90.8033L146.679 107.345C146.651 107.553 146.707 107.764 146.833 107.932C146.959 108.1 147.146 108.212 147.354 108.243L155.277 109.175C155.383 109.189 155.491 109.181 155.594 109.152C155.697 109.124 155.793 109.075 155.877 109.009C155.961 108.943 156.031 108.861 156.084 108.768C156.136 108.675 156.17 108.572 156.182 108.466L158.161 91.9246ZM155.979 107.825C155.971 107.903 155.947 107.98 155.908 108.049C155.869 108.118 155.816 108.178 155.753 108.226C155.689 108.273 155.617 108.307 155.539 108.325C155.462 108.344 155.382 108.346 155.304 108.331L147.55 107.419C147.471 107.411 147.394 107.387 147.324 107.348C147.254 107.309 147.193 107.256 147.145 107.193C147.096 107.13 147.061 107.058 147.041 106.98C147.021 106.903 147.017 106.823 147.03 106.744L148.881 91.006C148.891 90.9282 148.917 90.8533 148.957 90.7857C148.997 90.7181 149.05 90.659 149.113 90.6119C149.176 90.5648 149.247 90.5306 149.323 90.5113C149.399 90.492 149.478 90.4879 149.556 90.4994L152.346 90.8303C152.426 90.8377 152.503 90.8676 152.568 90.9165C152.632 90.9655 152.682 91.0316 152.71 91.1073C152.75 91.2045 152.808 91.293 152.881 91.3678C152.955 91.4425 153.043 91.5019 153.139 91.5427C153.236 91.5835 153.34 91.6048 153.445 91.6054C153.549 91.6061 153.653 91.586 153.751 91.5463C153.887 91.4876 154.005 91.3945 154.095 91.2761C154.141 91.2102 154.205 91.1584 154.279 91.1262C154.353 91.094 154.434 91.0828 154.514 91.0938L157.303 91.418C157.383 91.4262 157.46 91.4505 157.529 91.4893C157.599 91.5282 157.66 91.5808 157.709 91.644C157.757 91.7072 157.792 91.7796 157.812 91.8569C157.832 91.9341 157.836 92.0146 157.823 92.0934L155.979 107.825Z" fill="#263238" stroke="#263238" stroke-width="0.5" stroke-linecap="round" stroke-linejoin="round"/>
<g opacity="0.2">
<path d="M155.555 90.8032L148.186 108.331L150.266 108.574L157.432 91.0261L155.555 90.8032Z" fill="white"/>
</g>
<g opacity="0.2">
<path d="M154.771 90.7087L147.111 108.21L147.415 108.243L154.974 90.7358L154.771 90.7087Z" fill="white"/>
</g>
<path d="M79.9387 58.2063C80.4002 58.331 80.8214 58.5733 81.1612 58.9096C81.501 59.2458 81.7477 59.6644 81.8772 60.1246C81.5879 59.896 81.2456 59.744 80.882 59.6826C80.5184 59.6213 80.1452 59.6524 79.7969 59.7733" stroke="#263238" stroke-width="0.5" stroke-linecap="round" stroke-linejoin="round"/>
<path d="M80.3848 65.5146C80.7084 66.0384 81.1779 66.4563 81.7357 66.7169C82.5286 67.1759 83.4022 67.4786 84.3091 67.6085C85.2327 67.7388 86.1741 67.5882 87.0109 67.1762" stroke="#263238" stroke-width="0.5" stroke-linecap="round" stroke-linejoin="round"/>
<path d="M70.2446 46.8657C69.7581 47.9845 69.4461 49.1713 69.3193 50.3847C68.9005 53.431 68.9816 56.7204 70.6229 59.3141C70.7372 59.5514 70.9341 59.7387 71.1768 59.841C71.4402 59.922 71.7306 59.841 71.994 59.895C72.2156 59.995 72.4017 60.1599 72.5276 60.3678L74.0474 62.3942C73.2199 60.4319 72.9173 58.288 73.1693 56.1733C73.4317 54.0532 74.3806 52.0772 75.8711 50.5468C75.9567 51.033 76.1546 51.4925 76.4489 51.8888C76.7432 52.2851 77.1258 52.6073 77.5665 52.8299C78.45 53.2653 79.3955 53.5615 80.3696 53.7079C79.4535 52.9631 78.7112 52.0272 78.1946 50.9656C79.5996 52.2287 81.6664 52.3165 83.5577 52.3165C85.4489 52.3165 87.5023 52.3638 88.9612 53.5458C90.067 54.5909 90.7821 55.9828 90.9876 57.4904C91.2442 56.0855 92.1561 54.9102 92.7843 53.6269C93.3188 52.5213 93.6418 51.3254 93.7366 50.101C93.8263 49.2654 93.7365 48.4203 93.4732 47.6222C93.1985 46.9099 92.8007 46.2514 92.2979 45.6769C90.2178 43.1531 87.3727 41.3749 84.1926 40.611C81.4914 39.9307 78.6328 40.2949 76.1886 41.631C75.6275 42.0218 75.0886 42.4435 74.5742 42.894C74.0744 43.2655 73.4868 43.4547 72.9599 43.7924C71.7901 44.5483 70.8507 45.6116 70.2446 46.8657Z" fill="#263238"/>
<path d="M33.2721 27.6897L32.6507 28.3651C32.4851 28.5351 32.275 28.6551 32.0445 28.7112C31.8139 28.7674 31.5722 28.7574 31.347 28.6826L30.7527 28.4191C30.7527 27.6897 31.6172 26.717 31.9752 26.0753C32.0531 25.9121 32.1777 25.7758 32.3332 25.6836C32.4683 25.6288 32.6129 25.6013 32.7587 25.6025H33.9475H34.5419C34.6517 25.5936 34.7612 25.6222 34.8526 25.6836C34.9179 25.7688 34.9619 25.8684 34.9809 25.974C35.3495 27.4869 35.3814 29.0623 35.0744 30.5888C34.7675 32.1154 34.1292 33.556 33.2045 34.8088C33.2045 34.8088 29.01 36.0449 28.1184 37.0176L24.4237 28.6285C23.8361 27.3182 23.8901 26.4131 24.3359 25.6836C25.3153 24.0693 27.1728 21.3134 28.4764 21.3675C29.78 21.4215 32.3805 25.7106 32.3805 25.7106L28.9019 29.1351C28.9019 29.1351 25.1329 26.4333 26.5852 26.4333H28.0036L28.1522 27.0075L29.3072 25.7038C28.9894 25.4822 28.7443 25.1716 28.6025 24.8111C28.4607 24.4506 28.4285 24.0562 28.5102 23.6775" fill="white"/>
<path d="M33.2721 27.6897L32.6507 28.3651C32.4851 28.5351 32.275 28.6551 32.0445 28.7112C31.8139 28.7674 31.5722 28.7574 31.347 28.6826L30.7527 28.4191C30.7527 27.6897 31.6172 26.717 31.9752 26.0753C32.0531 25.9121 32.1777 25.7758 32.3332 25.6836C32.4683 25.6288 32.6129 25.6013 32.7587 25.6025H33.9475H34.5419C34.6517 25.5936 34.7612 25.6222 34.8526 25.6836C34.9179 25.7688 34.9619 25.8684 34.9809 25.974C35.3495 27.4869 35.3814 29.0623 35.0744 30.5888C34.7675 32.1154 34.1292 33.556 33.2045 34.8088C33.2045 34.8088 29.01 36.0449 28.1184 37.0176L24.4237 28.6285C23.8361 27.3182 23.8901 26.4131 24.3359 25.6836C25.3153 24.0693 27.1728 21.3134 28.4764 21.3675C29.78 21.4215 32.3805 25.7106 32.3805 25.7106L28.9019 29.1351C28.9019 29.1351 25.1329 26.4333 26.5852 26.4333H28.0036L28.1522 27.0075L29.3072 25.7038C28.9894 25.4822 28.7443 25.1716 28.6025 24.8111C28.4607 24.4506 28.4285 24.0562 28.5102 23.6775" stroke="#263238" stroke-width="0.5" stroke-linecap="round" stroke-linejoin="round"/>
<path d="M29.1523 21.3676C29.463 21.2798 29.5306 20.8272 29.8278 20.6921C30.125 20.5571 30.5032 20.8205 30.6991 21.0771L30.7734 21.165C31.8729 22.3932 32.9098 23.6759 33.8805 25.0082C33.997 25.1482 34.076 25.3156 34.1101 25.4946C34.1199 25.5299 34.1199 25.5673 34.1101 25.6026" stroke="#263238" stroke-width="0.5" stroke-linecap="round" stroke-linejoin="round"/>
<path d="M31.6384 28.8987H31.3412C31.285 28.9496 31.2239 28.9948 31.1588 29.0338C31.0237 29.1351 30.5239 28.8649 30.355 28.9054C29.889 29.0203 29.6391 29.1081 29.5918 28.6353" stroke="#263238" stroke-width="0.5" stroke-linecap="round" stroke-linejoin="round"/>
<path d="M30.7871 21.1649C30.9154 20.996 31.0033 20.7799 31.1991 20.6921C31.5098 20.5435 31.8746 20.8204 32.0705 21.0771C33.1917 22.3334 34.2589 23.6438 35.2518 25.0082C35.3708 25.1466 35.4501 25.3147 35.4815 25.4945C35.471 25.6248 35.4345 25.7517 35.3742 25.8677C35.3138 25.9838 35.2309 26.0865 35.1302 26.1699" stroke="#263238" stroke-width="0.5" stroke-linecap="round" stroke-linejoin="round"/>
<path d="M31.9022 28.7974C31.0119 30.1412 30.62 31.7541 30.7944 33.3566" stroke="#263238" stroke-width="0.5" stroke-linecap="round" stroke-linejoin="round"/>
<path d="M71.6582 59.3208L74.2924 45.6768L75.6704 45.5957" stroke="#BFBFBF" stroke-width="0.5" stroke-linecap="round" stroke-linejoin="round"/>
<path d="M83.5543 45.5958C83.5543 46.3591 82.0548 48.9393 79.6097 48.9393C76.3811 48.9393 75.6719 46.3591 75.6719 45.5958C75.6719 44.8326 77.6577 44.2112 80.1028 44.2112C82.5479 44.2112 83.5543 44.8326 83.5543 45.5958Z" stroke="#BFBFBF" stroke-width="0.5" stroke-linecap="round" stroke-linejoin="round"/>
<path d="M85.2148 45.5958C85.2148 46.3591 86.7143 48.9393 89.1594 48.9393C92.3881 48.9393 93.0973 46.3591 93.0973 45.5958C93.0973 44.8326 91.1115 44.2112 88.6664 44.2112C86.2213 44.2112 85.2148 44.8326 85.2148 45.5958Z" stroke="#BFBFBF" stroke-width="0.5" stroke-linecap="round" stroke-linejoin="round"/>
<path d="M83.4727 45.2446H85.0464" stroke="#BFBFBF" stroke-width="0.5" stroke-linecap="round" stroke-linejoin="round"/>
<path d="M85.5032 135.93C85.5032 135.93 85.5032 150.972 85.125 157.443" stroke="#BFBFBF" stroke-width="0.5" stroke-linecap="round" stroke-linejoin="round"/>
<path d="M85.3438 151.864C86.8095 151.479 89.3964 150.513 89.9773 149.074C90.5582 147.635 90.0651 136.153 90.0651 136.153" stroke="#BFBFBF" stroke-width="0.5" stroke-linecap="round" stroke-linejoin="round"/>
<path d="M52.7929 180.894C52.2548 183.977 51.9791 187.1 51.9689 190.229C51.9564 193.366 52.7396 196.454 54.2452 199.206" stroke="#BFBFBF" stroke-width="0.5" stroke-linecap="round" stroke-linejoin="round"/>
<path d="M114.258 188.263C114.266 192.385 113.424 196.464 111.785 200.246C111.292 201.642 110.399 202.863 109.219 203.758" stroke="#BFBFBF" stroke-width="0.5" stroke-linecap="round" stroke-linejoin="round"/>
<path d="M52.8551 195.997C52.3182 200.167 52.0722 204.37 52.1189 208.574" stroke="#BFBFBF" stroke-width="0.5" stroke-linecap="round" stroke-linejoin="round"/>
<path d="M55.4474 180.894C55.2853 181.658 55.13 182.414 54.9746 183.171" stroke="#BFBFBF" stroke-width="0.5" stroke-linecap="round" stroke-linejoin="round"/>
<path d="M67.9441 136.869C66.7148 140.725 60.7168 157.652 56.4277 176.848" stroke="#BFBFBF" stroke-width="0.5" stroke-linecap="round" stroke-linejoin="round"/>
<path d="M105.288 248.317C106.05 249.054 106.976 249.598 107.99 249.905C113.934 252.181 120.351 254.491 126.504 252.897C127.135 252.801 127.709 252.474 128.111 251.978C128.354 251.572 128.447 251.095 128.375 250.627C124.998 251.424 117.136 251.087 116.825 250.749C116.571 250.413 116.438 250.001 116.447 249.58C116.252 247.907 116.59 246.215 117.412 244.744C117.747 244.203 118.186 243.734 118.705 243.365C119.223 242.996 119.811 242.735 120.432 242.596C119.448 241.908 118.528 241.132 117.683 240.28L117.527 240.117L117.237 240.171C115.163 240.962 114.082 243.197 113.184 245.237C112.772 246.203 112.509 248.696 112.36 248.783C112.212 248.871 108.463 248.108 106.801 246.858C105.707 246.034 105.781 243.616 106.2 242.313C106.67 241.017 107.553 239.911 108.713 239.165C109.3 238.773 112.644 238.01 115.609 237.355C114.744 236.004 113.961 234.849 113.508 235.004C110.766 236.004 106.511 236.578 105.754 236.288C103.951 235.612 104.241 241.813 104.221 243.718C104.214 245.325 104.241 247.081 105.288 248.317Z" fill="#263238" stroke="#263238" stroke-width="0.5" stroke-linecap="round" stroke-linejoin="round"/>
<path d="M117.428 244.724C116.605 246.194 116.267 247.887 116.462 249.56C116.453 249.981 116.586 250.392 116.84 250.729C117.151 251.066 125.033 251.404 128.39 250.607C128.396 250.576 128.396 250.544 128.39 250.512C128.086 247.811 125.607 245.973 123.338 244.494C122.379 243.88 121.399 243.251 120.46 242.576C119.837 242.713 119.247 242.973 118.726 243.342C118.205 243.711 117.764 244.181 117.428 244.724Z" fill="white" stroke="#263238" stroke-width="0.5" stroke-linecap="round" stroke-linejoin="round"/>
<path d="M106.829 246.838C108.49 248.081 112.232 248.864 112.388 248.763C112.543 248.662 112.8 246.183 113.212 245.217C114.103 243.191 115.184 240.941 117.264 240.151L117.555 240.097C116.856 239.22 116.217 238.297 115.643 237.334C112.678 238.01 109.335 238.753 108.747 239.145C107.587 239.89 106.705 240.996 106.234 242.292C105.802 243.589 105.728 246.014 106.829 246.838Z" fill="white" stroke="#263238" stroke-width="0.5" stroke-linecap="round" stroke-linejoin="round"/>
<path d="M121.412 247.986C121.946 248.284 122.567 248.384 123.168 248.27C123.371 248.365 123.553 248.5 123.704 248.667C123.854 248.834 123.969 249.03 124.042 249.242C124.115 249.454 124.145 249.679 124.129 249.903C124.113 250.127 124.053 250.346 123.951 250.546C123.774 250.774 123.532 250.942 123.256 251.028C122.981 251.113 122.686 251.113 122.411 251.026C121.857 250.87 121.006 250.776 120.655 250.35C119.304 249.857 118.804 251.424 117.156 250.735" stroke="#263238" stroke-width="0.5" stroke-linecap="round" stroke-linejoin="round"/>
<path d="M125.22 248.722C125.478 248.963 125.651 249.28 125.713 249.628C125.73 249.885 125.669 250.141 125.538 250.363C125.406 250.585 125.211 250.762 124.977 250.87C124.528 251.052 124.041 251.124 123.559 251.08H123.761" stroke="#263238" stroke-width="0.5" stroke-linecap="round" stroke-linejoin="round"/>
<path d="M126.796 248.486C126.963 248.636 127.089 248.825 127.165 249.036C127.24 249.247 127.262 249.474 127.228 249.695C127.21 249.84 127.163 249.98 127.09 250.107C127.017 250.233 126.919 250.344 126.803 250.431C126.684 250.516 126.545 250.567 126.4 250.579C126.255 250.591 126.109 250.563 125.979 250.499" stroke="#263238" stroke-width="0.5" stroke-linecap="round" stroke-linejoin="round"/>
<path d="M195.753 128.568C194.768 127.931 193.682 127.465 192.542 127.19L189.032 126.254L181.48 130.661L202.707 137.16C203.2 137.314 203.72 137.362 204.232 137.301C204.745 137.241 205.24 137.073 205.683 136.809L206.385 136.406C206.479 136.346 206.556 136.264 206.61 136.166C206.664 136.068 206.692 135.959 206.692 135.847C206.692 135.736 206.664 135.626 206.61 135.528C206.556 135.431 206.479 135.348 206.385 135.288L195.753 128.568Z" fill="white"/>
<path d="M195.753 128.568C194.768 127.931 193.682 127.465 192.542 127.19L189.032 126.254L181.48 130.661L202.707 137.16C203.2 137.314 203.72 137.362 204.232 137.301C204.745 137.241 205.24 137.073 205.683 136.809L206.385 136.406C206.479 136.346 206.556 136.264 206.61 136.166C206.664 136.068 206.692 135.959 206.692 135.847C206.692 135.736 206.664 135.626 206.61 135.528C206.556 135.431 206.479 135.348 206.385 135.288L195.753 128.568Z" fill="white" stroke="#263238" stroke-width="0.5" stroke-linecap="round" stroke-linejoin="round"/>
<path d="M192.933 111.332L179.635 80.6562L172.408 84.8807L177.348 121.783L193.855 112.931L192.933 111.332Z" fill="white" stroke="#263238" stroke-width="0.5" stroke-linecap="round" stroke-linejoin="round"/>
<path d="M241.936 115.752L310.086 133.39C311.09 133.647 312.148 133.602 313.127 133.26L314.999 132.597C315.255 132.509 315.483 132.353 315.656 132.144C315.83 131.936 315.943 131.684 315.983 131.416C316.023 131.148 315.989 130.874 315.884 130.624C315.779 130.374 315.608 130.157 315.389 129.998C314.674 129.475 313.932 128.989 313.166 128.542C309.267 126.215 266.502 101.415 266.502 101.415L241.936 115.752Z" fill="white" stroke="#263238" stroke-width="0.5" stroke-linecap="round" stroke-linejoin="round"/>
<path d="M167.014 129.114C166.837 129.591 166.771 130.102 166.821 130.608C166.87 131.114 167.033 131.603 167.298 132.037C167.564 132.471 167.924 132.839 168.352 133.114C168.78 133.389 169.264 133.564 169.769 133.624C178.764 134.703 210.87 136.224 252.335 112.086C299.401 84.6598 309.644 73.6112 307.083 67.0081C306.864 66.4634 306.557 65.9584 306.174 65.5133C303.782 62.6666 292.915 51.956 272.248 64.0055L177.464 119.287C177.464 119.287 168.938 124.058 167.014 129.114Z" fill="white" stroke="#263238" stroke-width="0.5" stroke-linecap="round" stroke-linejoin="round"/>
<path d="M195.533 108.746L272.223 64.0054C292.89 51.956 303.757 62.7056 306.148 65.5132C306.531 65.9584 306.839 66.4633 307.058 67.008C309.658 73.6112 299.376 84.6467 252.309 112.086C210.845 136.276 178.739 134.703 169.744 133.624C169.239 133.564 168.754 133.389 168.326 133.114C167.898 132.839 167.538 132.471 167.273 132.037C167.008 131.603 166.844 131.114 166.795 130.608C166.746 130.102 166.812 129.591 166.988 129.114C168.912 124.058 177.387 119.287 177.387 119.287L195.533 108.746Z" fill="white" stroke="#263238" stroke-width="0.5" stroke-linecap="round" stroke-linejoin="round"/>
<path d="M276.965 70.4396L283.425 66.748" stroke="#263238" stroke-width="0.5" stroke-linecap="round" stroke-linejoin="round"/>
<path d="M183.549 123.928L274.667 71.7654" stroke="#263238" stroke-width="0.5" stroke-linecap="round" stroke-linejoin="round"/>
<path d="M216.447 107.914L233.228 98.1C234.075 97.6151 234.719 96.8406 235.042 95.9189C235.364 94.9972 235.343 93.9902 234.983 93.0827C234.229 91.2499 232.383 89.1832 228.145 88.0523L130.866 68.6459C130.238 68.5354 129.596 68.5354 128.968 68.6459L121.793 69.8417C121.673 69.858 121.561 69.9142 121.476 70.0013C121.391 70.0884 121.337 70.2014 121.324 70.3225C121.31 70.4435 121.338 70.5656 121.402 70.6692C121.465 70.7729 121.562 70.8522 121.676 70.8946L216.447 107.914Z" fill="white"/>
<path d="M191.088 117.546C190.529 117.857 190.035 117.546 189.97 116.857L189.853 115.557C189.827 115.197 189.894 114.836 190.049 114.51C190.204 114.185 190.441 113.905 190.737 113.698C191.283 113.373 191.79 113.698 191.855 114.387L191.972 115.687C191.996 116.046 191.927 116.406 191.773 116.732C191.618 117.057 191.382 117.337 191.088 117.546Z" fill="#263238"/>
<path d="M194.999 115.258C194.44 115.583 193.946 115.258 193.881 114.569L193.764 113.269C193.736 112.911 193.803 112.551 193.958 112.227C194.113 111.903 194.351 111.626 194.648 111.423C195.194 111.098 195.701 111.423 195.766 112.112L195.883 113.412C195.905 113.769 195.835 114.126 195.68 114.449C195.526 114.772 195.291 115.051 194.999 115.258Z" fill="#263238"/>
<path d="M198.91 112.97C198.352 113.295 197.858 112.97 197.793 112.294L197.676 110.994C197.649 110.634 197.717 110.274 197.871 109.948C198.026 109.622 198.264 109.342 198.559 109.136C199.105 108.811 199.612 109.136 199.677 109.824L199.794 111.124C199.819 111.482 199.75 111.84 199.595 112.163C199.44 112.487 199.204 112.765 198.91 112.97Z" fill="#263238"/>
<path d="M202.823 110.656C202.264 110.981 201.77 110.656 201.705 109.967L201.588 108.668C201.56 108.309 201.627 107.95 201.782 107.626C201.937 107.302 202.175 107.024 202.472 106.822C203.018 106.497 203.525 106.822 203.59 107.511L203.707 108.811C203.729 109.168 203.659 109.525 203.504 109.848C203.35 110.171 203.115 110.449 202.823 110.656Z" fill="#263238"/>
<path d="M206.737 108.421C206.178 108.733 205.684 108.421 205.619 107.732L205.502 106.432C205.475 106.072 205.543 105.712 205.698 105.386C205.853 105.06 206.09 104.78 206.386 104.573C206.932 104.248 207.439 104.573 207.503 105.262L207.62 106.562C207.645 106.922 207.576 107.281 207.421 107.607C207.266 107.932 207.031 108.212 206.737 108.421Z" fill="#263238"/>
<path d="M236.581 91.016C236.022 91.3279 235.528 91.016 235.463 90.3271L235.346 89.0272C235.322 88.6677 235.391 88.308 235.546 87.9825C235.701 87.6571 235.936 87.3768 236.23 87.1685C236.776 86.8435 237.283 87.1685 237.348 87.8574L237.465 89.1572C237.489 89.5168 237.421 89.8765 237.266 90.202C237.111 90.5274 236.875 90.8077 236.581 91.016Z" fill="#263238"/>
<path d="M240.495 88.7283C239.936 89.0533 239.442 88.7283 239.377 88.0394L239.26 86.7396C239.232 86.3814 239.299 86.022 239.454 85.6979C239.609 85.3738 239.847 85.0964 240.144 84.8938C240.69 84.5689 241.197 84.8938 241.262 85.5827L241.379 86.8826C241.401 87.24 241.331 87.5971 241.176 87.9201C241.022 88.243 240.787 88.5212 240.495 88.7283Z" fill="#263238"/>
<path d="M244.405 86.4535C243.846 86.7654 243.352 86.4535 243.287 85.7646L243.17 84.4647C243.143 84.1049 243.211 83.7443 243.366 83.4184C243.521 83.0925 243.758 82.8125 244.054 82.606C244.6 82.281 245.106 82.606 245.171 83.2949L245.288 84.5947C245.312 84.9543 245.244 85.314 245.089 85.6395C244.934 85.9649 244.699 86.2452 244.405 86.4535Z" fill="#263238"/>
<path d="M248.317 84.1658C247.758 84.4908 247.264 84.1658 247.199 83.4769L247.082 82.1771C247.054 81.8189 247.121 81.4595 247.276 81.1354C247.432 80.8113 247.67 80.5339 247.966 80.3313C248.512 80.0064 249.019 80.3313 249.084 81.0202L249.201 82.3201C249.223 82.6775 249.153 83.0346 248.999 83.3576C248.844 83.6805 248.609 83.9587 248.317 84.1658Z" fill="#263238"/>
<path d="M252.233 81.8782C251.674 82.2032 251.18 81.8782 251.115 81.2023L250.998 79.9025C250.971 79.5426 251.039 79.182 251.194 78.8561C251.349 78.5302 251.586 78.2503 251.882 78.0437C252.428 77.7188 252.935 78.0437 253 78.7326L253.117 80.0325C253.141 80.3902 253.072 80.7482 252.917 81.0716C252.762 81.395 252.527 81.6729 252.233 81.8782Z" fill="#263238"/>
<path d="M256.415 79.4606C255.869 79.7725 255.362 79.4606 255.297 78.7717L255.18 77.4718C255.156 77.1123 255.225 76.7525 255.38 76.4271C255.535 76.1017 255.77 75.8214 256.064 75.6131C256.623 75.2881 257.117 75.6131 257.182 76.302L257.299 77.6018C257.323 77.9614 257.255 78.3211 257.1 78.6465C256.945 78.972 256.709 79.2523 256.415 79.4606Z" fill="#263238"/>
<path d="M260.329 77.1597C259.784 77.4847 259.277 77.1597 259.212 76.4708L259.095 75.171C259.07 74.8132 259.139 74.4553 259.294 74.1319C259.449 73.8085 259.685 73.5306 259.979 73.3252C260.537 73.0003 261.031 73.3252 261.096 74.0141L261.213 75.314C261.235 75.6714 261.165 76.0285 261.011 76.3514C260.856 76.6744 260.622 76.9526 260.329 77.1597Z" fill="#263238"/>
<path d="M264.241 74.8851C263.696 75.1971 263.189 74.8851 263.124 74.1962L263.007 72.8964C262.983 72.5368 263.051 72.1771 263.206 71.8517C263.361 71.5262 263.596 71.2459 263.891 71.0376C264.436 70.7127 264.943 71.0376 265.008 71.7265L265.125 73.0264C265.149 73.3859 265.081 73.7457 264.926 74.0711C264.771 74.3965 264.536 74.6768 264.241 74.8851Z" fill="#263238"/>
<path d="M268.154 72.5972C267.595 72.9222 267.101 72.5972 267.036 71.9083L266.919 70.6085C266.895 70.2507 266.963 69.8928 267.118 69.5694C267.273 69.246 267.509 68.9681 267.803 68.7627C268.349 68.4378 268.856 68.7627 268.921 69.4516L269.038 70.7515C269.059 71.1089 268.99 71.466 268.835 71.7889C268.68 72.1119 268.446 72.3901 268.154 72.5972Z" fill="#263238"/>
<path d="M272.064 70.3617C271.505 70.6737 271.011 70.3617 270.946 69.6728L270.829 68.373C270.805 68.0134 270.874 67.6537 271.028 67.3282C271.183 67.0028 271.419 66.7225 271.713 66.5142C272.259 66.1892 272.766 66.5142 272.831 67.2031L272.948 68.5029C272.972 68.8625 272.903 69.2222 272.748 69.5477C272.594 69.8731 272.358 70.1534 272.064 70.3617Z" fill="#263238"/>
<path d="M287.819 60.418C286.477 61.0936 285.287 62.0356 284.322 63.1866C284.322 63.1866 285.999 62.8487 288.417 62.4977L287.819 60.418Z" fill="#263238"/>
<path d="M293.915 61.9127C296.262 61.7173 298.624 61.774 300.96 62.0817C298.696 60.6112 296.118 59.694 293.434 59.4041L293.915 61.9127Z" fill="#263238"/>
<path d="M199.43 89.7681L196.831 91.8998C196.459 94.0516 196.859 96.2656 197.96 98.1514C199.061 100.037 200.792 101.474 202.849 102.207C208.626 100.127 214.288 97.7406 219.812 95.0584C222.788 93.3296 223.321 88.7152 221.021 84.7637C218.72 80.8122 214.521 79.1355 211.467 80.7342C207.273 83.5311 203.246 86.5691 199.404 89.8331" fill="white"/>
<path d="M218.813 85.7777C220.386 88.4683 220.022 91.6269 217.994 92.7968C215.967 93.9666 213.042 92.7968 211.495 90.0541C209.948 87.3115 210.286 84.2049 212.314 83.022C214.342 81.8392 217.241 83.074 218.813 85.7777Z" fill="#263238"/>
<path d="M275.809 104.807C271.21 107.965 266.78 111.362 262.538 114.985C262.199 116.933 262.56 118.938 263.557 120.646C264.553 122.353 266.122 123.654 267.984 124.318C273.222 122.428 278.355 120.258 283.361 117.818C286.052 116.259 286.533 112.086 284.453 108.499C282.373 104.911 278.487 103.247 275.809 104.807Z" fill="white"/>
<path d="M275.809 104.807C271.21 107.965 266.78 111.362 262.538 114.985C262.199 116.933 262.56 118.938 263.557 120.646C264.553 122.353 266.122 123.654 267.984 124.318C273.222 122.428 278.355 120.258 283.361 117.818C286.052 116.259 286.533 112.086 284.453 108.499C282.373 104.911 278.487 103.247 275.809 104.807Z" fill="white"/>
<path d="M282.868 109.278C284.363 111.878 284.012 114.855 282.088 115.973C280.165 117.09 277.37 115.973 275.862 113.373C274.354 110.773 274.718 107.797 276.642 106.666C278.566 105.535 281.321 106.757 282.868 109.278Z" fill="#263238"/>
<path d="M177.517 123.447L145.398 115.453C144.76 115.317 144.1 115.317 143.462 115.453L139.471 116.116C139.278 116.148 139.102 116.244 138.97 116.389C138.839 116.534 138.76 116.719 138.746 116.914C138.733 117.11 138.785 117.304 138.896 117.465C139.006 117.627 139.167 117.747 139.354 117.805L170.719 127.476L177.517 123.447Z" fill="white"/>
<path d="M292.004 59.365C290.977 59.397 289.961 59.581 288.988 59.9109L289.664 62.3286C290.561 62.2116 291.523 62.1076 292.511 62.0166L292.004 59.365Z" fill="#263238"/>
<path d="M206.554 83.5419L131.437 68.5679C130.631 68.3625 129.792 68.314 128.967 68.4249L121.792 69.6208C121.674 69.642 121.565 69.7012 121.483 69.7894C121.4 69.8775 121.349 69.99 121.335 70.1099C121.322 70.2299 121.348 70.3509 121.41 70.4548C121.471 70.5588 121.564 70.6401 121.675 70.6866L216.446 107.719" stroke="#263238" stroke-width="0.5" stroke-linecap="round" stroke-linejoin="round"/>
<path d="M235.034 92.8877C234.442 91.6415 233.57 90.5492 232.485 89.6967C231.4 88.8443 230.133 88.2547 228.782 87.9744L222.088 86.6746" stroke="#263238" stroke-width="0.5" stroke-linecap="round" stroke-linejoin="round"/>
<path d="M222.049 86.8695C221.798 86.0445 221.454 85.2508 221.022 84.5038C218.709 80.6043 214.523 78.8756 211.469 80.4744C207.279 83.2761 203.251 86.3139 199.406 89.5732" stroke="#263238" stroke-width="0.5" stroke-linecap="round" stroke-linejoin="round"/>
<path d="M209.543 99.4128C213.066 98.1091 216.497 96.5674 219.812 94.7984C222.203 93.4075 223.022 90.158 222.047 86.8694" stroke="#263238" stroke-width="0.5" stroke-linecap="round" stroke-linejoin="round"/>
<path d="M203.709 101.688L206.556 100.609" stroke="#263238" stroke-width="0.5" stroke-linecap="round" stroke-linejoin="round"/>
<path d="M233.227 97.905C235.475 96.1893 235.891 94.5515 234.981 92.8877" stroke="#263238" stroke-width="0.5" stroke-linecap="round" stroke-linejoin="round"/>
<path d="M228.652 100.609L230.693 99.4128" stroke="#263238" stroke-width="0.5" stroke-linecap="round" stroke-linejoin="round"/>
<path d="M268.557 110.111C266.66 111.592 264.567 113.269 262.539 114.985" stroke="#263238" stroke-width="0.5" stroke-linecap="round" stroke-linejoin="round"/>
<path d="M271.687 107.719L269.945 109.019" stroke="#263238" stroke-width="0.5" stroke-linecap="round" stroke-linejoin="round"/>
<path d="M263.553 120.639C264.507 122.386 266.092 123.702 267.985 124.318C273.223 122.428 278.356 120.258 283.362 117.818C286.053 116.259 286.534 112.086 284.454 108.499C282.374 104.911 278.488 103.299 275.81 104.846C275.394 105.093 274.51 105.691 273.34 106.549" stroke="#263238" stroke-width="0.5" stroke-linecap="round" stroke-linejoin="round"/>
<path d="M177.517 123.447L145.398 115.453C144.76 115.317 144.1 115.317 143.462 115.453L139.471 116.116C139.278 116.148 139.102 116.244 138.97 116.389C138.839 116.534 138.76 116.719 138.746 116.914C138.733 117.11 138.785 117.304 138.896 117.465C139.006 117.627 139.167 117.747 139.354 117.805L170.719 127.476" fill="white"/>
<path d="M177.517 123.447L145.398 115.453C144.76 115.317 144.1 115.317 143.462 115.453L139.471 116.116C139.278 116.148 139.102 116.244 138.97 116.389C138.839 116.534 138.76 116.719 138.746 116.914C138.733 117.11 138.785 117.304 138.896 117.465C139.006 117.627 139.167 117.747 139.354 117.805L170.719 127.476" stroke="#263238" stroke-width="0.5" stroke-linecap="round" stroke-linejoin="round"/>
</svg>
