<?xml version="1.0" encoding="UTF-8"?>
<svg version="1.1" xmlns="http://www.w3.org/2000/svg" width="645" height="725">
<path d="M0 0 C24.09 0 48.18 0 73 0 C73.495 12.375 73.495 12.375 74 25 C77.71314777 57.49004296 87.55789304 85.55789304 111 109 C111.72703125 109.72703125 112.4540625 110.4540625 113.203125 111.203125 C143.06601695 139.2963641 184.75774692 144.31753223 223.8984375 143.1640625 C233.38150054 142.82217255 242.66087042 141.63821138 252 140 C253.15773926 139.80132324 254.31547852 139.60264648 255.50830078 139.39794922 C273.4510613 136.24906197 290.77108235 131.91148381 308 126 C309.00724121 125.65598145 310.01448242 125.31196289 311.05224609 124.95751953 C347.27411529 112.40364824 380.87968527 93.97663455 408.94238281 67.71679688 C411.52366897 65.30665546 414.12470108 63.05281389 417 61 C428.99103034 70.93940887 441.026344 80.98432391 451 93 C451.86625 93.97839844 452.7325 94.95679688 453.625 95.96484375 C465.61711073 109.53344768 476.21716536 124.15582357 485 140 C485.45729492 140.82032715 485.91458984 141.6406543 486.38574219 142.48583984 C515.52193695 195.23637307 522.55582666 249.48513704 522.30418181 308.71166873 C522.28509975 313.98192536 522.28364028 319.25219034 522.28010559 324.5224762 C522.27087582 334.44858831 522.24638844 344.37459827 522.21605712 354.30066592 C522.17586876 367.75185438 522.15998474 381.20307187 522.14255047 394.65430546 C522.11455788 415.76961311 522.05472909 436.88470545 522 458 C477.78 458 433.56 458 388 458 C387.75 420.25 387.75 420.25 387.70214844 408.46191406 C387.56988359 383.97931456 387.56988359 383.97931456 383 360 C382.81539215 359.32708923 382.6307843 358.65417847 382.44058228 357.96087646 C378.02118628 341.88020685 369.74009004 326.72232142 359 314 C357.75476563 312.51113281 357.75476563 312.51113281 356.484375 310.9921875 C335.19730794 286.30124072 304.36089744 272.17409309 272.12304688 269.33081055 C238.73960833 267.1417828 206.97017494 278.13863795 181.578125 299.70703125 C163.0970037 316.14402852 151.33418146 335.53061932 144 359 C143.68160156 359.9796875 143.36320313 360.959375 143.03515625 361.96875 C134.78912061 390.52218685 138.39466702 432.346644 138 458 C92.46 458 46.92 458 0 458 C0 306.86 0 155.72 0 0 Z " fill="#FE8480" transform="translate(39,39)"/>
<path d="M0 0 C14.88015588 12.59090113 24.68712727 28.82269927 26.609375 48.36083984 C28.03650609 68.80151956 21.79030679 86.91844811 8.5625 102.4375 C-4.45186692 116.3092323 -21.51236973 124.01124906 -40.46655273 124.65234375 C-61.21496709 124.93333422 -78.23004436 117.65786065 -93.3125 103.5 C-105.94466874 90.46601277 -112.09596605 73.20141501 -112.5625 55.25 C-112.06768164 38.31198675 -106.64015251 22.01551755 -95.1875 9.25 C-94.55585938 8.52683594 -93.92421875 7.80367187 -93.2734375 7.05859375 C-69.25185888 -18.75368436 -27.74022829 -21.16792805 0 0 Z " fill="#FE8480" transform="translate(258.1875,19.75)"/>
<path d="M0 0 C2.5625 1.75 2.5625 1.75 4 3 C4.33 1.02 4.66 -0.96 5 -3 C9.62 -3 14.24 -3 19 -3 C19.1361627 6.31073554 19.24597846 15.62079779 19.31087303 24.9323082 C19.34203699 29.25717238 19.38423108 33.58131354 19.45263672 37.90576172 C19.51836992 42.08797442 19.55381801 46.26949672 19.56926346 50.45218658 C19.58025412 52.03888044 19.60171403 53.62554132 19.63438034 55.21193695 C19.84958564 66.10760693 18.74698097 75.45391803 11.22640991 84.02020264 C3.97223015 91.0066102 -5.29472941 91.98854159 -15 92 C-24.19628754 91.33360235 -32.12072224 88.45907862 -38.4375 81.5625 C-41.8235508 77.24786463 -43 73.49688161 -43 68 C-38.2870275 67.65975867 -33.70245107 67.46351548 -29 68 C-26.5625 70.75 -26.5625 70.75 -25 74 C-19.77930482 78.13305035 -15.41790146 78.62181405 -8.8125 78.390625 C-3.96545295 77.71742402 -1.32972829 75.51313909 1.8125 71.9375 C4.1931299 68.05331437 4.10657103 64.76367406 4.0625 60.3125 C4.05347656 59.13300781 4.04445313 57.95351563 4.03515625 56.73828125 C4.02355469 55.83464844 4.01195312 54.93101562 4 54 C3.5153125 54.40992188 3.030625 54.81984375 2.53125 55.2421875 C-3.88995074 60.40384502 -9.52564386 62.5241452 -17.8671875 62.24609375 C-25.66260227 61.34662281 -32.47653237 58.66570285 -38 53 C-45.40234288 43.03151159 -46.98454337 33.24368041 -46 21 C-44.35445678 12.73062457 -40.33434925 6.51960505 -34 1 C-23.7034862 -5.7337708 -10.61808942 -6.38458394 0 0 Z M-28 15 C-31.299419 21.1675414 -33.20954037 26.98190689 -31.52734375 33.9609375 C-29.59256884 40.00855726 -26.13782476 44.99527863 -20.75 48.4375 C-14.64185637 49.68689301 -9.16485158 50.09536232 -3.625 46.875 C0.74924026 43.76442915 3.30235654 40.09293037 5 35 C5.67093005 27.57577405 5.61117377 21.11512583 1 15 C-2.93977492 10.77958358 -7.12158481 8.31287122 -12.875 7.6875 C-18.73912042 8.27391204 -23.95014379 10.73123264 -28 15 Z " fill="#FE8480" transform="translate(470,628)"/>
<path d="M0 0 C4.62 0 9.24 0 14 0 C14.33 9.57 14.66 19.14 15 29 C17.64 27.02 20.28 25.04 23 23 C30.63838462 19.67979764 39.58480066 19.76621125 47.375 22.625 C56.82211782 27.05811354 61.2306179 33.28561929 65 43 C67.27541567 53.8320686 66.25116843 64.26274018 60.546875 73.859375 C55.6370741 80.65374594 49.49058673 84.49008865 41.5 86.6875 C31.99171712 87.87603536 23.59507452 85.84236501 16 80 C15.67 79.67 15.34 79.34 15 79 C14.67 81.31 14.34 83.62 14 86 C9.38 86 4.76 86 0 86 C0 57.62 0 29.24 0 0 Z M18 41 C14.57914977 46.37562179 13.31702407 52.04139196 14.40234375 58.33203125 C16.24299158 64.72528733 19.59828781 69.82668388 25.25 73.4375 C30.85555851 74.58409151 36.57881817 75.10587607 41.8125 72.4375 C46.35300411 69.43196536 49.29597079 65.11208762 51 60 C51.60624691 51.26771272 51.51170654 45.19453836 45.75 38.3125 C41.81612532 35.00446902 38.11280249 33.26410031 33 32.625 C26.54494273 33.43188216 22.1427626 36.05170023 18 41 Z " fill="#FE8480" transform="translate(505,603)"/>
<path d="M0 0 C4.62 0 9.24 0 14 0 C14 10.89 14 21.78 14 33 C26.21 33 38.42 33 51 33 C51 22.11 51 11.22 51 0 C55.62 0 60.24 0 65 0 C65 26.4 65 52.8 65 80 C60.38 80 55.76 80 51 80 C51 68.45 51 56.9 51 45 C38.79 45 26.58 45 14 45 C14 56.55 14 68.1 14 80 C9.38 80 4.76 80 0 80 C0 53.6 0 27.2 0 0 Z " fill="#FE8480" transform="translate(5,609)"/>
<path d="M0 0 C0.825 0.598125 1.65 1.19625 2.5 1.8125 C2.83 -0.1675 3.16 -2.1475 3.5 -4.1875 C8.12 -4.1875 12.74 -4.1875 17.5 -4.1875 C17.5 16.9325 17.5 38.0525 17.5 59.8125 C12.88 59.8125 8.26 59.8125 3.5 59.8125 C3.005 56.3475 3.005 56.3475 2.5 52.8125 C1.71625 53.575625 0.9325 54.33875 0.125 55.125 C-5.24493695 59.58306087 -12.51238624 61.438386 -19.44140625 61.08984375 C-27.77248701 59.96744008 -34.74662392 57.0929029 -40.5 50.8125 C-47.21149556 40.04026763 -49.4321556 29.19393021 -46.8515625 16.6640625 C-43.99599915 7.95093329 -38.61349153 1.20730791 -30.5 -3.1875 C-20.08037059 -7.35535176 -9.23987393 -6.03815017 0 0 Z M-28.875 13.0625 C-32.71411793 18.03874797 -34.01563232 23.41889535 -33.80859375 29.703125 C-32.79804422 36.61067874 -29.54675296 41.41866689 -24.18359375 45.71875 C-19.73752763 48.60714562 -14.59146796 48.46873365 -9.5 47.8125 C-3.27182387 45.44642968 -0.23932242 41.72943643 2.5 35.8125 C4.47784396 29.87896813 4.50831235 23.17396881 1.875 17.4375 C-0.93266674 12.61305856 -4.389196 9.71713028 -9.5625 7.5 C-16.99306727 5.76093106 -23.62663882 7.35218038 -28.875 13.0625 Z " fill="#FE8480" transform="translate(394.5,629.1875)"/>
<path d="M0 0 C8.34664403 6.10185566 12.98063469 11.90317347 15 22 C15 26.29 15 30.58 15 35 C-0.84 35 -16.68 35 -33 35 C-32.01 37.64 -31.02 40.28 -30 43 C-29.67 43.99 -29.34 44.98 -29 46 C-27.26857146 47.15922128 -27.26857146 47.15922128 -25 48 C-24.113125 48.391875 -23.22625 48.78375 -22.3125 49.1875 C-16.49710633 50.61391732 -11.81332223 49.98908485 -6.5625 47.125 C-3.84519628 45.07805275 -3.84519628 45.07805275 -2 42 C0.62697064 41.77862607 3.00893964 41.71837975 5.625 41.8125 C6.33140625 41.82603516 7.0378125 41.83957031 7.765625 41.85351562 C9.51074128 41.8888896 11.25546608 41.94269779 13 42 C11.67570893 49.69906475 7.22049276 54.58292741 1 59 C-7.79818033 63.47626718 -17.1694321 64.16695467 -26.703125 61.81640625 C-35.29418787 58.76278016 -41.73826317 52.44548274 -45.8125 44.4375 C-49.36096803 34.16561887 -49.04959712 23.09331404 -45 13 C-40.93364362 5.46681413 -34.55801063 0.96620067 -26.8125 -2.375 C-18.05333596 -3.81092853 -7.95956103 -4.54832059 0 0 Z M-30.375 15.375 C-32.44902428 18.35444906 -32.44902428 18.35444906 -33 24 C-22.11 24 -11.22 24 0 24 C-0.95996309 16.52373244 -0.95996309 16.52373244 -6 12 C-14.7554304 6.22937542 -23.24185991 8.24185991 -30.375 15.375 Z " fill="#FE8480" transform="translate(626,627)"/>
<path d="M0 0 C8.42185176 6.04421159 12.51977107 12.07908427 15 22 C15 26.29 15 30.58 15 35 C-0.84 35 -16.68 35 -33 35 C-30.05742782 44.31375617 -30.05742782 44.31375617 -26.375 47.5625 C-21.21756416 49.75918564 -16.17833209 50.95939535 -10.68359375 49.30078125 C-7.5894239 47.85911464 -5.51282862 46.87890439 -3.7578125 43.87109375 C-2 42 -2 42 1.57421875 41.609375 C2.94585748 41.6358801 4.31721938 41.6834691 5.6875 41.75 C6.38939453 41.76804687 7.09128906 41.78609375 7.81445312 41.8046875 C9.54355436 41.85173787 11.27195205 41.92348127 13 42 C12.02359755 48.40209334 8.79862268 52.61093186 3.91796875 56.77734375 C-4.10926244 62.52714683 -12.54568342 63.93178957 -22.21875 62.72265625 C-31.77574829 61.00436032 -38.39418194 55.80651056 -44 48 C-49.31399923 38.55937865 -49.21889007 27.47220283 -46.4375 17.25 C-43.60124953 8.98830874 -39.56129364 4.09095973 -31.8125 0.0625 C-22.30160328 -4.35594808 -9.36011445 -5.33171076 0 0 Z M-29.8125 14.8125 C-32.46772212 18.20033369 -32.46772212 18.20033369 -33 24 C-22.11 24 -11.22 24 0 24 C-0.95996309 16.52373244 -0.95996309 16.52373244 -6 12 C-14.2815872 6.54168116 -22.93058959 7.93058959 -29.8125 14.8125 Z " fill="#FE8480" transform="translate(244,627)"/>
<path d="M0 0 C6.17418794 4.87254011 9.26735836 11.17316882 11.71875 18.52734375 C12.51778297 30.80101413 12.09352925 40.38157348 4.15625 50.33984375 C-1.4345356 56.24413134 -9.11840263 59.98315393 -17.28125 60.52734375 C-18.456875 60.63046875 -19.6325 60.73359375 -20.84375 60.83984375 C-29.44661396 60.6747216 -38.37425147 57.78900226 -44.5625 51.71875 C-51.05156043 43.44519795 -54.22955393 34.02893171 -53.28125 23.52734375 C-51.67818687 13.44706544 -48.39856725 6.67559127 -40.46875 0.21484375 C-28.36443613 -8.15103797 -12.32014839 -7.95324648 0 0 Z M-34.15625 12.40234375 C-38.97255278 19.48514195 -39.04947472 26.13377738 -38.28125 34.52734375 C-36.74662554 39.94415332 -34.05793158 43.46536838 -29.28125 46.52734375 C-24.00970714 48.2845247 -18.27535355 48.51363668 -12.95703125 46.76171875 C-7.1143836 43.6011246 -4.24167617 38.7625881 -2.28125 32.52734375 C-1.30272291 26.28923357 -1.94557445 19.98146587 -5.28125 14.52734375 C-9.43957009 9.90698809 -13.8385492 6.90986606 -20.09375 6.21484375 C-25.64798695 6.75937678 -30.39304657 8.09519646 -34.15625 12.40234375 Z " fill="#FE8480" transform="translate(134.28125,629.47265625)"/>
<path d="M0 0 C4.62 0 9.24 0 14 0 C14 5.28 14 10.56 14 16 C19.28 16 24.56 16 30 16 C30 19.96 30 23.92 30 28 C24.72 28 19.44 28 14 28 C14.07396352 33.07287752 14.15675255 38.14397873 14.26245117 43.21606445 C14.29571172 44.94155693 14.32374019 46.66715849 14.34643555 48.39282227 C14.37996153 50.87303166 14.43227406 53.3522403 14.48828125 55.83203125 C14.49467117 56.60400345 14.5010611 57.37597565 14.50764465 58.17134094 C14.60139261 62.31540868 14.60139261 62.31540868 16.34960938 65.97851562 C18.88616174 67.54847644 21.23901664 67.52897939 24.1875 67.6875 C26.105625 67.790625 28.02375 67.89375 30 68 C30 71.96 30 75.92 30 80 C10.29200293 80.70107499 10.29200293 80.70107499 4.3828125 75.60546875 C0.81683541 71.62648302 -0.13036378 68.15204566 -0.11352539 62.96582031 C-0.11344986 62.18531311 -0.11337433 61.40480591 -0.11329651 60.60064697 C-0.10813522 59.76821472 -0.10297394 58.93578247 -0.09765625 58.078125 C-0.0962413 57.21813904 -0.09482635 56.35815308 -0.09336853 55.47210693 C-0.08778097 52.73136891 -0.07523075 49.99071324 -0.0625 47.25 C-0.05748339 45.3893241 -0.05292077 43.52864691 -0.04882812 41.66796875 C-0.03781561 37.11194754 -0.02055951 32.55598772 0 28 C-2.31 28 -4.62 28 -7 28 C-7 24.04 -7 20.08 -7 16 C-4.69 16 -2.38 16 0 16 C0 10.72 0 5.44 0 0 Z " fill="#FE8480" transform="translate(160,609)"/>
<path d="M0 0 C4.62 0 9.24 0 14 0 C14 22.44 14 44.88 14 68 C22.58 68 31.16 68 40 68 C40 71.96 40 75.92 40 80 C26.8 80 13.6 80 0 80 C0 53.6 0 27.2 0 0 Z " fill="#FE8480" transform="translate(301,609)"/>
<path d="M0 0 C4.62 0 9.24 0 14 0 C14 28.38 14 56.76 14 86 C9.38 86 4.76 86 0 86 C0 57.62 0 29.24 0 0 Z " fill="#FE8480" transform="translate(271,603)"/>
<path d="M0 0 C4 1 4 1 5.484375 2.84765625 C5.90203125 3.57855469 6.3196875 4.30945313 6.75 5.0625 C7.39195312 6.16271484 7.39195312 6.16271484 8.046875 7.28515625 C8.36140625 7.85105469 8.6759375 8.41695313 9 9 C10.93560905 6.59717497 12.8505552 4.21267145 14.625 1.6875 C15.07875 1.130625 15.5325 0.57375 16 0 C16.66 0 17.32 0 18 0 C18 6.27 18 12.54 18 19 C17.01 19 16.02 19 15 19 C14.67 16.36 14.34 13.72 14 11 C13.5875 11.66 13.175 12.32 12.75 13 C12.1725 13.66 11.595 14.32 11 15 C9.68 15 8.36 15 7 15 C6.34 13.68 5.68 12.36 5 11 C4.67 13.64 4.34 16.28 4 19 C2.68 19 1.36 19 0 19 C0 12.73 0 6.46 0 0 Z " fill="#FE8480" transform="translate(591,478)"/>
<path d="M0 0 C4.95 0 9.9 0 15 0 C15 0.99 15 1.98 15 3 C13.02 3 11.04 3 9 3 C9 8.28 9 13.56 9 19 C8.01 19 7.02 19 6 19 C6 13.72 6 8.44 6 3 C4.02 3 2.04 3 0 3 C0 2.01 0 1.02 0 0 Z " fill="#FE8480" transform="translate(574,478)"/>
</svg>
