<?xml version="1.0" encoding="UTF-8"?>
<svg version="1.1" xmlns="http://www.w3.org/2000/svg" width="250" height="150">
<path d="M0 0 C82.5 0 165 0 250 0 C250 49.5 250 99 250 150 C167.5 150 85 150 0 150 C0 100.5 0 51 0 0 Z " fill="#E62736" transform="translate(0,0)"/>
<path d="M0 0 C82.5 0 165 0 250 0 C250 20.13 250 40.26 250 61 C167.5 61 85 61 0 61 C0 40.87 0 20.74 0 0 Z " fill="#F6F5F5" transform="translate(0,89)"/>
<path d="M0 0 C1.24523438 0.01804687 2.49046875 0.03609375 3.7734375 0.0546875 C5.18496094 0.08949219 5.18496094 0.08949219 6.625 0.125 C6.625 0.785 6.625 1.445 6.625 2.125 C5.66400391 2.45371094 5.66400391 2.45371094 4.68359375 2.7890625 C-4.73944991 6.2437104 -10.90076155 11.00894863 -15.375 20.125 C-19.00546993 29.36040597 -18.51655147 39.54822808 -14.69921875 48.65625 C-10.05669958 57.31132999 -2.59628471 62.95518338 6.625 66.125 C6.625 66.455 6.625 66.785 6.625 67.125 C-5.74483162 67.81562335 -13.70362967 66.82134577 -23.6875 58.875 C-30.83142795 52.23619827 -34.32561697 43.53998135 -34.75 33.875 C-34.48564181 23.70416638 -30.75343385 16.53803501 -23.74609375 9.2890625 C-16.65768172 2.81957278 -9.70009056 -0.18302058 0 0 Z " fill="#F6F0F0" transform="translate(55.375,9.875)"/>
<path d="M0 0 C0.66 0 1.32 0 2 0 C2.33 1.65 2.66 3.3 3 5 C4.98 5 6.96 5 9 5 C8.505 5.350625 8.01 5.70125 7.5 6.0625 C5.26936034 8.94374289 5.80019379 11.47009026 6 15 C5.01 14.34 4.02 13.68 3 13 C0.36565746 13.32126128 -1.62710097 13.81355048 -4 15 C-3.9071875 13.3603125 -3.9071875 13.3603125 -3.8125 11.6875 C-3.64402086 8.07873917 -3.64402086 8.07873917 -5.5 6.0625 C-5.995 5.711875 -6.49 5.36125 -7 5 C-5.02 5 -3.04 5 -1 5 C-0.67 3.35 -0.34 1.7 0 0 Z " fill="#F4E0E1" transform="translate(91,30)"/>
<path d="M0 0 C0.66 0 1.32 0 2 0 C2.33 1.65 2.66 3.3 3 5 C4.98 5 6.96 5 9 5 C8.505 5.37125 8.01 5.7425 7.5 6.125 C5.40244486 8.74694393 5.78256165 10.73842472 6 14 C4.906875 13.79375 3.81375 13.5875 2.6875 13.375 C-1.0838401 12.59653475 -1.0838401 12.59653475 -4 15 C-3.9071875 13.3603125 -3.9071875 13.3603125 -3.8125 11.6875 C-3.64402086 8.07873917 -3.64402086 8.07873917 -5.5 6.0625 C-5.995 5.711875 -6.49 5.36125 -7 5 C-5.02 5 -3.04 5 -1 5 C-0.67 3.35 -0.34 1.7 0 0 Z " fill="#F4E3E4" transform="translate(54,30)"/>
<path d="M0 0 C0.66 0 1.32 0 2 0 C2.33 1.98 2.66 3.96 3 6 C4.65 6 6.3 6 8 6 C7.484375 6.556875 6.96875 7.11375 6.4375 7.6875 C4.70523302 9.94085007 4.70523302 9.94085007 5.3125 12.75 C5.6528125 13.86375 5.6528125 13.86375 6 15 C5.0925 14.62875 4.185 14.2575 3.25 13.875 C0.11902985 12.69640701 0.11902985 12.69640701 -2.375 13.875 C-2.91125 14.24625 -3.4475 14.6175 -4 15 C-3.95875 14.071875 -3.9175 13.14375 -3.875 12.1875 C-3.72863661 8.84190281 -3.72863661 8.84190281 -6 6 C-4.35 6 -2.7 6 -1 6 C-0.67 4.02 -0.34 2.04 0 0 Z " fill="#F5E3E4" transform="translate(84,51)"/>
<path d="M0 0 C2 2 2 2 2 6 C3.98 6 5.96 6 8 6 C7.505 6.37125 7.01 6.7425 6.5 7.125 C4.40244486 9.74694393 4.78256165 11.73842472 5 15 C4.2575 14.62875 3.515 14.2575 2.75 13.875 C0.05716353 12.70484137 0.05716353 12.70484137 -2.3125 13.875 C-3.1478125 14.431875 -3.1478125 14.431875 -4 15 C-3.9071875 13.6078125 -3.9071875 13.6078125 -3.8125 12.1875 C-3.69105736 9.01604897 -3.69105736 9.01604897 -5.5 7.125 C-5.995 6.75375 -6.49 6.3825 -7 6 C-5.02 6 -3.04 6 -1 6 C-0.67 4.02 -0.34 2.04 0 0 Z " fill="#F5E7E8" transform="translate(73,16)"/>
<path d="M0 0 C2 3 2 3 2 6 C3.65 6 5.3 6 7 6 C6.01 7.485 6.01 7.485 5 9 C4.83300768 12.12521833 4.83300768 12.12521833 5 15 C4.0925 14.62875 3.185 14.2575 2.25 13.875 C-0.88097015 12.69640701 -0.88097015 12.69640701 -3.375 13.875 C-3.91125 14.24625 -4.4475 14.6175 -5 15 C-4.773125 14.071875 -4.54625 13.14375 -4.3125 12.1875 C-3.63680017 9.03173152 -3.63680017 9.03173152 -5.4375 7.125 C-5.953125 6.75375 -6.46875 6.3825 -7 6 C-5.02 6 -3.04 6 -1 6 C-1.020625 5.195625 -1.04125 4.39125 -1.0625 3.5625 C-1 1 -1 1 0 0 Z " fill="#F5E6E7" transform="translate(62,51)"/>
</svg>
