<svg width="239" height="215" viewBox="0 0 239 215" fill="none" xmlns="http://www.w3.org/2000/svg">
<g clip-path="url(#clip0_1293_1275)">
<path d="M148.494 124.937H60.9513C57.9826 124.934 55.1364 123.755 53.0372 121.661C50.9381 119.566 49.7573 116.726 49.7539 113.764V11.1732C49.7573 8.21093 50.9381 5.37092 53.0372 3.27626C55.1364 1.1816 57.9826 0.00334621 60.9513 0H142.396L159.692 13.7562V113.764C159.688 116.726 158.508 119.566 156.408 121.661C154.309 123.755 151.463 124.934 148.494 124.937Z" fill="#E6E6E6"/>
<path d="M60.9524 3.21631C58.8383 3.21869 56.8115 4.05774 55.3166 5.5494C53.8218 7.04105 52.9809 9.06349 52.9785 11.173V113.764C52.9809 115.873 53.8218 117.896 55.3166 119.387C56.8115 120.879 58.8383 121.718 60.9524 121.72H148.495C150.609 121.718 152.636 120.879 154.131 119.387C155.626 117.896 156.467 115.873 156.469 113.764V15.3056L141.269 3.21631H60.9524Z" fill="white"/>
<path d="M131.468 33.047H91.6107C91.3659 33.047 91.1234 32.9988 90.8972 32.9053C90.671 32.8118 90.4654 32.6748 90.2922 32.502C90.1191 32.3292 89.9817 32.1241 89.888 31.8984C89.7943 31.6726 89.7461 31.4307 89.7461 31.1863C89.7461 30.942 89.7943 30.7 89.888 30.4743C89.9817 30.2485 90.1191 30.0434 90.2922 29.8707C90.4654 29.6979 90.671 29.5608 90.8972 29.4673C91.1234 29.3738 91.3659 29.3257 91.6107 29.3257H131.468C131.713 29.3257 131.955 29.3738 132.181 29.4673C132.408 29.5608 132.613 29.6979 132.786 29.8707C132.96 30.0434 133.097 30.2485 133.191 30.4743C133.284 30.7 133.333 30.942 133.333 31.1863C133.333 31.4307 133.284 31.6726 133.191 31.8984C133.097 32.1241 132.96 32.3292 132.786 32.502C132.613 32.6748 132.408 32.8118 132.181 32.9053C131.955 32.9988 131.713 33.047 131.468 33.047Z" fill="#CCCCCC"/>
<path d="M139.16 39.3268H91.6107C91.1162 39.3268 90.6419 39.1307 90.2922 38.7818C89.9425 38.4328 89.7461 37.9596 89.7461 37.4661C89.7461 36.9726 89.9425 36.4994 90.2922 36.1504C90.6419 35.8015 91.1162 35.6055 91.6107 35.6055H139.16C139.654 35.6055 140.128 35.8015 140.478 36.1504C140.828 36.4994 141.024 36.9726 141.024 37.4661C141.024 37.9596 140.828 38.4328 140.478 38.7818C140.128 39.1307 139.654 39.3268 139.16 39.3268Z" fill="#CCCCCC"/>
<path d="M131.468 61.1895H91.6107C91.1162 61.1895 90.6419 60.9935 90.2922 60.6446C89.9425 60.2956 89.7461 59.8224 89.7461 59.3289C89.7461 58.8354 89.9425 58.3622 90.2922 58.0132C90.6419 57.6643 91.1162 57.4683 91.6107 57.4683H131.468C131.962 57.4683 132.437 57.6643 132.786 58.0132C133.136 58.3622 133.333 58.8354 133.333 59.3289C133.333 59.8224 133.136 60.2956 132.786 60.6446C132.437 60.9935 131.962 61.1895 131.468 61.1895Z" fill="#CCCCCC"/>
<path d="M139.16 67.4688H91.6107C91.1162 67.4688 90.6419 67.2728 90.2922 66.9239C89.9425 66.5749 89.7461 66.1017 89.7461 65.6082C89.7461 65.1147 89.9425 64.6415 90.2922 64.2925C90.6419 63.9436 91.1162 63.7476 91.6107 63.7476H139.16C139.654 63.7476 140.128 63.9436 140.478 64.2925C140.828 64.6415 141.024 65.1147 141.024 65.6082C141.024 66.1017 140.828 66.5749 140.478 66.9239C140.128 67.2728 139.654 67.4688 139.16 67.4688Z" fill="#CCCCCC"/>
<path d="M131.468 89.3316H91.6107C91.1162 89.3316 90.6419 89.1356 90.2922 88.7867C89.9425 88.4377 89.7461 87.9645 89.7461 87.471C89.7461 86.9775 89.9425 86.5043 90.2922 86.1553C90.6419 85.8064 91.1162 85.6104 91.6107 85.6104H131.468C131.962 85.6104 132.437 85.8064 132.786 86.1553C133.136 86.5043 133.333 86.9775 133.333 87.471C133.333 87.9645 133.136 88.4377 132.786 88.7867C132.437 89.1356 131.962 89.3316 131.468 89.3316Z" fill="#CCCCCC"/>
<path d="M139.16 95.6109H91.6107C91.1162 95.6109 90.6419 95.4149 90.2922 95.066C89.9425 94.717 89.7461 94.2438 89.7461 93.7503C89.7461 93.2568 89.9425 92.7836 90.2922 92.4346C90.6419 92.0857 91.1162 91.8896 91.6107 91.8896H139.16C139.654 91.8896 140.128 92.0857 140.478 92.4346C140.828 92.7836 141.024 93.2568 141.024 93.7503C141.024 94.2438 140.828 94.717 140.478 95.066C140.128 95.4149 139.654 95.6109 139.16 95.6109Z" fill="#CCCCCC"/>
<path d="M75.0124 40.9027C78.6523 40.9027 81.603 37.9584 81.603 34.3263C81.603 30.6943 78.6523 27.75 75.0124 27.75C71.3726 27.75 68.4219 30.6943 68.4219 34.3263C68.4219 37.9584 71.3726 40.9027 75.0124 40.9027Z" fill="#ED1C24"/>
<path d="M75.6921 69.0448C79.332 69.0448 82.2827 66.1004 82.2827 62.4684C82.2827 58.8364 79.332 55.8921 75.6921 55.8921C72.0523 55.8921 69.1016 58.8364 69.1016 62.4684C69.1016 66.1004 72.0523 69.0448 75.6921 69.0448Z" fill="#CCCCCC"/>
<path d="M75.0124 97.1869C78.6523 97.1869 81.603 94.2425 81.603 90.6105C81.603 86.9785 78.6523 84.0342 75.0124 84.0342C71.3726 84.0342 68.4219 86.9785 68.4219 90.6105C68.4219 94.2425 71.3726 97.1869 75.0124 97.1869Z" fill="#CCCCCC"/>
<path d="M159.356 14.1988H145.807C144.818 14.1988 143.87 13.8067 143.17 13.1088C142.471 12.411 142.078 11.4644 142.078 10.4775V0.49235C142.078 0.448634 142.09 0.4058 142.114 0.368765C142.137 0.331731 142.17 0.301994 142.21 0.282963C142.249 0.263931 142.293 0.256376 142.337 0.261166C142.38 0.265955 142.422 0.282894 142.456 0.310039L159.501 13.7839C159.539 13.8139 159.566 13.8549 159.58 13.9013C159.593 13.9476 159.592 13.997 159.576 14.0426C159.56 14.0883 159.53 14.1278 159.491 14.1558C159.451 14.1837 159.404 14.1988 159.356 14.1988Z" fill="#E6E6E6"/>
<path d="M67.6417 144.159L15.8468 155.053C14.35 155.366 12.7898 155.074 11.5086 154.241C10.2274 153.407 9.32983 152.101 9.01273 150.608L0.124803 108.533C-0.188939 107.039 0.103863 105.482 0.938973 104.204C1.77408 102.925 3.0833 102.03 4.57939 101.713L56.3743 90.8194C57.8711 90.5063 59.4312 90.7985 60.7124 91.6318C61.9936 92.4651 62.8912 93.7715 63.2083 95.2643L72.0963 137.34C72.41 138.833 72.1172 140.39 71.2821 141.669C70.447 142.947 69.1377 143.843 67.6417 144.159Z" fill="white"/>
<path d="M67.6417 144.159L15.8468 155.053C14.35 155.366 12.7898 155.074 11.5086 154.241C10.2274 153.407 9.32983 152.101 9.01273 150.608L0.124803 108.533C-0.188939 107.039 0.103863 105.482 0.938973 104.204C1.77408 102.925 3.0833 102.03 4.57939 101.713L56.3743 90.8194C57.8711 90.5063 59.4312 90.7985 60.7124 91.6318C61.9936 92.4651 62.8912 93.7715 63.2083 95.2643L72.0963 137.34C72.41 138.833 72.1172 140.39 71.2821 141.669C70.447 142.947 69.1377 143.843 67.6417 144.159ZM4.71936 102.376C3.39928 102.655 2.2441 103.445 1.50724 104.573C0.770376 105.701 0.512014 107.075 0.788835 108.393L9.67677 150.468C9.95658 151.786 10.7486 152.938 11.879 153.674C13.0095 154.409 14.3861 154.667 15.7068 154.39L67.5017 143.497C68.8218 143.217 69.977 142.427 70.7138 141.299C71.4507 140.171 71.709 138.797 71.4322 137.48L62.5443 95.404C62.2645 94.0868 61.4725 92.9341 60.342 92.1988C59.2116 91.4636 57.835 91.2058 56.5143 91.482L4.71936 102.376Z" fill="#3F3D56"/>
<path d="M53.1569 104.693L27.0167 110.191C26.788 110.244 26.5476 110.208 26.3442 110.091C26.1408 109.974 25.9895 109.784 25.921 109.56C25.8896 109.443 25.8825 109.321 25.8999 109.202C25.9174 109.082 25.9592 108.967 26.0226 108.864C26.0861 108.761 26.1699 108.672 26.269 108.602C26.3682 108.532 26.4805 108.483 26.5991 108.458L53.2082 102.862C54.2472 103.446 53.9191 104.533 53.1569 104.693Z" fill="#CCCCCC"/>
<path d="M54.1218 109.268L27.9816 114.766C27.7528 114.819 27.5124 114.784 27.309 114.666C27.1056 114.549 26.9544 114.36 26.8858 114.135C26.8545 114.019 26.8473 113.897 26.8648 113.777C26.8823 113.657 26.924 113.542 26.9875 113.439C27.0509 113.336 27.1348 113.247 27.2339 113.177C27.333 113.107 27.4453 113.059 27.564 113.034L54.1731 107.437C55.2121 108.021 54.884 109.108 54.1218 109.268Z" fill="#CCCCCC"/>
<path d="M22.882 118.56L14.9043 120.238C14.6438 120.292 14.3722 120.241 14.1492 120.096C13.9262 119.951 13.7699 119.724 13.7148 119.464L11.7304 110.07C11.6757 109.81 11.7267 109.539 11.8721 109.316C12.0174 109.094 12.2453 108.938 12.5058 108.883L20.4835 107.205C20.744 107.15 21.0155 107.201 21.2385 107.346C21.4615 107.491 21.6178 107.719 21.673 107.979L23.6574 117.373C23.712 117.633 23.6611 117.904 23.5157 118.126C23.3704 118.349 23.1425 118.505 22.882 118.56Z" fill="#CCCCCC"/>
<path d="M56.0247 118.652L16.13 127.043C15.9012 127.096 15.6609 127.06 15.4575 126.943C15.2541 126.826 15.1028 126.636 15.0342 126.412C15.0029 126.295 14.9958 126.173 15.0132 126.054C15.0307 125.934 15.0724 125.819 15.1359 125.716C15.1994 125.613 15.2832 125.524 15.3823 125.454C15.4814 125.384 15.5938 125.335 15.7124 125.31L56.0764 116.821C57.1153 117.405 56.787 118.492 56.0247 118.652Z" fill="#CCCCCC"/>
<path d="M56.9915 123.229L17.0968 131.62C16.868 131.673 16.6277 131.637 16.4243 131.52C16.2209 131.403 16.0696 131.213 16.001 130.989C15.9697 130.872 15.9625 130.75 15.98 130.63C15.9975 130.511 16.0392 130.396 16.1027 130.293C16.1662 130.189 16.25 130.1 16.3491 130.031C16.4482 129.961 16.5605 129.912 16.6792 129.887L57.0432 121.397C58.0822 121.982 57.7538 123.068 56.9915 123.229Z" fill="#CCCCCC"/>
<path d="M57.9583 127.802L18.0636 136.193C17.8348 136.246 17.5945 136.211 17.3911 136.094C17.1876 135.977 17.0364 135.787 16.9678 135.563C16.9365 135.446 16.9293 135.324 16.9468 135.204C16.9643 135.084 17.006 134.969 17.0695 134.866C17.133 134.763 17.2168 134.674 17.3159 134.604C17.415 134.535 17.5273 134.486 17.646 134.461L58.01 125.971C59.049 126.555 58.7206 127.642 57.9583 127.802Z" fill="#CCCCCC"/>
<path d="M58.9251 132.379L19.0304 140.77C18.8016 140.823 18.5613 140.787 18.3578 140.67C18.1544 140.553 18.0032 140.363 17.9346 140.139C17.9033 140.022 17.8961 139.9 17.9136 139.78C17.9311 139.66 17.9728 139.546 18.0363 139.442C18.0998 139.339 18.1836 139.25 18.2827 139.181C18.3818 139.111 18.4941 139.062 18.6128 139.037L58.9768 130.547C60.0157 131.132 59.6874 132.218 58.9251 132.379Z" fill="#CCCCCC"/>
<path d="M59.8919 136.952L19.9972 145.343C19.7684 145.396 19.5281 145.361 19.3246 145.244C19.1212 145.126 18.97 144.937 18.9014 144.713C18.8701 144.596 18.8629 144.474 18.8804 144.354C18.8979 144.234 18.9396 144.119 19.0031 144.016C19.0666 143.913 19.1504 143.824 19.2495 143.754C19.3486 143.685 19.4609 143.636 19.5796 143.611L59.9436 135.121C60.9825 135.705 60.6541 136.792 59.8919 136.952Z" fill="#CCCCCC"/>
<path d="M66.933 116.005C66.8424 116.169 66.7649 116.34 66.7012 116.517L50.3689 120.561L47.5276 117.628L42.5312 121.328L47.0554 127.008C47.4209 127.467 47.9257 127.795 48.494 127.943C49.0623 128.091 49.6635 128.052 50.2073 127.83L67.9294 120.604C68.5119 121.032 69.2112 121.273 69.9341 121.294C70.6571 121.316 71.3696 121.117 71.9767 120.725C72.5839 120.333 73.0569 119.765 73.333 119.098C73.6091 118.431 73.6751 117.696 73.5223 116.991C73.3694 116.285 73.005 115.643 72.4774 115.149C71.9498 114.655 71.2841 114.334 70.5688 114.227C69.8534 114.12 69.1224 114.233 68.473 114.55C67.8235 114.868 67.2864 115.376 66.933 116.005Z" fill="#A0616A"/>
<path d="M11.185 151.994C11.6941 151.837 12.1626 151.571 12.5575 151.214C12.9523 150.857 13.2639 150.418 13.4702 149.927C13.6765 149.437 13.7726 148.908 13.7517 148.376C13.7308 147.845 13.5934 147.325 13.3492 146.852L24.5887 115.68L16.7832 114.299L8.18956 145.375C7.42108 145.837 6.84913 146.564 6.5821 147.419C6.31507 148.273 6.37152 149.196 6.74074 150.012C7.10996 150.828 7.76631 151.481 8.58541 151.846C9.40451 152.211 10.3295 152.264 11.185 151.994Z" fill="#A0616A"/>
<path d="M23.1617 121.213L15.455 118.262C15.2357 118.178 15.0372 118.048 14.8729 117.88C14.7085 117.713 14.5823 117.512 14.5028 117.291C14.4233 117.071 14.3923 116.836 14.412 116.602C14.4317 116.369 14.5016 116.142 14.617 115.938L18.6599 108.785C19.097 107.668 19.96 106.77 21.0598 106.287C22.1596 105.804 23.4064 105.776 24.527 106.209C25.6476 106.642 26.5504 107.5 27.0375 108.596C27.5247 109.692 27.5564 110.937 27.1258 112.056L25.3425 120.046C25.2914 120.274 25.1915 120.489 25.0495 120.676C24.9076 120.863 24.727 121.017 24.52 121.128C24.3131 121.238 24.0846 121.303 23.8502 121.318C23.6158 121.333 23.381 121.297 23.1617 121.213Z" fill="#282763"/>
<path d="M40.5573 210.519L44.7173 210.519L46.6962 194.508L40.5566 194.508L40.5573 210.519Z" fill="#A0616A"/>
<path d="M39.4961 209.164L47.6884 209.164H47.6888C48.3744 209.164 49.0533 209.298 49.6867 209.56C50.3201 209.822 50.8957 210.206 51.3805 210.689C51.8653 211.173 52.2498 211.747 52.5122 212.379C52.7746 213.012 52.9096 213.689 52.9096 214.373V214.542L39.4964 214.543L39.4961 209.164Z" fill="#3B395B"/>
<path d="M17.1433 210.519L21.3032 210.519L23.2821 194.508L17.1426 194.508L17.1433 210.519Z" fill="#A0616A"/>
<path d="M16.082 209.164L24.2744 209.164H24.2747C24.9603 209.164 25.6392 209.298 26.2726 209.56C26.9061 209.822 27.4816 210.206 27.9664 210.689C28.4512 211.173 28.8358 211.747 29.0981 212.379C29.3605 213.012 29.4956 213.689 29.4956 214.373V214.542L16.0823 214.543L16.082 209.164Z" fill="#3B395B"/>
<path d="M21.5041 204.075H16.2398C16.0332 204.075 15.8287 204.033 15.6388 203.952C15.4488 203.871 15.2774 203.752 15.1348 203.603C14.9922 203.454 14.8814 203.277 14.8092 203.084C14.737 202.891 14.7048 202.685 14.7146 202.479L17.2151 148.871L17.3727 148.866L42.7938 148.205L47.7683 201.844C47.7875 202.045 47.7663 202.248 47.7062 202.441C47.646 202.634 47.548 202.813 47.4179 202.968C47.2878 203.122 47.1282 203.25 46.9483 203.342C46.7684 203.435 46.5718 203.491 46.3701 203.507L40.4571 203.979C40.0856 204.008 39.7162 203.901 39.4183 203.678C39.1204 203.455 38.9145 203.13 38.8396 202.766L31.2761 164.582C31.2555 164.466 31.1939 164.361 31.1024 164.287C31.0109 164.212 30.8957 164.173 30.7777 164.176H30.7756C30.6572 164.173 30.5417 164.213 30.4504 164.289C30.359 164.364 30.2979 164.469 30.2781 164.586L23.0023 202.846C22.9334 203.192 22.7465 203.504 22.4734 203.728C22.2002 203.952 21.8577 204.075 21.5041 204.075Z" fill="#3B395B"/>
<path d="M31.1484 101.059C35.751 101.059 39.4823 97.3355 39.4823 92.7427C39.4823 88.1499 35.751 84.4268 31.1484 84.4268C26.5457 84.4268 22.8145 88.1499 22.8145 92.7427C22.8145 97.3355 26.5457 101.059 31.1484 101.059Z" fill="#A0616A"/>
<path d="M28.3534 155.153C24.3813 155.153 20.3014 154.111 16.9192 151.031C16.7393 150.868 16.6003 150.665 16.5137 150.438C16.427 150.212 16.3951 149.968 16.4206 149.727C16.7826 146.482 18.5387 129.723 17.5497 118.529C17.3568 116.438 17.6534 114.331 18.4163 112.374C19.1792 110.417 20.3875 108.664 21.9458 107.253C23.4767 105.845 25.3147 104.811 27.3146 104.233C29.3144 103.655 31.4215 103.549 33.4696 103.923C33.5734 103.942 33.6772 103.961 33.7811 103.981C40.4532 105.269 45.089 111.431 44.5645 118.313C43.799 128.356 43.1129 141.939 44.1903 149.621C44.2349 149.936 44.1799 150.256 44.033 150.538C43.8861 150.819 43.6546 151.048 43.3709 151.191C40.9194 152.427 34.7774 155.153 28.3534 155.153Z" fill="#282763"/>
<path d="M39.2275 121.811C39.032 121.682 38.8668 121.511 38.7433 121.312C38.6197 121.112 38.5408 120.889 38.5117 120.656L37.4964 112.534C37.1741 111.379 37.324 110.143 37.9132 109.098C38.5024 108.053 39.4828 107.284 40.6395 106.959C41.7962 106.634 43.0348 106.78 44.0838 107.365C45.1327 107.95 45.9064 108.926 46.2352 110.08L49.5795 117.583C49.675 117.797 49.723 118.029 49.7204 118.264C49.7178 118.498 49.6647 118.729 49.5645 118.941C49.4644 119.153 49.3196 119.341 49.1401 119.492C48.9606 119.643 48.7506 119.754 48.5243 119.817L40.5717 122.025C40.3454 122.088 40.1082 122.102 39.8762 122.065C39.6442 122.028 39.423 121.941 39.2275 121.811Z" fill="#282763"/>
<path d="M28.2381 100.941C27.4493 100.956 26.6654 100.814 25.9317 100.525C25.6089 100.401 25.2738 100.299 24.9516 100.174C22.1059 99.0773 20.2313 96.0532 20.1642 93.0098C20.097 89.9664 21.6765 87.0125 24.0219 85.0659C26.3673 83.1192 29.4051 82.1197 32.447 81.8886C35.7236 81.6397 39.4132 82.4688 41.2441 85.1917C41.7315 85.9165 42.0724 86.7958 41.7836 87.671C41.6971 87.935 41.5426 88.1718 41.3356 88.3576C40.5179 89.0835 39.7027 88.5377 38.8692 88.4895C37.7235 88.4232 36.6944 89.3486 36.3246 90.4326C35.9547 91.5167 36.1175 92.7101 36.4162 93.8158C36.6437 94.4812 36.7871 95.1722 36.8431 95.873C36.8672 96.2244 36.801 96.5761 36.6507 96.8948C36.5004 97.2135 36.271 97.4886 35.9843 97.6941C35.2684 98.1259 34.3282 97.876 33.6119 97.4449C32.8955 97.0138 32.2765 96.4143 31.5028 96.0971C30.729 95.7798 29.6894 95.8502 29.239 96.5537C29.0959 96.8096 28.999 97.0887 28.9528 97.3782C28.5491 99.2137 28.6419 99.1056 28.2381 100.941Z" fill="#3B395B"/>
<path d="M65.0356 215H0.565877C0.475885 215 0.389579 214.964 0.325945 214.901C0.262311 214.837 0.226562 214.751 0.226562 214.661C0.226562 214.572 0.262311 214.485 0.325945 214.422C0.389579 214.358 0.475885 214.323 0.565877 214.323H65.0356C65.1255 214.323 65.2118 214.358 65.2755 214.422C65.3391 214.485 65.3749 214.572 65.3749 214.661C65.3749 214.751 65.3391 214.837 65.2755 214.901C65.2118 214.964 65.1255 215 65.0356 215Z" fill="#CCCCCC"/>
<path d="M230.058 145.126L183.892 170.966C182.558 171.711 180.981 171.897 179.509 171.484C178.037 171.071 176.789 170.092 176.039 168.762L154.958 131.259C154.211 129.927 154.024 128.354 154.438 126.885C154.853 125.416 155.834 124.171 157.167 123.423L203.333 97.5831C204.668 96.838 206.244 96.6517 207.716 97.0649C209.188 97.4781 210.436 98.4572 211.186 99.7873L232.267 137.29C233.014 138.622 233.201 140.195 232.787 141.664C232.373 143.133 231.391 144.378 230.058 145.126Z" fill="white"/>
<path d="M230.058 145.126L183.892 170.966C182.558 171.711 180.981 171.897 179.509 171.484C178.037 171.071 176.789 170.092 176.039 168.762L154.958 131.259C154.211 129.927 154.024 128.354 154.438 126.885C154.853 125.416 155.834 124.171 157.167 123.423L203.333 97.5831C204.668 96.838 206.244 96.6517 207.716 97.0649C209.188 97.4781 210.436 98.4572 211.186 99.7873L232.267 137.29C233.014 138.622 233.201 140.195 232.787 141.664C232.373 143.133 231.391 144.378 230.058 145.126ZM157.499 124.013C156.323 124.673 155.457 125.772 155.091 127.068C154.726 128.365 154.891 129.752 155.55 130.928L176.631 168.431C177.293 169.604 178.394 170.468 179.693 170.833C180.992 171.197 182.383 171.033 183.56 170.375L229.727 144.536C230.903 143.876 231.768 142.777 232.134 141.481C232.499 140.185 232.334 138.797 231.676 137.622L210.594 100.119C209.932 98.945 208.831 98.0811 207.532 97.7165C206.233 97.3519 204.843 97.5163 203.665 98.1737L157.499 124.013Z" fill="#3F3D56"/>
<path d="M204.417 111.782L181.117 124.823C180.915 124.942 180.675 124.98 180.446 124.929C180.217 124.878 180.015 124.742 179.883 124.548C179.818 124.446 179.775 124.332 179.755 124.212C179.736 124.093 179.742 123.971 179.771 123.853C179.801 123.736 179.854 123.626 179.928 123.53C180.002 123.434 180.094 123.354 180.2 123.294L203.918 110.02C205.084 110.267 205.096 111.402 204.417 111.782Z" fill="#CCCCCC"/>
<path d="M206.71 115.861L183.41 128.901C183.208 129.02 182.968 129.058 182.739 129.007C182.51 128.956 182.308 128.82 182.176 128.626C182.111 128.524 182.068 128.41 182.048 128.29C182.029 128.171 182.035 128.049 182.064 127.931C182.094 127.814 182.147 127.704 182.221 127.608C182.295 127.512 182.387 127.432 182.493 127.373L206.21 114.098C207.377 114.345 207.389 115.48 206.71 115.861Z" fill="#CCCCCC"/>
<path d="M179.678 134.043L172.567 138.023C172.335 138.153 172.06 138.185 171.804 138.113C171.548 138.041 171.331 137.871 171.2 137.639L166.493 129.266C166.363 129.034 166.331 128.76 166.403 128.505C166.475 128.249 166.646 128.032 166.878 127.902L173.989 123.922C174.221 123.792 174.495 123.76 174.751 123.832C175.008 123.904 175.225 124.074 175.355 124.306L180.062 132.679C180.192 132.911 180.225 133.185 180.153 133.44C180.081 133.696 179.91 133.913 179.678 134.043Z" fill="#CCCCCC"/>
<path d="M211.335 124.248L175.776 144.151C175.573 144.27 175.333 144.308 175.104 144.257C174.875 144.205 174.674 144.069 174.541 143.876C174.476 143.774 174.433 143.66 174.414 143.54C174.394 143.421 174.4 143.298 174.43 143.181C174.459 143.064 174.513 142.954 174.586 142.858C174.66 142.762 174.753 142.682 174.858 142.622L210.836 122.485C212.002 122.733 212.014 123.868 211.335 124.248Z" fill="#CCCCCC"/>
<path d="M213.628 128.327L178.069 148.23C177.866 148.349 177.626 148.387 177.397 148.336C177.168 148.285 176.967 148.149 176.834 147.955C176.769 147.853 176.726 147.739 176.707 147.619C176.687 147.5 176.693 147.378 176.722 147.26C176.752 147.143 176.805 147.033 176.879 146.937C176.953 146.841 177.045 146.761 177.151 146.701L213.129 126.564C214.295 126.812 214.307 127.947 213.628 128.327Z" fill="#CCCCCC"/>
<path d="M215.921 132.404L180.362 152.307C180.159 152.426 179.919 152.463 179.69 152.412C179.461 152.361 179.26 152.225 179.127 152.032C179.062 151.93 179.019 151.815 179 151.696C178.98 151.576 178.986 151.454 179.015 151.337C179.045 151.22 179.098 151.11 179.172 151.013C179.246 150.917 179.338 150.837 179.444 150.778L215.422 130.641C216.588 130.889 216.6 132.024 215.921 132.404Z" fill="#CCCCCC"/>
<path d="M218.214 136.483L182.655 156.386C182.452 156.505 182.212 156.543 181.983 156.491C181.754 156.44 181.552 156.304 181.42 156.111C181.355 156.009 181.312 155.894 181.292 155.775C181.273 155.655 181.279 155.533 181.308 155.416C181.338 155.299 181.391 155.189 181.465 155.093C181.539 154.997 181.631 154.916 181.737 154.857L217.715 134.72C218.881 134.968 218.893 136.103 218.214 136.483Z" fill="#CCCCCC"/>
<path d="M220.505 140.56L184.946 160.463C184.743 160.582 184.503 160.619 184.274 160.568C184.045 160.517 183.843 160.381 183.711 160.188C183.646 160.085 183.603 159.971 183.583 159.852C183.564 159.732 183.57 159.61 183.599 159.493C183.629 159.375 183.682 159.265 183.756 159.169C183.83 159.073 183.922 158.993 184.028 158.934L220.006 138.797C221.172 139.045 221.184 140.18 220.505 140.56Z" fill="#CCCCCC"/>
<path d="M214.301 155.838C214.495 155.412 214.593 154.948 214.587 154.481C214.582 154.013 214.474 153.552 214.271 153.13C214.068 152.708 213.774 152.336 213.412 152.04C213.049 151.743 212.625 151.53 212.171 151.414L211.204 140.081L206.553 143.742L208.184 153.943C208.04 154.718 208.187 155.518 208.595 156.193C209.003 156.867 209.645 157.368 210.399 157.602C211.153 157.835 211.967 157.785 212.686 157.46C213.405 157.135 213.98 156.558 214.301 155.838Z" fill="#FFB8B8"/>
<path d="M211.292 150.227L207.429 150.687C207.233 150.71 207.034 150.693 206.845 150.636C206.656 150.579 206.48 150.484 206.33 150.356C206.179 150.228 206.057 150.071 205.97 149.894C205.883 149.717 205.834 149.523 205.825 149.326L205.262 136.324L197.94 116.366C197.647 115.747 197.513 115.064 197.551 114.38C197.589 113.696 197.798 113.033 198.158 112.449C198.338 112.168 198.543 111.903 198.772 111.66C199.222 111.175 199.783 110.807 200.407 110.586C201.031 110.365 201.7 110.298 202.355 110.39C203.031 110.479 203.675 110.729 204.235 111.117C204.795 111.505 205.253 112.02 205.573 112.621L210.348 122.605C212.345 126.78 213.288 131.38 213.094 136.003L212.556 148.865C212.542 149.202 212.409 149.523 212.182 149.771C211.954 150.02 211.645 150.181 211.311 150.225L211.292 150.227Z" fill="#282763"/>
<path d="M225.008 206.422L221.427 207.99L213.66 194.954L218.945 192.639L225.008 206.422Z" fill="#FFB8B8"/>
<path d="M227.445 209.486L215.898 214.543L215.834 214.397C215.575 213.808 215.435 213.174 215.421 212.531C215.407 211.888 215.521 211.249 215.755 210.65C215.989 210.05 216.339 209.503 216.786 209.039C217.232 208.575 217.765 208.203 218.355 207.944L225.408 204.855L227.445 209.486Z" fill="#3B395B"/>
<path d="M176.932 210.76H173.021L171.16 195.708L176.932 195.708L176.932 210.76Z" fill="#FFB8B8"/>
<path d="M177.929 214.543L165.318 214.543V214.383C165.318 213.74 165.445 213.103 165.692 212.509C165.939 211.915 166.3 211.375 166.756 210.92C167.212 210.466 167.753 210.105 168.348 209.859C168.944 209.613 169.582 209.486 170.227 209.486L177.929 209.486L177.929 214.543Z" fill="#3B395B"/>
<path d="M215.007 205.614L193.221 157.101C193.181 157.01 193.115 156.934 193.03 156.882C192.945 156.831 192.846 156.807 192.747 156.814C192.648 156.821 192.554 156.858 192.477 156.921C192.401 156.984 192.345 157.069 192.319 157.165L179.045 204.023C178.958 204.351 178.756 204.637 178.475 204.829C178.195 205.021 177.855 205.108 177.517 205.072L170.267 204.349C169.894 204.31 169.55 204.127 169.31 203.839C169.069 203.551 168.95 203.181 168.979 202.808C171.285 174.19 174.92 147.18 185.809 129.498L185.867 129.404L202.339 132.627L224.329 202.501C224.438 202.861 224.401 203.249 224.226 203.582C224.052 203.915 223.754 204.167 223.395 204.284L216.764 206.411C216.425 206.521 216.056 206.5 215.731 206.353C215.405 206.205 215.147 205.942 215.007 205.614Z" fill="#3B395B"/>
<path d="M193.829 104.647C198.156 104.647 201.664 101.147 201.664 96.8288C201.664 92.511 198.156 89.0107 193.829 89.0107C189.502 89.0107 185.994 92.511 185.994 96.8288C185.994 101.147 189.502 104.647 193.829 104.647Z" fill="#FFB8B8"/>
<path d="M184.798 130.852L184.698 130.831L184.674 130.732C183.619 126.285 183.593 121.431 184.599 116.307C185.11 113.688 186.53 111.332 188.61 109.655C190.689 107.978 193.296 107.088 195.969 107.14C198.87 107.199 201.639 108.361 203.709 110.39C205.779 112.418 206.994 115.16 207.105 118.053C207.441 126.867 203.831 134.508 203.794 134.584L203.741 134.696L184.798 130.852Z" fill="#282763"/>
<path d="M163.794 145.725C164.257 145.657 164.701 145.488 165.092 145.23C165.483 144.972 165.813 144.632 166.059 144.233C166.304 143.834 166.459 143.386 166.512 142.921C166.565 142.456 166.515 141.986 166.366 141.542L175.391 134.592L169.787 132.674L162.077 139.567C161.346 139.867 160.751 140.423 160.404 141.13C160.057 141.838 159.983 142.648 160.194 143.407C160.406 144.166 160.889 144.821 161.552 145.249C162.216 145.676 163.013 145.845 163.794 145.725Z" fill="#FFB8B8"/>
<path d="M168.723 140.484C168.429 140.657 168.083 140.72 167.747 140.661C167.411 140.601 167.107 140.424 166.89 140.161L164.411 137.17C164.285 137.018 164.192 136.842 164.138 136.652C164.083 136.463 164.069 136.264 164.095 136.069C164.121 135.873 164.187 135.685 164.289 135.516C164.391 135.348 164.527 135.202 164.689 135.088L175.337 127.573L188.186 110.622C188.548 110.041 189.051 109.559 189.648 109.22C190.245 108.882 190.917 108.697 191.603 108.684C191.938 108.682 192.272 108.711 192.601 108.77C193.253 108.886 193.867 109.157 194.391 109.561C194.915 109.965 195.334 110.489 195.612 111.089C195.902 111.704 196.041 112.38 196.017 113.059C195.993 113.739 195.807 114.403 195.475 114.996L185.961 130.37L185.94 130.404L168.723 140.484Z" fill="#282763"/>
<path d="M195.231 96.344C194.653 95.3962 193.379 95.1284 192.272 95.2365C191.166 95.3447 190.09 95.7327 188.978 95.7241C185.892 95.7002 183.509 91.9463 184.807 89.1516C185.871 86.8597 188.529 85.8533 190.934 85.0634C195.975 83.4073 201.767 81.816 206.341 84.5013C207.799 85.3823 208.995 86.6358 209.805 88.1322C210.615 89.6286 211.01 91.3136 210.949 93.0133C210.846 95.1266 210.035 97.2974 210.721 99.2994C211.513 101.609 214.022 102.848 216.393 103.448C220.55 104.499 224.933 104.329 229.115 105.272C233.298 106.214 237.584 108.717 238.712 112.845C239.452 115.557 238.68 118.476 237.4 120.979C236.094 123.534 234.28 125.795 232.067 127.626C229.855 129.456 227.292 130.816 224.534 131.623C221.777 132.43 218.883 132.667 216.031 132.319C213.179 131.971 210.427 131.046 207.946 129.6C202.889 126.654 199.238 121.674 197.062 116.25C195.828 113.086 194.959 109.792 194.472 106.431C193.985 103.286 194.398 100.107 195.281 97.0478C195.323 96.9336 195.34 96.8118 195.331 96.6905C195.323 96.5692 195.288 96.4511 195.231 96.344Z" fill="#3B395B"/>
<path d="M223.495 215H159.025C158.935 215 158.849 214.964 158.785 214.901C158.721 214.837 158.686 214.751 158.686 214.661C158.686 214.572 158.721 214.485 158.785 214.422C158.849 214.358 158.935 214.323 159.025 214.323H223.495C223.585 214.323 223.671 214.358 223.734 214.422C223.798 214.485 223.834 214.572 223.834 214.661C223.834 214.751 223.798 214.837 223.734 214.901C223.671 214.964 223.585 215 223.495 215Z" fill="#CCCCCC"/>
<path d="M77.3327 31.6665L72.666 36.3332M72.666 31.6665L77.3327 36.3332" stroke="white" stroke-linecap="round" stroke-linejoin="round"/>
</g>
<defs>
<clipPath id="clip0_1293_1275">
<rect width="239" height="215" fill="white"/>
</clipPath>
</defs>
</svg>
