<svg width="239" height="241" viewBox="0 0 239 241" fill="none" xmlns="http://www.w3.org/2000/svg">
<g clip-path="url(#clip0_1293_872)">
<path d="M60.2897 231.266C60.026 231.279 59.7649 231.209 59.5419 231.068C59.3188 230.927 59.1446 230.72 59.0427 230.476C58.9409 230.232 58.9164 229.963 58.9725 229.705C59.0287 229.447 59.1627 229.212 59.3566 229.033C59.3891 228.904 59.4123 228.811 59.4448 228.682C59.1924 228.04 58.7543 227.488 58.1867 227.097C57.619 226.707 56.9477 226.494 56.2587 226.488C55.5697 226.481 54.8945 226.681 54.3196 227.061C53.7447 227.441 53.2963 227.984 53.0319 228.621C51.5059 232.196 49.531 235.897 50.5132 239.835C44.0257 226.073 46.2319 208.954 55.8195 197.185C58.4697 195.724 60.6176 193.127 61.1769 190.113C59.8653 190.558 58.23 189.49 59.2161 188.107C59.6436 187.579 60.0752 187.054 60.5026 186.526C55.5204 181.215 49.5842 189.562 55.0681 196.73C53.2742 198.981 51.7203 201.414 50.4317 203.989C50.7293 201.255 50.3741 198.489 49.3955 195.919C48.4037 193.524 46.5446 191.507 44.9074 189.437C42.9169 186.914 38.8201 188.078 38.5523 191.279C40.3893 191.884 40.6279 194.54 38.5266 194.903C39.077 200.859 42.9642 206.332 48.3181 208.944C46.341 214.497 45.569 220.407 46.0535 226.282C45.1085 219.416 37.7452 217.75 32.5987 215.021C32.2711 214.811 31.8895 214.701 31.5004 214.704C31.1113 214.707 30.7315 214.823 30.4073 215.039C30.0832 215.254 29.8287 215.559 29.6749 215.917C29.5211 216.275 29.4747 216.67 29.5413 217.054C30.2516 217.343 30.9315 217.702 31.5709 218.125C31.8705 218.327 32.1005 218.616 32.2293 218.954C32.3582 219.292 32.3795 219.661 32.2905 220.011C32.2014 220.361 32.0063 220.675 31.732 220.91C31.4576 221.145 31.1174 221.289 30.7579 221.323C33.3521 227.749 40.0591 232.065 46.9476 232.041C47.6096 234.92 48.5688 237.722 49.8096 240.403H60.0335C60.0702 240.29 60.1032 240.172 60.1361 240.058C59.1898 240.118 58.2397 240.061 57.3071 239.89C59.8109 236.923 61.7472 235.409 60.29 231.267L60.2897 231.266Z" fill="#10B15A" fill-opacity="0.4"/>
<path d="M151.438 231.266C151.702 231.279 151.963 231.209 152.186 231.068C152.409 230.927 152.583 230.72 152.685 230.476C152.787 230.232 152.811 229.963 152.755 229.705C152.699 229.447 152.565 229.212 152.371 229.033C152.339 228.904 152.315 228.811 152.283 228.682C152.535 228.04 152.973 227.488 153.541 227.097C154.109 226.707 154.78 226.494 155.469 226.488C156.158 226.481 156.833 226.681 157.408 227.061C157.983 227.441 158.431 227.984 158.696 228.621C160.222 232.196 162.197 235.897 161.214 239.835C167.702 226.073 165.496 208.954 155.908 197.185C153.258 195.724 151.11 193.127 150.551 190.113C151.862 190.558 153.498 189.49 152.511 188.107C152.084 187.579 151.652 187.054 151.225 186.526C156.207 181.215 162.143 189.562 156.659 196.73C158.453 198.981 160.007 201.414 161.296 203.989C160.998 201.255 161.353 198.489 162.332 195.919C163.324 193.524 165.183 191.507 166.82 189.437C168.811 186.914 172.908 188.078 173.175 191.279C171.338 191.884 171.1 194.54 173.201 194.903C172.651 200.859 168.763 206.332 163.409 208.944C165.387 214.497 166.159 220.407 165.674 226.282C166.619 219.416 173.982 217.75 179.129 215.021C179.457 214.811 179.838 214.701 180.227 214.704C180.616 214.707 180.996 214.823 181.32 215.039C181.644 215.254 181.899 215.559 182.053 215.917C182.207 216.275 182.253 216.67 182.186 217.054C181.476 217.343 180.796 217.702 180.157 218.125C179.857 218.327 179.627 218.616 179.498 218.954C179.369 219.292 179.348 219.661 179.437 220.011C179.526 220.361 179.721 220.675 179.996 220.91C180.27 221.145 180.61 221.289 180.97 221.323C178.376 227.749 171.669 232.065 164.78 232.041C164.118 234.92 163.159 237.722 161.918 240.403H151.694C151.657 240.29 151.624 240.172 151.591 240.058C152.538 240.118 153.488 240.061 154.421 239.89C151.917 236.923 149.981 235.409 151.438 231.266Z" fill="#10B15A" fill-opacity="0.4"/>
<path d="M155.228 232.786L150.825 233.788L144.865 217.266L151.364 215.787L155.228 232.786Z" fill="#FFB6B6"/>
<path d="M156.428 237.348L142.888 240.431L142.85 240.26C142.532 238.861 142.782 237.393 143.545 236.179C144.309 234.964 145.523 234.103 146.92 233.785L148.967 231.343L154.008 232.171L155.19 231.901L156.428 237.348Z" fill="#2F2E41"/>
<path d="M226.256 152.254L228.676 156.069L215.125 167.231L211.553 161.599L226.256 152.254Z" fill="#FFB6B6"/>
<path d="M230.146 149.591L237.59 161.324L237.442 161.418C236.232 162.187 234.766 162.444 233.367 162.131C231.968 161.819 230.751 160.963 229.982 159.752L226.998 158.641L226.085 153.61L225.436 152.586L230.146 149.591Z" fill="#2F2E41"/>
<path d="M85.9039 111.463L84.8164 105.154L101.349 97.6812L104.92 91.3539C104.805 90.7986 104.845 90.2223 105.036 89.6885C105.228 89.1548 105.563 88.6844 106.005 88.3292C106.446 87.9741 106.977 87.7481 107.539 87.6762C108.101 87.6043 108.672 87.6893 109.189 87.9217C109.706 88.1542 110.148 88.5251 110.468 88.9935C110.787 89.4619 110.971 90.0096 110.999 90.576C111.027 91.1424 110.898 91.7055 110.626 92.2031C110.355 92.7008 109.951 93.1135 109.459 93.3959L103.586 102.485L85.9039 111.463Z" fill="#A0616A"/>
<path d="M80.8789 106.305L88.3242 102.499L90.2951 109.906L85.1236 113.743L80.8789 106.305Z" fill="#282763"/>
<path d="M64.171 232.212L68.6726 232.212L70.8142 214.832L64.1699 214.832L64.171 232.212Z" fill="#A0616A"/>
<path d="M70.1703 232.617V229.562L68.9869 229.635L64.1693 229.921L63.0543 229.989L62.2019 240.22L62.1562 240.768H65.3527L65.4555 240.224L65.9197 237.748L67.1184 240.224L67.381 240.768H75.8555C76.3598 240.765 76.8425 240.563 77.1987 240.206C77.555 239.848 77.756 239.365 77.7582 238.86C78.1159 237.188 71.0684 233.573 70.1703 232.617Z" fill="#2F2E41"/>
<path d="M10.733 163.238L9.68359 167.62L26.0698 173.757L27.6184 167.29L10.733 163.238Z" fill="#A0616A"/>
<path d="M9.29652 168.983L12.2643 169.695L12.4699 168.527L13.3157 163.771L13.509 162.67L3.7683 159.455L3.24608 159.282L2.50078 162.393L3.00599 162.62L5.30305 163.65L2.61825 164.239L2.02786 164.368L0.0519476 172.616C-0.0625289 173.108 0.0213596 173.625 0.285413 174.055C0.549467 174.485 0.972356 174.793 1.46225 174.913C3.00336 175.651 8.15831 169.634 9.29652 168.983Z" fill="#2F2E41"/>
<path d="M71.1311 119.729L65.3367 117.018L53.7813 131.015L46.7428 132.797C46.238 132.539 45.6719 132.426 45.1071 132.471C44.5422 132.515 44.0006 132.715 43.542 133.048C43.0834 133.381 42.7257 133.834 42.5085 134.358C42.2912 134.882 42.2227 135.455 42.3107 136.015C42.3987 136.576 42.6397 137.101 43.0071 137.532C43.3744 137.964 43.8539 138.286 44.3924 138.462C44.931 138.638 45.5077 138.662 46.0589 138.53C46.61 138.399 47.1142 138.118 47.5157 137.718L57.8223 134.439L71.1311 119.729Z" fill="#A0616A"/>
<path d="M153.282 67.9147C152.054 67.9147 150.853 67.5501 149.832 66.8671C148.811 66.1841 148.015 65.2133 147.545 64.0775C147.075 62.9417 146.952 61.6919 147.192 60.4861C147.431 59.2804 148.023 58.1728 148.891 57.3035C149.76 56.4342 150.866 55.8422 152.071 55.6023C153.276 55.3625 154.524 55.4856 155.659 55.9561C156.794 56.4265 157.764 57.2232 158.446 58.2454C159.128 59.2676 159.493 60.4694 159.493 61.6988C159.491 63.3468 158.836 64.9268 157.672 66.0921C156.507 67.2574 154.929 67.9129 153.282 67.9147ZM153.282 56.1963C152.195 56.1963 151.132 56.519 150.228 57.1236C149.324 57.7282 148.62 58.5876 148.203 59.5931C147.787 60.5985 147.678 61.7049 147.891 62.7723C148.103 63.8397 148.626 64.8202 149.395 65.5897C150.164 66.3592 151.144 66.8833 152.21 67.0956C153.276 67.3079 154.382 67.199 155.386 66.7825C156.391 66.366 157.249 65.6607 157.853 64.7559C158.457 63.851 158.78 62.7871 158.78 61.6988C158.778 60.2399 158.199 58.8413 157.168 57.8097C156.137 56.7782 154.74 56.1979 153.282 56.1963Z" fill="#E6E6E6"/>
<path d="M152.844 64.0403C152.832 64.0403 152.819 64.0399 152.807 64.0393C152.697 64.0339 152.589 64.0048 152.491 63.9539C152.393 63.9029 152.307 63.8314 152.239 63.7441L151.261 62.4853C151.199 62.4058 151.154 62.315 151.127 62.2179C151.1 62.1208 151.093 62.0194 151.106 61.9195C151.118 61.8196 151.15 61.7232 151.2 61.6356C151.249 61.5481 151.316 61.4712 151.395 61.4094L151.431 61.382C151.51 61.3201 151.601 61.2745 151.698 61.2478C151.795 61.2211 151.896 61.2138 151.996 61.2262C152.096 61.2387 152.192 61.2708 152.28 61.3206C152.367 61.3704 152.444 61.437 152.506 61.5165C152.555 61.58 152.618 61.6321 152.689 61.6691C152.76 61.7062 152.839 61.7275 152.919 61.7314C152.999 61.7353 153.08 61.7218 153.154 61.6918C153.229 61.6619 153.296 61.6161 153.352 61.5577L155.338 59.4588C155.478 59.3114 155.67 59.2255 155.873 59.22C156.076 59.2145 156.273 59.2898 156.421 59.4294L156.453 59.4604C156.526 59.5297 156.585 59.6126 156.626 59.7046C156.667 59.7965 156.689 59.8956 156.692 59.9963C156.695 60.0969 156.678 60.1971 156.642 60.2911C156.606 60.3851 156.552 60.4711 156.482 60.5442L153.4 63.8008C153.329 63.8765 153.242 63.9367 153.147 63.9779C153.051 64.0191 152.948 64.0403 152.844 64.0403Z" fill="#10B15A" fill-opacity="0.61"/>
<path d="M122.28 143.171C121.052 143.171 119.852 142.806 118.83 142.123C117.809 141.44 117.013 140.47 116.543 139.334C116.073 138.198 115.95 136.948 116.19 135.742C116.429 134.537 117.021 133.429 117.889 132.56C118.758 131.691 119.864 131.099 121.069 130.859C122.274 130.619 123.522 130.742 124.657 131.212C125.792 131.683 126.762 132.48 127.444 133.502C128.126 134.524 128.491 135.726 128.491 136.955C128.489 138.603 127.834 140.183 126.67 141.348C125.505 142.514 123.927 143.169 122.28 143.171ZM122.28 131.453C121.193 131.453 120.13 131.775 119.226 132.38C118.322 132.985 117.618 133.844 117.201 134.849C116.785 135.855 116.676 136.961 116.889 138.029C117.101 139.096 117.624 140.077 118.393 140.846C119.162 141.616 120.142 142.14 121.208 142.352C122.274 142.564 123.38 142.455 124.384 142.039C125.389 141.622 126.247 140.917 126.851 140.012C127.456 139.107 127.778 138.043 127.778 136.955C127.776 135.496 127.197 134.098 126.166 133.066C125.135 132.035 123.738 131.454 122.28 131.453Z" fill="#E6E6E6"/>
<path d="M121.842 139.297C121.83 139.297 121.817 139.297 121.805 139.296C121.695 139.291 121.587 139.262 121.489 139.211C121.391 139.16 121.305 139.088 121.237 139.001L120.259 137.742C120.197 137.663 120.152 137.572 120.125 137.475C120.098 137.378 120.091 137.276 120.104 137.176C120.116 137.076 120.148 136.98 120.198 136.892C120.247 136.805 120.314 136.728 120.393 136.666L120.429 136.639C120.508 136.577 120.599 136.531 120.696 136.505C120.793 136.478 120.894 136.471 120.994 136.483C121.094 136.496 121.19 136.528 121.278 136.577C121.365 136.627 121.442 136.694 121.504 136.773C121.553 136.837 121.616 136.889 121.687 136.926C121.758 136.963 121.837 136.984 121.917 136.988C121.997 136.992 122.078 136.979 122.152 136.949C122.227 136.919 122.294 136.873 122.35 136.815L124.336 134.716C124.476 134.568 124.668 134.482 124.871 134.477C125.074 134.471 125.271 134.547 125.419 134.686L125.451 134.717C125.524 134.787 125.583 134.869 125.624 134.961C125.665 135.053 125.688 135.152 125.69 135.253C125.693 135.354 125.676 135.454 125.64 135.548C125.604 135.642 125.55 135.728 125.481 135.801L122.398 139.058C122.327 139.133 122.24 139.194 122.145 139.235C122.049 139.276 121.946 139.297 121.842 139.297Z" fill="#10B15A" fill-opacity="0.61"/>
<path d="M54.2199 59.3546C52.9917 59.3546 51.791 58.9901 50.7697 58.3071C49.7485 57.6241 48.9525 56.6533 48.4825 55.5175C48.0125 54.3817 47.8895 53.1319 48.1291 51.9261C48.3687 50.7203 48.9602 49.6128 49.8287 48.7434C50.6972 47.8741 51.8037 47.2821 53.0084 47.0423C54.213 46.8024 55.4617 46.9255 56.5964 47.396C57.7312 47.8665 58.7011 48.6632 59.3835 49.6854C60.0659 50.7076 60.4301 51.9094 60.4301 53.1387C60.4282 54.7867 59.7734 56.3667 58.6091 57.532C57.4449 58.6973 55.8664 59.3528 54.2199 59.3546ZM54.2199 47.6362C53.1326 47.6362 52.0697 47.9589 51.1657 48.5635C50.2616 49.1682 49.557 50.0276 49.1409 51.033C48.7248 52.0385 48.616 53.1449 48.8281 54.2122C49.0402 55.2796 49.5638 56.2601 50.3326 57.0296C51.1015 57.7992 52.081 58.3233 53.1474 58.5356C54.2138 58.7479 55.3192 58.6389 56.3237 58.2224C57.3283 57.806 58.1868 57.1007 58.7909 56.1958C59.395 55.2909 59.7174 54.227 59.7174 53.1387C59.7158 51.6799 59.136 50.2813 58.1054 49.2497C57.0748 48.2181 55.6774 47.6378 54.2199 47.6362Z" fill="#E6E6E6"/>
<path d="M53.7817 55.4802C53.7693 55.4802 53.7568 55.4798 53.7443 55.4792C53.634 55.4739 53.5262 55.4447 53.4283 55.3938C53.3304 55.3429 53.2446 55.2713 53.1768 55.1841L52.1986 53.9252C52.1368 53.8458 52.0912 53.7549 52.0646 53.6578C52.0379 53.5608 52.0305 53.4594 52.043 53.3595C52.0555 53.2596 52.0875 53.1631 52.1372 53.0756C52.1869 52.988 52.2534 52.9112 52.3328 52.8494L52.368 52.822C52.4474 52.7601 52.5382 52.7145 52.6352 52.6877C52.7322 52.661 52.8335 52.6537 52.9334 52.6662C53.0332 52.6787 53.1296 52.7107 53.2171 52.7605C53.3045 52.8103 53.3813 52.8769 53.4431 52.9564C53.4925 53.0199 53.555 53.072 53.6264 53.1091C53.6978 53.1462 53.7763 53.1674 53.8566 53.1713C53.9369 53.1752 54.0171 53.1617 54.0918 53.1318C54.1664 53.1018 54.2337 53.056 54.289 52.9977L56.2753 50.8988C56.4151 50.7514 56.6077 50.6655 56.8107 50.66C57.0137 50.6544 57.2106 50.7297 57.3582 50.8693L57.3908 50.9004C57.4638 50.9696 57.5225 51.0526 57.5635 51.1445C57.6045 51.2364 57.627 51.3356 57.6297 51.4362C57.6324 51.5368 57.6153 51.637 57.5793 51.7311C57.5433 51.8251 57.4892 51.9111 57.42 51.9842L54.3375 55.2408C54.266 55.3164 54.1799 55.3766 54.0843 55.4178C53.9887 55.459 53.8858 55.4802 53.7817 55.4802Z" fill="#10B15A" fill-opacity="0.61"/>
<path d="M103.938 166.283C89.537 166.283 72.9871 150.287 58.3446 157.887C14.0109 180.897 20.1137 142.394 7.37695 128.074L7.7951 127.234C21.8486 139.847 39.3949 150.109 58.5371 156.911C75.8357 163.058 93.264 165.906 108.932 165.154L108.959 166.163C107.304 166.243 105.63 166.283 103.938 166.283Z" fill="#F2F2F2"/>
<path d="M84.1839 58.1379C85.8464 58.1379 87.1941 56.329 87.1941 54.0977C87.1941 51.8664 85.8464 50.0576 84.1839 50.0576C82.5215 50.0576 81.1738 51.8664 81.1738 54.0977C81.1738 56.329 82.5215 58.1379 84.1839 58.1379Z" fill="#E6E6E6"/>
<path d="M118.951 121.164C117.575 122.082 116.166 119.898 117.569 119.021C118.945 118.103 120.353 120.287 118.951 121.164Z" fill="#E6E6E6"/>
<path d="M111.029 47.6255C113.194 47.6255 114.949 45.8689 114.949 43.7021C114.949 41.5353 113.194 39.7788 111.029 39.7788C108.864 39.7788 107.109 41.5353 107.109 43.7021C107.109 45.8689 108.864 47.6255 111.029 47.6255Z" fill="#F98A17"/>
<path opacity="0.3" d="M124.74 65.2018L147.044 0L122.553 64.4213C122.431 64.5742 122.348 64.7538 122.311 64.9453C122.273 65.1367 122.281 65.3344 122.335 65.522C122.388 65.7096 122.486 65.8817 122.619 66.0239C122.753 66.1663 122.918 66.2747 123.102 66.3402C123.285 66.4057 123.482 66.4265 123.675 66.4008C123.868 66.375 124.053 66.3036 124.213 66.1923C124.373 66.081 124.504 65.9331 124.596 65.7608C124.688 65.5886 124.737 65.3969 124.74 65.2018Z" fill="#F0F0F0"/>
<path d="M102.226 144.637C104.332 144.637 106.039 142.928 106.039 140.82C106.039 138.711 104.332 137.002 102.226 137.002C100.12 137.002 98.4121 138.711 98.4121 140.82C98.4121 142.928 100.12 144.637 102.226 144.637Z" fill="#F2F2F2"/>
<path d="M65.2908 142.275C65.2908 142.275 55.7835 148.472 58.2974 152.589C58.3842 152.731 46.9411 167.859 46.9411 167.859L25.3392 166.486L24.5781 173.723L43.8096 179.298C43.8096 179.298 48.5144 182.758 52.149 178.946C55.7835 175.134 67.8898 163.461 67.8898 163.461L68.4738 187.028L62.3965 219.686L71.4706 219.11L80.3026 186.346L83.5626 149.234L65.2908 142.275Z" fill="#2F2E41"/>
<path d="M72.0612 105.087L68.0632 108.119L63.5063 117.854L67.8881 123.811C67.8881 123.811 71.574 130.204 65.6742 136.396C59.7744 142.588 55.244 149.202 59.9662 148.966C64.6884 148.73 83.8141 158.466 83.9399 150.489C84.0658 142.512 84.3204 136.396 84.3204 136.396L89.3348 123.667C89.3348 123.667 92.3222 116.073 90.2247 113.799C88.1273 111.526 85.319 108.622 85.319 108.622L80.2119 103.51H75.6006L72.0612 105.087Z" fill="#282763"/>
<path d="M79.5262 86.382C88.4954 91.4906 81.1321 104.969 71.9958 100.17C63.0269 95.0613 70.3901 81.5825 79.5262 86.382Z" fill="#A0616A"/>
<path d="M84.321 89.215C83.6926 90.0331 82.3796 89.6495 79.8083 90.2333C79.8139 89.3609 79.7132 88.4911 79.5085 87.6432C79.3171 88.6931 78.8979 89.6881 78.2803 90.5581C76.0476 90.8059 78.7846 97.595 77.6414 102.587C76.1685 92.056 73.0705 94.8149 74.6356 96.9036C75.6375 98.2408 74.9695 102.252 71.9637 100.247C67.0042 102.606 59.9404 90.8864 67.7693 85.3902C67.6294 82.4194 70.9319 81.95 72.9656 82.8634C77.9011 79.1834 83.5399 83.8988 84.321 89.215Z" fill="#2F2E41"/>
<path d="M61.3086 81.5307C59.3118 93.8194 48.6087 79.2706 43.5762 91.364C41.9939 95.7435 44.7087 98.8765 46.4259 102.512C46.8179 105.499 42.935 107.015 42.5283 109.765C42.4151 116.069 52.577 115.684 55.4178 111.706C58.3368 107.542 54.8511 101.956 56.6056 97.4862C59.0716 91.2811 69.1001 91.235 69.9738 84.0159C68.2818 81.6042 63.732 78.8421 61.3086 81.5307Z" fill="#2F2E41"/>
<path d="M69.3973 82.7318C69.332 82.7594 69.2666 82.7869 69.2082 82.8179H69.2047C69.1497 82.8454 69.0947 82.8729 69.0397 82.9039C69.0328 82.9073 69.0294 82.9108 69.0225 82.9143C68.9503 82.8454 68.8781 82.7766 68.8025 82.7077C68.7829 82.8198 68.7876 82.9348 68.8162 83.045L68.8265 83.0863C68.8953 83.1586 68.9675 83.2274 69.0432 83.2997C69.1119 83.248 69.1773 83.193 69.246 83.1414C69.2873 83.107 69.3285 83.0725 69.3732 83.0381C69.3801 82.9486 69.3904 82.8454 69.4007 82.7318L69.3973 82.7318ZM71.4671 78.905C69.9336 78.554 69.4385 80.5603 69.2907 81.5273C68.7337 78.0171 66.4163 79.1218 67.2174 81.517C67.4728 82.2261 67.8746 82.8734 68.3968 83.4167C68.469 83.4993 68.548 83.5818 68.6306 83.6645C68.5377 84.1462 69.0053 84.0224 69.638 83.5784C70.1051 83.2459 70.5371 82.8665 70.9273 82.4462C72.1891 81.1213 73.1725 79.3489 71.4671 78.905ZM71.5152 80.8804C71.0421 81.491 70.5113 82.0545 69.9302 82.5632C69.748 82.7284 69.5623 82.8867 69.3732 83.0381C69.3698 83.0691 69.3698 83.0966 69.3663 83.1207C69.3531 83.1541 69.337 83.1864 69.3182 83.2171C69.1257 83.5646 68.9091 83.3754 68.8265 83.0863C68.8197 83.076 68.8094 83.0656 68.8025 83.0553C68.5277 82.7712 68.2887 82.4546 68.0908 82.1124C66.6708 79.6483 68.9572 77.9724 68.8437 82.5735C68.8228 82.6157 68.8089 82.6611 68.8025 82.7077C68.7829 82.8198 68.7876 82.9348 68.8162 83.045L68.8265 83.0863C68.8953 83.1586 68.9675 83.2274 69.0432 83.2997C69.1119 83.248 69.1773 83.193 69.246 83.1414C69.2873 83.107 69.3285 83.0725 69.3732 83.0381C69.3801 82.9486 69.3904 82.8454 69.4007 82.7318V82.7284C69.4901 81.8061 69.7343 80.1473 70.1847 79.6965C71.1749 78.9359 72.4573 79.7585 71.5152 80.8804ZM69.3973 82.7318C69.332 82.7594 69.2666 82.7869 69.2082 82.8179H69.2047C69.1497 82.8454 69.0947 82.8729 69.0397 82.9039C69.0328 82.9073 69.0294 82.9108 69.0225 82.9143C68.9503 82.8454 68.8781 82.7766 68.8025 82.7077C68.7829 82.8198 68.7876 82.9348 68.8162 83.045L68.8265 83.0863C68.8953 83.1586 68.9675 83.2274 69.0432 83.2997C69.1119 83.248 69.1773 83.193 69.246 83.1414C69.2873 83.107 69.3285 83.0725 69.3732 83.0381C69.3801 82.9486 69.3904 82.8454 69.4007 82.7318L69.3973 82.7318Z" fill="#2F2E41"/>
<path d="M152.297 150.484L148.985 159.131L133.445 189.811L147.1 225.502L154.147 223.64L148.338 189.811L165.002 169.545L184.792 182.98C184.792 182.98 193.568 189.838 196.907 183.337C200.246 176.835 221.851 163.007 221.851 163.007L216.506 157.3L191.626 168.954L174.455 144.762L152.297 150.484Z" fill="#2F2E41"/>
<path d="M169.012 109.697L163.559 103.833L154.205 102.545L142.744 110.576L142.86 119.466L148.525 140.412C148.525 140.412 146.367 155.462 152.395 155.311C158.423 155.16 161.709 152.152 164.164 152.764C166.619 153.376 177.055 155.982 177.716 153.253C178.378 150.523 181.894 152.477 181.739 149.895C181.585 147.313 172.222 128.7 172.222 128.7L174.55 110.085L169.012 109.697Z" fill="#282763"/>
<path d="M203.538 82.7048C203.586 83.1911 203.528 83.6822 203.367 84.1434C203.205 84.6047 202.945 85.025 202.604 85.3747C202.263 85.7243 201.849 85.9949 201.392 86.1672C200.935 86.3396 200.446 86.4096 199.959 86.3722L187.419 110.243L184.053 105.07L196.87 82.5412C196.987 81.7267 197.398 80.9834 198.026 80.4521C198.654 79.9209 199.454 79.6386 200.276 79.6587C201.098 79.6789 201.884 80.0001 202.485 80.5615C203.086 81.1229 203.461 81.8855 203.538 82.7048Z" fill="#FFB6B6"/>
<path d="M164.062 114.136C164.062 114.136 163.564 118.382 168.34 119.433C173.116 120.484 186.347 112.917 188.516 111.761C189.195 111.4 190.116 109.626 191.062 107.359C191.487 106.342 191.916 105.225 192.331 104.093C192.57 103.437 193.719 103.259 193.945 102.609C194.17 101.962 193.472 100.844 193.676 100.235C194.642 97.3435 195.326 95.0493 195.326 95.0493L192.161 89.0981C187.734 91.4406 185.464 96.6004 183.794 102.545L164.062 114.136Z" fill="#282763"/>
<path d="M108.287 88.1865C108.361 88.6696 108.54 89.1304 108.812 89.5366C109.083 89.9428 109.441 90.2845 109.858 90.5376C110.276 90.7907 110.744 90.949 111.23 91.0014C111.715 91.0538 112.206 90.999 112.668 90.841L130.777 110.811L132.743 104.959L114.701 86.358C114.384 85.5987 113.8 84.9821 113.06 84.625C112.319 84.2679 111.473 84.1952 110.683 84.4205C109.892 84.6459 109.211 85.1538 108.77 85.8479C108.328 86.542 108.156 87.3741 108.287 88.1865Z" fill="#FFB6B6"/>
<path d="M154.366 108.729C154.366 108.729 155.909 112.715 151.548 114.929C147.188 117.143 132.486 113.131 130.097 112.555C129.349 112.375 128.013 110.888 126.53 108.931C125.865 108.053 125.17 107.079 124.486 106.086C124.09 105.512 122.933 105.626 122.552 105.054C122.172 104.484 122.568 103.227 122.219 102.688C120.561 100.131 119.324 98.081 119.324 98.081L120.901 91.5264C125.772 92.6855 129.261 97.1123 132.364 102.449L154.366 108.729Z" fill="#282763"/>
<path d="M159.068 101.054C163.983 101.054 167.968 97.0657 167.968 92.1459C167.968 87.2261 163.983 83.2378 159.068 83.2378C154.153 83.2378 150.168 87.2261 150.168 92.1459C150.168 97.0657 154.153 101.054 159.068 101.054Z" fill="#FFB6B6"/>
<path d="M169.227 87.0452C168.291 85.5956 166.534 84.6294 164.831 84.9009C164.673 83.813 164.219 82.7895 163.519 81.9418C162.82 81.0941 161.902 80.4547 160.864 80.0933C159.827 79.7318 158.71 79.6622 157.636 79.8919C156.562 80.1216 155.572 80.6419 154.772 81.3961C154.51 81.2109 154.203 81.0968 153.884 81.0647C153.564 81.0327 153.241 81.0839 152.947 81.2133C152.361 81.48 151.851 81.8897 151.464 82.4048C150.486 83.6247 149.858 85.0869 149.645 86.6359C149.432 88.1849 149.643 89.7627 150.255 91.2013C150.047 90.444 150.805 89.7315 151.571 89.5615C152.337 89.3916 153.141 89.5523 153.918 89.4417C154.914 89.2998 155.809 88.7216 156.806 88.5915C157.652 88.5364 158.5 88.6456 159.305 88.9129C160.109 89.1801 160.956 89.294 161.802 89.2486C162.642 89.1488 163.723 92.333 163.709 94.5757C163.706 95.0007 163.793 95.5464 164.208 95.6366C164.719 95.7476 165.016 95.0416 165.502 94.8493C165.726 94.785 165.966 94.8103 166.172 94.9199C166.378 95.0295 166.534 95.2148 166.606 95.4368C166.667 95.6625 166.674 95.8995 166.625 96.1283C166.576 96.357 166.474 96.5708 166.326 96.7518C166.027 97.1107 165.672 97.4188 165.275 97.6644L165.475 97.8312C165.665 98.0323 165.919 98.161 166.194 98.1951C166.468 98.2292 166.746 98.1667 166.98 98.0183C167.439 97.7069 167.811 97.283 168.06 96.787C168.999 95.3339 169.67 93.7242 170.042 92.0342C170.355 90.3369 170.163 88.4949 169.227 87.0452Z" fill="#2F2E41"/>
<path d="M235.068 122.179C223.589 130.882 200.748 128.132 193.659 143.039C172.198 188.174 153.837 153.792 135.046 150.074L134.873 149.152C153.684 150.714 173.862 148.291 193.224 142.145C210.721 136.591 226.333 128.329 238.369 118.262L238.999 119.05C237.728 120.113 236.418 121.156 235.068 122.179Z" fill="#F2F2F2"/>
<path d="M186.534 240.392C186.26 241.202 30.1583 241.202 29.8633 240.394C30.1363 239.581 186.238 239.581 186.534 240.392Z" fill="#CCCCCC"/>
</g>
<defs>
<clipPath id="clip0_1293_872">
<rect width="239" height="241" fill="white"/>
</clipPath>
</defs>
</svg>
