<svg width="138" height="102" viewBox="0 0 138 102" fill="none" xmlns="http://www.w3.org/2000/svg">
<g clip-path="url(#clip0_1412_789)">
<path d="M36.6554 75.3303C16.4435 75.3303 0 58.7867 0 38.4518C0 18.1168 16.4435 1.57324 36.6554 1.57324C42.5282 1.57931 48.314 3.00186 53.5276 5.72163C58.7413 8.4414 63.2308 12.3791 66.6198 17.2046L66.273 17.4511C62.9233 12.6814 58.4857 8.7892 53.3324 6.10086C48.1791 3.41251 42.4603 2.00638 36.6554 2.00037C16.6778 2.00037 0.424541 18.3525 0.424541 38.4518C0.424541 58.5511 16.6778 74.9032 36.6554 74.9032C42.2206 74.9214 47.7142 73.6413 52.7046 71.1633C57.6951 68.6854 62.0466 65.0771 65.4173 60.6218L65.7539 60.8817C62.3438 65.3891 57.9415 69.0397 52.8925 71.5467C47.8436 74.0537 42.2857 75.3488 36.6554 75.3303Z" fill="#10B15A" fill-opacity="0.4"/>
<path d="M51.8092 32.2769C51.4073 32.2769 51.0145 32.157 50.6804 31.9324C50.3462 31.7078 50.0858 31.3885 49.932 31.015C49.7782 30.6415 49.738 30.2304 49.8164 29.8339C49.8948 29.4373 50.0883 29.0731 50.3725 28.7872C50.6566 28.5013 51.0187 28.3066 51.4128 28.2278C51.8069 28.1489 52.2155 28.1894 52.5867 28.3441C52.958 28.4988 53.2754 28.7608 53.4986 29.097C53.7219 29.4332 53.8411 29.8284 53.8411 30.2327C53.8411 30.7749 53.627 31.2948 53.2459 31.6782C52.8649 32.0615 52.3481 32.2769 51.8092 32.2769Z" fill="#10B15A" fill-opacity="0.4"/>
<path d="M52.5189 30.6602L52.0938 30.2324L52.5189 29.8047C52.5376 29.786 52.5525 29.7637 52.5627 29.7392C52.5728 29.7147 52.5781 29.6885 52.5781 29.6619C52.5782 29.6354 52.573 29.6091 52.5629 29.5846C52.5528 29.5601 52.5381 29.5378 52.5194 29.519C52.5008 29.5003 52.4786 29.4854 52.4542 29.4753C52.4298 29.4651 52.4037 29.4599 52.3773 29.46C52.351 29.46 52.3249 29.4653 52.3005 29.4755C52.2762 29.4857 52.2541 29.5007 52.2355 29.5195L51.8103 29.9473L51.3851 29.5195C51.3475 29.4817 51.2966 29.4604 51.2434 29.4604C51.1902 29.4604 51.1393 29.4817 51.1017 29.5195C51.0641 29.5573 51.043 29.6086 51.043 29.6621C51.043 29.7156 51.0641 29.7669 51.1017 29.8047L51.5268 30.2324L51.1017 30.6602C51.0643 30.6981 51.0433 30.7493 51.0434 30.8027C51.0435 30.856 51.0646 30.9072 51.1021 30.9449C51.1396 30.9827 51.1905 31.0039 51.2435 31.004C51.2966 31.0041 51.3475 30.983 51.3851 30.9454L51.8103 30.5176L52.2355 30.9454C52.2541 30.9641 52.2762 30.979 52.3005 30.9891C52.3248 30.9992 52.3509 31.0044 52.3772 31.0044C52.4035 31.0044 52.4296 30.9992 52.4539 30.9891C52.4782 30.979 52.5003 30.9641 52.5189 30.9454C52.5376 30.9267 52.5523 30.9044 52.5624 30.88C52.5725 30.8555 52.5776 30.8293 52.5776 30.8028C52.5776 30.7763 52.5725 30.7501 52.5624 30.7256C52.5523 30.7012 52.5376 30.6789 52.5189 30.6602Z" fill="white"/>
<path d="M41.7036 8.1362C43.9368 8.1362 45.7471 6.31485 45.7471 4.0681C45.7471 1.82135 43.9368 0 41.7036 0C39.4705 0 37.6602 1.82135 37.6602 4.0681C37.6602 6.31485 39.4705 8.1362 41.7036 8.1362Z" fill="#10B15A" fill-opacity="0.4"/>
<path d="M41.1525 6.18523C41.0827 6.18523 41.0138 6.16887 40.9513 6.13744C40.8889 6.10602 40.8346 6.06039 40.7927 6.00418L39.6896 4.52437C39.6541 4.47683 39.6283 4.42273 39.6137 4.36517C39.599 4.3076 39.5958 4.24769 39.6041 4.18887C39.6125 4.13004 39.6323 4.07345 39.6624 4.02231C39.6925 3.97118 39.7323 3.92651 39.7795 3.89086C39.8268 3.85521 39.8806 3.82927 39.9378 3.81452C39.995 3.79977 40.0545 3.79651 40.113 3.80492C40.1715 3.81332 40.2277 3.83323 40.2786 3.86351C40.3294 3.89379 40.3738 3.93384 40.4092 3.98138L41.1309 4.94944L42.9845 2.15215C43.0511 2.05316 43.1538 1.98467 43.2704 1.96162C43.3869 1.93858 43.5078 1.96284 43.6066 2.02913C43.7054 2.09542 43.7742 2.19834 43.7979 2.31544C43.8216 2.43255 43.7982 2.55432 43.733 2.65419L41.5268 5.9837C41.4868 6.04392 41.4332 6.09363 41.3702 6.12867C41.3073 6.16371 41.2369 6.18305 41.165 6.18508L41.1525 6.18523Z" fill="white"/>
<path d="M46.6551 11.4072H36.9316C36.3373 11.4072 35.8555 11.8919 35.8555 12.4899V12.8795C35.8555 13.4775 36.3373 13.9622 36.9316 13.9622H46.6551C47.2495 13.9622 47.7312 13.4775 47.7312 12.8795V12.4899C47.7312 11.8919 47.2495 11.4072 46.6551 11.4072Z" fill="#10B15A" fill-opacity="0.4"/>
<path d="M52.6865 16.5176H30.9003C30.306 16.5176 29.8242 17.0023 29.8242 17.6002V17.9899C29.8242 18.5878 30.306 19.0725 30.9003 19.0725H52.6865C53.2808 19.0725 53.7626 18.5878 53.7626 17.9899V17.6002C53.7626 17.0023 53.2808 16.5176 52.6865 16.5176Z" fill="#10B15A" fill-opacity="0.4"/>
<path d="M52.6865 21.627H30.9003C30.306 21.627 29.8242 22.1117 29.8242 22.7096V23.0992C29.8242 23.6972 30.306 24.1819 30.9003 24.1819H52.6865C53.2808 24.1819 53.7626 23.6972 53.7626 23.0992V22.7096C53.7626 22.1117 53.2808 21.627 52.6865 21.627Z" fill="#10B15A" fill-opacity="0.4"/>
<path d="M39.4361 76.1099C39.0343 76.1099 38.6415 75.99 38.3073 75.7654C37.9732 75.5408 37.7128 75.2215 37.559 74.848C37.4052 74.4745 37.3649 74.0634 37.4433 73.6669C37.5217 73.2704 37.7153 72.9061 37.9994 72.6202C38.2836 72.3343 38.6456 72.1396 39.0398 72.0608C39.4339 71.9819 39.8424 72.0224 40.2137 72.1771C40.585 72.3318 40.9023 72.5938 41.1256 72.93C41.3488 73.2662 41.468 73.6614 41.468 74.0657C41.468 74.6079 41.2539 75.1278 40.8729 75.5112C40.4918 75.8945 39.975 76.1099 39.4361 76.1099Z" fill="#10B15A" fill-opacity="0.4"/>
<path d="M40.1439 74.4937L39.7188 74.0659L40.1439 73.6382C40.1815 73.6004 40.2026 73.5491 40.2026 73.4956C40.2026 73.4421 40.1815 73.3908 40.1439 73.353C40.1063 73.3152 40.0554 73.2939 40.0022 73.2939C39.949 73.2939 39.8981 73.3152 39.8605 73.353L39.4353 73.7808L39.0101 73.353C38.9725 73.3152 38.9216 73.2939 38.8684 73.2939C38.8152 73.2939 38.7643 73.3152 38.7267 73.353C38.6891 73.3908 38.668 73.4421 38.668 73.4956C38.668 73.5491 38.6891 73.6004 38.7267 73.6382L39.1518 74.0659L38.7267 74.4937C38.6891 74.5315 38.668 74.5828 38.668 74.6363C38.668 74.6898 38.6891 74.7411 38.7267 74.7789C38.7643 74.8167 38.8152 74.8379 38.8684 74.8379C38.9216 74.8379 38.9725 74.8167 39.0101 74.7789L39.4353 74.3511L39.8605 74.7789C39.8981 74.8167 39.949 74.8379 40.0022 74.8379C40.0554 74.8379 40.1063 74.8167 40.1439 74.7789C40.1815 74.7411 40.2026 74.6898 40.2026 74.6363C40.2026 74.5828 40.1815 74.5315 40.1439 74.4937Z" fill="white"/>
<path d="M29.3306 51.9692C31.5638 51.9692 33.3741 50.1479 33.3741 47.9011C33.3741 45.6544 31.5638 43.833 29.3306 43.833C27.0974 43.833 25.2871 45.6544 25.2871 47.9011C25.2871 50.1479 27.0974 51.9692 29.3306 51.9692Z" fill="#10B15A" fill-opacity="0.4"/>
<path d="M28.7794 50.0183C28.7096 50.0183 28.6407 50.002 28.5783 49.9706C28.5158 49.9391 28.4615 49.8935 28.4196 49.8373L27.3165 48.3575C27.2811 48.3099 27.2553 48.2558 27.2406 48.1983C27.226 48.1407 27.2227 48.0808 27.2311 48.022C27.2394 47.9632 27.2592 47.9066 27.2893 47.8554C27.3194 47.8043 27.3592 47.7596 27.4065 47.724C27.4537 47.6883 27.5075 47.6624 27.5647 47.6476C27.6219 47.6329 27.6815 47.6296 27.74 47.638C27.7984 47.6464 27.8547 47.6663 27.9055 47.6966C27.9563 47.7269 28.0007 47.767 28.0362 47.8145L28.7579 48.7825L30.6115 45.9853C30.644 45.9354 30.6861 45.8925 30.7352 45.859C30.7843 45.8256 30.8396 45.8022 30.8977 45.7903C30.9558 45.7784 31.0157 45.7782 31.0739 45.7897C31.1321 45.8012 31.1875 45.8242 31.2369 45.8573C31.2862 45.8904 31.3286 45.933 31.3615 45.9826C31.3944 46.0322 31.4173 46.088 31.4287 46.1465C31.4402 46.2051 31.44 46.2653 31.4282 46.3238C31.4164 46.3823 31.3932 46.4379 31.36 46.4873L29.1537 49.8168C29.1138 49.877 29.0601 49.9267 28.9972 49.9618C28.9342 49.9968 28.8639 50.0162 28.7919 50.0182L28.7794 50.0183Z" fill="white"/>
<path d="M34.2821 55.2402H24.5585C23.9642 55.2402 23.4824 55.725 23.4824 56.3229V56.7125C23.4824 57.3105 23.9642 57.7952 24.5585 57.7952H34.2821C34.8764 57.7952 35.3582 57.3105 35.3582 56.7125V56.3229C35.3582 55.725 34.8764 55.2402 34.2821 55.2402Z" fill="#10B15A" fill-opacity="0.4"/>
<path d="M40.3134 60.3506H18.5273C17.933 60.3506 17.4512 60.8353 17.4512 61.4332V61.8229C17.4512 62.4208 17.933 62.9055 18.5273 62.9055H40.3134C40.9078 62.9055 41.3896 62.4208 41.3896 61.8229V61.4332C41.3896 60.8353 40.9078 60.3506 40.3134 60.3506Z" fill="#10B15A" fill-opacity="0.4"/>
<path d="M40.3134 65.46H18.5273C17.933 65.46 17.4512 65.9447 17.4512 66.5426V66.9323C17.4512 67.5302 17.933 68.0149 18.5273 68.0149H40.3134C40.9078 68.0149 41.3896 67.5302 41.3896 66.9323V66.5426C41.3896 65.9447 40.9078 65.46 40.3134 65.46Z" fill="#10B15A" fill-opacity="0.4"/>
<path d="M81.4679 67.388C80.913 67.388 80.3705 67.2224 79.9091 66.9122C79.4477 66.602 79.0881 66.1612 78.8757 65.6453C78.6633 65.1295 78.6078 64.5619 78.716 64.0144C78.8243 63.4668 79.0915 62.9638 79.4839 62.569C79.8763 62.1742 80.3763 61.9054 80.9205 61.7964C81.4648 61.6875 82.029 61.7434 82.5416 61.9571C83.0543 62.1707 83.4925 62.5325 83.8009 62.9968C84.1092 63.461 84.2737 64.0068 84.2737 64.5651C84.2737 65.3137 83.9781 66.0318 83.4519 66.5612C82.9257 67.0905 82.2121 67.388 81.4679 67.388Z" fill="#10B15A" fill-opacity="0.4"/>
<path d="M82.4464 65.1558L81.8593 64.5651L82.4464 63.9744C82.4983 63.9222 82.5275 63.8513 82.5275 63.7775C82.5275 63.7036 82.4983 63.6328 82.4464 63.5806C82.3945 63.5284 82.3241 63.499 82.2507 63.499C82.1773 63.499 82.1069 63.5284 82.055 63.5806L81.4678 64.1713L80.8807 63.5806C80.8288 63.5284 80.7584 63.499 80.685 63.499C80.6116 63.499 80.5412 63.5284 80.4893 63.5806C80.4374 63.6328 80.4082 63.7036 80.4082 63.7775C80.4082 63.8513 80.4374 63.9222 80.4893 63.9744L81.0764 64.5651L80.4893 65.1558C80.4374 65.208 80.4082 65.2789 80.4082 65.3527C80.4082 65.4266 80.4374 65.4974 80.4893 65.5496C80.5412 65.6018 80.6116 65.6312 80.685 65.6312C80.7584 65.6312 80.8288 65.6018 80.8807 65.5496L81.4678 64.9589L82.055 65.5496C82.1069 65.6018 82.1773 65.6312 82.2507 65.6312C82.3241 65.6312 82.3945 65.6018 82.4464 65.5496C82.4983 65.4974 82.5274 65.4266 82.5274 65.3527C82.5274 65.2789 82.4983 65.208 82.4464 65.1558Z" fill="white"/>
<path d="M69.2419 34.0527C72.3257 34.0527 74.8255 31.5376 74.8255 28.435C74.8255 25.3325 72.3257 22.8174 69.2419 22.8174C66.1581 22.8174 63.6582 25.3325 63.6582 28.435C63.6582 31.5376 66.1581 34.0527 69.2419 34.0527Z" fill="#10B15A"/>
<path d="M68.4803 31.3585C68.3839 31.3585 68.2888 31.3359 68.2025 31.2925C68.1163 31.2491 68.0413 31.1861 67.9835 31.1085L66.4601 29.065C66.4112 28.9993 66.3756 28.9246 66.3554 28.8451C66.3351 28.7656 66.3306 28.6829 66.3422 28.6017C66.3537 28.5204 66.381 28.4423 66.4226 28.3717C66.4642 28.3011 66.5191 28.2394 66.5844 28.1902C66.6496 28.1409 66.7239 28.1051 66.8029 28.0847C66.8819 28.0644 66.9641 28.0599 67.0449 28.0715C67.1256 28.0831 67.2033 28.1106 67.2735 28.1524C67.3437 28.1942 67.405 28.2495 67.4539 28.3152L68.4505 29.6519L71.0102 25.7892C71.0554 25.7209 71.1136 25.6622 71.1813 25.6165C71.2491 25.5708 71.3252 25.539 71.4052 25.5229C71.4852 25.5068 71.5675 25.5067 71.6476 25.5226C71.7276 25.5385 71.8037 25.5702 71.8716 25.6157C71.9395 25.6612 71.9978 25.7198 72.0432 25.788C72.0886 25.8562 72.1202 25.9327 72.1361 26.0132C72.1521 26.0937 72.1522 26.1765 72.1364 26.257C72.1205 26.3376 72.089 26.4141 72.0438 26.4824L68.9971 31.0802C68.942 31.1633 68.8679 31.232 68.781 31.2803C68.6941 31.3287 68.5969 31.3554 68.4976 31.3582C68.4918 31.3584 68.4861 31.3585 68.4803 31.3585Z" fill="white"/>
<path d="M76.4892 38.5693H62.2421C61.6478 38.5693 61.166 39.0541 61.166 39.652V41.0148C61.166 41.6128 61.6478 42.0975 62.2421 42.0975H76.4892C77.0835 42.0975 77.5653 41.6128 77.5653 41.0148V39.652C77.5653 39.0541 77.0835 38.5693 76.4892 38.5693Z" fill="#3F3D56"/>
<path d="M84.8184 45.626H53.914C53.3197 45.626 52.8379 46.1107 52.8379 46.7086V48.0715C52.8379 48.6694 53.3197 49.1541 53.914 49.1541H84.8184C85.4127 49.1541 85.8945 48.6694 85.8945 48.0715V46.7086C85.8945 46.1107 85.4127 45.626 84.8184 45.626Z" fill="#3F3D56"/>
<path d="M84.8184 52.6816H53.914C53.3197 52.6816 52.8379 53.1664 52.8379 53.7643V55.1271C52.8379 55.7251 53.3197 56.2098 53.914 56.2098H84.8184C85.4127 56.2098 85.8945 55.7251 85.8945 55.1271V53.7643C85.8945 53.1664 85.4127 52.6816 84.8184 52.6816Z" fill="#3F3D56"/>
<path d="M95.6659 99.0159L92.9582 99.0157L91.6699 88.5078L95.6665 88.508L95.6659 99.0159Z" fill="#FFB6B6"/>
<path d="M95.5936 98.1255L92.7025 96.9424L92.6197 96.9082L91.0235 98.1255C90.1222 98.1256 89.2579 98.4859 88.6205 99.1271C87.9832 99.7683 87.6251 100.638 87.625 101.545V101.656H96.3557V98.1255H95.5936Z" fill="#2F2E41"/>
<path d="M118.552 96.7339L115.967 97.5422L111.637 87.8922L115.453 86.6992L118.552 96.7339Z" fill="#FFB6B6"/>
<path d="M118.221 95.9054L115.111 95.6388L115.022 95.6309L113.857 97.2699C112.996 97.5392 112.277 98.1413 111.857 98.9439C111.438 99.7464 111.352 100.684 111.62 101.55L111.653 101.656L119.99 99.049L118.949 95.6778L118.221 95.9054Z" fill="#2F2E41"/>
<path d="M107.718 45.1865L108.819 48.3378V50.0412L108.666 51.9144L110.37 58.1618L111.707 71.9384L118.436 92.3318L113.277 93.8268L100.103 60.506L95.9425 94.209L91.224 94.0823C91.224 94.0823 90.4168 92.1183 90.629 91.0505C90.8413 89.9827 90.8413 91.264 90.8413 89.9827C90.8413 88.7013 89.9211 89.2579 90.5935 88.2321C91.2658 87.2063 91.1821 86.3084 91.224 85.6896C91.2658 85.0707 90.8413 60.0839 90.8413 59.2297C90.8413 58.3754 90.6942 58.5625 90.7678 57.7215C90.8413 56.8805 91.7742 57.2262 91.52 55.772C91.2658 54.3177 91.1821 54.5719 91.224 53.4838C91.2658 52.3957 91.8508 46.0155 91.8508 46.0155L107.718 45.1865Z" fill="#2F2E41"/>
<path d="M90.0587 46.2124L99.5179 37.0346L102.14 29.5659L98.2725 27.874C96.2861 29.7884 94.139 35.7511 94.139 35.7511L87.6297 44.0828C87.5789 44.1003 87.5283 44.1188 87.4784 44.141C87.1852 44.2711 86.9303 44.4751 86.7384 44.7332C86.5464 44.9913 86.4239 45.2949 86.3827 45.6146C86.3414 45.9343 86.3829 46.2593 86.5029 46.5582C86.623 46.8571 86.8177 47.1197 87.0682 47.3208C87.3186 47.5218 87.6164 47.6545 87.9327 47.7059C88.2491 47.7574 88.5732 47.7258 88.8739 47.6144C89.1746 47.503 89.4416 47.3154 89.6491 47.0698C89.8567 46.8242 89.9977 46.5289 90.0587 46.2124Z" fill="#FFB8B8"/>
<path d="M97.1836 28.7071L102.089 30.2739L102.107 30.2708C103.933 29.9631 105.448 26.963 106.397 24.5005C106.71 23.6882 106.704 22.7869 106.381 21.9788C106.058 21.1707 105.443 20.5161 104.658 20.1473C104.078 19.8792 103.435 19.7797 102.801 19.8601C102.168 19.9405 101.569 20.1976 101.073 20.6024L98.5541 22.6732L97.1836 28.7071Z" fill="#F98A17"/>
<path d="M108.552 49.2352L108.581 49.1968C110.111 47.1547 108.018 42.0975 107.702 41.3641L109.125 40.94L108.877 38.214L108.757 36.9984L109.864 35.9413L109.867 35.9143L110.628 30.4661L111.624 26.8602C111.999 25.497 112.007 24.0579 111.647 22.6906C111.287 21.3233 110.571 20.0771 109.574 19.0799L107.539 17.0468L105.1 13.2068L101.012 13.1006L99.5418 15.7282C98.1746 16.0089 96.9485 16.7633 96.0773 17.8599C95.2061 18.9566 94.7449 20.326 94.774 21.7296L94.9124 28.7247L93.4454 37.3917L93.4043 38.966L91.9644 40.4947L92.2306 42.0402L91.1535 42.4718L90.6265 44.6679C90.4252 44.9213 89.0961 46.6115 89.084 47.0827C89.0822 47.1534 89.1324 47.2232 89.2418 47.3019C90.1021 47.9212 94.9105 49.263 97.0746 48.4563C99.3798 47.5977 108.414 49.2102 108.505 49.2266L108.552 49.2352Z" fill="#F98A17"/>
<path d="M98.5288 27.0601L96.4404 22.8711C93.409 23.0794 87.3926 26.6057 87.3926 26.6057L76.0093 29.0339C75.672 28.9035 75.3066 28.8648 74.9498 28.9216C74.593 28.9784 74.2573 29.1288 73.9766 29.3577C73.6959 29.5865 73.4801 29.8857 73.3509 30.2251C73.2217 30.5645 73.1836 30.9322 73.2405 31.2912C73.2974 31.6501 73.4473 31.9876 73.6751 32.2697C73.9029 32.5519 74.2006 32.7686 74.5381 32.8982C74.8756 33.0278 75.2411 33.0657 75.5978 33.008C75.9545 32.9503 76.2898 32.7991 76.5699 32.5696L91.0502 31.5253L98.5288 27.0601Z" fill="#FFB8B8"/>
<path d="M97.6859 27.7474L103.14 23.6694L104.101 20.186C104.287 19.5015 104.279 18.7782 104.078 18.0979C103.877 17.4177 103.491 16.8075 102.964 16.3364C102.244 15.7027 101.312 15.3674 100.357 15.3985C99.4009 15.4295 98.4925 15.8245 97.8152 16.5036C95.7627 18.5647 93.4216 21.4403 93.9245 23.4343L93.9296 23.4545L97.6859 27.7474Z" fill="#F98A17"/>
<path d="M103.19 12.1479C105.869 12.1479 108.04 9.96325 108.04 7.26831C108.04 4.57336 105.869 2.38867 103.19 2.38867C100.511 2.38867 98.3398 4.57336 98.3398 7.26831C98.3398 9.96325 100.511 12.1479 103.19 12.1479Z" fill="#FFB8B8"/>
<path d="M106.382 12.3718C105.57 11.9884 104.623 12.2214 103.727 12.2569C102.832 12.2923 101.746 11.9527 101.556 11.0714C101.416 10.4198 101.838 9.70566 101.572 9.09503C101.282 8.42912 100.411 8.33435 99.7124 8.1479C98.8367 7.89336 98.0645 7.36469 97.5079 6.63864C96.9512 5.91259 96.639 5.02694 96.6165 4.11024C96.568 4.47408 97.1868 4.59358 97.39 4.28871C97.5933 3.98384 97.4533 3.56187 97.2292 3.27218C97.0051 2.98248 96.7026 2.75113 96.5336 2.42579C96.3646 2.10044 96.3975 1.61727 96.7275 1.4607C96.8966 1.80418 97.1362 2.10769 97.4304 2.3512C97.7246 2.59471 98.0668 2.77269 98.4345 2.87339C98.2843 2.41461 98.4966 1.89883 98.8382 1.5595C99.2012 1.24157 99.6193 0.993815 100.072 0.828692C101.19 0.341101 102.495 -0.144107 103.578 0.41846C103.857 0.566461 104.1 0.776084 104.288 1.03167C104.475 1.28726 104.603 1.5822 104.662 1.89447C106.664 2.06485 108.721 4.24749 108.607 6.26634C108.484 8.43969 108.395 8.61553 106.596 12.2728" fill="#2F2E41"/>
<path d="M130.679 101.781H123.634L123.604 101.726C123.514 101.562 123.427 101.387 123.345 101.208C122.62 99.6455 122.313 97.858 122.043 96.2809L121.839 95.0921C121.814 94.9481 121.833 94.8 121.892 94.6668C121.952 94.5335 122.049 94.4211 122.173 94.344C122.296 94.2669 122.439 94.2285 122.584 94.2339C122.73 94.2393 122.87 94.288 122.987 94.3741C124.058 95.1578 125.129 95.9408 126.2 96.723C126.606 97.02 127.069 97.3637 127.513 97.7352C127.556 97.526 127.6 97.3162 127.645 97.1093C127.676 96.9664 127.749 96.8361 127.854 96.735C127.958 96.6338 128.091 96.5665 128.234 96.5416C128.377 96.5167 128.525 96.5354 128.657 96.5952C128.79 96.655 128.902 96.7532 128.978 96.8774L129.803 98.2096C130.404 99.1826 130.934 100.141 130.826 101.175C130.827 101.188 130.826 101.2 130.823 101.213C130.802 101.383 130.762 101.55 130.704 101.711L130.679 101.781Z" fill="#F0F0F0"/>
<path d="M137.749 101.934L70.8081 102C70.7413 102 70.6774 101.973 70.6302 101.925C70.5831 101.877 70.5566 101.813 70.5566 101.746C70.5566 101.678 70.5831 101.614 70.6302 101.566C70.6774 101.519 70.7413 101.492 70.8081 101.491L137.749 101.426C137.816 101.426 137.88 101.453 137.927 101.501C137.974 101.548 138.001 101.613 138.001 101.68C138.001 101.747 137.974 101.812 137.927 101.859C137.88 101.907 137.816 101.934 137.749 101.934Z" fill="#CACACA"/>
</g>
<defs>
<clipPath id="clip0_1412_789">
<rect width="138" height="102" fill="white"/>
</clipPath>
</defs>
</svg>
