<svg width="18" height="24" viewBox="0 0 18 24" fill="none" xmlns="http://www.w3.org/2000/svg">
<circle cx="9" cy="9" r="6.75" stroke="#9FA8C4" stroke-width="4.5"/>
<path d="M11.5126 19.2814L9.5 21.5802L7.48744 19.2814C7.32191 19.0988 7.1002 18.9978 6.87007 19C6.63994 19.0023 6.4198 19.1078 6.25707 19.2936C6.09434 19.4795 6.00203 19.7309 6.00003 19.9938C5.99803 20.2567 6.0865 20.5099 6.24638 20.699L8.87947 23.7065C9.04406 23.8944 9.26727 24 9.5 24C9.73273 24 9.95594 23.8944 10.1205 23.7065L12.7536 20.699C12.9135 20.5099 13.002 20.2567 13 19.9938C12.998 19.7309 12.9057 19.4795 12.7429 19.2936C12.5802 19.1078 12.3601 19.0023 12.1299 19C11.8998 18.9978 11.6781 19.0988 11.5126 19.2814Z" fill="#9FA8C4"/>
</svg>
