<svg width="12" height="12" viewBox="0 0 12 12" fill="none" xmlns="http://www.w3.org/2000/svg">
<path d="M5.3393 1.9451L9.09301 5.69881L5.3393 9.45252C4.89341 9.89841 4.89341 10.6173 5.3393 11.0632C5.7852 11.5091 6.50409 11.5091 6.94999 11.0632L11.509 6.50415C11.9549 6.05826 11.9549 5.33936 11.509 4.89347L6.94999 0.334421C6.50409 -0.111474 5.7852 -0.111474 5.3393 0.334421C4.89796 0.780316 4.89796 1.49921 5.3393 1.9451Z" fill="#C3AAFF"/>
<path d="M1.9451 0.334427L6.50415 4.89347C6.95005 5.33937 6.95005 6.05826 6.50415 6.50416L1.9451 11.0632C1.49921 11.5091 0.780316 11.5091 0.334421 11.0632C-0.111474 10.6173 -0.111474 9.89842 0.334421 9.45252L4.08813 5.69881L0.334421 1.94511C-0.111474 1.49921 -0.111474 0.780322 0.334421 0.334427C0.780316 -0.106918 1.49921 -0.106918 1.9451 0.334427Z" fill="#6941C8"/>
</svg>
