<svg width="16" height="18" viewBox="0 0 16 18" fill="none" xmlns="http://www.w3.org/2000/svg">
<path d="M4.71785 3.68128C4.38144 3.68128 4.10246 3.40314 4.10246 3.06773V0.613546C4.10246 0.278141 4.38144 0 4.71785 0C5.05426 0 5.33323 0.278141 5.33323 0.613546V3.06773C5.33323 3.40314 5.05426 3.68128 4.71785 3.68128ZM11.282 3.68128C10.9455 3.68128 10.6666 3.40314 10.6666 3.06773V0.613546C10.6666 0.278141 10.9455 0 11.282 0C11.6184 0 11.8973 0.278141 11.8973 0.613546V3.06773C11.8973 3.40314 11.6184 3.68128 11.282 3.68128ZM5.12811 10.8393C5.02144 10.8393 4.91477 10.8148 4.81631 10.7739C4.70964 10.733 4.62759 10.6757 4.54554 10.6021C4.39785 10.4466 4.30759 10.2421 4.30759 10.0213C4.30759 9.91491 4.33221 9.80856 4.37323 9.71039C4.41426 9.61222 4.47169 9.52224 4.54554 9.44043C4.62759 9.36681 4.70964 9.30954 4.81631 9.26864C5.11169 9.14593 5.48093 9.21138 5.71067 9.44043C5.85836 9.59586 5.94862 9.80856 5.94862 10.0213C5.94862 10.0703 5.94041 10.1276 5.93221 10.1849C5.924 10.234 5.90759 10.283 5.88298 10.3321C5.86657 10.3812 5.84195 10.4303 5.80913 10.4794C5.78452 10.5203 5.74349 10.5612 5.71067 10.6021C5.55477 10.7493 5.34144 10.8393 5.12811 10.8393ZM7.9999 10.8393C7.89323 10.8393 7.78657 10.8148 7.68811 10.7739C7.58144 10.733 7.49939 10.6757 7.41734 10.6021C7.26964 10.4466 7.17939 10.2421 7.17939 10.0213C7.17939 9.91491 7.204 9.80856 7.24503 9.71039C7.28605 9.61222 7.34349 9.52224 7.41734 9.44043C7.49939 9.36681 7.58144 9.30954 7.68811 9.26864C7.98349 9.13775 8.35272 9.21138 8.58246 9.44043C8.73016 9.59586 8.82041 9.80856 8.82041 10.0213C8.82041 10.0703 8.81221 10.1276 8.804 10.1849C8.7958 10.234 8.77939 10.283 8.75477 10.3321C8.73836 10.3812 8.71375 10.4303 8.68093 10.4794C8.65631 10.5203 8.61528 10.5612 8.58246 10.6021C8.42657 10.7493 8.21323 10.8393 7.9999 10.8393ZM10.8717 10.8393C10.765 10.8393 10.6584 10.8148 10.5599 10.7739C10.4532 10.733 10.3712 10.6757 10.2891 10.6021L10.1907 10.4794C10.1596 10.4338 10.1348 10.3843 10.1168 10.3321C10.0931 10.2858 10.0765 10.2361 10.0676 10.1849C10.0594 10.1276 10.0512 10.0703 10.0512 10.0213C10.0512 9.80856 10.1414 9.59586 10.2891 9.44043C10.3712 9.36681 10.4532 9.30954 10.5599 9.26864C10.8635 9.13775 11.2245 9.21138 11.4543 9.44043C11.602 9.59586 11.6922 9.80856 11.6922 10.0213C11.6922 10.0703 11.684 10.1276 11.6758 10.1849C11.6676 10.234 11.6512 10.283 11.6266 10.3321C11.6102 10.3812 11.5855 10.4303 11.5527 10.4794C11.5281 10.5203 11.4871 10.5612 11.4543 10.6021C11.2984 10.7493 11.085 10.8393 10.8717 10.8393ZM5.12811 13.7025C5.02144 13.7025 4.91477 13.678 4.81631 13.6371C4.71785 13.5962 4.62759 13.5389 4.54554 13.4653C4.39785 13.3099 4.30759 13.0972 4.30759 12.8845C4.30759 12.7781 4.33221 12.6718 4.37323 12.5736C4.41426 12.4673 4.47169 12.3773 4.54554 12.3036C4.84913 12.001 5.40708 12.001 5.71067 12.3036C5.85836 12.4591 5.94862 12.6718 5.94862 12.8845C5.94862 13.0972 5.85836 13.3099 5.71067 13.4653C5.55477 13.6125 5.34144 13.7025 5.12811 13.7025ZM7.9999 13.7025C7.78657 13.7025 7.57323 13.6125 7.41734 13.4653C7.26964 13.3099 7.17939 13.0972 7.17939 12.8845C7.17939 12.7781 7.204 12.6718 7.24503 12.5736C7.28605 12.4673 7.34349 12.3773 7.41734 12.3036C7.72093 12.001 8.27887 12.001 8.58246 12.3036C8.65631 12.3773 8.71375 12.4673 8.75477 12.5736C8.7958 12.6718 8.82041 12.7781 8.82041 12.8845C8.82041 13.0972 8.73016 13.3099 8.58246 13.4653C8.42657 13.6125 8.21323 13.7025 7.9999 13.7025ZM10.8717 13.7025C10.6584 13.7025 10.445 13.6125 10.2891 13.4653C10.2132 13.3885 10.1545 13.2964 10.1168 13.1953C10.0758 13.0972 10.0512 12.9908 10.0512 12.8845C10.0512 12.7781 10.0758 12.6718 10.1168 12.5736C10.1578 12.4673 10.2153 12.3773 10.2891 12.3036C10.4778 12.1155 10.765 12.0255 11.0276 12.0828C11.085 12.091 11.1343 12.1073 11.1835 12.1319C11.2327 12.1482 11.282 12.1728 11.3312 12.2055C11.3722 12.23 11.4132 12.2709 11.4543 12.3036C11.602 12.4591 11.6922 12.6718 11.6922 12.8845C11.6922 13.0972 11.602 13.3099 11.4543 13.4653C11.2984 13.6125 11.085 13.7025 10.8717 13.7025ZM14.9743 7.02715H1.02554C0.689131 7.02715 0.410156 6.74901 0.410156 6.4136C0.410156 6.0782 0.689131 5.80006 1.02554 5.80006H14.9743C15.3107 5.80006 15.5896 6.0782 15.5896 6.4136C15.5896 6.74901 15.3107 7.02715 14.9743 7.02715Z" fill="#333333"/>
<path d="M11.2821 17.5883H4.71795C1.72308 17.5883 0 15.8704 0 12.8844V5.93091C0 2.94498 1.72308 1.22705 4.71795 1.22705H11.2821C14.2769 1.22705 16 2.94498 16 5.93091V12.8844C16 15.8704 14.2769 17.5883 11.2821 17.5883ZM4.71795 2.45414C2.37128 2.45414 1.23077 3.59125 1.23077 5.93091V12.8844C1.23077 15.2241 2.37128 16.3612 4.71795 16.3612H11.2821C13.6287 16.3612 14.7692 15.2241 14.7692 12.8844V5.93091C14.7692 3.59125 13.6287 2.45414 11.2821 2.45414H4.71795Z" fill="#333333"/>
</svg>
