<svg width="32" height="25" viewBox="0 0 32 25" fill="none" xmlns="http://www.w3.org/2000/svg">
<path d="M5.30758 5.06368C4.92912 5.06368 4.61527 4.75077 4.61527 4.37344V1.61248C4.61527 1.23515 4.92912 0.922241 5.30758 0.922241C5.68604 0.922241 5.99989 1.23515 5.99989 1.61248V4.37344C5.99989 4.75077 5.68604 5.06368 5.30758 5.06368ZM12.6922 5.06368C12.3137 5.06368 11.9999 4.75077 11.9999 4.37344V1.61248C11.9999 1.23515 12.3137 0.922241 12.6922 0.922241C13.0707 0.922241 13.3845 1.23515 13.3845 1.61248V4.37344C13.3845 4.75077 13.0707 5.06368 12.6922 5.06368ZM5.76912 13.1165C5.64912 13.1165 5.52912 13.0889 5.41835 13.0428C5.29835 12.9968 5.20604 12.9324 5.11373 12.8496C4.94758 12.6747 4.84604 12.4446 4.84604 12.1962C4.84604 12.0765 4.87373 11.9569 4.91989 11.8464C4.96604 11.736 5.03066 11.6348 5.11373 11.5427C5.20604 11.4599 5.29835 11.3955 5.41835 11.3495C5.75066 11.2114 6.16604 11.285 6.4245 11.5427C6.59066 11.7176 6.69219 11.9569 6.69219 12.1962C6.69219 12.2514 6.68296 12.3158 6.67373 12.3802C6.6645 12.4354 6.64604 12.4907 6.61835 12.5459C6.59989 12.6011 6.5722 12.6563 6.53527 12.7115C6.50758 12.7575 6.46143 12.8036 6.4245 12.8496C6.24912 13.0152 6.00912 13.1165 5.76912 13.1165ZM8.99989 13.1165C8.87989 13.1165 8.75989 13.0889 8.64912 13.0428C8.52912 12.9968 8.43681 12.9324 8.3445 12.8496C8.17835 12.6747 8.07681 12.4446 8.07681 12.1962C8.07681 12.0765 8.1045 11.9569 8.15066 11.8464C8.19681 11.736 8.26143 11.6348 8.3445 11.5427C8.43681 11.4599 8.52912 11.3955 8.64912 11.3495C8.98143 11.2022 9.39681 11.285 9.65527 11.5427C9.82143 11.7176 9.92296 11.9569 9.92296 12.1962C9.92296 12.2514 9.91373 12.3158 9.9045 12.3802C9.89527 12.4354 9.87681 12.4907 9.84912 12.5459C9.83066 12.6011 9.80296 12.6563 9.76604 12.7115C9.73835 12.7575 9.69219 12.8036 9.65527 12.8496C9.47989 13.0152 9.23989 13.1165 8.99989 13.1165ZM12.2307 13.1165C12.1107 13.1165 11.9907 13.0889 11.8799 13.0428C11.7599 12.9968 11.6676 12.9324 11.5753 12.8496L11.4645 12.7115C11.4295 12.6602 11.4016 12.6045 11.3814 12.5459C11.3548 12.4937 11.3361 12.4379 11.326 12.3802C11.3168 12.3158 11.3076 12.2514 11.3076 12.1962C11.3076 11.9569 11.4091 11.7176 11.5753 11.5427C11.6676 11.4599 11.7599 11.3955 11.8799 11.3495C12.2214 11.2022 12.6276 11.285 12.886 11.5427C13.0522 11.7176 13.1537 11.9569 13.1537 12.1962C13.1537 12.2514 13.1445 12.3158 13.1353 12.3802C13.126 12.4354 13.1076 12.4907 13.0799 12.5459C13.0614 12.6011 13.0337 12.6563 12.9968 12.7115C12.9691 12.7575 12.923 12.8036 12.886 12.8496C12.7107 13.0152 12.4707 13.1165 12.2307 13.1165ZM5.76912 16.3376C5.64912 16.3376 5.52912 16.31 5.41835 16.264C5.30758 16.2179 5.20604 16.1535 5.11373 16.0707C4.94758 15.8958 4.84604 15.6566 4.84604 15.4173C4.84604 15.2976 4.87373 15.178 4.91989 15.0676C4.96604 14.9479 5.03066 14.8467 5.11373 14.7638C5.45527 14.4233 6.08296 14.4233 6.4245 14.7638C6.59066 14.9387 6.69219 15.178 6.69219 15.4173C6.69219 15.6566 6.59066 15.8958 6.4245 16.0707C6.24912 16.2364 6.00912 16.3376 5.76912 16.3376ZM8.99989 16.3376C8.75989 16.3376 8.51989 16.2364 8.3445 16.0707C8.17835 15.8958 8.07681 15.6566 8.07681 15.4173C8.07681 15.2976 8.1045 15.178 8.15066 15.0676C8.19681 14.9479 8.26143 14.8467 8.3445 14.7638C8.68604 14.4233 9.31373 14.4233 9.65527 14.7638C9.73835 14.8467 9.80296 14.9479 9.84912 15.0676C9.89527 15.178 9.92296 15.2976 9.92296 15.4173C9.92296 15.6566 9.82143 15.8958 9.65527 16.0707C9.47989 16.2364 9.23989 16.3376 8.99989 16.3376ZM12.2307 16.3376C11.9907 16.3376 11.7507 16.2364 11.5753 16.0707C11.4899 15.9843 11.4238 15.8807 11.3814 15.767C11.3353 15.6566 11.3076 15.5369 11.3076 15.4173C11.3076 15.2976 11.3353 15.178 11.3814 15.0676C11.4276 14.9479 11.4922 14.8467 11.5753 14.7638C11.7876 14.5522 12.1107 14.4509 12.406 14.5154C12.4707 14.5246 12.526 14.543 12.5814 14.5706C12.6368 14.589 12.6922 14.6166 12.7476 14.6534C12.7937 14.681 12.8399 14.727 12.886 14.7638C13.0522 14.9387 13.1537 15.178 13.1537 15.4173C13.1537 15.6566 13.0522 15.8958 12.886 16.0707C12.7107 16.2364 12.4707 16.3376 12.2307 16.3376ZM16.846 8.82779H1.15373C0.775272 8.82779 0.461426 8.51488 0.461426 8.13755C0.461426 7.76021 0.775272 7.44731 1.15373 7.44731H16.846C17.2245 7.44731 17.5383 7.76021 17.5383 8.13755C17.5383 8.51488 17.2245 8.82779 16.846 8.82779Z" fill="#333333"/>
<path d="M12.6923 20.7091H5.30769C1.93846 20.7091 0 18.7765 0 15.4173V7.59457C0 4.23541 1.93846 2.30273 5.30769 2.30273H12.6923C16.0615 2.30273 18 4.23541 18 7.59457V15.4173C18 18.7765 16.0615 20.7091 12.6923 20.7091ZM5.30769 3.68321C2.66769 3.68321 1.38462 4.96246 1.38462 7.59457V15.4173C1.38462 18.0494 2.66769 19.3286 5.30769 19.3286H12.6923C15.3323 19.3286 16.6154 18.0494 16.6154 15.4173V7.59457C16.6154 4.96246 15.3323 3.68321 12.6923 3.68321H5.30769Z" fill="#333333"/>
<line x1="31.5" y1="0.999939" x2="31.5" y2="24.9999" stroke="#F0ECFC"/>
</svg>
