<svg width="28" height="30" viewBox="0 0 28 30" fill="none" xmlns="http://www.w3.org/2000/svg">
<path fill-rule="evenodd" clip-rule="evenodd" d="M18.4623 3.11981C18.1424 3.11981 17.8257 3.18314 17.5304 3.30616C17.2351 3.42919 16.9671 3.60945 16.7418 3.83657L16.7391 3.83936L4.11655 16.5017C3.47776 17.1521 3.11982 18.0274 3.11982 18.9392C3.11982 19.8524 3.4789 20.729 4.11961 21.3796L7.66514 24.9851C7.9797 25.3056 8.35612 25.5612 8.7702 25.7351C9.1843 25.909 9.62888 25.9984 10.078 25.9984C10.527 25.9984 10.9716 25.909 11.3857 25.7351C11.7998 25.5612 12.1751 25.3066 12.4896 24.9861L12.4953 24.9803L24.3448 13.0312C24.9515 12.4195 25.9393 12.4154 26.551 13.022C27.1626 13.6286 27.1668 14.6163 26.5601 15.228L14.7163 27.1714C14.7153 27.1725 14.7143 27.1735 14.7133 27.1744C14.1089 27.7894 13.3882 28.2781 12.5931 28.6118C11.7967 28.946 10.9417 29.1182 10.078 29.1182C9.21425 29.1182 8.3592 28.946 7.56279 28.6118C6.76649 28.2775 6.04478 27.7879 5.43985 27.1716C5.43979 27.1716 5.43993 27.1716 5.43985 27.1716L1.89648 23.5685C0.681166 22.3341 0 20.6714 0 18.9392C0 17.2069 0.681166 15.5442 1.89648 14.3098L1.90326 14.3029L14.5268 1.6396C14.5273 1.63905 14.5279 1.63851 14.5284 1.63796C15.0434 1.1192 15.6558 0.707404 16.3306 0.426293C17.0061 0.144883 17.7306 0 18.4623 0C19.194 0 19.9185 0.144883 20.594 0.426293C21.2683 0.707264 21.8806 1.11879 22.3954 1.63718C22.3962 1.63799 22.397 1.63879 22.3979 1.6396L23.8028 3.04454C23.8034 3.04535 23.8043 3.04614 23.8051 3.04695C24.3236 3.56174 24.735 4.17393 25.016 4.84835C25.2974 5.52381 25.4424 6.24831 25.4424 6.98003C25.4424 7.71177 25.2974 8.43627 25.016 9.11173C24.7352 9.78571 24.324 10.3976 23.8062 10.9121C23.8049 10.9133 23.8039 10.9144 23.8028 10.9155L12.6194 22.1388C12.6188 22.1392 12.6183 22.1398 12.6177 22.1404C12.2879 22.4724 11.8957 22.7361 11.4637 22.916C11.0309 23.0963 10.5667 23.1891 10.0979 23.1891C9.62904 23.1891 9.16486 23.0963 8.73208 22.916C8.2993 22.7357 7.90651 22.4716 7.57635 22.1388L7.56539 22.1275L6.87687 21.4193C6.54942 21.0916 6.28921 20.7029 6.11098 20.2751C5.9307 19.8423 5.83785 19.3781 5.83785 18.9093C5.83785 18.4405 5.93068 17.9763 6.11098 17.5435C6.29127 17.1108 6.55543 16.718 6.88825 16.3879C6.88821 16.3879 6.88829 16.3878 6.88825 16.3879L14.3963 8.93954C15.0079 8.3328 15.9955 8.33675 16.6023 8.94836C17.209 9.55996 17.2051 10.5476 16.5935 11.1544L9.08547 18.6027C9.04501 18.6428 9.01278 18.6907 8.99085 18.7433C8.96895 18.7959 8.95766 18.8523 8.95766 18.9093C8.95766 18.9663 8.96895 19.0227 8.99085 19.0753C9.01278 19.1279 9.04489 19.1756 9.08534 19.2157L9.10548 19.2357L9.79493 19.9452C9.8343 19.984 9.88081 20.0149 9.93187 20.0362C9.98447 20.0581 10.0409 20.0694 10.0979 20.0694C10.1549 20.0694 10.2113 20.0581 10.2639 20.0362C10.3165 20.0143 10.3642 19.9822 10.4043 19.9417L10.4069 19.9392L21.5992 8.70694L21.6056 8.70048C21.8328 8.47521 22.0131 8.20719 22.1362 7.91191C22.2591 7.61663 22.3226 7.29993 22.3226 6.98003C22.3226 6.66014 22.2591 6.34342 22.1362 6.04814C22.0131 5.75286 21.8328 5.48487 21.6056 5.2596L21.6013 5.25509L20.1872 3.84111L20.1828 3.83657C19.9576 3.60945 19.6895 3.42919 19.3942 3.30616C19.0989 3.18314 18.7822 3.11981 18.4623 3.11981Z" fill="#CFC3F6"/>
</svg>
