<svg width="30" height="30" viewBox="0 0 30 30" fill="none" xmlns="http://www.w3.org/2000/svg">
<g clip-path="url(#clip0_1106_670)">
<path d="M29.3827 24.9717H0.975586V26.2068H29.3827V24.9717Z" fill="#8A8A8A"/>
<path d="M28.9523 5.51493C26.8892 4.3125 24.545 4.95123 22.9421 5.69871L18.1636 7.92694L9.94533 3.79346L5.05109 4.00373L11.8375 10.8837L7.51251 12.9382L3.01276 11.2257L0 12.6305L2.7227 16.0115C2.43504 16.3546 2.17438 16.8378 2.41102 17.3453C2.7201 18.0081 3.63364 18.3421 5.13211 18.342C5.4394 18.342 5.77134 18.328 6.1276 18.2999C7.77249 18.1699 9.55584 17.7501 10.6709 17.2301L27.752 9.26504C29.2273 8.57703 29.9622 7.85462 29.9986 7.05638C30.0175 6.64238 29.8514 6.03873 28.9523 5.51493ZM27.2299 8.14561L10.1489 16.1107C9.1989 16.5537 7.63916 16.9249 6.17533 17.0564C4.67914 17.1907 3.87918 17.022 3.61252 16.8788C3.66742 16.8037 3.76993 16.6856 3.95909 16.5191L4.40273 16.1286L1.95058 13.0836L3.0613 12.5656L7.56586 14.2801L13.937 11.2536L7.88507 5.11815L9.67725 5.04115L18.1431 9.29906L23.4639 6.81801C25.4071 5.91189 27.0444 5.83259 28.3303 6.58192L28.3304 6.58198C28.6544 6.77077 28.7677 6.93547 28.7647 7.00006C28.7646 7.00451 28.7275 7.44741 27.2299 8.14561Z" fill="#8A8A8A"/>
</g>
<defs>
<clipPath id="clip0_1106_670">
<rect width="30" height="30" fill="white"/>
</clipPath>
</defs>
</svg>
