<svg width="46" height="46" viewBox="0 0 46 46" fill="none" xmlns="http://www.w3.org/2000/svg">
<circle cx="23" cy="23" r="23" fill="white"/>
<path d="M32.0078 14.7523C31.8832 15.5773 31.1902 17.3994 27.9896 20.3067L21.8449 26.4477C21.4382 26.8462 20.9852 27.1945 20.4957 27.4853L21.1043 31.4155C21.1111 31.4557 21.1043 31.4969 21.0851 31.5327C21.0658 31.5686 21.0352 31.597 20.998 31.6135L20.2684 31.9398C20.2454 31.9503 20.2204 31.9553 20.1951 31.9545C20.1621 31.9546 20.1297 31.9458 20.1014 31.929C20.073 31.9122 20.0496 31.8881 20.0338 31.8592L17.9404 28.1306L14.1458 25.9748C14.1235 25.9618 14.1042 25.9443 14.0891 25.9233C14.0741 25.9024 14.0636 25.8785 14.0584 25.8533C14.0532 25.828 14.0534 25.8019 14.059 25.7768C14.0646 25.7516 14.0754 25.7279 14.0908 25.7072L14.5857 25.0619C14.6059 25.0354 14.633 25.0149 14.664 25.0026C14.695 24.9903 14.7288 24.9867 14.7617 24.9922L18.5783 25.5788C18.8308 25.176 19.1285 24.8033 19.4655 24.468L25.8155 18.118C28.7852 14.7853 30.4973 14.0704 31.4066 14.0558C31.4944 14.0542 31.5815 14.0718 31.6619 14.1072C31.7423 14.1427 31.8141 14.1952 31.8722 14.2611C31.9298 14.3278 31.9719 14.4065 31.9953 14.4914C32.0188 14.5764 32.0231 14.6655 32.0078 14.7523Z" fill="#222222"/>
<path d="M25.463 17.9494L22.3504 21.0621L15.8574 17.5022C15.7305 17.4327 15.6248 17.3303 15.5512 17.2058C15.4776 17.0813 15.439 16.9392 15.4395 16.7946C15.441 16.6088 15.5056 16.4291 15.6228 16.285C15.7401 16.1445 15.8939 16.0391 16.0672 15.9802C16.2405 15.9214 16.4267 15.9114 16.6053 15.9513L25.463 17.9494ZM29.8772 30.2608C29.8036 30.3357 29.7157 30.395 29.6187 30.4353C29.5217 30.4756 29.4176 30.4961 29.3126 30.4954C29.1015 30.4951 28.8988 30.4122 28.748 30.2644C28.696 30.2122 28.6516 30.153 28.616 30.0885L25.0671 23.7458L28.1614 20.6515L30.1155 29.4469C30.1476 29.5916 30.1426 29.7421 30.1009 29.8844C30.0592 30.0267 29.9823 30.1562 29.8772 30.2608ZM20.1909 16.065L19.9306 16.3253L17.8812 15.8633L18.9371 14.8075C18.9709 14.7729 19.017 14.7531 19.0654 14.7525C19.0894 14.7521 19.1133 14.7569 19.1354 14.7663C19.1575 14.7758 19.1774 14.7898 19.1937 14.8075L20.1909 15.8083C20.2083 15.8249 20.2222 15.8448 20.2316 15.8668C20.2411 15.8889 20.246 15.9127 20.246 15.9367C20.246 15.9607 20.2411 15.9844 20.2316 16.0065C20.2222 16.0285 20.2083 16.0484 20.1909 16.065ZM24.1248 17.0365L23.9342 17.2272L21.8848 16.7652L22.8673 15.779C22.8839 15.7616 22.9038 15.7478 22.9258 15.7383C22.9479 15.7288 22.9716 15.724 22.9956 15.724C23.0196 15.724 23.0434 15.7288 23.0654 15.7383C23.0875 15.7478 23.1074 15.7616 23.124 15.779L24.1248 16.7799C24.1422 16.7964 24.1561 16.8163 24.1655 16.8384C24.175 16.8605 24.1799 16.8842 24.1799 16.9082C24.1799 16.9322 24.175 16.956 24.1655 16.978C24.1561 17.0001 24.1422 17.02 24.1248 17.0365ZM31.2191 27.0894L30.1962 28.1123L29.7379 26.0556L29.9615 25.8319C29.9781 25.8145 29.998 25.8007 30.02 25.7912C30.0421 25.7817 30.0659 25.7769 30.0899 25.7769C30.1139 25.7769 30.1376 25.7817 30.1597 25.7912C30.1817 25.8007 30.2016 25.8145 30.2182 25.8319L31.2191 26.8328C31.2365 26.8493 31.2503 26.8693 31.2598 26.8913C31.2692 26.9134 31.2741 26.9371 31.2741 26.9611C31.2741 26.9851 31.2692 27.0089 31.2598 27.0309C31.2503 27.053 31.2365 27.0729 31.2191 27.0894ZM30.2438 23.1555L29.3016 24.0978L28.847 22.0447L28.99 21.9017C29.0065 21.8843 29.0264 21.8704 29.0485 21.861C29.0705 21.8515 29.0943 21.8466 29.1183 21.8466C29.1423 21.8466 29.1661 21.8515 29.1881 21.861C29.2102 21.8704 29.2301 21.8843 29.2466 21.9017L30.2438 22.8989C30.2612 22.9154 30.2751 22.9353 30.2845 22.9574C30.294 22.9795 30.2989 23.0032 30.2989 23.0272C30.2989 23.0512 30.294 23.075 30.2845 23.097C30.2751 23.1191 30.2612 23.139 30.2438 23.1555Z" fill="#222222"/>
</svg>
