<svg width="35" height="24" viewBox="0 0 35 24" fill="none" xmlns="http://www.w3.org/2000/svg">
<path d="M1.20203 9.12144L3.04781 7.90292C3.17225 7.82228 3.31896 7.78268 3.46722 7.78973C3.61547 7.79678 3.75774 7.85012 3.87393 7.9422L5.88658 9.75206L12.4584 3.81479C12.9617 3.29355 13.573 2.88813 14.2496 2.62687C14.9264 2.36557 15.652 2.25478 16.3762 2.30213C17.1002 2.34951 17.8053 2.55391 18.4418 2.90115C19.0784 3.24833 19.6313 3.72991 20.062 4.31224C20.2566 4.61264 20.3237 4.97779 20.2486 5.32746C20.1733 5.67718 19.9621 5.9828 19.6611 6.17731L15.0984 9.20908L14.6407 9.51267L14.6048 13.0122C14.6075 13.132 14.5789 13.2504 14.5218 13.3558C14.4646 13.4612 14.381 13.55 14.279 13.6134L12.2064 14.9911C12.1013 15.0762 11.9747 15.1309 11.8405 15.1491C11.7063 15.1673 11.5696 15.1483 11.4455 15.0943C11.3214 15.0402 11.2145 14.9532 11.1367 14.8427C11.0588 14.7322 11.0129 14.6025 11.0041 14.4677L10.8284 12.0314L10.5317 12.2261L6.07506 15.1803C5.93317 15.2833 5.77216 15.3571 5.60138 15.3975C5.4306 15.4378 5.25348 15.4439 5.08034 15.4153C4.90719 15.3867 4.74147 15.3241 4.59284 15.2311C4.4442 15.138 4.31562 15.0164 4.21457 14.8734L0.997406 10.0392C0.905118 9.88976 0.874859 9.7103 0.913062 9.53897C0.951265 9.36763 1.05492 9.21786 1.20203 9.12144Z" stroke="#333333" stroke-width="1.25" stroke-linecap="round" stroke-linejoin="round"/>
<path d="M21.1743 21.3496H1.17432" stroke="#333333" stroke-width="1.25" stroke-linecap="round" stroke-linejoin="round"/>
<line x1="34.5" x2="34.5" y2="24" stroke="#F0ECFC"/>
</svg>
