<svg width="16" height="16" viewBox="0 0 16 16" fill="none" xmlns="http://www.w3.org/2000/svg">
<path d="M4.14614 5.73503C4.23614 5.50353 4.12114 5.24253 3.88964 5.15253C3.65664 5.06253 3.39714 5.17703 3.30714 5.40903C2.77514 6.77803 3.10114 8.33253 4.13814 9.36903C4.22614 9.45653 4.34114 9.50053 4.45614 9.50053C4.57114 9.50053 4.68664 9.45653 4.77464 9.36853C4.95014 9.19253 4.95014 8.90803 4.77464 8.73253C3.99014 7.94803 3.74364 6.77153 4.14614 5.73503Z" fill="#F98A17"/>
<path d="M14.3751 11.606L11.9206 9.15155C12.8966 7.04205 12.5231 4.45705 10.7866 2.72055C9.70958 1.64305 8.27758 1.05005 6.75408 1.05005C5.23108 1.05005 3.79858 1.64305 2.72158 2.72055C0.49808 4.94405 0.49808 8.56205 2.72158 10.7855C3.83358 11.8975 5.29408 12.453 6.75408 12.453C7.57508 12.453 8.39358 12.271 9.15258 11.9195L11.6071 14.3735C11.9906 14.7565 12.4926 14.948 12.9951 14.948C13.4951 14.948 13.9946 14.758 14.3751 14.378C15.1391 13.614 15.1391 12.37 14.3751 11.606ZM3.35758 10.149C1.48508 8.27605 1.48508 5.22905 3.35758 3.35655C4.26508 2.44955 5.47108 1.95005 6.75408 1.95005C8.03708 1.95005 9.24358 2.44955 10.1501 3.35655C12.0226 5.22905 12.0226 8.27605 10.1501 10.149C8.27858 12.021 5.23058 12.0215 3.35758 10.149ZM13.7386 13.7415C13.3276 14.152 12.6571 14.1495 12.2441 13.737L9.96708 11.4605C10.2556 11.2635 10.5311 11.041 10.7871 10.785C11.0426 10.5295 11.2656 10.2535 11.4621 9.96505L13.7386 12.2415C14.1521 12.656 14.1521 13.328 13.7386 13.7415Z" fill="#6621BA"/>
</svg>
