<svg width="22" height="22" viewBox="0 0 22 22" fill="none" xmlns="http://www.w3.org/2000/svg">
<path fill-rule="evenodd" clip-rule="evenodd" d="M2.20049 22H19.8005C21.0142 22 22.0005 21.0151 22.0005 19.8V9.16667C22.0005 8.76187 21.6705 8.43333 21.2672 8.43333C20.8638 8.43333 20.5338 8.76187 20.5338 9.16667V19.8C20.5338 20.2052 20.2075 20.5333 19.8005 20.5333H7.9425C8.02317 20.3001 8.06716 20.0523 8.06716 19.8C8.06716 18.7084 8.06716 17.2249 8.06716 16.1333C8.06716 15.55 7.83615 14.9904 7.42182 14.5776C7.01115 14.1651 6.45016 13.9333 5.86716 13.9333C4.77449 13.9333 3.29316 13.9333 2.20049 13.9333C1.94749 13.9333 1.70182 13.9766 1.46715 14.0591V2.2C1.46715 1.79483 1.79349 1.46667 2.20049 1.46667H12.8338C13.2372 1.46667 13.5672 1.13813 13.5672 0.733333C13.5672 0.328533 13.2372 0 12.8338 0C12.8338 0 4.08882 0 2.20049 0C0.986822 0 0.000488281 0.984867 0.000488281 2.2V19.8C0.000488281 21.0151 0.986822 22 2.20049 22Z" fill="#E6E6E6"/>
<path fill-rule="evenodd" clip-rule="evenodd" d="M9.53307 11.4296V7.69991C9.53307 7.29511 9.20307 6.96657 8.79974 6.96657C8.39641 6.96657 8.06641 7.29511 8.06641 7.69991V13.1999C8.06641 13.6051 8.39274 13.9332 8.79974 13.9332H14.2997C14.7031 13.9332 15.0331 13.6047 15.0331 13.1999C15.0331 12.7951 14.7031 12.4666 14.2997 12.4666H10.5707L21.7834 1.25171C22.073 0.965709 22.073 0.500775 21.7834 0.214775C21.4974 -0.0715917 21.0354 -0.0715917 20.7494 0.214775L9.53307 11.4296Z" fill="#8A8A8A"/>
<path fill-rule="evenodd" clip-rule="evenodd" d="M8.06667 16.1329C8.06667 15.5495 7.83566 14.99 7.42133 14.5771C7.01066 14.1646 6.44967 13.9329 5.86667 13.9329C4.774 13.9329 3.29267 13.9329 2.2 13.9329C1.617 13.9329 1.056 14.1646 0.645337 14.5771C0.231004 14.99 0 15.5495 0 16.1329V19.7995C0 20.3829 0.231004 20.9424 0.645337 21.3553C1.056 21.7678 1.617 21.9995 2.2 21.9995H5.86667C6.44967 21.9995 7.01066 21.7678 7.42133 21.3553C7.83566 20.9424 8.06667 20.3829 8.06667 19.7995V16.1329Z" fill="#8A8A8A"/>
</svg>
