<svg width="15" height="13" viewBox="0 0 15 13" fill="none" xmlns="http://www.w3.org/2000/svg">
<path d="M6.81091 5.8738L1.11004 0.189956C0.856208 -0.0633185 0.444353 -0.0633185 0.190525 0.189956C-0.0635082 0.443025 -0.0635082 0.85365 0.190525 1.10672L5.43144 6.33218L0.190554 11.5576C-0.0634789 11.8107 -0.0634789 12.2213 0.190554 12.4744C0.317351 12.6011 0.483845 12.6644 0.65031 12.6644C0.816774 12.6644 0.983268 12.6011 1.11007 12.4744L6.81094 6.79056C7.06494 6.53749 7.06494 6.12687 6.81091 5.8738Z" fill="white"/>
<path d="M13.8109 5.8738L8.11004 0.189956C7.85621 -0.0633185 7.44435 -0.0633185 7.19052 0.189956C6.93649 0.443025 6.93649 0.85365 7.19052 1.10672L12.4314 6.33218L7.19055 11.5576C6.93652 11.8107 6.93652 12.2213 7.19055 12.4744C7.31735 12.6011 7.48384 12.6644 7.65031 12.6644C7.81677 12.6644 7.98327 12.6011 8.11007 12.4744L13.8109 6.79056C14.0649 6.53749 14.0649 6.12687 13.8109 5.8738Z" fill="white"/>
</svg>
