<svg width="30" height="24" viewBox="0 0 30 24" fill="none" xmlns="http://www.w3.org/2000/svg">
<path d="M6.40784 8.96817C5.47627 8.96789 4.57127 8.65863 3.8354 8.0891C3.09953 7.51957 2.57461 6.72215 2.34333 5.82244C2.11205 4.92274 2.18755 3.97189 2.55795 3.11968C2.92835 2.26747 3.57259 1.56233 4.38918 1.11535C5.20577 0.668368 6.14831 0.504943 7.06831 0.65082C7.98832 0.796697 8.8335 1.24358 9.47073 1.92109C10.108 2.59859 10.501 3.4682 10.588 4.39292C10.6749 5.31765 10.4508 6.24495 9.95101 7.02873C9.85643 7.17666 9.70678 7.28107 9.53498 7.319C9.36319 7.35692 9.18332 7.32525 9.03494 7.23095C8.88657 7.13666 8.78184 6.98745 8.74381 6.81617C8.70577 6.64489 8.73753 6.46556 8.83211 6.31763C9.17382 5.78104 9.32677 5.14636 9.26687 4.51357C9.20697 3.88078 8.93763 3.28584 8.50127 2.82246C8.06491 2.35908 7.48634 2.0536 6.85668 1.95414C6.22703 1.85468 5.58208 1.9669 5.02343 2.2731C4.46478 2.57931 4.02418 3.06211 3.77103 3.64546C3.51788 4.2288 3.46657 4.87953 3.62518 5.49515C3.78379 6.11076 4.14331 6.65628 4.6471 7.04576C5.15089 7.43524 5.77033 7.64656 6.40784 7.64642C6.58364 7.64642 6.75224 7.71605 6.87655 7.83999C7.00086 7.96392 7.07069 8.13202 7.07069 8.30729C7.07069 8.48257 7.00086 8.65066 6.87655 8.7746C6.75224 8.89854 6.58364 8.96817 6.40784 8.96817Z" fill="#333333"/>
<path d="M8.61708 19.5422H4.19806C3.78801 19.5417 3.39488 19.3791 3.10493 19.09C2.81498 18.8009 2.65188 18.409 2.65141 18.0001V14.4755C2.65141 14.4171 2.62813 14.361 2.58669 14.3197C2.54526 14.2784 2.48906 14.2552 2.43046 14.2552H1.54666C1.1366 14.2547 0.743474 14.0921 0.453522 13.803C0.163569 13.514 0.000467833 13.122 0 12.7132V10.9508C0.000935794 10.0748 0.350417 9.23482 0.971758 8.61534C1.5931 7.99585 2.43555 7.64742 3.31426 7.64648H9.50088C10.3796 7.64742 11.222 7.99585 11.8434 8.61534C12.4647 9.23482 12.8142 10.0748 12.8151 10.9508V12.7132C12.8147 13.122 12.6516 13.514 12.3616 13.803C12.0717 14.0921 11.6785 14.2547 11.2685 14.2552H10.3847C10.3261 14.2552 10.2699 14.2784 10.2284 14.3197C10.187 14.361 10.1637 14.4171 10.1637 14.4755V18.0001C10.1633 18.409 10.0002 18.8009 9.71021 19.09C9.42026 19.3791 9.02713 19.5417 8.61708 19.5422ZM3.31426 8.96823C2.78701 8.9687 2.28148 9.17773 1.90866 9.54944C1.53583 9.92115 1.32617 10.4252 1.3257 10.9508V12.7132C1.3257 12.7716 1.34898 12.8276 1.39042 12.8689C1.43186 12.9103 1.48806 12.9335 1.54666 12.9335H2.43046C2.84051 12.9339 3.23364 13.0965 3.52359 13.3856C3.81354 13.6747 3.97665 14.0667 3.97711 14.4755V18.0001C3.97711 18.0586 4.00039 18.1146 4.04183 18.1559C4.08326 18.1972 4.13946 18.2204 4.19806 18.2204H8.61708C8.67568 18.2204 8.73188 18.1972 8.77331 18.1559C8.81475 18.1146 8.83803 18.0586 8.83803 18.0001V14.4755C8.8385 14.0667 9.0016 13.6747 9.29155 13.3856C9.5815 13.0965 9.97463 12.9339 10.3847 12.9335H11.2685C11.3271 12.9335 11.3833 12.9103 11.4247 12.8689C11.4662 12.8276 11.4894 12.7716 11.4894 12.7132V10.9508C11.4887 10.4252 11.279 9.92136 10.9062 9.5497C10.5335 9.17803 10.0281 8.96893 9.50088 8.96823H3.31426Z" fill="#333333"/>
<line x1="28.9819" x2="28.9819" y2="24" stroke="#F0ECFC"/>
</svg>
