<svg width="20" height="24" viewBox="0 0 20 24" fill="none" xmlns="http://www.w3.org/2000/svg">
<path d="M5.52624 18.5144C4.90382 17.776 4.93763 16.693 5.52624 16.0467L7.67748 13.7577H1.80827C0.902997 13.7576 0.168975 12.9766 0.168945 12.0132C0.168855 11.0497 0.902906 10.2685 1.80827 10.2685H7.67579L5.52624 7.9806C4.88559 7.29922 4.88559 6.19402 5.52624 5.51264C6.16649 4.83099 7.20458 4.83099 7.8448 5.51264L11.9463 9.87766C12.4921 10.4586 12.765 11.2361 12.765 12.0136C12.765 12.7912 12.4922 13.5687 11.9463 14.1496L7.8448 18.5144C7.15065 19.1845 6.12331 19.1309 5.52624 18.5144Z" fill="#643DE3"/>
<path d="M14.3739 23.2026C12.6989 23.2026 11.2365 22.326 10.4179 21.0048C9.88377 20.1428 10.3649 18.6982 11.0869 17.9765L13.4186 15.6456C14.4188 14.6455 14.9103 13.3136 14.9103 12.0024C14.9103 10.6912 14.4182 9.35978 13.4186 8.36028L11.0867 6.0291C10.3647 5.30737 9.88333 3.86256 10.4174 3.00049C11.236 1.67902 12.6987 0.802429 14.3739 0.802429H15.3483C17.9253 0.802429 19.9999 2.87707 19.9999 5.454V18.5511C19.9999 21.128 17.9253 23.2026 15.3483 23.2026H14.3739Z" fill="#D7DFFF"/>
</svg>
