<svg width="16" height="16" viewBox="0 0 16 16" fill="none" xmlns="http://www.w3.org/2000/svg">
<path d="M15.8535 3.37867L13.3535 5.89744C13.2558 5.9958 13.1278 6.04504 13 6.04504C12.8721 6.04504 12.7441 5.9958 12.6465 5.89744C12.6 5.85069 12.5631 5.79517 12.538 5.73406C12.5129 5.67295 12.4999 5.60744 12.4999 5.54129C12.4999 5.47513 12.5129 5.40962 12.538 5.34851C12.5631 5.2874 12.6 5.23188 12.6465 5.18513L14.293 3.52627H4.49999C2.57012 3.52627 0.999997 5.10843 0.999997 7.05255V9.06757C0.999997 9.34602 0.776123 9.57132 0.499998 9.57132C0.223874 9.57132 0 9.34602 0 9.06757V7.05255C0 4.55241 2.01874 2.51876 4.49999 2.51876H14.293L12.6465 0.859893C12.4511 0.663051 12.4511 0.344301 12.6465 0.147584C12.8418 -0.0491318 13.1582 -0.0492578 13.3535 0.147584L15.8535 2.66636C15.8999 2.71311 15.9368 2.76863 15.9619 2.82974C15.9871 2.89085 16 2.95636 16 3.02251C16 3.08867 15.9871 3.15417 15.9619 3.21529C15.9368 3.2764 15.8999 3.33192 15.8535 3.37867Z" fill="#E6E6E6"/>
<path d="M0.14655 12.5735L2.64654 10.0547C2.74417 9.95635 2.87217 9.90711 3.00004 9.90711C3.12791 9.90711 3.25592 9.95635 3.35354 10.0547C3.4 10.1015 3.43685 10.157 3.462 10.2181C3.48714 10.2792 3.50009 10.3447 3.50009 10.4109C3.50009 10.477 3.48714 10.5425 3.462 10.6036C3.43685 10.6647 3.4 10.7203 3.35354 10.767L1.70704 12.4259L11.5 12.4259C13.4299 12.4259 15 10.8437 15 8.8996L15 6.88458C15 6.60613 15.2239 6.38083 15.5 6.38083C15.7761 6.38083 16 6.60613 16 6.88458L16 8.8996C16 11.3997 13.9813 13.4334 11.5 13.4334L1.70704 13.4334L3.35354 15.0923C3.54891 15.2891 3.54891 15.6078 3.35354 15.8046C3.15816 16.0013 2.84179 16.0014 2.64654 15.8046L0.146549 13.2858C0.100091 13.239 0.0632355 13.1835 0.03809 13.1224C0.0129435 13.0613 2.59227e-07 12.9958 2.65028e-07 12.9296C2.70829e-07 12.8635 0.0129435 12.798 0.03809 12.7369C0.0632356 12.6758 0.100091 12.6202 0.14655 12.5735Z" fill="#8A8A8A"/>
</svg>
