<svg width="32" height="22" viewBox="0 0 32 22" fill="none" xmlns="http://www.w3.org/2000/svg">
<path d="M31.7961 10.2139C31.7617 10.1659 30.9348 9.0314 29.4721 8.73267C28.1462 8.46203 25.1224 8.44664 24.9945 8.44621C24.7865 8.44546 24.5945 8.43013 24.5038 8.41848C24.4161 8.34713 24.2382 8.17283 24.1207 8.02826L18.1876 0.720931C18.0594 0.562964 17.7982 0.265289 17.6321 0.151379C17.3479 -0.0442874 16.6194 0.00338292 16.5374 0.0094274L16.376 0.0213917C16.156 0.0376557 15.7585 0.0815249 15.5691 0.192257C15.4568 0.257687 15.1155 0.457342 15.4303 1.42608C15.4303 1.42608 17.6916 8.38022 17.7007 8.41087C17.667 8.41287 14.448 8.41405 14.448 8.41405C14.2353 8.41405 14.0395 8.39922 13.9487 8.388C13.8593 8.3199 13.6733 8.14729 13.5517 8.00465L11.4592 5.55009C11.4442 5.53277 11.0958 5.12573 10.8757 4.99213C10.5807 4.81348 10.0141 4.90477 10.0085 4.90576C9.84683 4.93592 9.61926 5.01257 9.47526 5.11576C9.21544 5.30227 9.17126 5.71074 9.34438 6.32971C9.81439 8.00951 10.4848 10.4996 10.5343 10.8808C10.4848 11.262 9.81408 13.7521 9.34432 15.4319C9.30776 15.5632 9.19057 16.0098 9.22669 16.2418C9.30095 16.7187 9.97964 16.8506 10.0085 16.8559C10.1776 16.8876 10.4078 16.8976 10.5556 16.8801C10.9093 16.8374 11.3703 16.3156 11.4592 16.2116L13.5517 13.7568C13.6879 13.5973 13.8256 13.4593 13.8918 13.3992C14.0021 13.3763 14.2566 13.3476 14.448 13.3476C14.448 13.3476 17.6678 13.3481 17.6995 13.3491C17.6909 13.3817 15.4307 20.3356 15.4307 20.3356C15.3628 20.5444 15.2532 20.9271 15.2832 21.1427C15.3315 21.4893 15.6992 21.6902 16.3762 21.7403L16.5374 21.7522C16.6399 21.7598 16.7912 21.7673 16.9414 21.7673C17.0896 21.7673 17.2363 21.76 17.3342 21.7391C17.6716 21.6665 18.136 21.1045 18.1878 21.0407L24.121 13.7334C24.2518 13.5723 24.3841 13.4323 24.4498 13.369C24.5602 13.3454 24.8079 13.3162 24.9945 13.3154C25.1224 13.315 28.1464 13.2997 29.4724 13.029C30.935 12.7301 31.762 11.5958 31.7963 11.5475C32.0686 11.1673 32.0686 10.5941 31.7961 10.2139ZM6.37972 6.2735H3.89362C3.36405 6.2735 2.93485 6.70627 2.93485 7.2403C2.93485 7.77415 3.36405 8.20717 3.89362 8.20717H6.37972C6.90929 8.20717 7.33873 7.77409 7.33873 7.2403C7.33873 6.70627 6.90929 6.2735 6.37972 6.2735ZM6.37972 13.8094H3.89362C3.36405 13.8094 2.93485 14.2422 2.93485 14.776C2.93485 15.31 3.36405 15.7428 3.89362 15.7428H6.37972C6.90929 15.7428 7.33873 15.31 7.33873 14.776C7.33873 14.2422 6.90929 13.8093 6.37972 13.8093V13.8094ZM6.37972 10.0413H0.959014C0.429381 10.0413 0 10.4743 0 11.0082C0 11.5422 0.429444 11.9751 0.959014 11.9751H6.37972C6.90929 11.9751 7.33873 11.5423 7.33873 11.0082C7.33873 10.4744 6.90929 10.0414 6.37972 10.0414V10.0413Z" fill="white"/>
</svg>
