<svg width="29" height="24" viewBox="0 0 29 24" fill="none" xmlns="http://www.w3.org/2000/svg">
<path fill-rule="evenodd" clip-rule="evenodd" d="M2.21113 14.0415C2.31563 14.597 2.61159 15.0985 3.04779 15.4594C3.48399 15.8203 4.033 16.0178 4.59983 16.0178H11.0872C11.4974 16.0178 11.8907 15.8553 12.1808 15.5662C12.4708 15.277 12.6337 14.8848 12.6337 14.4759V12.7137C12.6333 12.0713 12.3771 11.4552 11.9214 11.001C11.4658 10.5467 10.8479 10.2912 10.2035 10.2908H6.52192C6.47021 10.2908 6.42013 10.2727 6.38041 10.2397C6.34069 10.2067 6.31383 10.1609 6.30452 10.1101L4.93299 2.58836C4.83116 2.03004 4.536 1.52506 4.09898 1.16149C3.66197 0.79791 3.11082 0.598801 2.54164 0.598877H1.54657C1.31929 0.598868 1.0948 0.648806 0.889079 0.745136C0.683358 0.841465 0.501461 0.981819 0.356333 1.15621C0.211206 1.3306 0.106415 1.53474 0.0494187 1.7541C-0.00757783 1.97346 -0.0153791 2.20265 0.0265704 2.42536L2.21113 14.0415ZM3.51462 13.7975L1.33006 2.1813C1.32412 2.14947 1.32524 2.11673 1.33333 2.08538C1.34142 2.05403 1.35629 2.02482 1.3769 1.9998C1.39766 1.97503 1.42361 1.9551 1.45292 1.94141C1.48223 1.92771 1.5142 1.92057 1.54657 1.9205H2.54164C2.80031 1.92045 3.0508 2.01091 3.24943 2.17611C3.44807 2.3413 3.58226 2.57076 3.62862 2.82449L5.00015 10.3463C5.06494 10.7016 5.25276 11.023 5.53086 11.2543C5.80896 11.4857 6.1597 11.6124 6.52192 11.6124H10.2035C10.4965 11.6124 10.7774 11.7284 10.9846 11.935C11.1918 12.1415 11.3082 12.4216 11.3082 12.7137V14.4759C11.3082 14.5343 11.2849 14.5903 11.2434 14.6317C11.202 14.673 11.1458 14.6962 11.0872 14.6962H4.59983C4.34222 14.696 4.09275 14.6061 3.89459 14.442C3.69642 14.2779 3.56202 14.0499 3.51462 13.7975Z" fill="#333333"/>
<path fill-rule="evenodd" clip-rule="evenodd" d="M5.6648 15.0071L4.30034 17.1825C4.15451 17.416 4.07392 17.6841 4.06691 17.9591C4.05989 18.2341 4.12671 18.506 4.26044 18.7466C4.39417 18.9872 4.58995 19.1878 4.82754 19.3277C5.06513 19.4675 5.33588 19.5415 5.61178 19.542H11.5292C11.705 19.542 11.8735 19.4724 11.9978 19.3485C12.1221 19.2246 12.192 19.0565 12.192 18.8812C12.192 18.706 12.1221 18.5379 11.9978 18.414C11.8735 18.29 11.705 18.2204 11.5292 18.2204H5.61178C5.57228 18.2205 5.53348 18.2099 5.49943 18.19C5.46539 18.17 5.43734 18.1413 5.41821 18.1068C5.39908 18.0724 5.38956 18.0334 5.39066 17.994C5.39175 17.9547 5.40341 17.9163 5.42443 17.883L6.7889 15.7067C6.87645 15.5582 6.90241 15.3815 6.86125 15.2143C6.82008 15.047 6.71505 14.9024 6.56851 14.8112C6.42197 14.72 6.24552 14.6894 6.07672 14.726C5.90792 14.7626 5.76012 14.8635 5.6648 15.0071ZM5.34313 8.08798H10.6455C10.8212 8.08798 10.9898 8.01836 11.1141 7.89443C11.2384 7.77051 11.3082 7.60243 11.3082 7.42717C11.3082 7.25191 11.2384 7.08383 11.1141 6.9599C10.9898 6.83598 10.8212 6.76636 10.6455 6.76636H5.34313C5.16735 6.76636 4.99876 6.83598 4.87447 6.9599C4.75017 7.08383 4.68034 7.25191 4.68034 7.42717C4.68034 7.60243 4.75017 7.77051 4.87447 7.89443C4.99876 8.01836 5.16735 8.08798 5.34313 8.08798Z" fill="#333333"/>
<line x1="28.5" x2="28.5" y2="24" stroke="#F0ECFC"/>
</svg>
