<svg width="9" height="17" viewBox="0 0 9 17" fill="none" xmlns="http://www.w3.org/2000/svg">
<path d="M4.40824 5.71255e-05C3.10207 5.71826e-05 1.92812 0.929602 1.12679 2.40405L7.6897 2.40405C6.88837 0.929602 5.71441 5.70684e-05 4.40824 5.71255e-05Z" fill="#805FEF"/>
<path d="M0.0501609 7.21159L0.0501609 7.21183L0.0501604 16.95L4.40749 16.95L8.76481 16.95L8.76481 7.21183L8.76481 7.21159C8.77004 6.13149 8.61685 5.05648 8.31015 4.02083C8.14764 3.47748 7.92951 2.95237 7.65923 2.45384L1.15574 2.45384C0.885458 2.95237 0.667326 3.47748 0.504822 4.02083C0.198117 5.05648 0.0449338 6.13149 0.0501609 7.21159Z" fill="#EBEFF0" stroke="#C3AAFF" stroke-width="0.1"/>
<path d="M6.81097 10.0166L6.81097 10.4173C6.81097 10.6385 6.99036 10.8179 7.21164 10.8179C7.43292 10.8179 7.6123 10.6385 7.6123 10.4173L7.6123 10.0166C7.6123 9.79532 7.43292 9.61593 7.21164 9.61593C6.99036 9.61593 6.81097 9.79532 6.81097 10.0166Z" fill="#977DEC"/>
<path d="M5.2099 10.0166L5.2099 10.4173C5.2099 10.6385 5.38928 10.8179 5.61056 10.8179C5.83185 10.8179 6.01123 10.6385 6.01123 10.4173L6.01123 10.0166C6.01123 9.79532 5.83185 9.61593 5.61056 9.61593C5.38928 9.61593 5.2099 9.79532 5.2099 10.0166Z" fill="#977DEC"/>
<path d="M2.80438 10.0166L2.80438 10.4173C2.80438 10.6385 2.98377 10.8179 3.20505 10.8179C3.42633 10.8179 3.60571 10.6385 3.60571 10.4173L3.60571 10.0166C3.60571 9.79532 3.42633 9.61593 3.20505 9.61593C2.98377 9.61593 2.80438 9.79532 2.80438 10.0166Z" fill="#977DEC"/>
<path d="M1.20257 10.0166L1.20257 10.4173C1.20257 10.6385 1.38196 10.8179 1.60324 10.8179C1.82452 10.8179 2.00391 10.6385 2.00391 10.4173L2.00391 10.0166C2.00391 9.79532 1.82452 9.61593 1.60324 9.61593C1.38196 9.61593 1.20257 9.79532 1.20257 10.0166Z" fill="#977DEC"/>
<path d="M6.81097 8.01318L6.81097 8.41385C6.81097 8.63513 6.99036 8.81451 7.21164 8.81451C7.43292 8.81451 7.6123 8.63513 7.6123 8.41385L7.6123 8.01318C7.6123 7.7919 7.43292 7.61252 7.21164 7.61252C6.99036 7.61252 6.81097 7.7919 6.81097 8.01318Z" fill="#977DEC"/>
<path d="M5.2099 8.01318L5.2099 8.41385C5.2099 8.63513 5.38928 8.81451 5.61056 8.81451C5.83185 8.81451 6.01123 8.63513 6.01123 8.41385L6.01123 8.01318C6.01123 7.7919 5.83185 7.61252 5.61056 7.61252C5.38928 7.61252 5.2099 7.7919 5.2099 8.01318Z" fill="#977DEC"/>
<path d="M2.80438 8.01318L2.80438 8.41385C2.80438 8.63513 2.98377 8.81451 3.20505 8.81451C3.42633 8.81451 3.60571 8.63513 3.60571 8.41385L3.60571 8.01318C3.60571 7.7919 3.42633 7.61252 3.20505 7.61252C2.98377 7.61252 2.80438 7.7919 2.80438 8.01318Z" fill="#977DEC"/>
<path d="M1.20257 8.01318L1.20257 8.41385C1.20257 8.63513 1.38196 8.81451 1.60324 8.81451C1.82452 8.81451 2.00391 8.63513 2.00391 8.41385L2.00391 8.01318C2.00391 7.7919 1.82452 7.61252 1.60324 7.61252C1.38196 7.61252 1.20257 7.7919 1.20257 8.01318Z" fill="#977DEC"/>
<path d="M6.81097 6.00995L6.81097 6.41061C6.81097 6.6319 6.99036 6.81128 7.21164 6.81128C7.43292 6.81128 7.6123 6.6319 7.6123 6.41061L7.6123 6.00995C7.6123 5.78867 7.43292 5.60928 7.21164 5.60928C6.99036 5.60928 6.81097 5.78867 6.81097 6.00995Z" fill="#977DEC"/>
<path d="M5.2099 6.00995L5.2099 6.41061C5.2099 6.6319 5.38928 6.81128 5.61056 6.81128C5.83185 6.81128 6.01123 6.6319 6.01123 6.41061L6.01123 6.00995C6.01123 5.78867 5.83185 5.60928 5.61056 5.60928C5.38928 5.60928 5.2099 5.78867 5.2099 6.00995Z" fill="#977DEC"/>
<path d="M2.80438 6.00995L2.80438 6.41061C2.80438 6.6319 2.98377 6.81128 3.20505 6.81128C3.42633 6.81128 3.60571 6.6319 3.60571 6.41061L3.60571 6.00995C3.60571 5.78867 3.42633 5.60928 3.20505 5.60928C2.98377 5.60928 2.80438 5.78867 2.80438 6.00995Z" fill="#977DEC"/>
<path d="M1.20257 6.00995L1.20257 6.41061C1.20257 6.6319 1.38196 6.81128 1.60324 6.81128C1.82452 6.81128 2.00391 6.6319 2.00391 6.41061L2.00391 6.00995C2.00391 5.78867 1.82452 5.60928 1.60324 5.60928C1.38196 5.60928 1.20257 5.78867 1.20257 6.00995Z" fill="#977DEC"/>
<path d="M6.81097 14.8245L6.81097 15.2252C6.81097 15.4465 6.99036 15.6259 7.21164 15.6259C7.43292 15.6259 7.6123 15.4465 7.6123 15.2252L7.6123 14.8245C7.6123 14.6032 7.43292 14.4239 7.21164 14.4239C6.99036 14.4239 6.81097 14.6032 6.81097 14.8245Z" fill="#977DEC"/>
<path d="M5.2099 14.8245L5.2099 15.2252C5.2099 15.4465 5.38928 15.6259 5.61056 15.6259C5.83185 15.6259 6.01123 15.4465 6.01123 15.2252L6.01123 14.8245C6.01123 14.6032 5.83185 14.4239 5.61056 14.4239C5.38928 14.4239 5.2099 14.6032 5.2099 14.8245Z" fill="#977DEC"/>
<path d="M2.80438 14.8245L2.80438 15.2252C2.80438 15.4465 2.98377 15.6259 3.20505 15.6259C3.42633 15.6259 3.60571 15.4465 3.60571 15.2252L3.60571 14.8245C3.60571 14.6032 3.42633 14.4239 3.20505 14.4239C2.98377 14.4239 2.80438 14.6032 2.80438 14.8245Z" fill="#977DEC"/>
<path d="M1.20257 14.8245L1.20257 15.2252C1.20257 15.4465 1.38196 15.6259 1.60324 15.6259C1.82452 15.6259 2.00391 15.4465 2.00391 15.2252L2.00391 14.8245C2.00391 14.6032 1.82452 14.4239 1.60324 14.4239C1.38196 14.4239 1.20257 14.6032 1.20257 14.8245Z" fill="#977DEC"/>
<path d="M6.81097 12.8212L6.81097 13.2218C6.81097 13.4431 6.99036 13.6225 7.21164 13.6225C7.43292 13.6225 7.6123 13.4431 7.6123 13.2218L7.6123 12.8212C7.6123 12.5999 7.43292 12.4205 7.21164 12.4205C6.99036 12.4205 6.81097 12.5999 6.81097 12.8212Z" fill="#977DEC"/>
<path d="M5.2099 12.8212L5.2099 13.2218C5.2099 13.4431 5.38928 13.6225 5.61056 13.6225C5.83185 13.6225 6.01123 13.4431 6.01123 13.2218L6.01123 12.8212C6.01123 12.5999 5.83185 12.4205 5.61056 12.4205C5.38928 12.4205 5.2099 12.5999 5.2099 12.8212Z" fill="#977DEC"/>
<path d="M2.80438 12.8212L2.80438 13.2218C2.80438 13.4431 2.98377 13.6225 3.20505 13.6225C3.42633 13.6225 3.60571 13.4431 3.60571 13.2218L3.60571 12.8212C3.60571 12.5999 3.42633 12.4205 3.20505 12.4205C2.98377 12.4205 2.80438 12.5999 2.80438 12.8212Z" fill="#977DEC"/>
<path d="M1.20257 12.8212L1.20257 13.2218C1.20257 13.4431 1.38196 13.6225 1.60324 13.6225C1.82452 13.6225 2.00391 13.4431 2.00391 13.2218L2.00391 12.8212C2.00391 12.5999 1.82452 12.4205 1.60324 12.4205C1.38196 12.4205 1.20257 12.5999 1.20257 12.8212Z" fill="#977DEC"/>
<path d="M7.68831 2.40399L1.1254 2.40399C0.846893 2.91332 0.622625 3.45049 0.45629 4.00665L8.35742 4.00665C8.19109 3.45049 7.96682 2.91332 7.68831 2.40399Z" fill="#C3AAFF"/>
</svg>
