<svg width="27" height="27" viewBox="0 0 27 27" fill="none" xmlns="http://www.w3.org/2000/svg">
<g clip-path="url(#clip0_1113_2191)">
<path d="M25.1173 2.01786L24.9822 1.88252C22.4719 -0.627506 18.4021 -0.627506 15.8919 1.88252L11.0296 6.74478C8.51941 9.25501 8.51941 13.325 11.0296 15.835L11.1648 15.9704C13.675 18.4804 17.745 18.4804 20.255 15.9704L25.1173 11.1081C27.6275 8.59789 27.6275 4.52809 25.1173 2.01786ZM22.645 8.77072L17.9178 13.4978C17.3281 14.0876 16.5441 14.4125 15.71 14.4125C14.8759 14.4125 14.0919 14.0876 13.5022 13.4978C12.2848 12.2804 12.2848 10.2996 13.5022 9.08218L18.2293 4.35505C18.8191 3.7653 19.6031 3.44044 20.4371 3.44044C21.2712 3.44044 22.0552 3.7653 22.645 4.35505C23.8624 5.57247 23.8624 7.5533 22.645 8.77072Z" fill="#643DE3"/>
<path d="M22.6449 8.77087L17.9178 13.498C17.328 14.0878 16.544 14.4126 15.71 14.4126C14.8759 14.4126 14.0919 14.0878 13.5021 13.498L11.0972 15.9028L11.1647 15.9705C13.675 18.4806 17.745 18.4806 20.255 15.9705L25.1173 11.1083C27.6275 8.59804 27.6275 4.52803 25.1173 2.01801L25.0497 1.95044L22.6449 4.3552C23.8624 5.57262 23.8624 7.55345 22.6449 8.77087Z" fill="#643DE3"/>
<path d="M13.802 17.5642C13.7108 17.6878 13.6097 17.806 13.4978 17.9179L8.77087 22.6448C8.18091 23.2346 7.3969 23.5594 6.56284 23.5594C5.72898 23.5594 4.94476 23.2346 4.355 22.6448C3.76524 22.0551 3.44039 21.2711 3.44039 20.437C3.44039 19.6029 3.76524 18.8189 4.355 18.2292L9.08213 13.502C9.67189 12.9123 10.4559 12.5874 11.29 12.5874C12.124 12.5874 12.9082 12.9123 13.4978 13.502L13.5019 13.4979C14.0917 14.0877 14.8759 14.4125 15.7098 14.4125C16.3866 14.4125 17.0306 14.1985 17.5643 13.8028C17.2654 12.8375 16.7344 11.9289 15.9703 11.1646L15.8352 11.0295C13.325 8.51947 9.25496 8.51947 6.74493 11.0295L1.88267 15.8918C-0.627558 18.402 -0.627558 22.4718 1.88267 24.982L2.0178 25.1171C4.52804 27.6274 8.59784 27.6274 11.1081 25.1171L15.9703 20.2551C16.7451 19.4804 17.2802 18.5569 17.5767 17.5768C16.3475 17.9488 15.0292 17.9445 13.802 17.5642Z" fill="#CFC3F6"/>
<path d="M13.502 13.4978C14.0917 14.0876 14.8757 14.4124 15.7098 14.4124C16.3867 14.4124 17.0306 14.1984 17.5643 13.8027C17.2654 12.8374 16.7344 11.9288 15.9702 11.1645L15.9028 11.0972L13.502 13.4978Z" fill="#CFC3F6"/>
<path d="M13.802 17.5642C13.7107 17.6878 13.6096 17.806 13.4978 17.9179L8.77083 22.6448C8.18087 23.2346 7.39686 23.5594 6.56279 23.5594C5.72893 23.5594 4.94472 23.2346 4.35496 22.6448L1.9502 25.0498L2.01776 25.1174C4.52799 27.6276 8.5978 27.6276 11.108 25.1174L15.9703 20.2551C16.745 19.4804 17.2802 18.5571 17.5766 17.577C16.3475 17.9488 15.0291 17.9445 13.802 17.5642Z" fill="#CFC3F6"/>
</g>
<defs>
<clipPath id="clip0_1113_2191">
<rect width="27" height="27" fill="white"/>
</clipPath>
</defs>
</svg>
