<svg width="23" height="17" viewBox="0 0 23 17" fill="none" xmlns="http://www.w3.org/2000/svg">
<path fill-rule="evenodd" clip-rule="evenodd" d="M11.5028 3.06299C8.36869 3.06299 5.81982 5.61185 5.81982 8.74597C5.81982 11.8801 8.36869 14.429 11.5028 14.429C14.6369 14.429 17.1858 11.8801 17.1858 8.74597C17.1858 5.61732 14.6369 3.06299 11.5028 3.06299ZM12.0607 3.61542C12.5639 3.61542 13.007 3.89985 13.2258 4.33195C13.3351 4.29913 13.4555 4.28272 13.5758 4.28272C14.2923 4.28272 14.8776 4.86798 14.8776 5.58451C14.8776 6.30103 14.2923 6.88629 13.5758 6.88629C13.0671 6.88629 12.6241 6.59092 12.4108 6.16976C12.2959 6.20258 12.1756 6.21899 12.0607 6.21899C11.3442 6.21899 10.7589 5.63373 10.7589 4.91721C10.7589 4.19521 11.3442 3.61542 12.0607 3.61542ZM16.059 10.3814C15.8676 11.4535 15.4738 12.1973 14.8776 12.5802C14.5002 12.8263 14.0845 12.9029 13.6907 12.9029C13.2258 12.9029 12.7991 12.7935 12.5038 12.7224C11.8365 12.5583 10.8683 11.902 10.3651 10.9831C10.0369 11.4753 9.47903 11.6941 8.96488 11.6941C8.93207 11.6941 8.90472 11.6941 8.8719 11.6941C8.12802 11.6558 7.35133 11.1417 7.2857 10.097C7.25835 9.64847 7.14895 9.46797 7.01768 9.25465C6.86453 9.00305 6.69497 8.71863 6.6895 8.08961C6.68403 7.54812 6.82624 7.0996 7.11067 6.75502C7.49354 6.29009 8.11709 6.04943 8.96488 6.03849H8.97035C9.81815 6.04943 10.4417 6.29009 10.8246 6.75502C11.109 7.0996 11.2512 7.54812 11.2457 8.08961C11.2457 8.15525 11.2403 8.22089 11.2403 8.28105C11.3223 8.2537 11.4098 8.23183 11.5028 8.20448C11.8365 8.11149 12.2084 8.0021 12.6405 7.81613C13.4281 7.47701 14.6315 7.30745 15.43 7.94193C15.8567 8.27011 16.3106 8.97023 16.059 10.3814Z" fill="#97abc3"/>
<path fill-rule="evenodd" clip-rule="evenodd" d="M10.726 8.0787C10.737 7.08869 10.1462 6.58001 8.97572 6.5636C7.79975 6.58001 7.20902 7.08869 7.22543 8.0787C7.2309 8.5655 7.34576 8.75694 7.47703 8.97572C7.61925 9.21639 7.78334 9.4844 7.81615 10.0587C7.85991 10.8354 8.42876 11.1417 8.90462 11.1636C9.40783 11.1909 9.96573 10.9229 10.1025 10.272C10.0368 9.97667 10.0259 9.65943 10.0861 9.33125C10.1681 8.89368 10.3814 8.65301 10.6823 8.48892C10.7096 8.37406 10.7205 8.23732 10.726 8.0787ZM9.39689 10.3103H8.54909C8.40141 10.3103 8.28655 10.1955 8.28655 10.0478C8.28655 9.9001 8.40141 9.78523 8.54909 9.78523H9.39689C9.54457 9.78523 9.65943 9.90557 9.65943 10.0478C9.65943 10.19 9.5391 10.3103 9.39689 10.3103ZM9.53363 9.12887H8.40688C8.2592 9.12887 8.14433 9.01401 8.14433 8.86633C8.14433 8.71865 8.26467 8.60378 8.40688 8.60378H9.53363C9.68131 8.60378 9.79617 8.72412 9.79617 8.86633C9.79617 9.00854 9.68131 9.12887 9.53363 9.12887ZM9.80164 7.94742H8.14433C7.99665 7.94742 7.88179 7.83256 7.88179 7.68488C7.88179 7.5372 7.99665 7.42234 8.14433 7.42234H9.80164C9.94932 7.42234 10.0642 7.54267 10.0642 7.68488C10.0642 7.82709 9.94386 7.94742 9.80164 7.94742Z" fill="#97abc3"/>
<path fill-rule="evenodd" clip-rule="evenodd" d="M15.1073 8.34668C14.8283 8.12243 14.4564 8.03491 14.0626 8.03491C13.6469 8.03491 13.2093 8.13884 12.8483 8.29199C12.3889 8.48889 11.9786 8.60923 11.6505 8.70221C10.9339 8.90459 10.6823 9.00304 10.6003 9.42968C10.5511 9.68675 10.562 9.93289 10.6167 10.1681C10.6222 10.19 10.6276 10.2118 10.6331 10.2337C10.9011 11.262 11.9732 12.0442 12.635 12.2083C13.2804 12.3724 14.0188 12.5091 14.5986 12.1372C15.0635 11.8363 15.3862 11.2128 15.5449 10.2884C15.709 9.35857 15.5613 8.70768 15.1073 8.34668ZM13.1491 11.4042C12.4873 11.4042 11.9513 10.8682 11.9513 10.2064C11.9513 9.54454 12.4873 9.00851 13.1491 9.00851C13.811 9.00851 14.347 9.54454 14.347 10.2064C14.347 10.8682 13.811 11.4042 13.1491 11.4042Z" fill="#97abc3"/>
<path fill-rule="evenodd" clip-rule="evenodd" d="M13.1491 9.53363C12.7771 9.53363 12.4763 9.83446 12.4763 10.2064C12.4763 10.5783 12.7771 10.8792 13.1491 10.8792C13.521 10.8792 13.8219 10.5783 13.8219 10.2064C13.8219 9.83446 13.521 9.53363 13.1491 9.53363Z" fill="#97abc3"/>
<path fill-rule="evenodd" clip-rule="evenodd" d="M12.8208 5.77049C12.9029 6.10961 13.2092 6.36668 13.5756 6.36668C14.0023 6.36668 14.3523 6.01662 14.3523 5.58999C14.3523 5.15788 14.0023 4.81329 13.5756 4.81329C13.4389 4.81329 13.3131 4.84611 13.1982 4.91175C13.0833 4.97738 12.9849 5.07037 12.9138 5.17976C12.8372 5.30009 12.7935 5.44231 12.7935 5.58999C12.7989 5.65015 12.8099 5.71032 12.8208 5.77049Z" fill="#97abc3"/>
<path fill-rule="evenodd" clip-rule="evenodd" d="M12.0606 5.69393C12.1317 5.69393 12.2083 5.68299 12.2739 5.66111C12.2739 5.63376 12.2739 5.61188 12.2739 5.58453C12.2739 5.34934 12.3396 5.11961 12.4544 4.9227C12.531 4.79143 12.6349 4.6711 12.7607 4.56718C12.6349 4.30463 12.3669 4.13507 12.0606 4.13507C11.634 4.13507 11.2839 4.48513 11.2839 4.91176C11.2839 5.34387 11.634 5.69393 12.0606 5.69393Z" fill="#97abc3"/>
<path fill-rule="evenodd" clip-rule="evenodd" d="M11.5027 1.70105C7.61923 1.70105 4.45776 4.86252 4.45776 8.74598C4.45776 12.6294 7.61923 15.7909 11.5027 15.7909C15.3862 15.7909 18.5476 12.6294 18.5476 8.74598C18.5476 4.86252 15.3862 1.70105 11.5027 1.70105ZM11.5027 14.9595C8.07869 14.9595 5.29462 12.1755 5.29462 8.75145C5.29462 5.32744 8.07869 2.53791 11.5027 2.53791C14.9267 2.53791 17.7108 5.32197 17.7108 8.74598C17.7108 12.17 14.9267 14.9595 11.5027 14.9595Z" fill="#97abc3"/>
<path fill-rule="evenodd" clip-rule="evenodd" d="M1.6956 0.831421C0.776693 0.831421 0 2.10038 0 3.60454C0 5.1087 0.776693 6.37767 1.6956 6.37767C2.6145 6.37767 3.39119 5.1087 3.39119 3.60454C3.39119 2.10038 2.6145 0.831421 1.6956 0.831421Z" fill="#97abc3"/>
<path fill-rule="evenodd" clip-rule="evenodd" d="M2.15519 6.8371C2.00751 6.88085 1.85436 6.90273 1.69574 6.90273C1.53711 6.90273 1.38396 6.88085 1.23628 6.8371L1.06672 16.3489C1.06125 16.5129 1.12689 16.6661 1.24175 16.7864C1.36209 16.9068 1.52618 16.9779 1.69574 16.9779C1.86529 16.9779 2.02938 16.9068 2.14972 16.7864C2.26458 16.6661 2.33022 16.5129 2.32475 16.3489L2.15519 6.8371Z" fill="#97abc3"/>
<path fill-rule="evenodd" clip-rule="evenodd" d="M22.9999 4.0585V0.262544C22.9999 0.114863 22.8851 0 22.7374 0C22.5897 0 22.4748 0.114863 22.4748 0.262544V4.0585H22.0427V0.262544C22.0427 0.114863 21.9279 0 21.7802 0C21.6325 0 21.5177 0.114863 21.5177 0.262544V4.0585H21.0856V0.262544C21.0856 0.114863 20.9707 0 20.823 0C20.6753 0 20.5605 0.114863 20.5605 0.262544V4.0585H20.1284V0.262544C20.1284 0.114863 20.0135 0 19.8658 0C19.7181 0 19.6033 0.114863 19.6033 0.262544V4.0585V5.20166C19.6033 5.62829 19.9205 6.00023 20.3471 6.06586C20.637 6.10962 20.8449 6.35576 20.8394 6.65112L20.6699 16.316C20.6644 16.4801 20.73 16.6333 20.8449 16.7536C20.9652 16.8739 21.1293 16.945 21.2989 16.945C21.4684 16.945 21.6325 16.8739 21.7529 16.7536C21.8677 16.6333 21.9334 16.4801 21.9279 16.316L21.7583 6.65112C21.7529 6.35576 21.9607 6.10962 22.2506 6.06586C22.6718 6.00023 22.9945 5.62829 22.9945 5.20166V4.32104V4.12413L22.9999 4.0585Z" fill="#97abc3"/>
</svg>
