<svg width="35" height="25" viewBox="0 0 35 25" fill="none" xmlns="http://www.w3.org/2000/svg">
<path d="M6.41675 2.34369L8.40003 3.32422C8.53243 3.39108 8.6404 3.49774 8.70867 3.62915C8.77693 3.76054 8.80203 3.91001 8.78043 4.0564L8.21996 6.70026L16.6685 9.38927C17.3732 9.56174 18.0317 9.88555 18.5978 10.338C19.1641 10.7906 19.6243 11.3608 19.9465 12.0092C20.2687 12.6574 20.4451 13.368 20.4632 14.0912C20.4813 14.8144 20.3409 15.5329 20.0518 16.1965C19.8888 16.5151 19.6056 16.7561 19.2645 16.8668C18.9234 16.9773 18.5522 16.9485 18.2324 16.7865L13.3128 14.3726L12.8198 14.1301L9.76556 15.8549C9.66298 15.9174 9.54586 15.9521 9.42573 15.9557C9.3056 15.9593 9.1866 15.9317 9.08044 15.8756L6.84527 14.7793C6.71866 14.7313 6.60772 14.6496 6.5246 14.5429C6.44147 14.4363 6.38936 14.309 6.37395 14.1748C6.35856 14.0406 6.38045 13.9048 6.43727 13.7823C6.49408 13.6597 6.58362 13.555 6.69608 13.4798L8.72176 12.1058L8.40398 11.9477L3.60483 9.58629C3.44429 9.51559 3.29946 9.41376 3.17877 9.28671C3.05809 9.15967 2.96397 9.00995 2.90188 8.8463C2.83981 8.68263 2.81099 8.50828 2.81715 8.33341C2.8233 8.15854 2.86428 7.98664 2.93772 7.82771L5.5178 2.62768C5.60118 2.4731 5.74169 2.35697 5.90951 2.30396C6.07733 2.25094 6.25928 2.26519 6.41675 2.34369Z" stroke="#333333" stroke-width="1.25" stroke-linecap="round" stroke-linejoin="round"/>
<path d="M21.1738 23.033H1.17383" stroke="#333333" stroke-width="1.25" stroke-linecap="round" stroke-linejoin="round"/>
<line x1="34.5" y1="1" x2="34.5" y2="25" stroke="#F0ECFC"/>
</svg>
