<svg width="39" height="39" viewBox="0 0 39 39" fill="none" xmlns="http://www.w3.org/2000/svg">
<circle cx="19.5" cy="19.5" r="19.5" fill="#F0ECFC"/>
<path d="M18.8677 11.4704L18.8677 25.1209C18.8677 25.7059 18.4765 26.0959 17.8898 26.0959C17.303 26.0959 16.9118 25.7059 16.9118 25.1209L16.9118 13.8105L14.6625 16.0531C14.2713 16.4431 13.6846 16.4431 13.2934 16.0531C12.9022 15.6631 12.9022 15.0781 13.2934 14.6881L17.2052 10.7879C17.4986 10.4954 17.8898 10.3979 18.2809 10.5929C18.6721 10.6904 18.8677 11.0804 18.8677 11.4704ZM26.6913 25.1209C26.6913 25.4134 26.5935 25.6084 26.398 25.8034L22.4861 29.7035C22.1928 29.996 21.8016 30.0936 21.4104 29.8985C21.0192 29.7035 20.8236 29.411 20.8236 29.021L20.8236 15.3706C20.8236 14.7856 21.2148 14.3955 21.8016 14.3955C22.3883 14.3955 22.7795 14.7856 22.7795 15.3706L22.7795 26.6809L25.0288 24.4384C25.42 24.0484 26.0068 24.0484 26.398 24.4384C26.5935 24.6334 26.6913 24.8284 26.6913 25.1209Z" fill="#292764"/>
</svg>
