<svg width="17" height="17" viewBox="0 0 17 17" fill="none" xmlns="http://www.w3.org/2000/svg">
<g clip-path="url(#clip0_9_184)">
<path d="M8.5001 0.584351C4.13535 0.584351 0.584473 4.13523 0.584473 8.49998C0.584473 12.8647 4.13535 16.4156 8.5001 16.4156C12.8648 16.4156 16.4157 12.8647 16.4157 8.49998C16.4157 4.13523 12.8648 0.584351 8.5001 0.584351ZM8.5001 15.4594C4.66288 15.4594 1.54072 12.3372 1.54072 8.49998C1.54072 4.66276 4.66288 1.5406 8.5001 1.5406C12.3373 1.5406 15.4595 4.66276 15.4595 8.49998C15.4595 12.3372 12.3373 15.4594 8.5001 15.4594Z" fill="#97abc3"/>
<path d="M8.50007 7.9613C7.5162 7.9613 6.55835 8.29812 5.80345 8.91012C5.59839 9.0764 5.56651 9.37708 5.73279 9.58268C5.89854 9.78774 6.19976 9.81908 6.40535 9.65333C6.99079 9.17893 7.73454 8.91809 8.50007 8.91809C9.25976 8.91809 10.004 9.18212 10.5948 9.66024C10.6835 9.73196 10.7898 9.76702 10.8955 9.76702C11.0347 9.76702 11.1728 9.70646 11.2674 9.59012C11.4336 9.38505 11.4018 9.08383 11.1967 8.91755C10.4359 8.30077 9.4781 7.9613 8.50007 7.9613Z" fill="#97abc3"/>
<path d="M8.50001 5.3587C6.99817 5.3587 5.52873 5.87402 4.36264 6.80955C4.15651 6.97477 4.12358 7.27545 4.2888 7.48158C4.45401 7.68717 4.75523 7.72064 4.96083 7.55542C5.95798 6.75536 7.21545 6.31442 8.50001 6.31442C9.78458 6.31442 11.042 6.75536 12.0392 7.55542C12.1274 7.62608 12.2331 7.66061 12.3383 7.66061C12.4785 7.66061 12.6172 7.59952 12.7118 7.48158C12.877 7.27545 12.844 6.97477 12.6379 6.80955C11.4713 5.87455 10.0019 5.3587 8.50001 5.3587Z" fill="#97abc3"/>
<path d="M8.49997 10.4592C8.06329 10.4592 7.70947 10.813 7.70947 11.2497C7.70947 11.6864 8.06329 12.0402 8.49997 12.0402C8.93666 12.0402 9.29047 11.6864 9.29047 11.2497C9.29047 10.813 8.93666 10.4592 8.49997 10.4592Z" fill="#97abc3"/>
</g>
<defs>
<clipPath id="clip0_9_184">
<rect width="17" height="17" fill="white"/>
</clipPath>
</defs>
</svg>
