<svg width="17" height="17" viewBox="0 0 17 17" fill="none" xmlns="http://www.w3.org/2000/svg">
<path d="M11.7938 0.265625L12.4844 3.58594C12.4844 3.58594 11.8203 2.92188 10.4922 2.92188C9.78241 2.93737 9.09125 3.15181 8.49734 3.54078C7.90487 3.15297 7.21573 2.93859 6.50781 2.92188C5.17969 2.92188 4.51562 3.58594 4.51562 3.58594L5.20625 0.265625H11.7938Z" fill="#F2F2F2"/>
<path d="M8.49734 3.54078C7.88641 3.88609 7.31797 4.25 6.50781 4.25C5.79347 4.22614 5.10141 3.99545 4.51562 3.58594C4.51562 3.58594 5.17969 2.92188 6.50781 2.92188C7.21573 2.93859 7.90487 3.15297 8.49734 3.54078Z" fill="#8769AF"/>
<path d="M10.8906 5.57812C11.184 5.57812 11.4219 5.34028 11.4219 5.04688C11.4219 4.75347 11.184 4.51562 10.8906 4.51562C10.5972 4.51562 10.3594 4.75347 10.3594 5.04688C10.3594 5.34028 10.5972 5.57812 10.8906 5.57812Z" fill="#8769AF"/>
<path d="M8.63281 7.70312C8.99956 7.70312 9.29688 7.40581 9.29688 7.03906C9.29688 6.67231 8.99956 6.375 8.63281 6.375C8.26606 6.375 7.96875 6.67231 7.96875 7.03906C7.96875 7.40581 8.26606 7.70312 8.63281 7.70312Z" fill="#8769AF"/>
<path d="M6.10938 6.375C6.40278 6.375 6.64062 6.13715 6.64062 5.84375C6.64062 5.55035 6.40278 5.3125 6.10938 5.3125C5.81597 5.3125 5.57812 5.55035 5.57812 5.84375C5.57812 6.13715 5.81597 6.375 6.10938 6.375Z" fill="#8769AF"/>
<path d="M8.49742 3.54078C9.09132 3.15181 9.78249 2.93737 10.4923 2.92188C11.8204 2.92188 12.4845 3.58594 12.4845 3.58594C12.6896 4.22919 12.7795 4.9036 12.7501 5.57812C12.7492 6.49369 12.3851 7.37152 11.7377 8.01892C11.0903 8.66632 10.2125 9.03041 9.29695 9.03125H7.7032C6.78763 9.03041 5.90981 8.66632 5.2624 8.01892C4.615 7.37152 4.25092 6.49369 4.25008 5.57812C4.22066 4.9036 4.31058 4.22919 4.5157 3.58594C5.10149 3.99545 5.79355 4.22614 6.50789 4.25C7.31804 4.25 7.88648 3.88609 8.49742 3.54078ZM11.2663 4.67128C11.192 4.59697 11.0973 4.54636 10.9943 4.52584C10.8912 4.50533 10.7844 4.51584 10.6873 4.55605C10.5902 4.59625 10.5073 4.66434 10.4489 4.75171C10.3905 4.83908 10.3593 4.9418 10.3593 5.04688C10.3593 5.15195 10.3905 5.25467 10.4489 5.34204C10.5073 5.42941 10.5902 5.4975 10.6873 5.5377C10.7844 5.57791 10.8912 5.58842 10.9943 5.56791C11.0973 5.54739 11.192 5.49678 11.2663 5.42247C11.3656 5.32267 11.4213 5.18764 11.4213 5.04688C11.4213 4.90611 11.3656 4.77108 11.2663 4.67128ZM9.29695 7.03906C9.29695 6.90772 9.258 6.77933 9.18504 6.67013C9.11207 6.56092 9.00836 6.47581 8.88701 6.42555C8.76567 6.37529 8.63215 6.36214 8.50334 6.38776C8.37452 6.41338 8.2562 6.47663 8.16332 6.5695C8.07045 6.66237 8.00721 6.78069 7.98159 6.90951C7.95596 7.03833 7.96911 7.17185 8.01937 7.29319C8.06964 7.41453 8.15475 7.51824 8.26395 7.59121C8.37316 7.66418 8.50155 7.70312 8.63289 7.70312C8.80901 7.70312 8.97792 7.63316 9.10245 7.50863C9.22699 7.38409 9.29695 7.21518 9.29695 7.03906ZM5.73386 6.21934C5.80815 6.29366 5.90281 6.34427 6.00586 6.36478C6.10892 6.38529 6.21574 6.37478 6.31283 6.33458C6.40991 6.29437 6.49289 6.22628 6.55127 6.13891C6.60965 6.05155 6.64081 5.94883 6.64081 5.84375C6.64081 5.73867 6.60965 5.63595 6.55127 5.54859C6.49289 5.46122 6.40991 5.39313 6.31283 5.35292C6.21574 5.31272 6.10892 5.30221 6.00586 5.32272C5.90281 5.34323 5.80815 5.39384 5.73386 5.46816C5.63459 5.56795 5.57886 5.70299 5.57886 5.84375C5.57886 5.98451 5.63459 6.11955 5.73386 6.21934Z" fill="#6941CA"/>
<path d="M12.6783 8.95953C13.1224 8.51559 13.4747 7.98843 13.7149 7.40821C13.9551 6.82799 14.0785 6.2061 14.0781 5.57812C14.0786 4.69875 13.9369 3.82508 13.6584 2.99094L12.75 0.265625H11.7938L12.4844 3.58594C12.6895 4.22919 12.7794 4.9036 12.75 5.57812C12.7492 6.49369 12.3851 7.37152 11.7377 8.01892C11.0903 8.66632 10.2124 9.03041 9.29688 9.03125H7.70313C6.78756 9.03041 5.90973 8.66632 5.26233 8.01892C4.61493 7.37152 4.25085 6.49369 4.25 5.57812C4.22058 4.9036 4.3105 4.22919 4.51563 3.58594L5.20625 0.265625H4.25L3.34156 2.99094C3.06313 3.82508 2.92141 4.69875 2.92188 5.57812C2.92163 6.20608 3.04514 6.82792 3.28533 7.40812C3.52552 7.98832 3.8777 8.5155 4.32173 8.95952C4.76576 9.40355 5.29293 9.75573 5.87313 9.99592C6.45333 10.2361 7.07517 10.3596 7.70313 10.3594H9.29688C9.92485 10.3598 10.5467 10.2363 11.127 9.99613C11.7072 9.75593 12.2343 9.40368 12.6783 8.95953Z" fill="#D1D1D1"/>
<path d="M7.70317 10.3594V15.4063L5.13723 15.8738C5.03039 15.893 4.93466 15.9517 4.86896 16.0381C4.80325 16.1246 4.77236 16.2325 4.78237 16.3406C4.79238 16.4487 4.84257 16.5491 4.92302 16.6221C5.00348 16.695 5.10835 16.735 5.21692 16.7344H11.7832C11.8917 16.735 11.9966 16.695 12.0771 16.6221C12.1575 16.5491 12.2077 16.4487 12.2177 16.3406C12.2277 16.2325 12.1968 16.1246 12.1311 16.0381C12.0654 15.9517 11.9697 15.893 11.8629 15.8738L9.29692 15.4063V10.3594H7.70317Z" fill="#C7C7C7"/>
<path d="M8.36719 5.57812C8.58724 5.57812 8.76562 5.39974 8.76562 5.17969C8.76562 4.95964 8.58724 4.78125 8.36719 4.78125C8.14714 4.78125 7.96875 4.95964 7.96875 5.17969C7.96875 5.39974 8.14714 5.57812 8.36719 5.57812Z" fill="#8769AF"/>
<path d="M10.625 7.4375C10.7717 7.4375 10.8906 7.31858 10.8906 7.17188C10.8906 7.02517 10.7717 6.90625 10.625 6.90625C10.4783 6.90625 10.3594 7.02517 10.3594 7.17188C10.3594 7.31858 10.4783 7.4375 10.625 7.4375Z" fill="#8769AF"/>
<path d="M6.64062 7.70312C6.78733 7.70312 6.90625 7.5842 6.90625 7.4375C6.90625 7.2908 6.78733 7.17188 6.64062 7.17188C6.49392 7.17188 6.375 7.2908 6.375 7.4375C6.375 7.5842 6.49392 7.70312 6.64062 7.70312Z" fill="#8769AF"/>
</svg>
