<svg width="18" height="22" viewBox="0 0 18 22" fill="none" xmlns="http://www.w3.org/2000/svg">
<path d="M0 3.91301C0 2.61634 1.05115 1.56519 2.34783 1.56519H15.6522C16.9488 1.56519 18 2.61634 18 3.91301V19.5652C18 20.8618 16.9488 21.913 15.6522 21.913H2.34783C1.05115 21.913 0 20.8618 0 19.5652V3.91301Z" fill="#E6E6E6"/>
<path fill-rule="evenodd" clip-rule="evenodd" d="M6.65222 0C5.78778 0 5.087 0.700773 5.087 1.56522V2.34783C5.087 3.21228 5.78778 3.91304 6.65222 3.91304H11.3479C12.2123 3.91304 12.9131 3.21228 12.9131 2.34783V1.56522C12.9131 0.700771 12.2123 0 11.3479 0H6.65222ZM5.087 12.1304C4.43867 12.1304 3.91309 12.656 3.91309 13.3043C3.91309 13.9527 4.43867 14.4783 5.087 14.4783H12.9131C13.5614 14.4783 14.087 13.9527 14.087 13.3043C14.087 12.656 13.5614 12.1304 12.9131 12.1304H5.087Z" fill="#8A8A8A"/>
</svg>
