<svg width="18" height="18" viewBox="0 0 18 18" fill="none" xmlns="http://www.w3.org/2000/svg">
<path fill-rule="evenodd" clip-rule="evenodd" d="M1.28571 0C0.575634 0 0 0.573914 0 1.28187V8.97311C0 9.68108 0.575634 10.255 1.28571 10.255H6.42857C7.13866 10.255 7.71429 9.68108 7.71429 8.97311V1.28187C7.71429 0.573914 7.13866 0 6.42857 0H1.28571ZM10.2857 8.97311C10.2857 8.26516 10.8613 7.69124 11.5714 7.69124H16.7143C17.4244 7.69124 18 8.26516 18 8.97311V16.6644C18 17.3723 17.4244 17.9462 16.7143 17.9462H11.5714C10.8614 17.9462 10.2857 17.3723 10.2857 16.6644V8.97311Z" fill="#132968"/>
<path d="M11.5714 0C10.8613 0 10.2856 0.573914 10.2856 1.28187V3.85844C10.2856 4.56639 10.8613 5.14031 11.5714 5.14031H16.7142C17.4243 5.14031 17.9999 4.56639 17.9999 3.85844V1.28187C17.9999 0.573914 17.4243 0 16.7142 0H11.5714Z" fill="#b6b5b5"/>
<path d="M1.28571 12.8059C0.575634 12.8059 0 13.3798 0 14.0878V16.6644C0 17.3723 0.575634 17.9462 1.28571 17.9462H6.42857C7.13866 17.9462 7.71429 17.3723 7.71429 16.6644V14.0878C7.71429 13.3798 7.13866 12.8059 6.42857 12.8059H1.28571Z" fill="#b6b5b5"/>
</svg>
