<svg width="19" height="15" viewBox="0 0 19 15" fill="none" xmlns="http://www.w3.org/2000/svg">
<path d="M18.25 5.475V11.8625C18.25 13.3744 17.0244 14.6 15.5125 14.6H2.7375C1.22562 14.6 0 13.3744 0 11.8625V5.475H18.25ZM14.6 9.125H11.8625C11.3585 9.125 10.95 9.53353 10.95 10.0375C10.95 10.5415 11.3585 10.95 11.8625 10.95H14.6C15.104 10.95 15.5125 10.5415 15.5125 10.0375C15.5125 9.53353 15.104 9.125 14.6 9.125ZM15.5125 0C17.0244 0 18.25 1.22562 18.25 2.7375V3.65H0V2.7375C0 1.22562 1.22562 0 2.7375 0H15.5125Z" fill="#292664"/>
</svg>
