<svg width="19" height="18" viewBox="0 0 19 18" fill="none" xmlns="http://www.w3.org/2000/svg">
<path fill-rule="evenodd" clip-rule="evenodd" d="M3.60028 0.981903C3.60028 0.439614 3.16066 0 2.61838 0C2.07609 0 1.63647 0.439614 1.63647 0.981903V4.36926C1.63647 4.91155 2.07609 5.35117 2.61838 5.35117C3.16066 5.35117 3.60028 4.91155 3.60028 4.36926V0.981903ZM3.60028 12.8791C3.60028 12.3368 3.16066 11.8972 2.61838 11.8972C2.07609 11.8972 1.63647 12.3368 1.63647 12.8791V14.8429C1.63647 15.3851 2.07609 15.8248 2.61838 15.8248C3.16066 15.8248 3.60028 15.3851 3.60028 14.8429V12.8791ZM9.1644 13.2064C9.70668 13.2064 10.1463 13.646 10.1463 14.1883V17.0181C10.1463 17.5604 9.70668 18 9.1644 18C8.62211 18 8.1825 17.5604 8.1825 17.0181V14.1883C8.1825 13.646 8.62211 13.2064 9.1644 13.2064ZM10.1463 5.02386C10.1463 4.48158 9.70668 4.04196 9.1644 4.04196C8.62211 4.04196 8.1825 4.48158 8.1825 5.02386V9.60608C8.1825 10.1484 8.62211 10.588 9.1644 10.588C9.70668 10.588 10.1463 10.1484 10.1463 9.60608V5.02386Z" fill="#8A8A8A"/>
<path fill-rule="evenodd" clip-rule="evenodd" d="M15.3391 0C15.8814 0 16.321 0.439614 16.321 0.981903V2.0039C16.6269 2.0856 16.9175 2.21066 17.1763 2.3866C17.7324 2.76467 18.1159 3.36942 18.1159 4.12663C18.1159 4.66893 17.6763 5.10853 17.134 5.10853C16.5917 5.10853 16.1521 4.66893 16.1521 4.12663C16.1521 4.09326 16.1457 4.08192 16.1433 4.07783C16.1395 4.07109 16.1234 4.04547 16.0722 4.0107C15.9602 3.93455 15.7211 3.84491 15.3391 3.84491C15.069 3.84491 14.8751 3.8457 14.7116 3.86061C14.6375 3.86735 14.5838 3.87595 14.545 3.88467C14.536 3.93015 14.5261 4.00702 14.5261 4.12663C14.5261 4.22758 14.5534 4.33143 14.751 4.50395C14.983 4.70658 15.3188 4.88852 15.7948 5.13797L15.8404 5.16185C16.256 5.37948 16.7936 5.66087 17.219 6.03233C17.6945 6.44764 18.1159 7.04919 18.1159 7.88878C18.1159 8.29325 18.0566 8.69418 17.8799 9.05308C17.6913 9.43601 17.4011 9.70576 17.0594 9.87466C16.8097 9.99813 16.5514 10.0585 16.321 10.0905V11.0334C16.321 11.5757 15.8814 12.0153 15.3391 12.0153C14.7968 12.0153 14.3572 11.5757 14.3572 11.0334V10.0355C14.072 9.97091 13.7923 9.86857 13.5377 9.71127C12.909 9.32274 12.5623 8.67914 12.5623 7.88878C12.5623 7.3465 13.0019 6.90688 13.5442 6.90688C14.0864 6.90688 14.5261 7.3465 14.5261 7.88878C14.5261 7.94162 14.5313 7.97579 14.5359 7.99526C14.5399 8.01313 14.5437 8.02051 14.5441 8.0213C14.5456 8.02274 14.553 8.03016 14.5701 8.04072C14.6589 8.09564 14.8869 8.16958 15.3307 8.1705C15.3336 8.17047 15.3363 8.17046 15.3391 8.17046C15.3422 8.17046 15.3454 8.17047 15.3485 8.1705C15.6137 8.17048 15.8049 8.16954 15.9666 8.15481C16.0407 8.14807 16.0944 8.13947 16.1331 8.13074C16.1421 8.08525 16.1521 8.00839 16.1521 7.88878C16.1521 7.78783 16.1247 7.684 15.9272 7.51146C15.6952 7.30883 15.3594 7.12689 14.8833 6.87744L14.8378 6.85356C14.422 6.63594 13.8846 6.35455 13.4592 5.98309C12.9836 5.56779 12.5623 4.96622 12.5623 4.12663C12.5623 3.72216 12.6216 3.32123 12.7983 2.96233C12.9868 2.5794 13.2771 2.30965 13.6188 2.14075C13.8684 2.01728 14.1268 1.95692 14.3572 1.92495V0.981903C14.3572 0.439614 14.7968 0 15.3391 0Z" fill="#8A8A8A"/>
<path fill-rule="evenodd" clip-rule="evenodd" d="M0 5.67865C0 4.59407 0.879226 3.71484 1.96381 3.71484H3.27301C4.35759 3.71484 5.23682 4.59407 5.23682 5.67865V11.5701C5.23682 12.6547 4.35759 13.5339 3.27301 13.5339H1.96381C0.879226 13.5339 0 12.6547 0 11.5701V5.67865ZM6.54602 10.9155C6.54602 9.83088 7.42524 8.95166 8.50983 8.95166H9.81903C10.9036 8.95166 11.7828 9.83088 11.7828 10.9155V12.8793C11.7828 13.9638 10.9036 14.8431 9.81903 14.8431H8.50983C7.42524 14.8431 6.54602 13.9638 6.54602 12.8793V10.9155Z" fill="#E6E6E6"/>
</svg>
