<svg width="22" height="22" viewBox="0 0 22 22" fill="none" xmlns="http://www.w3.org/2000/svg">
<path opacity="0.3" d="M11 22C17.0654 22 22 17.0654 22 11C22 4.9346 17.0654 0 11 0C4.9346 0 0 4.9346 0 11C0 17.0654 4.9346 22 11 22ZM10.5203 2.0243C10.6802 2.0158 10.8381 2 11 2C15.9629 2 20 6.0376 20 11C20 12.8386 19.4435 14.5487 18.4933 15.9751C18.3291 15.9843 18.1665 16 18 16C13.0294 16 9 11.9705 9 7C9 5.1556 9.5666 3.45 10.5203 2.0243Z" fill="#B6B5B5"/>
<path d="M10.5203 2.0243C10.6802 2.0158 10.8381 2 11 2C15.9629 2 20 6.0376 20 11C20 12.8386 19.4435 14.5487 18.4933 15.9751C18.3291 15.9843 18.1665 16 18 16C13.0294 16 9 11.9705 9 7C9 5.1556 9.5666 3.45 10.5203 2.0243Z" fill="#132968"/>
</svg>
