<svg width="19" height="23" viewBox="0 0 19 23" fill="none" xmlns="http://www.w3.org/2000/svg">
<path d="M9.12515 11.1735C12.2264 11.1735 14.7406 8.67221 14.7406 5.58674C14.7406 2.50126 12.2264 0 9.12515 0C6.02386 0 3.50977 2.50126 3.50977 5.58674C3.50977 8.67221 6.02386 11.1735 9.12515 11.1735Z" fill="#292664"/>
<path d="M12.0497 13.5013H6.20032C2.80769 13.5013 0 16.2947 0 19.67C0 20.4847 0.350959 21.1831 1.05289 21.5323C2.10576 22.1142 4.44552 22.8125 9.125 22.8125C13.8045 22.8125 16.1442 22.1142 17.1971 21.5323C17.782 21.1831 18.25 20.4847 18.25 19.67C18.25 16.1783 15.4424 13.5013 12.0497 13.5013Z" fill="#292664"/>
</svg>
