<svg width="18" height="18" viewBox="0 0 18 18" fill="none" xmlns="http://www.w3.org/2000/svg">
<path d="M1.92857 0C0.863451 0 0 0.863451 0 1.92857V9.64286C0 10.708 0.863451 11.5714 1.92857 11.5714H16.0714C17.1365 11.5714 18 10.708 18 9.64286V1.92857C18 0.863451 17.1365 0 16.0714 0H1.92857Z" fill="#E6E6E6"/>
<path fill-rule="evenodd" clip-rule="evenodd" d="M4.5001 5.78581C4.5001 5.25325 4.06837 4.82152 3.53582 4.82152C3.00326 4.82152 2.57153 5.25325 2.57153 5.78581C2.57153 6.31836 3.00326 6.75009 3.53582 6.75009C4.06837 6.75009 4.5001 6.31836 4.5001 5.78581ZM15.4287 5.78581C15.4287 5.25325 14.9969 4.82152 14.4644 4.82152C13.9318 4.82152 13.5001 5.25325 13.5001 5.78581C13.5001 6.31836 13.9318 6.75009 14.4644 6.75009C14.9969 6.75009 15.4287 6.31836 15.4287 5.78581ZM5.78582 12.6965C6.22962 12.6965 6.58939 13.0563 6.58939 13.5001V16.0715C6.58939 16.5154 6.22962 16.8751 5.78582 16.8751C5.34202 16.8751 4.98225 16.5154 4.98225 16.0715V13.5001C4.98225 13.0563 5.34202 12.6965 5.78582 12.6965ZM13.018 13.5001C13.018 13.0563 12.6582 12.6965 12.2144 12.6965C11.7706 12.6965 11.4108 13.0563 11.4108 13.5001V16.0715C11.4108 16.5154 11.7706 16.8751 12.2144 16.8751C12.6582 16.8751 13.018 16.5154 13.018 16.0715V13.5001ZM9.80368 14.4644C9.80368 14.0206 9.44391 13.6608 9.0001 13.6608C8.5563 13.6608 8.19653 14.0206 8.19653 14.4644V17.0358C8.19653 17.4796 8.5563 17.8394 9.0001 17.8394C9.44391 17.8394 9.80368 17.4796 9.80368 17.0358V14.4644Z" fill="#8A8A8A"/>
</svg>
