<svg width="19" height="22" viewBox="0 0 19 22" fill="none" xmlns="http://www.w3.org/2000/svg">
<path d="M9.12786 0C6.31193 0 4.02441 2.28083 4.02441 5.10345C4.02441 7.92606 6.30525 10.2069 9.12786 10.2069C11.9505 10.2069 14.2313 7.92606 14.2313 5.10345C14.2313 2.28083 11.9438 0 9.12786 0ZM9.12786 3.43797C8.21151 3.43797 7.46238 4.18041 7.46238 5.10345C7.46238 5.52483 7.12126 5.86595 6.69988 5.86595C6.27849 5.86595 5.93737 5.52483 5.93737 5.10345C5.93737 3.34433 7.36874 1.91964 9.12117 1.91964C9.54256 1.91964 9.88368 2.26077 9.88368 2.68215C9.88368 3.10354 9.54256 3.43797 9.12786 3.43797Z" fill="#292664"/>
<path d="M18.245 17.0762V16.9692C18.245 16.9625 18.245 16.9558 18.245 16.9558C18.2049 15.5178 17.9306 14.5278 16.4591 13.6048C14.5127 12.3808 12.3389 11.324 12.3389 11.324L10.6065 16.7953L9.59655 14.7619C11.369 12.2871 9.46947 12.1601 9.13503 12.1601C9.13503 12.1601 9.12834 12.1601 9.12166 12.1601C9.11497 12.1601 9.11497 12.1601 9.10828 12.1601C8.76716 12.1601 6.86758 12.2871 8.64676 14.7619L7.63677 16.7953L5.90441 11.324C5.90441 11.324 3.7306 12.3808 1.7842 13.6048C0.319383 14.5278 0.0518371 15.5178 0.00501649 16.9558C0.00501649 16.9625 0.00501649 16.9625 0.00501649 16.9692V17.0762C-0.00167216 17.3505 -0.00167216 17.6448 0.00501649 17.9524C0.00501649 17.9524 0.00501649 17.9123 0.00501649 17.8454V21.8051H9.11497H18.245V17.8454C18.245 17.9123 18.245 17.9524 18.245 17.9524C18.2517 17.6448 18.2517 17.3505 18.245 17.0762Z" fill="#292664"/>
</svg>
