<svg width="19" height="19" viewBox="0 0 19 19" fill="none" xmlns="http://www.w3.org/2000/svg">
<path d="M11.6655 18.2389C11.5528 18.2383 11.4423 18.2078 11.3452 18.1506C11.2481 18.0934 11.1679 18.0115 11.1127 17.9133C11.0576 17.815 11.0294 17.7039 11.0311 17.5912C11.0328 17.4785 11.0644 17.3683 11.1225 17.2717L12.0134 15.787C12.0563 15.7152 12.1129 15.6525 12.18 15.6025C12.2471 15.5525 12.3235 15.5163 12.4046 15.4958C12.4857 15.4753 12.5701 15.471 12.6529 15.4831C12.7357 15.4952 12.8153 15.5236 12.8872 15.5665C12.9591 15.6094 13.0218 15.666 13.0718 15.7331C13.1217 15.8002 13.158 15.8766 13.1785 15.9577C13.199 16.0388 13.2033 16.1232 13.1911 16.206C13.179 16.2888 13.1507 16.3685 13.1078 16.4403L12.8787 16.8221C15.2203 16.2706 16.9765 14.1666 16.9765 11.6553C16.9765 11.3075 17.265 11.019 17.6128 11.019C17.9606 11.019 18.2491 11.3075 18.2491 11.6553C18.2406 15.2865 15.2882 18.2389 11.6655 18.2389ZM0.636301 7.21141C0.288456 7.21141 0 6.92295 0 6.57511C0 2.95244 2.95244 0 6.57511 0C6.6878 0.00062446 6.79832 0.0310881 6.89542 0.0882916C6.99251 0.145495 7.07273 0.227397 7.12789 0.325666C7.18306 0.423934 7.21122 0.535062 7.2095 0.647744C7.20777 0.760427 7.17623 0.870642 7.11808 0.967177L6.22726 2.45188C6.0491 2.74882 5.65883 2.85063 5.35341 2.66398C5.28181 2.6208 5.21947 2.56387 5.17 2.49646C5.12053 2.42906 5.08491 2.35252 5.06519 2.27127C5.04546 2.19002 5.04204 2.10566 5.0551 2.02308C5.06817 1.9405 5.09747 1.86132 5.14131 1.79013L5.37038 1.40835C4.20511 1.68192 3.1664 2.34103 2.42262 3.27883C1.67885 4.21664 1.27361 5.37816 1.2726 6.57511C1.2726 6.92295 0.984145 7.21141 0.636301 7.21141ZM11.4958 9.6548V12.1491C11.4958 14.2277 10.6644 15.0591 8.58582 15.0591H6.09152C4.01294 15.0591 3.1815 14.2277 3.1815 12.1491V9.6548C3.1815 7.57622 4.01294 6.74479 6.09152 6.74479H8.58582C10.6644 6.74479 11.4958 7.57622 11.4958 9.6548Z" fill="#8A8A8A"/>
<path d="M12.1492 3.1814H9.65495C7.6103 3.1814 6.77887 3.99586 6.75342 5.99809H8.58596C11.0803 5.99809 12.2341 7.1604 12.2341 9.64621V11.4788C14.2448 11.4533 15.0508 10.6219 15.0508 8.57723V6.09141C15.0593 4.01283 14.2278 3.1814 12.1492 3.1814Z" fill="#E6E6E6"/>
</svg>
