<svg width="30" height="30" viewBox="0 0 30 30" fill="none" xmlns="http://www.w3.org/2000/svg">
    <path fill-rule="evenodd" clip-rule="evenodd" d="M21.5049 12.9454V23.4825H27.0757V12.9442C27.0493 12.945 27.023 12.9454 26.9964 12.9454H21.5049Z" fill="#8A8A8A"/>
    <path fill-rule="evenodd" clip-rule="evenodd" d="M11.8521 12.9452V23.4823H17.4229V12.9452H11.8521Z" fill="#8A8A8A"/>
    <path fill-rule="evenodd" clip-rule="evenodd" d="M2.19971 12.9442V23.4825H7.77057V12.9454H2.27953C2.2528 12.9454 2.22618 12.945 2.19971 12.9442Z" fill="#8A8A8A"/>
    <path fill-rule="evenodd" clip-rule="evenodd" d="M13.355 1.05932C13.7438 0.831248 14.1868 0.710983 14.6379 0.710983C15.0891 0.710983 15.532 0.831248 15.9209 1.05932C15.9353 1.06778 15.9495 1.07658 15.9635 1.08572L28.3246 9.15592C29.2014 9.73208 29.4674 10.7267 29.1289 11.5762C28.8033 12.3931 27.9812 12.9452 26.9965 12.9452H2.27931C1.2946 12.9452 0.472619 12.3931 0.147067 11.5762C-0.191487 10.7267 0.0743492 9.73208 0.951118 9.15594L0.953722 9.15421L13.3123 1.08572C13.3263 1.07658 13.3405 1.06778 13.355 1.05932ZM0 25.3362C0 24.0844 1.19517 23.4823 2.09113 23.4823H27.1847C28.0808 23.4823 29.2759 24.0844 29.2759 25.3362V27.7705C29.2759 29.0222 28.0808 29.6244 27.1847 29.6244H2.09113C1.19517 29.6244 0 29.0222 0 27.7705V25.3362Z" fill="#292764"/>
    </svg>
    