<svg width="29" height="30" viewBox="0 0 29 30" fill="none" xmlns="http://www.w3.org/2000/svg">
<path fill-rule="evenodd" clip-rule="evenodd" d="M2.07143 0.710983C0.92741 0.710983 0 1.63562 0 2.77622V15.1677C0 16.3083 0.92741 17.2329 2.07143 17.2329H10.3571C11.5012 17.2329 12.4286 16.3083 12.4286 15.1677V2.77622C12.4286 1.63562 11.5012 0.710983 10.3571 0.710983H2.07143ZM16.5714 15.1677C16.5714 14.0271 17.4988 13.1024 18.6429 13.1024H26.9286C28.0726 13.1024 29 14.0271 29 15.1677V27.5591C29 28.6997 28.0726 29.6244 26.9286 29.6244H18.6429C17.4988 29.6244 16.5714 28.6997 16.5714 27.5591V15.1677Z" fill="#E6E6E6"/>
<path d="M18.6427 0.710983C17.4987 0.710983 16.5713 1.63562 16.5713 2.77622V6.92736C16.5713 8.06795 17.4987 8.9926 18.6427 8.9926H26.9284C28.0725 8.9926 28.9999 8.06795 28.9999 6.92736V2.77622C28.9999 1.63562 28.0725 0.710983 26.9284 0.710983H18.6427Z" fill="#8A8A8A"/>
<path d="M2.07143 21.3427C0.92741 21.3427 0 22.2673 0 23.408V27.5591C0 28.6997 0.92741 29.6243 2.07143 29.6243H10.3571C11.5012 29.6243 12.4286 28.6997 12.4286 27.5591V23.408C12.4286 22.2673 11.5012 21.3427 10.3571 21.3427H2.07143Z" fill="#8A8A8A"/>
</svg>
