<svg width="29" height="30" viewBox="0 0 29 30" fill="none" xmlns="http://www.w3.org/2000/svg">
<path d="M14.5 29.6244C22.5081 29.6244 29 23.1519 29 15.1677C29 7.18346 22.5081 0.710983 14.5 0.710983C6.49187 0.710983 0 7.18346 0 15.1677C0 23.1519 6.49187 29.6244 14.5 29.6244Z" fill="#E6E6E6"/>
<path fill-rule="evenodd" clip-rule="evenodd" d="M10.3572 15.1676C10.3572 16.3082 9.42979 17.2329 8.28578 17.2329C7.14178 17.2329 6.21436 16.3082 6.21436 15.1676C6.21436 14.0271 7.14178 13.1024 8.28578 13.1024C9.42979 13.1024 10.3572 14.0271 10.3572 15.1676ZM16.5715 15.1676C16.5715 16.3082 15.6441 17.2329 14.5001 17.2329C13.3561 17.2329 12.4286 16.3082 12.4286 15.1676C12.4286 14.0271 13.3561 13.1024 14.5001 13.1024C15.6441 13.1024 16.5715 14.0271 16.5715 15.1676ZM20.7144 17.2329C21.8584 17.2329 22.7858 16.3082 22.7858 15.1676C22.7858 14.0271 21.8584 13.1024 20.7144 13.1024C19.5703 13.1024 18.6429 14.0271 18.6429 15.1676C18.6429 16.3082 19.5703 17.2329 20.7144 17.2329Z" fill="#8A8A8A"/>
</svg>
