<svg width="29" height="30" viewBox="0 0 29 30" fill="none" xmlns="http://www.w3.org/2000/svg">
<path fill-rule="evenodd" clip-rule="evenodd" d="M7.25 0.710983C8.39401 0.710983 9.32143 1.63562 9.32143 2.77622V4.84146H19.6788V2.77622C19.6788 1.63562 20.6062 0.710983 21.7502 0.710983C22.8943 0.710983 23.8216 1.63562 23.8216 2.77622V4.84146H25.8929C27.6088 4.84146 29 6.22842 29 7.93932V10.0046H0V7.93932C0 6.22842 1.39112 4.84146 3.10714 4.84146H5.17857V2.77622C5.17857 1.63562 6.10599 0.710983 7.25 0.710983Z" fill="#8A8A8A"/>
<path d="M0 10.0046H29V26.5265C29 28.2373 27.6088 29.6243 25.8929 29.6243H3.10714C1.39112 29.6243 0 28.2373 0 26.5265V10.0046Z" fill="#E6E6E6"/>
<path fill-rule="evenodd" clip-rule="evenodd" d="M19.7406 15.8294C20.0447 16.0799 20.0876 16.5288 19.8362 16.832L14.0934 23.7606L14.0917 23.7627C13.9611 23.919 13.7971 24.0444 13.6118 24.1297C13.4265 24.215 13.2244 24.258 13.0203 24.2557C12.8129 24.2531 12.608 24.2037 12.4225 24.1112C12.2375 24.019 12.0759 23.8864 11.9495 23.7232C11.9491 23.7226 11.9487 23.7221 11.9482 23.7216L10.1505 21.4171C9.9083 21.1066 9.9644 20.6592 10.2758 20.4177C10.5872 20.1763 11.0359 20.2322 11.2781 20.5427L13.0378 22.7983L18.735 15.9247C18.9863 15.6215 19.4366 15.5788 19.7406 15.8294Z" fill="#8A8A8A"/>
</svg>
