<svg width="34" height="34" viewBox="0 0 34 34" fill="none" xmlns="http://www.w3.org/2000/svg">
<circle cx="17" cy="17" r="17" fill="white"/>
<path d="M12.885 8.63013C10.5932 8.63013 8.73535 10.4825 8.73535 12.7674V22.3958C8.73535 22.866 8.92272 23.317 9.25624 23.6495C9.58976 23.982 10.0421 24.1689 10.5138 24.1689L22.0287 24.1688C22.5003 24.1688 22.9526 23.982 23.2861 23.6495C23.6197 23.317 23.8071 22.866 23.8071 22.3957V21.3128V15.2042V14.1212C23.8071 13.6509 23.6197 13.1999 23.2861 12.8674C22.9526 12.5348 22.5003 12.348 22.0287 12.348H21.7752C21.7523 12.3502 21.7291 12.3513 21.7056 12.3513H12.7137C12.3044 12.3513 11.9727 12.0205 11.9727 11.6125C11.9727 11.2044 12.3044 10.8737 12.7137 10.8737H21.1844V9.22117C21.1844 8.89474 20.9189 8.63013 20.5916 8.63013H12.885Z" fill="#2927643f"/>
<path d="M24.4603 16.6819H20.3106C19.9832 16.6819 19.7178 16.9172 19.7178 17.2074V19.3097C19.7178 19.5999 19.9832 19.8353 20.3106 19.8353H24.4603C24.7877 19.8353 25.0531 19.5999 25.0531 19.3097V17.2074C25.0531 16.9172 24.7877 16.6819 24.4603 16.6819Z" fill="#292764"/>
<path fill-rule="evenodd" clip-rule="evenodd" d="M21.1844 12.3514V10.8738H12.7137C12.3044 10.8738 11.9727 11.2045 11.9727 11.6126C11.9727 12.0206 12.3044 12.3514 12.7137 12.3514H21.1844Z" fill="#292764"/>
</svg>
