<svg width="12" height="10" viewBox="0 0 12 10" fill="none" xmlns="http://www.w3.org/2000/svg">
<path fill-rule="evenodd" clip-rule="evenodd" d="M0.789286 9.44341H3.15715V5.70341L5.95702 7.51596L8.75694 5.7034V9.44341H11.1248C11.5607 9.44341 11.9141 9.09132 11.9141 8.65694V3.65958V3.38786V2.33666C11.9141 1.09227 10.5324 0.340695 9.48185 1.0136L8.75694 1.47796V1.47898L5.95702 3.27634L3.15715 1.47898V1.47796L2.43219 1.0136C1.38164 0.340695 0 1.09227 0 2.33666V3.38786V3.65958V8.65694C0 9.09132 0.353376 9.44341 0.789286 9.44341Z" fill="#9fa8c4"/>
<path fill-rule="evenodd" clip-rule="evenodd" d="M3.15715 5.70341L0 3.65958V3.38786V2.33666C0 1.09227 1.38164 0.340695 2.43219 1.0136L3.15715 1.47898V5.70341ZM11.9141 3.65958V3.38786V2.33666C11.9141 1.09227 10.5324 0.340695 9.48185 1.0136L8.75694 1.47898V5.7034L11.9141 3.65958Z" fill="#292764cb"/>
</svg>
