<svg width="47" height="47" viewBox="0 0 47 47" fill="none" xmlns="http://www.w3.org/2000/svg">
<g filter="url(#filter0_d_1_88)">
<rect x="12" y="6" width="23" height="23" rx="6" fill="white"/>
<path fill-rule="evenodd" clip-rule="evenodd" d="M17.136 18.0427C16.9547 17.8614 16.9547 17.5674 17.136 17.3861L20.386 14.1361C20.5188 14.0033 20.7185 13.9636 20.892 14.0355C21.0655 14.1074 21.1786 14.2767 21.1786 14.4644L21.1786 16.7858L29.0714 16.7858C29.5843 16.7858 30 17.2016 30 17.7144C30 18.2273 29.5843 18.643 29.0714 18.643L21.1786 18.643L21.1786 20.9644C21.1786 21.1522 21.0655 21.3215 20.892 21.3934C20.7185 21.4652 20.5188 21.4255 20.386 21.2927L17.136 18.0427Z" fill="#292764cb"/>
</g>
<defs>
<filter id="filter0_d_1_88" x="0" y="0" width="47" height="47" filterUnits="userSpaceOnUse" color-interpolation-filters="sRGB">
<feFlood flood-opacity="0" result="BackgroundImageFix"/>
<feColorMatrix in="SourceAlpha" type="matrix" values="0 0 0 0 0 0 0 0 0 0 0 0 0 0 0 0 0 0 127 0" result="hardAlpha"/>
<feOffset dy="6"/>
<feGaussianBlur stdDeviation="6"/>
<feComposite in2="hardAlpha" operator="out"/>
<feColorMatrix type="matrix" values="0 0 0 0 0 0 0 0 0 0 0 0 0 0 0 0 0 0 0.08 0"/>
<feBlend mode="normal" in2="BackgroundImageFix" result="effect1_dropShadow_1_88"/>
<feBlend mode="normal" in="SourceGraphic" in2="effect1_dropShadow_1_88" result="shape"/>
</filter>
</defs>
</svg>
