<svg width="22" height="22" viewBox="0 0 22 22" fill="none" xmlns="http://www.w3.org/2000/svg">
<path fill-rule="evenodd" clip-rule="evenodd" d="M9.86448 0.814697C10.6075 0.814697 11.3391 0.924903 12.0376 1.13626C11.5588 2.00799 11.2864 3.00917 11.2864 4.07396C11.2864 7.43908 14.0064 10.1689 17.3677 10.185V13.8138C17.3677 14.1144 17.4872 14.4026 17.6997 14.6151C17.9122 14.8276 18.2003 14.947 18.5008 14.947C19.176 14.947 19.723 15.4942 19.723 16.1692C19.723 16.8442 19.176 17.3915 18.5008 17.3915H1.22808C0.553066 17.3915 0.00585938 16.8442 0.00585938 16.1692C0.00585938 15.4942 0.553066 14.947 1.22808 14.947C1.52862 14.947 1.81683 14.8276 2.02935 14.6151C2.24186 14.4026 2.36124 14.1144 2.36124 13.8138V8.31794C2.36124 6.32796 3.15176 4.41947 4.5589 3.01235C5.96602 1.60522 7.87451 0.814697 9.86448 0.814697ZM8.23487 19.5554C7.55986 19.5554 7.01265 20.1027 7.01265 20.7777C7.01265 21.4527 7.55986 21.9999 8.23487 21.9999H11.4941C12.1692 21.9999 12.7164 21.4527 12.7164 20.7777C12.7164 20.1027 12.1692 19.5554 11.4941 19.5554H8.23487Z" fill="#CFC3F6"/>
<path d="M17.3973 8.14815C19.6473 8.14815 21.4714 6.32412 21.4714 4.07407C21.4714 1.82403 19.6473 0 17.3973 0C15.1473 0 13.3232 1.82403 13.3232 4.07407C13.3232 6.32412 15.1473 8.14815 17.3973 8.14815Z" fill="#643DE3"/>
</svg>
