<svg width="12" height="12" viewBox="0 0 12 12" fill="none" xmlns="http://www.w3.org/2000/svg">
<path d="M4.302 11.3006C3.74517 11.6599 3.08162 11.8164 2.42294 11.7439C1.76425 11.6715 1.15059 11.3745 0.685162 10.9028L0.278268 10.5049C0.0998809 10.3224 0 10.0774 0 9.82224C0 9.56701 0.0998809 9.32196 0.278268 9.13949L2.00531 7.43058C2.18624 7.25275 2.42978 7.15311 2.68347 7.15311C2.93716 7.15311 3.18069 7.25275 3.36163 7.43058C3.54409 7.60896 3.78913 7.70884 4.04431 7.70884C4.29948 7.70884 4.54452 7.60896 4.72698 7.43058L7.43961 4.71794C7.53011 4.62877 7.60196 4.52249 7.65102 4.40529C7.70006 4.28809 7.72532 4.16231 7.72532 4.03526C7.72532 3.90821 7.70006 3.78243 7.65102 3.66523C7.60196 3.54803 7.53011 3.44176 7.43961 3.35258C7.2618 3.17164 7.16216 2.92811 7.16216 2.67442C7.16216 2.42074 7.2618 2.1772 7.43961 1.99626L9.15759 0.278268C9.34005 0.0998809 9.58511 0 9.84033 0C10.0955 0 10.3405 0.0998809 10.523 0.278268L10.9208 0.685166C11.3925 1.1506 11.6895 1.76425 11.762 2.42293C11.8344 3.08162 11.6779 3.74517 11.3187 4.30201C9.44689 7.06051 7.06533 9.43592 4.302 11.3006Z" fill="#292764"/>
</svg>
