<?xml version="1.0" encoding="UTF-8"?>
<svg version="1.1" xmlns="http://www.w3.org/2000/svg" width="205" height="196">
<path d="M0 0 C67.65 0 135.3 0 205 0 C205 64.68 205 129.36 205 196 C137.35 196 69.7 196 0 196 C0 131.32 0 66.64 0 0 Z " fill="#FEFEFD" transform="translate(0,0)"/>
<path d="M0 0 C67.65 0 135.3 0 205 0 C205 64.68 205 129.36 205 196 C137.35 196 69.7 196 0 196 C0 131.32 0 66.64 0 0 Z M46 28 C45.15050781 28.68707031 44.30101563 29.37414062 43.42578125 30.08203125 C26.86340017 44.15878699 16.25026907 64.61510695 13 86 C12.7433941 89.44383491 12.71215238 92.86034773 12.75 96.3125 C12.75821777 97.23184326 12.76643555 98.15118652 12.77490234 99.09838867 C13.17454645 123.53469181 22.79518276 145.07861927 39.6328125 162.765625 C57.52302638 179.7691519 79.97836468 188.71875238 104.47143555 188.33203125 C130.24610911 187.53406845 152.89183295 177.01744409 170.6875 158.25 C188.32092116 137.84561265 194.30034638 113.41328577 193 87 C192.64142657 83.20808599 192.00184376 79.6714968 191 76 C190.76667969 75.10023437 190.53335938 74.20046875 190.29296875 73.2734375 C183.58283016 50.53863004 168.76014944 31.97993652 148.484375 19.890625 C115.15890965 1.80819761 75.63351568 3.49984924 46 28 Z " fill="#F2CF70" transform="translate(0,0)"/>
<path d="M0 0 C2.50744011 2.50744011 3.80428882 4.0214441 4.5 7.5 C3.78070905 11.09645475 2.68026035 12.44737109 0 15 C-10.51461897 21.82138428 -21.92521755 23.2498535 -34.1875 23.3125 C-35.10176758 23.31805908 -36.01603516 23.32361816 -36.95800781 23.3293457 C-47.93016627 23.21369322 -59.87902149 21.2823652 -68.90625 14.5859375 C-71.41728989 11.97724606 -71.99389131 10.08552172 -72.25 6.5 C-70.54628686 1.7296032 -68.33585976 -0.44862674 -64 -3 C-45.2263491 -10.88091762 -17.23717152 -12.36579696 0 0 Z " fill="#FFC10A" transform="translate(124,87)"/>
<path d="M0 0 C2.41980625 2.31459728 2.96050445 3.43118769 4.125 6.75 C3.875 10.1875 3.875 10.1875 2.0625 12.8125 C-6.35873088 19.08714262 -17.37468883 23.98292667 -28.09375 22.8828125 C-31.55422116 22.08904463 -34.95601626 21.14425265 -38.375 20.1875 C-45.29907185 18.31429347 -51.92741598 17.68734394 -59.09667969 17.77929688 C-63.13706923 17.73191297 -64.86678395 17.40250581 -68.01953125 14.77734375 C-69.06173828 13.49537109 -69.06173828 13.49537109 -70.125 12.1875 C-70.785 11.5275 -71.445 10.8675 -72.125 10.1875 C-72.19046999 6.78306053 -71.9819689 4.29267635 -69.84375 1.53515625 C-53.46469487 -13.64637363 -17.35158181 -13.22529102 0 0 Z " fill="#FFC20B" transform="translate(149.125,55.8125)"/>
<path d="M0 0 C0.53882813 0.2784375 1.07765625 0.556875 1.6328125 0.84375 C20.99413879 10.30076746 41.30896925 10.94830907 62 6 C65.15302811 4.8924087 68.05004387 3.557842 71 2 C72.66194738 1.32165413 74.32598903 0.64800425 76 0 C76.58752027 4.79808221 76.75911463 8.7642429 73.75 12.75 C64.43291546 22.13239121 49.51867585 22.97546706 37.0625 23.3125 C24.96458509 23.09525349 10.83060172 21.23047839 1.875 12.25 C-0.56795593 8.01554305 -0.47702052 4.77020517 0 0 Z " fill="#FFC30F" transform="translate(52,125)"/>
<path d="M0 0 C0.08204828 1.39482079 0.13966204 2.79108728 0.1875 4.1875 C0.23970703 5.35345703 0.23970703 5.35345703 0.29296875 6.54296875 C-0.08838853 9.74128512 -1.0528262 11.43858898 -3 14 C-17.88513306 24.40281441 -37.70436491 24.86672416 -55 21.8125 C-62.57224941 20.07567109 -69.23704157 17.9603126 -74.625 12.1875 C-76.38106559 8.11662067 -76.30333321 5.39833153 -76 1 C-72.59726256 1.71425385 -69.66117371 3.00562427 -66.5 4.4375 C-49.55956079 11.46554792 -28.13795404 11.49416418 -11 5 C-8.18352985 3.74784136 -5.46038366 2.43374154 -2.7578125 0.953125 C-1 0 -1 0 0 0 Z " fill="#FFC20E" transform="translate(128,106)"/>
<path d="M0 0 C0.59920084 4.89347355 0.74133962 8.78576903 -2.375 12.8125 C-6.15719945 16.68475182 -10.82224893 18.62439287 -16 20 C-17.32 20 -18.64 20 -20 20 C-20.45572917 18.01432292 -20.91145833 16.02864583 -21.3671875 14.04296875 C-21.98007723 11.72257026 -21.98007723 11.72257026 -24 9 C-20.98362915 7.98703964 -17.96531037 6.98909881 -14.9296875 6.03515625 C-13.92164063 5.71417969 -12.91359375 5.39320312 -11.875 5.0625 C-10.35519531 4.58490234 -10.35519531 4.58490234 -8.8046875 4.09765625 C-5.6887366 2.87818243 -3.27959809 0 0 0 Z " fill="#FFC413" transform="translate(153,75)"/>
<path d="M0 0 C0.48648067 4.86480669 0.58235961 8.03546689 -2 12.3125 C-6.9913355 17.38843441 -13.05264163 19.42105347 -20 20 C-20 16.04 -20 12.08 -20 8 C-18.329375 7.4121875 -18.329375 7.4121875 -16.625 6.8125 C-12.27243409 5.19583266 -8.20926023 3.14386876 -4.1015625 0.98828125 C-2 0 -2 0 0 0 Z " fill="#FFC415" transform="translate(153,94)"/>
</svg>
