<svg width="22" height="22" viewBox="0 0 22 22" fill="none" xmlns="http://www.w3.org/2000/svg">
<g clip-path="url(#clip0_1_131)">
<path d="M9.42843 17.2858C13.7678 17.2858 17.2856 13.7681 17.2856 9.42868C17.2856 5.0893 13.7678 1.57153 9.42843 1.57153C5.08905 1.57153 1.57129 5.0893 1.57129 9.42868C1.57129 13.7681 5.08905 17.2858 9.42843 17.2858Z" fill="#F0ECFC"/>
<path fill-rule="evenodd" clip-rule="evenodd" d="M3.14286 9.42857C3.14286 5.95707 5.95707 3.14286 9.42857 3.14286C12.9001 3.14286 15.7143 5.95707 15.7143 9.42857C15.7143 12.9001 12.9001 15.7143 9.42857 15.7143C5.95707 15.7143 3.14286 12.9001 3.14286 9.42857ZM9.42857 0C4.22131 0 0 4.22131 0 9.42857C0 14.6358 4.22131 18.8571 9.42857 18.8571C11.4648 18.8571 13.3503 18.2116 14.8915 17.1141L19.3174 21.54C19.9311 22.1537 20.9261 22.1537 21.5397 21.54C22.1534 20.9264 22.1534 19.9314 21.5397 19.3177L17.114 14.8919C18.2116 13.3506 18.8571 11.465 18.8571 9.42857C18.8571 4.22131 14.6358 0 9.42857 0Z" fill="#643DE3"/>
</g>
<defs>
<clipPath id="clip0_1_131">
<rect width="22" height="22" fill="white"/>
</clipPath>
</defs>
</svg>
