<svg width="30" height="30" viewBox="0 0 30 30" fill="none" xmlns="http://www.w3.org/2000/svg">
<path fill-rule="evenodd" clip-rule="evenodd" d="M27.1875 9.375C27.1875 8.33921 26.3484 7.5 25.3125 7.5C20.7722 7.5 9.22781 7.5 4.6875 7.5C3.65156 7.5 2.8125 8.33921 2.8125 9.375C2.8125 12.2566 2.8125 17.7434 2.8125 20.625C2.8125 21.6608 3.65156 22.5 4.6875 22.5C9.22781 22.5 20.7722 22.5 25.3125 22.5C26.3484 22.5 27.1875 21.6608 27.1875 20.625C27.1875 17.7434 27.1875 12.2566 27.1875 9.375Z" fill="#90E0EF"/>
<path fill-rule="evenodd" clip-rule="evenodd" d="M28.125 9.375C28.125 7.82156 26.8659 6.5625 25.3125 6.5625H4.6875C3.13406 6.5625 1.875 7.82156 1.875 9.375V20.625C1.875 22.1784 3.13406 23.4375 4.6875 23.4375H25.3125C26.8659 23.4375 28.125 22.1784 28.125 20.625V9.375ZM26.25 9.375V20.625C26.25 21.1425 25.83 21.5625 25.3125 21.5625H4.6875C4.17 21.5625 3.75 21.1425 3.75 20.625V9.375C3.75 8.8575 4.17 8.4375 4.6875 8.4375H25.3125C25.83 8.4375 26.25 8.8575 26.25 9.375ZM22.5 19.6875H23.4375C23.955 19.6875 24.375 19.2675 24.375 18.75C24.375 18.2325 23.955 17.8125 23.4375 17.8125H22.5C21.9825 17.8125 21.5625 18.2325 21.5625 18.75C21.5625 19.2675 21.9825 19.6875 22.5 19.6875ZM15 10.3125C12.4125 10.3125 10.3125 12.4125 10.3125 15C10.3125 17.5875 12.4125 19.6875 15 19.6875C17.5875 19.6875 19.6875 17.5875 19.6875 15C19.6875 12.4125 17.5875 10.3125 15 10.3125ZM15 12.1875C16.5525 12.1875 17.8125 13.4475 17.8125 15C17.8125 16.5525 16.5525 17.8125 15 17.8125C13.4475 17.8125 12.1875 16.5525 12.1875 15C12.1875 13.4475 13.4475 12.1875 15 12.1875ZM6.5625 12.1875H7.5C8.0175 12.1875 8.4375 11.7675 8.4375 11.25C8.4375 10.7325 8.0175 10.3125 7.5 10.3125H6.5625C6.045 10.3125 5.625 10.7325 5.625 11.25C5.625 11.7675 6.045 12.1875 6.5625 12.1875Z" fill="var(--green-light)"/>
</svg>
