<svg width="146" height="78" viewBox="0 0 146 78" fill="none" xmlns="http://www.w3.org/2000/svg">
<rect x="0.5" y="0.5" width="145" height="77" rx="13.5" fill="white" stroke="#CFC3F6"/>
<g clip-path="url(#clip0_795_218)">
<path fill-rule="evenodd" clip-rule="evenodd" d="M42 8H103V69H42V8Z" fill="white"/>
<path fill-rule="evenodd" clip-rule="evenodd" d="M44.6834 64.2342H44.5094C44.5094 64.1456 44.4651 64.0158 44.4651 63.9715C44.4651 63.9272 44.4651 63.8418 44.3353 63.8418H44.0727V64.2342H43.9429V63.3165H44.3353C44.5094 63.3165 44.6423 63.3608 44.6423 63.5348C44.6423 63.6646 44.598 63.7089 44.5537 63.7532C44.598 63.7975 44.6423 63.8418 44.6423 63.9272V64.1013C44.6423 64.1308 44.657 64.1456 44.6866 64.1456V64.2342H44.6834ZM44.5094 63.5791C44.5094 63.4494 44.4208 63.4494 44.3796 63.4494H44.0727V63.712H44.3353C44.4239 63.712 44.5094 63.6677 44.5094 63.5823V63.5791ZM45.253 63.7532C45.253 63.2278 44.8163 62.7911 44.2499 62.7911C43.7246 62.7911 43.291 63.2278 43.291 63.7532C43.291 64.3196 43.7277 64.7563 44.2499 64.7563C44.8163 64.7563 45.253 64.3196 45.253 63.7532ZM45.1233 63.7532C45.1233 64.2342 44.7309 64.5823 44.2499 64.5823C43.7689 64.5823 43.4208 64.2342 43.4208 63.7532C43.4208 63.3165 43.7689 62.924 44.2499 62.924C44.7309 62.924 45.1233 63.3165 45.1233 63.7532Z" fill="#0078A9"/>
<path fill-rule="evenodd" clip-rule="evenodd" d="M98.905 46.1171C98.905 47.4272 98.0759 48.0379 96.5917 48.0379H93.7531V46.7278H96.5917C96.8544 46.7278 97.0727 46.6835 97.1582 46.5981C97.2468 46.5095 97.3322 46.3797 97.3322 46.2057C97.3322 46.0316 97.2436 45.8576 97.1582 45.769C97.0695 45.6804 96.8955 45.6392 96.6328 45.6392C95.2784 45.5949 93.5759 45.6835 93.5759 43.7626C93.5759 42.8892 94.1423 41.9304 95.6708 41.9304H98.5949V43.2405H95.8892C95.6265 43.2405 95.4525 43.2405 95.3227 43.3291C95.193 43.4588 95.1044 43.5917 95.1044 43.8101C95.1044 44.0285 95.2341 44.1582 95.4113 44.2468C95.5854 44.2911 95.7594 44.3354 95.9778 44.3354H96.7626C97.5917 44.3354 98.117 44.5095 98.4651 44.8164C98.7278 45.1234 98.9018 45.5158 98.9018 46.1266L98.905 46.1171ZM92.7499 44.8069C92.4018 44.5 91.8765 44.3259 91.0474 44.3259H90.2626C90.0442 44.3259 89.8702 44.2816 89.6961 44.2373C89.5221 44.1487 89.3892 44.019 89.3892 43.8006C89.3892 43.5823 89.4335 43.4525 89.6075 43.3196C89.7373 43.231 89.9145 43.231 90.174 43.231H92.8797V41.9209H89.9556C88.3828 41.9209 87.8607 42.8797 87.8607 43.7531C87.8607 45.674 89.5632 45.5854 90.9177 45.6297C91.1803 45.6297 91.3544 45.674 91.443 45.7595C91.5316 45.8481 91.617 46.0221 91.617 46.1962C91.617 46.3702 91.5284 46.5031 91.443 46.5886C91.3132 46.6772 91.136 46.7183 90.8765 46.7183H88.0379V48.0285H90.8765C92.3607 48.0285 93.1898 47.4177 93.1898 46.1076C93.1898 45.4968 93.0158 45.1044 92.7531 44.7974L92.7499 44.8069ZM87.1613 46.7721H83.712V45.5506H87.0727V44.3291H83.712V43.193H87.1613V41.9272H82.2721V48.0379H87.1613V46.7721ZM80.6993 42.231C80.2183 41.9683 79.6518 41.924 78.9082 41.924H75.5474V48.0348H77.0316V45.8069H78.6044C79.1297 45.8069 79.4335 45.8512 79.6518 46.0696C79.9145 46.3766 79.9145 46.8987 79.9145 47.2911V48.0348H81.3544V46.8576C81.3544 46.2911 81.3101 46.0285 81.136 45.7215C81.0063 45.5474 80.7436 45.3291 80.3923 45.1962C80.7847 45.0664 81.4398 44.5411 81.4398 43.5823C81.4398 42.8829 81.1771 42.4905 80.6961 42.2278L80.6993 42.231ZM72.405 41.924H67.7341L65.8575 43.9335L64.0664 41.924H58.174V48.0348H63.9809L65.8575 46.0253L67.6487 48.0348H70.4873V45.9841H72.3195C73.5854 45.9841 74.8512 45.6361 74.8512 43.9335C74.8512 42.231 73.5411 41.924 72.4082 41.924H72.405ZM79.5221 44.4557C79.3037 44.5443 79.0854 44.5443 78.8227 44.5443L77.0316 44.5886V43.193H78.8227C79.0854 43.193 79.348 43.193 79.5221 43.3228C79.6961 43.4114 79.829 43.5854 79.829 43.8481C79.829 44.1107 79.6993 44.3291 79.5221 44.4588V44.4557ZM72.405 44.7626H70.4841V43.1898H72.405C72.9303 43.1898 73.2784 43.4082 73.2784 43.9335C73.2784 44.4588 72.9303 44.7626 72.405 44.7626ZM66.7721 44.981L69.0411 42.5791V47.5126L66.7721 44.981ZM63.2373 46.7721H59.6139V45.5506H62.8449V44.3291H59.6139V43.193H63.2816L64.8955 44.9842L63.2373 46.7753V46.7721ZM94.8449 37.5158H92.7499L89.9999 32.9335V37.5158H87.0316L86.4651 36.1614H83.4082L82.8417 37.5158H81.1392C80.4398 37.5158 79.5252 37.3417 78.9999 36.8164C78.5189 36.2911 78.2563 35.5949 78.2563 34.5031C78.2563 33.5854 78.386 32.7563 79.0411 32.1012C79.4778 31.6202 80.2626 31.4019 81.2689 31.4019H82.6645V32.712H81.2689C80.7436 32.712 80.4398 32.8006 80.1328 33.0601C79.8702 33.3228 79.7404 33.8038 79.7404 34.4557C79.7404 35.1076 79.8702 35.5917 80.1328 35.8955C80.3512 36.1139 80.7436 36.2025 81.136 36.2025H81.7911L83.886 31.4019H86.0695L88.5158 37.1645V31.4019H90.7847L93.3607 35.636V31.4019H94.8449V37.5126V37.5158ZM77.5126 31.405H76.0284V37.5158H77.5126V31.405ZM74.4145 31.6677C73.9335 31.405 73.4113 31.405 72.6677 31.405H69.3069V37.5158H70.7468V35.2879H72.3195C72.8449 35.2879 73.193 35.3323 73.4113 35.5506C73.674 35.8576 73.6297 36.3797 73.6297 36.7278V37.5126H75.1139V36.2911C75.1139 35.7658 75.0695 35.5063 74.8512 35.1993C74.7214 35.0253 74.4588 34.8069 74.1518 34.674C74.5442 34.5 75.1993 34.019 75.1993 33.0601C75.1993 32.3607 74.8923 31.9683 74.4145 31.6645V31.6677ZM68.2594 36.25H64.8544V35.0285H68.2151V33.7626H64.8544V32.6709H68.2594V31.405H63.3702V37.5158H68.2594V36.25ZM62.2784 31.405H59.8765L58.0854 35.5538L56.1645 31.405H53.8069V37.1677L51.3195 31.405H49.136L46.5157 37.5158H48.0885L48.655 36.1614H51.712L52.2784 37.5158H55.2468V32.7152L57.386 37.5158H58.6518L60.7911 32.7152V37.5158H62.2752V31.405H62.2784ZM85.9398 34.8544L84.9366 32.4525L83.9335 34.8544H85.943H85.9398ZM73.2784 33.8924C73.0601 34.0221 72.8417 34.0221 72.5347 34.0221H70.7436V32.6677H72.5347C72.7974 32.6677 73.1012 32.6677 73.2784 32.7563C73.4525 32.8861 73.5411 33.0633 73.5411 33.3228C73.5411 33.5823 73.4525 33.8038 73.2784 33.8892V33.8924ZM49.1803 34.8544L50.1835 32.4525L51.1866 34.8544H49.1771H49.1803ZM98.5537 12.2405H46.4746V34.2436L48.2657 30.1835H52.0632L52.5885 31.1867V30.1835H57.0411L58.0442 32.3671L59.0031 30.1835H73.1898C73.8449 30.1835 74.4113 30.3133 74.848 30.6645V30.1835H78.7341V30.6645C79.3892 30.3164 80.2183 30.1835 81.1803 30.1835H86.8132L87.3385 31.1867V30.1835H91.4873L92.098 31.1867V30.1835H96.1582V38.7405H92.0537L91.2689 37.4304V38.7405H86.1613L85.5949 37.3449H84.329L83.7626 38.7405H81.1012C80.0537 38.7405 79.2689 38.4778 78.7436 38.2152V38.7405H72.4145V36.7753C72.4145 36.5126 72.3702 36.4683 72.1961 36.4683H71.9778V38.7373H59.7468V37.6455L59.3101 38.7373H56.7341L56.2974 37.6898V38.7373H51.3639L50.8385 37.3417H49.5727L49.0063 38.7373H46.4746V64.538H98.5537V48.8671C97.9873 49.1297 97.1993 49.2595 96.4145 49.2595H92.617V48.7342C92.1803 49.0823 91.3955 49.2595 90.6518 49.2595H78.6898V47.2943C78.6898 47.0316 78.6455 47.0316 78.4271 47.0316H78.2088V49.2595H74.2784V46.9462C73.6233 47.2531 72.8828 47.2531 72.2278 47.2531H71.7911V49.2626H66.9904L65.8544 47.9525L64.5885 49.2626H56.8607V40.7057H64.7183L65.8544 42.0158L67.0759 40.7057H72.3575C72.9683 40.7057 73.9714 40.7943 74.4082 41.231V40.7057H79.1233C79.6044 40.7057 80.5189 40.7943 81.1328 41.231V40.7057H88.2499V41.231C88.6423 40.8829 89.386 40.7057 90.0411 40.7057H94.0126V41.231C94.4493 40.924 95.0601 40.7057 95.8449 40.7057H98.5506V12.2405H98.5537Z" fill="#0078A9"/>
</g>
<defs>
<clipPath id="clip0_795_218">
<rect width="61" height="61" fill="white" transform="translate(42 8)"/>
</clipPath>
</defs>
</svg>
