<svg width="146" height="78" viewBox="0 0 146 78" fill="none" xmlns="http://www.w3.org/2000/svg">
<rect x="0.5" y="0.5" width="145" height="77" rx="13.5" fill="white" stroke="#CFC3F6"/>
<path d="M27.5984 36.0187C27.5984 35.5332 27.5487 35.0784 27.4474 34.6541C27.3461 34.2317 27.1416 33.9011 26.8301 33.666L29.3165 33.2896V40.6283C29.3165 40.7067 29.3566 40.7449 29.433 40.7449C29.4789 40.7449 29.5898 40.6474 29.7599 40.4487C29.9299 40.2537 30.1535 40.0397 30.4249 39.8104C30.6963 39.581 31.025 39.3689 31.4073 39.172C31.7895 38.9752 32.2214 38.8758 32.7049 38.8758C33.4063 38.8758 33.9988 39.044 34.4804 39.3823C34.9639 39.7205 35.3499 40.1505 35.6385 40.678C35.9271 41.2055 36.1373 41.7865 36.2692 42.421C36.403 43.0555 36.4679 43.6804 36.4679 44.292C36.4679 45.0774 36.3724 45.8228 36.1775 46.5299C35.9825 47.2351 35.6882 47.8562 35.2907 48.3914C34.8951 48.9246 34.3867 49.3488 33.7637 49.6604C33.1426 49.9757 32.4049 50.1324 31.5506 50.1324C31.176 50.1324 30.8358 50.1133 30.5243 50.0732C30.2128 50.0349 29.907 49.991 29.6031 49.9432C29.3012 49.8954 28.982 49.8534 28.6476 49.8132C28.3131 49.775 27.9366 49.754 27.5162 49.754C27.541 48.7659 27.562 47.7817 27.5754 46.8013C27.5888 45.8228 27.5945 44.8386 27.5945 43.8505V36.0187H27.5984ZM34.4402 43.1835C34.3389 42.6579 34.1841 42.184 33.9739 41.7578C33.7637 41.3354 33.4827 40.9876 33.133 40.722C32.7833 40.4563 32.3686 40.3206 31.885 40.3206C31.0594 40.3206 30.4268 40.6474 29.9835 41.2972C29.5401 41.9489 29.3184 42.8414 29.3184 43.9709V45.7846C29.3184 46.2566 29.3413 46.7019 29.3872 47.1281C29.433 47.5505 29.5382 47.9193 29.7025 48.2346C29.8669 48.5462 30.1039 48.7984 30.4135 48.9876C30.725 49.1768 31.1531 49.2705 31.6977 49.2705C32.2883 49.2705 32.7756 49.1272 33.1559 48.8367C33.5363 48.5462 33.8344 48.1773 34.0427 47.7301C34.2529 47.2829 34.3963 46.7917 34.4746 46.2585C34.5511 45.7253 34.5912 45.2151 34.5912 44.7277C34.5912 44.2404 34.5415 43.711 34.4402 43.1854V43.1835Z" fill="#D83868"/>
<path d="M39.3305 37.8475C39.3305 37.3162 39.3114 36.7735 39.2713 36.2173C39.2312 35.6631 39.0821 35.1815 38.8184 34.7744H41.9526C41.6889 35.1796 41.5379 35.6593 41.4978 36.2154C41.4576 36.7696 41.4385 37.3124 41.4385 37.8437V41.4959C41.7176 41.45 42.008 41.3162 42.3119 41.0984C42.6139 40.8805 42.9254 40.6149 43.2426 40.3014C43.5618 39.9899 43.8752 39.6497 44.1867 39.2828C44.4964 38.9159 44.8002 38.5604 45.0945 38.2164C45.7309 37.4672 46.2355 36.8499 46.6082 36.3664C46.9808 35.8829 47.1681 35.5006 47.1681 35.2197V34.9617C47.1681 34.8833 47.1605 34.8222 47.1452 34.7744H50.0329C49.4902 35.2579 48.9799 35.7032 48.5059 36.1084C48.032 36.5136 47.5408 36.999 47.0286 37.5609L43.4185 41.494L47.2847 47.0611C47.5943 47.516 47.9364 47.9727 48.3091 48.4352C48.6817 48.8977 49.0468 49.3335 49.4042 49.7386H46.9579C46.74 49.7386 46.5699 49.6794 46.4457 49.5628C46.3215 49.4462 46.1973 49.2914 46.073 49.1041L41.8819 42.719C41.8341 42.6407 41.7749 42.5585 41.7061 42.4725C41.6373 42.3865 41.58 42.3425 41.5322 42.3425C41.4844 42.3425 41.4576 42.3674 41.45 42.4132C41.4424 42.4591 41.4385 42.5069 41.4385 42.5547V46.6636C41.4385 47.1968 41.4576 47.7396 41.4978 48.2976C41.536 48.8519 41.6889 49.3335 41.9526 49.7405H38.8184C39.0821 49.3335 39.2331 48.8538 39.2713 48.2976C39.3095 47.7434 39.3305 47.2006 39.3305 46.6693V37.8494V37.8475Z" fill="#231F20"/>
<path d="M56.4762 49.8954C56.3691 49.4578 56.3023 49.1042 56.2793 48.8386C56.2564 48.5729 56.1991 48.4411 56.1073 48.4411C56.0595 48.4411 56.029 48.4487 56.0137 48.464C55.9984 48.4793 55.9812 48.4946 55.9678 48.5099C55.8111 48.7296 55.6582 48.938 55.511 49.1329C55.362 49.3297 55.1862 49.4998 54.9836 49.6489C54.781 49.798 54.5383 49.9145 54.2573 50.0006C53.9764 50.0866 53.6324 50.1305 53.2272 50.1305C52.415 50.1305 51.7289 49.9107 51.167 49.4731C50.6052 49.0354 50.3242 48.3856 50.3242 47.5237C50.3242 47.0058 50.4676 46.5643 50.7542 46.1955C51.0428 45.8266 51.4002 45.5017 51.8283 45.2208C52.2564 44.9379 52.7151 44.6914 53.2062 44.4812C53.6974 44.269 54.1369 44.0703 54.5268 43.8811C54.8536 43.7244 55.1269 43.5906 55.3429 43.4797C55.5607 43.3689 55.7327 43.2428 55.857 43.1013C55.9812 42.9599 56.0672 42.7784 56.1131 42.5586C56.1589 42.3369 56.1838 42.0388 56.1838 41.6603C56.1838 41.0774 56.0519 40.5863 55.7882 40.1849C55.5244 39.7817 55.0505 39.581 54.3663 39.581C53.8063 39.581 53.4203 39.6995 53.2024 39.9327C52.9845 40.1677 52.8183 40.4257 52.7017 40.7086C52.5851 40.9914 52.457 41.2494 52.3175 41.4845C52.178 41.7196 51.9219 41.8362 51.5493 41.8362C51.2836 41.8362 51.0734 41.7712 50.9186 41.6355C50.7638 41.5036 50.6873 41.2953 50.6873 41.0144C50.6873 40.6226 50.8192 40.2901 51.0829 40.0168C51.3467 39.7435 51.6792 39.5199 52.0844 39.3479C52.4876 39.1759 52.9348 39.0555 53.4241 38.9848C53.9133 38.914 54.3816 38.8796 54.8326 38.8796C55.2511 38.8796 55.6467 38.9064 56.0194 38.9618C56.3921 39.0172 56.717 39.1147 56.996 39.2561C57.275 39.3976 57.4948 39.5944 57.6573 39.8448C57.8197 40.097 57.9019 40.4105 57.9019 40.787V45.9642C57.9019 46.6694 57.921 47.3555 57.9592 48.0225C57.9974 48.6895 58.1962 49.2667 58.5536 49.7521L56.4723 49.8973L56.4762 49.8954ZM52.7819 48.3914C53.1164 48.6647 53.5502 48.8023 54.0796 48.8023C54.4217 48.8023 54.7275 48.7296 54.9912 48.5806C55.2569 48.4334 55.4786 48.2385 55.6582 47.9958C55.8379 47.7531 55.9716 47.4759 56.0557 47.1644C56.1417 46.851 56.1857 46.5318 56.1857 46.205V43.841L54.9224 44.4735C54.4848 44.6914 54.1025 44.8902 53.7757 45.0698C53.4489 45.2514 53.1718 45.4368 52.9463 45.6317C52.7208 45.8266 52.5526 46.0464 52.4437 46.2891C52.3328 46.5318 52.2793 46.8147 52.2793 47.1434C52.2793 47.7053 52.4456 48.1219 52.7819 48.3952V48.3914Z" fill="#231F20"/>
<path d="M62.364 42.1955C62.6048 42.5089 62.9029 42.7879 63.2603 43.0325C63.6177 43.2753 64.0056 43.5046 64.4242 43.7148C64.8427 43.927 65.2307 44.1697 65.5881 44.443C65.9454 44.7182 66.2436 45.0354 66.4844 45.3985C66.7252 45.7597 66.8456 46.2146 66.8456 46.7631C66.8456 47.3116 66.7252 47.8199 66.4844 48.2366C66.2436 48.6513 65.9244 49.001 65.5269 49.2839C65.1294 49.5667 64.686 49.7769 64.1968 49.9184C63.7075 50.0598 63.2125 50.1305 62.7156 50.1305C62.2474 50.1305 61.8078 50.0866 61.3969 50.0006C60.9841 49.9145 60.5599 49.7846 60.1241 49.6126C59.9999 49.5667 59.9024 49.5094 59.8336 49.4482C59.7648 49.3852 59.7285 49.2667 59.7285 49.0947C59.7285 48.8118 59.7438 48.529 59.7744 48.248C59.805 47.9652 59.8298 47.6747 59.8451 47.3766C60.0305 47.6728 60.2082 47.9384 60.3802 48.1716C60.5503 48.4067 60.7452 48.6035 60.9631 48.7679C61.181 48.9322 61.4275 49.0564 61.6989 49.1424C61.9703 49.2284 62.3028 49.2724 62.6908 49.2724C63.3922 49.2724 63.933 49.108 64.3152 48.7793C64.6975 48.4506 64.8886 47.948 64.8886 47.2734C64.8886 46.8032 64.7758 46.4076 64.5522 46.0865C64.3267 45.7655 64.0439 45.4826 63.7018 45.2399C63.3597 44.9953 62.987 44.7679 62.5838 44.5576C62.1786 44.3455 61.8078 44.1028 61.4657 43.8295C61.1236 43.5562 60.8408 43.2256 60.6153 42.8414C60.3898 42.4573 60.277 41.9757 60.277 41.3947C60.277 40.5022 60.5904 39.8581 61.2192 39.4683C61.848 39.0765 62.7137 38.8796 63.8145 38.8796C64.1719 38.8796 64.5255 38.9064 64.8752 38.9618C65.2249 39.0172 65.5766 39.0841 65.934 39.1625C65.9646 39.1778 66.0238 39.1988 66.1079 39.2217C66.1939 39.2447 66.2359 39.2963 66.2359 39.3746C66.2359 39.5944 66.2302 39.8543 66.2245 40.1525C66.2168 40.4506 66.2054 40.7239 66.1901 40.9762C65.9569 40.6933 65.7505 40.4602 65.5728 40.2805C65.395 40.0989 65.2116 39.9575 65.0262 39.8562C64.8389 39.7549 64.6459 39.6842 64.4433 39.6441C64.2407 39.6059 64.0076 39.5848 63.7438 39.5848C63.2928 39.5848 62.8895 39.6995 62.5322 39.9269C62.1748 40.1544 61.997 40.5213 61.997 41.0201C61.997 41.4922 62.1174 41.8839 62.3582 42.1974L62.364 42.1955Z" fill="#231F20"/>
<path d="M76.9691 47.2007C76.9691 47.6402 76.9844 48.0913 77.0149 48.5538C77.0474 49.0144 77.1544 49.41 77.3417 49.7406H75.251V43.2867C75.251 42.9102 75.2318 42.5318 75.1917 42.1553C75.1535 41.7769 75.0579 41.4405 74.9089 41.1424C74.7598 40.8442 74.5496 40.5996 74.2744 40.4123C73.9992 40.225 73.6284 40.1295 73.1583 40.1295C72.6881 40.1295 72.3135 40.225 72.0307 40.4123C71.7478 40.5996 71.5242 40.8519 71.3618 41.1653C71.1974 41.4787 71.0866 41.8323 71.0312 42.226C70.9757 42.6178 70.949 43.0096 70.949 43.4033V47.1949C70.949 47.6345 70.9643 48.0855 70.9968 48.5499C71.0293 49.0144 71.1573 49.41 71.3809 49.7387H68.8123C69.0302 49.41 69.1525 49.0144 69.185 48.5519C69.2156 48.0894 69.2309 47.6402 69.2309 47.2007V36.0148C69.2309 35.5294 69.2079 35.0745 69.1621 34.6522C69.1162 34.2298 68.9366 33.8992 68.627 33.6641L70.9509 33.2876V39.9326C70.9509 40.0263 70.9547 40.1123 70.9605 40.1906C70.9662 40.269 70.9891 40.3072 71.0293 40.3072C71.0751 40.3072 71.1649 40.2327 71.2987 40.0836C71.4325 39.9345 71.6236 39.7702 71.874 39.5905C72.1243 39.4109 72.4339 39.2465 72.8028 39.0975C73.1697 38.9484 73.6055 38.8739 74.1062 38.8739C74.9968 38.8739 75.6982 39.1089 76.2065 39.5791C76.7149 40.0492 76.9691 40.8328 76.9691 41.9298V47.1969V47.2007Z" fill="#231F20"/>
<path d="M74.7363 18.6005L94.507 21.1786L89.8171 37.5895L74.7363 18.6005Z" fill="#D83868"/>
<path d="M95.2082 21.2569L109.899 40.7926L92.9416 48.9187L90.8317 40.3224C90.8317 40.3224 90.2851 37.1958 91.1432 34.7744L95.2063 21.255L95.2082 21.2569Z" fill="#D83868"/>
<path d="M110.448 40.6377L104.979 32.9798L114.198 31.4165L110.448 40.6377Z" fill="#B11116"/>
<path d="M114.901 31.4165L118.341 35.0897H113.34L114.901 31.4165Z" fill="#B11116"/>
<path d="M95.9141 48.3741L109.904 41.4194L109.433 43.0592L95.9141 48.3741Z" fill="#D93B2B"/>
<path d="M89.8166 39.3096L83.957 59L92.8648 51.967L89.8166 39.3096Z" fill="#9E0B0F"/>
<path d="M82.3949 29.1499L76.6902 21.8818L74.502 21.9602L82.3949 29.1499Z" fill="#B11116"/>
<path d="M90.7109 39.2389C90.7606 39.8982 90.8352 40.3244 90.8352 40.3244L92.9451 48.9207L109.903 40.7946L109.748 40.5882L90.7109 39.2389Z" fill="#C4161C"/>
</svg>
