<svg width="146" height="78" viewBox="0 0 146 78" fill="none" xmlns="http://www.w3.org/2000/svg">
<rect x="0.5" y="0.5" width="145" height="77" rx="13.5" fill="white" stroke="#CFC3F6"/>
<g clip-path="url(#clip0_795_216)">
<path fill-rule="evenodd" clip-rule="evenodd" d="M96.023 34.7845C96.023 34.0964 96.0209 33.5031 96.023 32.9098C96.025 32.4936 96.1573 32.3618 96.5767 32.3391C96.6511 32.335 96.7255 32.3371 96.7999 32.3371C102.563 32.3371 108.328 32.3371 114.091 32.3371C114.227 32.3371 114.368 32.3288 114.498 32.3597C114.802 32.4277 115.014 32.5843 114.996 32.9407C114.986 33.1508 114.998 33.361 114.994 33.5732C114.981 34.0182 114.802 34.1933 114.351 34.2056C114.264 34.2077 114.178 34.2056 114.091 34.2056H104.823V38.1034C104.978 37.9943 105.115 37.9057 105.241 37.8068C106.229 37.0404 107.185 36.2287 108.21 35.5179C108.729 35.1595 109.365 34.9699 109.962 34.731C110.136 34.6609 110.365 34.6341 110.543 34.6836C111.642 34.9844 112.634 35.4706 113.283 36.4594C113.593 36.9333 113.595 37.1166 113.089 37.438C112.76 37.6461 112.514 38.0499 112.332 38.4145C111.851 39.3766 111.694 40.4335 111.586 41.4903C111.471 42.6234 111.407 43.7627 111.659 44.8875C111.741 45.2542 111.876 45.623 112.053 45.9547C112.299 46.4141 112.57 46.4986 113.078 46.375C113.766 46.2102 113.882 46.2678 114.052 46.9539C114.188 47.5019 114.198 48.0602 113.74 48.4701C113.217 48.9399 112.587 48.9193 111.952 48.7236C111.194 48.4887 110.696 47.9489 110.33 47.2773C109.752 46.2081 109.475 45.04 109.369 43.8451C109.212 42.0631 109.109 40.2769 108.981 38.4578C108.851 38.532 108.689 38.6102 108.541 38.7071C106.764 39.8752 105.774 41.5604 105.315 43.5938C105.251 43.8822 105.208 44.1747 105.16 44.4673C105.096 44.8587 104.772 45.0524 104.404 44.9061C103.726 44.6362 103.055 44.3478 102.373 44.0944C102.119 44.0017 102.046 43.8698 102.046 43.6082C102.055 40.6601 102.052 37.7141 102.052 34.766V34.3066H98.7546V34.7701C98.7546 39.5249 98.7546 44.2818 98.7546 49.0367C98.7546 49.1479 98.7608 49.2613 98.7526 49.3704C98.7174 49.7516 98.3951 49.9143 98.0645 49.7186C97.4777 49.3725 96.8991 49.0099 96.304 48.6782C96.0767 48.5505 96.0126 48.396 96.0126 48.1467C96.0209 44.6795 96.023 41.2102 96.0085 37.7429C96.0085 37.4772 95.9238 37.1743 95.7771 36.9539C95.184 36.0618 94.4856 35.2542 93.5847 34.6527C92.814 34.1376 91.973 33.9708 91.0741 34.286C90.6258 34.4446 90.2641 34.7248 90.0575 35.1615C89.8591 35.5797 89.8571 35.9918 90.1588 36.3812C90.4522 36.7623 90.8737 36.7602 91.2436 36.6428C92.0453 36.3894 92.7974 36.3935 93.4525 36.9436C94.2335 37.6008 94.7914 38.4104 94.81 39.4776C94.8472 41.5851 93.7046 43.0993 91.7292 43.5237C90.26 43.8389 88.9644 43.4928 87.985 42.302C87.4581 41.6634 87.332 40.932 87.6792 40.1512C87.8094 39.8608 87.9354 39.5682 88.08 39.2365C88.1978 39.4075 88.3115 39.5394 88.39 39.6877C88.7785 40.4108 89.4149 40.658 90.1918 40.6127C90.8592 40.5736 91.4977 40.4211 91.9957 39.939C92.5887 39.3663 92.4152 38.4063 91.6672 38.2023C91.4399 38.1405 91.1423 38.1838 90.9233 38.2806C89.698 38.8266 88.5305 38.6556 87.4643 37.9469C86.2369 37.131 86.0427 35.2872 86.9808 33.9687C87.7639 32.8686 88.8983 32.3824 90.1815 32.1434C91.9751 31.8097 93.4359 32.4875 94.7481 33.6144C95.1592 33.9666 95.5456 34.3457 96.0168 34.7804L96.023 34.7845Z" fill="#ED1C24"/>
<path fill-rule="evenodd" clip-rule="evenodd" d="M79.0289 41.3359C79.4484 41.5707 79.8224 41.7376 80.153 41.9704C81.3122 42.7862 81.2502 44.5683 80.0476 45.52C78.6611 46.6181 76.2621 46.3791 74.9542 44.9968C74.1545 44.1521 73.8198 43.1158 73.7082 41.9745C73.5945 40.8291 73.8363 39.7908 74.4748 38.8431C75.6381 37.1105 77.2912 36.6943 79.219 37.4834C80.4671 37.9943 81.3618 38.9337 82.1759 39.9638C82.2359 40.04 82.2958 40.1121 82.4136 40.2543V34.3458C82.2483 34.3375 82.0788 34.319 81.9094 34.319C78.6921 34.319 75.4749 34.319 72.2576 34.3169C72.0965 34.3169 71.9353 34.3128 71.7741 34.2984C71.5096 34.2757 71.3691 34.1088 71.3588 33.8596C71.3422 33.5135 71.3464 33.1653 71.3567 32.8192C71.365 32.5287 71.5261 32.3659 71.8216 32.3433C71.9332 32.335 72.0448 32.335 72.1564 32.335C76.6651 32.335 81.1738 32.333 85.6825 32.3392C85.8953 32.3392 86.1309 32.3804 86.3148 32.4772C86.5235 32.5864 86.6516 32.7903 86.6165 33.0664C86.5917 33.2498 86.6123 33.4372 86.6123 33.6226C86.6123 34.2036 86.5069 34.3066 85.9139 34.3149C85.7424 34.3169 85.5709 34.3149 85.3415 34.3149V34.8155C85.3415 39.595 85.3415 44.3767 85.3395 49.1562C85.3395 49.3252 85.3312 49.5085 85.2713 49.663C85.1618 49.9453 84.8973 50.0153 84.6431 49.8587C84.0418 49.49 83.4467 49.1088 82.8372 48.7504C82.6367 48.6329 82.5789 48.4949 82.5768 48.2745C82.5727 47.2094 82.5954 46.1443 82.5272 45.0812C82.4136 43.2992 81.0353 40.7858 79.0062 40.2048C78.6405 40.0998 78.2561 40.0256 77.878 40.0153C76.7787 39.9844 75.7931 41.202 76.0452 42.2712C76.0927 42.4751 76.2208 42.6956 76.3779 42.8357C76.8696 43.2765 77.4709 43.4125 78.1115 43.2724C78.7479 43.1323 79.0351 42.7368 79.0351 42.0816V41.3338L79.0289 41.3359Z" fill="#ED1C24"/>
<path d="M45.5232 36.7067C45.5232 36.7067 44.5107 36.9312 44.5397 36.4162C44.5541 36.2431 44.6574 36.1772 44.7566 36.1958C44.7608 36.101 44.5583 35.8291 45.0005 35.7219C45.1554 35.5097 45.2835 35.3408 45.3249 35.211C45.3683 35.0792 45.4902 34.902 45.889 34.9864C46.2898 35.0709 46.7217 35.4562 46.7837 35.5674C47.0193 35.5715 47.2631 35.6107 47.1742 35.656C47.0854 35.7034 47.0337 35.792 47.0523 35.8064C47.0709 35.8208 47.199 35.8909 46.7899 35.8991C46.8044 35.9836 46.8808 36.0062 46.9531 36.0495C47.0254 36.0907 46.9325 36.1422 46.9531 36.1628C46.9738 36.1813 47.011 36.3791 46.8044 36.2988C46.5977 36.2184 46.5833 36.1484 46.5275 36.1587C46.4717 36.1669 46.3208 36.1916 46.3436 36.2473C46.3663 36.3029 46.5688 36.4347 46.3105 36.4821C46.2588 36.5295 46.3911 36.6037 46.2919 36.6408C46.1927 36.6778 45.7609 37.0157 45.5542 37.1002C45.3517 37.1002 45.2856 37.0445 45.3042 36.9601C45.3228 36.8756 45.4117 36.8138 45.5439 36.8014C45.5439 36.7458 45.5584 36.7005 45.5253 36.7067H45.5232Z" fill="#ED1C24"/>
<path d="M45.4328 37.782C45.3336 37.7862 45.0464 37.5904 45.1972 37.4813C45.3481 37.3741 46.0258 36.9374 46.1746 36.8941C46.3234 36.8508 46.5218 37.0486 46.3399 37.199C46.156 37.3494 45.4328 37.78 45.4328 37.78V37.782Z" fill="#ED1C24"/>
<path d="M46.4824 37.2939C46.4638 37.1888 46.5857 36.7541 46.596 36.6696C46.6043 36.5852 46.9391 36.5481 46.8605 36.9127C46.7799 37.2774 46.5031 37.4051 46.4845 37.2918L46.4824 37.2939Z" fill="#ED1C24"/>
<path d="M46.9517 36.511C46.9517 36.511 48.8321 36.4286 48.987 36.511C49.142 36.5955 49.7867 37.5946 49.6317 38.4743C49.4768 39.354 49.2019 39.5806 47.9849 39.7228C47.9601 39.4364 47.9208 38.7009 47.801 38.5011C47.6811 38.3013 47.2741 37.8398 47.086 37.846C47.086 38.052 47.0488 38.6659 47.0488 38.6659C47.0488 38.6659 46.4475 38.7092 46.3649 38.5835C46.3525 38.3528 46.3649 37.6647 46.3649 37.6647C46.3649 37.6647 46.9228 37.1764 46.9517 37.0652C47.0426 37.1146 47.055 37.403 47.7307 37.3371C47.7183 37.2712 46.929 37.3515 46.9517 36.511Z" fill="#ED1C24"/>
<path d="M46.2346 37.3351C46.2346 37.3351 45.6395 37.8378 45.5196 37.9325C45.4576 38.0953 45.3874 38.6 46.1643 38.6083C46.2139 38.2951 46.2325 37.3371 46.2325 37.3371L46.2346 37.3351Z" fill="#ED1C24"/>
<path d="M44.8042 38.0973C44.6224 38.0931 44.4653 38.0499 44.4839 37.8995C44.5025 37.7491 44.7587 37.5946 44.9282 37.6317C45.0976 37.6688 45.3724 37.7429 45.3724 38.3878C45.4923 38.5258 45.8663 38.7812 46.325 38.806C46.7837 38.8307 47.0586 38.7751 47.0586 38.9131V39.7887C47.0586 39.7887 46.511 39.7701 45.1534 38.8204C45.0418 38.67 44.9654 38.5773 44.9778 38.3507C44.9654 38.2065 44.8641 38.0993 44.8021 38.0973H44.8042Z" fill="#ED1C24"/>
<path d="M44.3929 38.2003C44.1656 38.192 43.5086 38.7462 43.9962 38.9728C44.1346 38.8534 44.2545 38.7071 44.2545 38.7071C44.2545 38.7071 44.1346 39.0223 44.3929 39.1026C44.6512 39.183 44.552 38.944 44.6905 38.9543C44.769 39.0841 44.7897 39.1624 44.9198 39.1624C45.048 39.1418 45.0893 38.7751 44.9198 38.5588C44.7504 38.3404 44.6409 38.2126 44.3929 38.2023V38.2003Z" fill="#ED1C24"/>
<path d="M47.1934 38.2703V39.9967C47.1934 39.9967 47.7719 39.8196 47.8277 39.6733C47.805 39.3725 47.7099 38.258 47.1934 38.2683V38.2703Z" fill="#ED1C24"/>
<path d="M45.8086 39.4116C45.8086 39.4116 46.476 39.8649 46.912 40.042C46.8521 40.1183 46.5628 40.4891 46.4636 40.4602C46.3644 40.4314 45.8458 39.7309 45.8086 39.4116Z" fill="#ED1C24"/>
<path d="M43.414 40.4005H41.7279L41.668 40.0688H43.414V40.4005Z" fill="#ED1C24"/>
<path d="M47.974 39.8567C48.0443 39.7846 48.4865 40.1492 48.3604 40.2151C48.2344 40.2811 47.0297 40.7858 46.914 40.7467C46.7983 40.7075 46.8355 40.4006 46.9532 40.3429C47.071 40.2831 47.7632 40.0771 47.9761 39.8587L47.974 39.8567Z" fill="#ED1C24"/>
<path d="M46.6343 40.6745C46.4897 40.6003 45.7148 41.3502 46.0537 41.4038C46.3926 41.4573 47.2129 41.6222 47.4319 41.7149C47.6241 41.6283 47.8039 41.4697 47.7708 41.377C47.903 41.3832 48.1303 41.5892 48.3039 41.5088C48.4775 41.4285 49.4362 40.7445 49.4962 40.6333C49.3019 40.4664 48.8825 40.2254 48.711 40.2336C48.5374 40.2418 47.2604 40.9917 46.6343 40.6724V40.6745Z" fill="#ED1C24"/>
<path d="M46.2294 41.6222C46.3162 41.6263 47.2936 41.993 47.5415 41.9477C47.7874 41.9003 47.8349 41.6613 47.9734 41.6758C48.1139 41.6881 48.18 41.8159 48.4114 41.6696C48.6449 41.5233 49.0644 41.1587 49.1305 41.0721C49.145 41.2246 49.1305 41.6428 48.2255 42.0487C47.3204 42.4524 45.2293 43.0499 45.1777 43.3363C45.2582 43.3692 45.5227 43.2827 45.6963 43.19C45.8099 43.2765 46.0166 43.5546 45.9629 44.0058C45.9091 44.457 45.5641 45.2337 45.5641 45.452C45.5641 45.6704 45.5434 46.6325 45.5579 46.7314C45.5703 46.8303 45.7376 47.3824 45.4711 47.3412C45.2045 47.3021 45.0454 47.2938 44.938 47.3144C44.8326 47.335 44.6177 47.506 44.4317 47.4813C44.2457 47.4545 43.9255 47.3618 43.9399 47.2691C43.9523 47.1764 44.159 47.1764 44.3387 47.1105C44.5185 47.0445 44.6383 46.8447 44.9855 46.719C44.9731 46.4862 44.8698 44.8154 44.8698 44.459C44.8698 44.1026 44.7499 43.3775 44.9049 43.0684C45.0599 42.7594 45.8595 41.6078 46.2294 41.6243V41.6222Z" fill="#ED1C24"/>
<path d="M47.5065 42.6255C47.4837 42.7326 48.1119 44.251 48.3805 44.2777C48.6512 44.3025 51.1576 43.7689 51.635 43.911C51.7775 44.1006 52.0772 44.4693 52.0648 44.6733C52.0648 44.6733 52.1288 45.1698 52.0896 45.1966C52.1681 45.2172 52.383 45.1451 52.4346 45.005C52.4863 44.8649 52.447 44.1953 52.4677 44.0779C52.4863 43.9605 52.7838 43.363 52.3788 43.3733C51.9759 43.3836 50.8084 43.3836 50.4324 43.2806C50.0584 43.1797 49.207 43.0231 48.9963 43.1302C48.7855 43.2394 48.5396 43.5855 48.5396 43.6803C48.4508 43.7009 48.4239 43.6123 48.5128 43.3548C48.6016 43.0973 48.9074 42.3227 48.8744 41.9086C48.5685 42.0178 47.5065 42.6276 47.5065 42.6276V42.6255Z" fill="#ED1C24"/>
<path d="M46.0819 40.2336C46.1087 40.3037 46.148 40.4294 46.2224 40.4891L44.2139 40.3614C44.2139 40.3614 43.9804 40.2172 44.0755 40.1842L46.0839 40.2336H46.0819Z" fill="#ED1C24"/>
<path d="M43.872 40.0688H45.8805C45.8805 40.0688 45.7152 39.8422 45.6739 39.6959C45.3205 39.6959 43.8204 39.7248 43.8204 39.7248C43.8204 39.7248 43.6055 39.7103 43.6055 40.1018C43.6055 40.2068 43.7646 40.3655 43.872 40.0709V40.0688Z" fill="#ED1C24"/>
<path d="M41.1383 40.4005H41.5516C41.5516 40.4005 41.6838 40.3428 41.5516 40.1842C41.4193 40.0255 41.159 39.939 41.3449 39.6609C41.1528 39.6279 40.8655 39.5682 40.9131 40.1842H40.7147C40.7147 40.1842 40.6424 39.8319 40.1816 39.8319C39.7208 39.8319 38.5781 40.3037 38.5781 40.3037C38.5781 40.3037 39.8613 40.6559 40.1878 40.6559C40.5143 40.6559 40.7271 40.3387 40.7271 40.3387H40.8862C40.8862 40.3387 40.9585 40.5777 41.0391 40.6827C41.0391 40.8475 41.0453 41.0721 41.0453 41.0721C41.0453 41.0721 40.8531 41.1401 40.88 41.3729C40.9069 41.6057 41.0329 41.5974 41.0722 41.5974C41.1114 41.5974 41.1652 41.5253 41.3243 41.5253C41.4048 41.445 41.3511 41.1607 41.1982 41.1009C41.1982 40.9691 41.1858 40.8228 41.1858 40.8228C41.1858 40.8228 41.3532 40.7177 41.3325 40.6209C41.3119 40.5241 41.1404 40.5323 41.1404 40.4025L41.1383 40.4005Z" fill="#ED1C24"/>
<path d="M44.3869 42.3392L44.3993 42.333C44.5294 42.2568 44.5832 42.0611 44.5852 42.0528V42.0446V42.0384C44.5852 42.0301 44.5687 41.1237 44.5687 40.86C44.5687 40.5571 44.0583 40.3614 44.0356 40.3532L44.0046 40.3408L43.9798 40.3635C43.9343 40.4047 43.798 40.5098 43.7008 40.5098C43.5748 40.5098 43.5025 40.4892 43.3785 40.3655L43.362 40.3491H43.3392C42.928 40.3491 42.7297 40.8414 42.7193 40.8641L42.7152 40.8826C42.7111 40.9795 42.6801 41.8262 42.7152 41.9725C42.7462 42.0961 42.8536 42.2279 42.897 42.2794C42.8144 42.5679 42.397 44.1315 42.957 44.3293V44.5971H44.3042V44.3169C44.8166 44.0862 44.4902 42.7368 44.3807 42.3433L44.3869 42.3392ZM42.8268 40.8929C42.8516 40.8332 43.021 40.4727 43.3206 40.4541C43.4611 40.588 43.5603 40.6128 43.7029 40.6128C43.831 40.6128 43.9695 40.5098 44.0273 40.4624C44.172 40.5221 44.4612 40.6807 44.4612 40.8559C44.4612 41.1093 44.4778 41.9374 44.4778 42.0281C44.4633 42.0755 44.4199 42.1805 44.3559 42.2279L44.0893 42.2238V41.7129H43.1739V42.2094H42.988C42.9508 42.162 42.8516 42.0425 42.8268 41.9395C42.802 41.8427 42.8144 41.2617 42.8268 40.8909V40.8929ZM43.7649 44.1006H43.5211C43.4611 44.1006 43.4136 44.0532 43.4136 43.9935C43.4136 43.9337 43.4611 43.8863 43.5211 43.8863H43.7649C43.8248 43.8863 43.8723 43.9337 43.8723 43.9935C43.8723 44.0532 43.8248 44.1006 43.7649 44.1006ZM44.2711 44.2119L43.6099 43.4743L43.0004 44.2283C42.5912 44.0924 42.8536 42.8377 43.0004 42.3165L44.2732 42.3371C44.4178 42.8542 44.6534 44.0223 44.2711 44.2119Z" fill="#ED1C24"/>
<path d="M44.0914 42.8562C44.2402 42.6399 44.0501 42.4916 44.0501 42.4916H43.2566C43.0024 42.4916 43.0851 42.8439 43.0851 42.8439L43.5872 43.2724C43.5872 43.2724 43.9406 43.0746 44.0893 42.8583L44.0914 42.8562Z" fill="#ED1C24"/>
<path d="M43.7617 43.3527L44.237 43.9213C44.237 43.9213 44.1874 43.2497 44.1688 43.0272C44.0551 43.0458 43.7617 43.3527 43.7617 43.3527Z" fill="#ED1C24"/>
<path d="M43.0643 43.0272C43.0457 43.2497 42.9961 43.9213 42.9961 43.9213L43.4713 43.3527C43.4713 43.3527 43.1779 43.0458 43.0643 43.0272Z" fill="#ED1C24"/>
<path d="M44.0045 41.5604H44.0871V41.478C44.0871 41.4327 44.0499 41.3956 44.0045 41.3956H43.2565C43.211 41.3956 43.1738 41.4327 43.1738 41.478V41.5604H44.0045Z" fill="#ED1C24"/>
<path d="M42.9131 44.6733H42.8242V44.7619C42.8242 44.8114 42.8635 44.8526 42.9131 44.8526H44.3099C44.3595 44.8526 44.3988 44.8134 44.3988 44.7619V44.6733H42.9131Z" fill="#ED1C24"/>
<path d="M48.7109 39.8896L49.3556 40.3779H52.5522V39.8896H48.7109Z" fill="#ED1C24"/>
<path d="M66.5213 30.7342L62.3143 37.508C62.3143 37.508 54.111 28.5834 43.0645 34.6938C43.0645 34.6938 52.0302 20.6745 66.5192 30.7322L66.5213 30.7342Z" fill="white"/>
<path d="M66.2848 29.2983L62.0778 36.0721C62.0778 36.0721 53.8745 27.1475 42.8301 33.2579C42.8301 33.2579 51.7958 19.2386 66.2848 29.2962V29.2983Z" fill="#F7941D"/>
<path d="M58.0932 22.0528L58.4631 30.0112C58.4631 30.0112 46.6375 27.2712 40.9882 38.5361C40.9882 38.5361 40.4386 21.9189 58.0932 22.0528Z" fill="white"/>
<path d="M57.0854 21L57.4553 28.9584C57.4553 28.9584 45.6297 26.2184 39.9804 37.4834C39.9804 37.4854 39.4287 20.8682 57.0854 21Z" fill="#ED1C24"/>
<path d="M49.438 26.3606L46.5493 21.1113C46.5493 21.1113 33.9819 27.1146 39.6395 40.5036C39.6395 40.5036 39.0919 30.1904 49.438 26.3606Z" fill="white"/>
<path d="M48.2751 26.3606L45.3864 21.1113C45.3864 21.1113 32.8211 27.1146 38.4766 40.5036C38.4766 40.5036 37.9291 30.1904 48.2751 26.3606Z" fill="#F7941D"/>
<path d="M52.809 33.567C52.809 33.567 57.4251 33.4084 61.969 36.8097C61.969 36.8097 63.9278 46.2205 52.7263 51.6758C52.7263 51.6758 44.366 55.7879 36.2495 48.5135C36.2495 48.5135 26.0233 38.2333 37.3054 26.8468C37.3054 26.8468 32.0838 36.3359 39.5515 46.0372C39.5515 46.0372 42.0827 49.148 46.9138 48.7978C46.9138 48.7978 52.1767 48.5176 54.3381 43.8122C54.3381 43.8122 57.3321 38.0087 52.8069 33.5712L52.809 33.567Z" fill="#F7941D"/>
<path d="M61.6102 36.2328C61.6102 36.2328 62.7054 39.97 60.0894 45.0112C60.0894 45.0112 57.5086 49.9123 51.849 52.0631C51.849 52.0631 39.4263 55.4108 34.4258 45.3676C34.4258 45.3676 28.2103 35.6807 37.9261 26.5625L39.1411 24.5682C39.1411 24.5682 26.2804 30.0544 31.068 45.794C31.068 45.794 35.2833 56.6202 47.2845 55.9094C47.2845 55.9094 64.501 54.8402 63.0732 36.8921L61.6102 36.2328Z" fill="#ED1C24"/>
<path d="M73.1975 53.8513V54.7165L73.9372 54.4199L74.1624 54.63C74.1748 54.7248 74.181 54.8072 74.181 54.8772C74.181 55.176 74.1005 55.4149 73.9413 55.588C73.774 55.7693 73.5405 55.862 73.2429 55.862C72.9454 55.862 72.6644 55.7322 72.4247 55.4726C72.2304 55.2625 72.0734 54.9926 71.9556 54.665L72.1581 54.5311C72.4185 55.2501 72.7883 55.6086 73.2657 55.6086C73.4413 55.6086 73.5921 55.5427 73.7223 55.4088C73.8504 55.2748 73.9165 55.1203 73.9165 54.9432C73.9165 54.8628 73.9021 54.7866 73.8711 54.7145L73.2057 55.007L72.9433 54.801V53.8533H71.7676V53.6288H74.3587V53.8533H73.1975V53.8513Z" fill="#231F20"/>
<path d="M74.8643 53.8513V55.8537H74.6019V53.8513H74.2754V53.6267H75.166V53.8513H74.8664H74.8643Z" fill="#231F20"/>
<path d="M76.5924 53.8513V53.9893C76.8011 53.9893 76.9953 54.047 77.1751 54.1623C77.3797 54.2942 77.483 54.459 77.483 54.6527C77.483 54.8133 77.421 54.9431 77.2949 55.042C77.1792 55.1347 77.0387 55.1801 76.8734 55.1801C76.859 55.1801 76.8383 55.178 76.8135 55.1718V54.9205H76.9478C77.14 54.9205 77.2371 54.8257 77.2371 54.6403C77.2371 54.4137 77.0222 54.2818 76.5903 54.2427V55.8558H76.3465C76.2267 55.6209 76.0799 55.4273 75.9064 55.2728C75.6997 55.0832 75.4828 54.9843 75.2617 54.9761L75.179 54.6691C75.3319 54.5599 75.7163 54.3292 76.3279 53.981V53.8492H75.084V53.6246H77.6565V53.8492H76.5903L76.5924 53.8513ZM76.33 54.2736C76.2143 54.3168 76.0903 54.391 75.958 54.4981L75.6212 54.7824C75.7493 54.8545 75.8713 54.9576 75.989 55.0894C76.0469 55.1574 76.1605 55.2872 76.33 55.4788V54.2736Z" fill="#231F20"/>
<path d="M81.1391 53.2374C80.701 52.9613 80.3291 52.8212 80.0233 52.8212C79.7505 52.8212 79.5336 52.8871 79.3744 53.0169C79.1967 53.1591 79.1079 53.363 79.1079 53.6267H79.3827V53.8513H79.1079V55.8476H78.8413V53.8513H78.5645V53.6267H78.8413C78.8413 53.2889 78.9571 53.0272 79.1864 52.8398C79.3992 52.6647 79.6782 52.5781 80.0253 52.5781C80.2444 52.5781 80.4634 52.6255 80.6824 52.7203C80.8333 52.7841 81.0316 52.8975 81.2775 53.0561L81.1391 53.2353V53.2374Z" fill="#231F20"/>
<path d="M81.3408 53.8513V55.8578H81.1011C80.9792 55.6601 80.7436 55.4685 80.3985 55.281C80.0535 55.0935 79.76 54.9967 79.5203 54.9885L79.4377 54.6774C79.5885 54.562 79.853 54.4302 80.227 54.2798C80.3407 54.2365 80.6258 54.1294 81.0845 53.9543V53.8492H79.2559V53.6246H81.6135V53.8492H81.3387L81.3408 53.8513ZM81.0845 54.253C80.8242 54.3395 80.4171 54.5146 79.8675 54.7742C80.3427 54.9431 80.7477 55.1759 81.0845 55.4705V54.253Z" fill="#231F20"/>
<path d="M81.5176 53.8513V53.6267H84.0447V53.8513H81.5176ZM82.9516 55.8434C82.6602 55.8434 82.3958 55.7157 82.1561 55.4582C81.9474 55.2357 81.7986 54.9699 81.7056 54.6609L81.8627 54.4961C81.9577 54.7825 82.0858 55.0256 82.2449 55.2233C82.4536 55.4808 82.6809 55.6086 82.933 55.6086C83.1252 55.6086 83.2801 55.5385 83.3979 55.3943C83.5095 55.2604 83.5674 55.0956 83.5674 54.8999C83.3938 55.0214 83.2223 55.0832 83.0529 55.0832C82.8834 55.0832 82.7408 55.0276 82.6169 54.9184C82.4867 54.8072 82.4226 54.6671 82.4226 54.5023C82.4226 54.3375 82.4681 54.2077 82.5611 54.1108C82.6541 54.014 82.7822 53.9666 82.9475 53.9666C83.0673 53.9666 83.1665 53.9975 83.245 54.0573C83.3235 54.117 83.3628 54.2036 83.3628 54.3189C83.3628 54.4054 83.3153 54.492 83.2202 54.5764L83.0446 54.4446C83.1045 54.4096 83.1355 54.3601 83.1355 54.2983C83.1355 54.2118 83.0818 54.1706 82.9743 54.1706C82.8896 54.1706 82.8194 54.1994 82.7615 54.2571C82.7036 54.3148 82.6768 54.3869 82.6768 54.4714C82.6768 54.5764 82.714 54.665 82.7904 54.733C82.8669 54.801 82.9578 54.836 83.0632 54.836C83.2698 54.836 83.4558 54.7495 83.619 54.5785L83.8628 54.8298C83.8608 55.1121 83.7781 55.3469 83.619 55.5385C83.4496 55.7425 83.2264 55.8455 82.9495 55.8455L82.9516 55.8434Z" fill="#231F20"/>
<path d="M84.5655 53.8513V55.8537H84.303V53.8513H83.9766V53.6267H84.8671V53.8513H84.5675H84.5655Z" fill="#231F20"/>
<path d="M85.8658 56C85.5683 56 85.372 55.9506 85.2811 55.8537C85.0641 55.6251 84.9546 55.3428 84.9546 55.007C84.9546 54.8072 85.0166 54.6032 85.1426 54.3972C85.2232 54.2654 85.3658 54.082 85.5704 53.8513H84.7852V53.6267H86.0477V53.8513C85.8369 53.9337 85.6468 54.082 85.4774 54.2963C85.2997 54.5229 85.2108 54.7454 85.2108 54.9617C85.2108 55.5015 85.434 55.7713 85.8824 55.7713C85.9444 55.7713 86.0125 55.7446 86.0849 55.6889V55.9506C86.0187 55.9835 85.9464 56 85.8679 56H85.8658Z" fill="#231F20"/>
<path d="M87.5603 53.8513V55.829H87.2979V54.5126C87.2979 54.4755 87.2607 54.3972 87.1863 54.2757C87.021 54.0099 86.8123 53.8781 86.5623 53.8781C86.4714 53.8781 86.3805 53.9213 86.2875 54.0079C86.2627 54.0326 86.2069 54.0841 86.1222 54.1603C86.2337 54.117 86.3288 54.0964 86.4032 54.0964C86.5292 54.0964 86.6367 54.1273 86.7255 54.1891C86.8226 54.2592 86.8722 54.356 86.8722 54.4776C86.8722 54.63 86.8144 54.7763 86.6987 54.9184C86.583 55.0606 86.4486 55.1554 86.2957 55.2089L86.1263 54.9926C86.2337 54.9555 86.3391 54.8875 86.4424 54.7866C86.5602 54.6753 86.6181 54.5703 86.6181 54.4714C86.6181 54.4096 86.5458 54.3601 86.4032 54.321C86.2978 54.2942 86.2007 54.2798 86.1139 54.2798C86.0808 54.2798 86.0498 54.286 86.0209 54.2983L85.8887 54.0511C86.0312 53.8987 86.1284 53.806 86.178 53.7709C86.2916 53.6865 86.4156 53.6432 86.5499 53.6432C86.8495 53.6432 87.0995 53.7977 87.2979 54.1047V53.6288H87.8455V53.8533H87.5603V53.8513Z" fill="#231F20"/>
<path d="M89.8037 53.8513V55.8579H89.564C89.4359 55.656 89.2086 55.4644 88.878 55.2851C88.5494 55.1059 88.2622 55.0111 88.0163 55.005L87.9337 54.698C88.3221 54.4487 88.8553 54.2015 89.533 53.9563V53.8513H87.7539V53.6267H90.0372V53.8513H89.8037ZM89.5475 54.253C89.128 54.3972 88.7354 54.5785 88.3676 54.7928C88.7974 54.9349 89.19 55.1615 89.5475 55.4706V54.253ZM88.8635 55.93C88.7809 55.8455 88.6548 55.761 88.4854 55.6745L88.597 55.4644C88.7519 55.5303 88.8924 55.6312 89.0185 55.7672L88.8635 55.9279V55.93Z" fill="#231F20"/>
<path d="M93.5434 53.2374C93.1053 52.9613 92.7334 52.8212 92.4276 52.8212C92.1548 52.8212 91.9379 52.8871 91.7787 53.0169C91.601 53.1591 91.5122 53.363 91.5122 53.6267H91.787V53.8513H91.5122V55.8476H91.2456V53.8513H90.9688V53.6267H91.2456C91.2456 53.2889 91.3614 53.0272 91.5907 52.8398C91.8035 52.6647 92.0825 52.5781 92.4296 52.5781C92.6487 52.5781 92.8677 52.6255 93.0867 52.7203C93.2376 52.7841 93.4359 52.8975 93.6818 53.0561L93.5434 53.2353V53.2374Z" fill="#231F20"/>
<path d="M93.0803 53.8513V54.7165L93.82 54.4199L94.0453 54.63C94.0577 54.7248 94.0639 54.8072 94.0639 54.8772C94.0639 55.176 93.9833 55.4149 93.8242 55.588C93.6568 55.7693 93.4233 55.862 93.1257 55.862C92.8282 55.862 92.5472 55.7322 92.3075 55.4726C92.1112 55.2625 91.9562 54.9926 91.8384 54.665L92.0409 54.5311C92.3013 55.2501 92.6712 55.6086 93.1485 55.6086C93.3241 55.6086 93.475 55.5427 93.6051 55.4088C93.7332 55.2748 93.7994 55.1203 93.7994 54.9432C93.7994 54.8628 93.7849 54.7866 93.7539 54.7145L93.0886 55.007L92.8261 54.801V53.8533H91.6504V53.6288H94.2416V53.8533H93.0803V53.8513Z" fill="#231F20"/>
<path d="M96.727 53.2374C96.2889 52.9613 95.917 52.8212 95.6112 52.8212C95.3384 52.8212 95.1214 52.8871 94.9623 53.0169C94.7846 53.1591 94.6958 53.363 94.6958 53.6267H94.9706V53.8513H94.6958V55.8476H94.4292V53.8513H94.1523V53.6267H94.4292C94.4292 53.2889 94.5449 53.0272 94.7743 52.8398C94.9871 52.6647 95.2661 52.5781 95.6132 52.5781C95.8323 52.5781 96.0513 52.6255 96.2703 52.7203C96.4212 52.7841 96.6195 52.8975 96.8654 53.0561L96.727 53.2353V53.2374Z" fill="#231F20"/>
<path d="M96.5341 53.8513C96.6126 54.117 96.8069 54.2489 97.1189 54.2489C97.1581 54.2489 97.1995 54.2468 97.2387 54.2406L97.435 54.4796C97.2821 54.7948 97.2057 55.0297 97.2057 55.1842C97.2057 55.5221 97.247 55.7466 97.3296 55.862L97.154 55.9547C97.0321 55.7775 96.9701 55.5694 96.9701 55.3325C96.9701 55.1945 96.9846 55.0585 97.0156 54.9246C97.028 54.8669 97.0672 54.7248 97.1354 54.4982C96.9329 54.4755 96.7511 54.4096 96.592 54.3004C96.4101 54.1747 96.3006 54.0223 96.2655 53.8389C95.9865 54.0387 95.8481 54.2551 95.8481 54.4858C95.8481 54.6362 95.9101 54.7104 96.032 54.7104C96.0961 54.7104 96.1663 54.6898 96.2386 54.6506C96.311 54.6115 96.3626 54.5641 96.3936 54.5085H96.6602C96.718 54.595 96.7469 54.7392 96.7469 54.939C96.7469 55.4479 96.4783 55.7033 95.9431 55.7033C95.846 55.7033 95.7427 55.6766 95.6353 55.6251C95.5919 55.6045 95.501 55.5509 95.3604 55.4644C95.2757 55.3263 95.16 55.1141 95.0154 54.8237L95.1662 54.6815C95.2282 54.8669 95.3542 55.0832 95.5423 55.3325L95.5567 55.314L95.7365 55.4046C95.8068 55.4396 95.8708 55.4561 95.9287 55.4561C96.0899 55.4561 96.22 55.417 96.3233 55.3366C96.4349 55.2501 96.4928 55.1286 96.4928 54.9741C96.4928 54.8958 96.4701 54.8237 96.4246 54.7577C96.2986 54.8958 96.1622 54.9638 96.0155 54.9638C95.877 54.9638 95.7716 54.9184 95.6973 54.8257C95.6229 54.733 95.5857 54.6176 95.5857 54.4776C95.5857 54.2921 95.6766 54.0841 95.8564 53.8513H94.8418V53.6267H97.6313V53.8513H96.5341Z" fill="#231F20"/>
<path d="M98.0363 53.8513V55.6004L98.1788 55.6086C98.3834 55.6189 98.6045 55.5612 98.8401 55.4355C99.1025 55.2955 99.2347 55.1245 99.2347 54.9184C99.2347 54.6857 99.1252 54.5703 98.9041 54.5703C98.8442 54.5703 98.7326 54.6156 98.5694 54.7042L98.464 54.4714C98.6148 54.3643 98.7946 54.3107 99.0074 54.3107C99.1686 54.3107 99.2926 54.3704 99.3835 54.4899C99.4641 54.5971 99.5033 54.733 99.5033 54.8978C99.5033 55.1224 99.3959 55.3243 99.181 55.5015C98.9992 55.6519 98.7843 55.7508 98.5425 55.8002C98.3731 55.8352 98.1148 55.8517 97.7697 55.8517V53.8492H97.5527V53.6247H99.1376L99.1459 53.5526C99.1459 53.4022 99.0839 53.2806 98.9578 53.1859C98.8463 53.0993 98.7119 53.054 98.557 53.054C98.3669 53.054 98.1086 53.1405 97.78 53.3156L97.7015 53.1323C98.0115 52.9407 98.3069 52.8439 98.588 52.8439C98.8132 52.8439 99.0074 52.918 99.1686 53.0643C99.3298 53.2106 99.4104 53.3981 99.4104 53.6226H99.71V53.8472H98.0383L98.0363 53.8513Z" fill="#231F20"/>
<path d="M100.226 53.8513V55.8537H99.9632V53.8513H99.6367V53.6267H100.527V53.8513H100.228H100.226Z" fill="#231F20"/>
<path d="M102.846 53.8514V55.8538H102.603C102.603 55.8064 102.605 55.7385 102.611 55.6478C102.617 55.5572 102.621 55.4892 102.621 55.4418C102.621 54.97 102.501 54.7352 102.26 54.7352C102.175 54.7352 102.098 54.7784 102.034 54.8629C101.977 54.9391 101.944 55.0215 101.937 55.1122H101.638C101.634 55.0153 101.6 54.9247 101.541 54.8423C101.472 54.7496 101.394 54.7043 101.301 54.7043C101.189 54.7043 101.1 54.7496 101.038 54.8382C100.983 54.9185 100.956 55.0174 100.956 55.1348C100.956 55.3821 101.105 55.5057 101.402 55.5057C101.431 55.5057 101.464 55.5057 101.495 55.5015L101.408 55.7632C101.363 55.7673 101.33 55.7714 101.307 55.7714C101.117 55.7714 100.962 55.7076 100.84 55.5798C100.718 55.4521 100.658 55.2935 100.658 55.0998C100.658 54.9062 100.716 54.7434 100.832 54.6198C100.948 54.4962 101.105 54.4364 101.303 54.4364C101.501 54.4364 101.66 54.5497 101.799 54.7764C101.952 54.5497 102.109 54.4364 102.268 54.4364C102.4 54.4364 102.512 54.5436 102.603 54.7537V53.8472H100.443V53.6227H103.105V53.8472H102.846V53.8514Z" fill="#231F20"/>
<path d="M104.436 54.9596C104.436 55.1059 104.467 55.2481 104.529 55.382C104.608 55.5509 104.715 55.6374 104.851 55.6374C104.918 55.6374 104.982 55.6189 105.048 55.5818L105.13 55.8105C105.046 55.8579 104.957 55.8826 104.868 55.8826C104.43 55.8826 104.211 55.5385 104.211 54.8525C104.211 54.4776 104.457 54.0697 104.947 53.6288H105.327V53.8533C105.077 53.8904 104.864 54.0223 104.688 54.2509C104.521 54.4673 104.436 54.7062 104.436 54.9617V54.9596Z" fill="#231F20"/>
<path d="M107.538 53.8514V55.8538H107.294C107.294 55.8064 107.296 55.7385 107.304 55.6478C107.31 55.5572 107.312 55.4892 107.312 55.4418C107.312 54.97 107.193 54.7352 106.953 54.7352C106.868 54.7352 106.792 54.7784 106.728 54.8629C106.67 54.9391 106.637 55.0215 106.631 55.1122H106.331C106.327 55.0153 106.294 54.9247 106.234 54.8423C106.166 54.7496 106.085 54.7043 105.994 54.7043C105.88 54.7043 105.794 54.7496 105.732 54.8382C105.676 54.9185 105.649 55.0174 105.649 55.1348C105.649 55.3821 105.798 55.5057 106.095 55.5057C106.126 55.5057 106.157 55.5057 106.188 55.5015L106.102 55.7632C106.056 55.7673 106.023 55.7714 106 55.7714C105.81 55.7714 105.655 55.7076 105.533 55.5798C105.411 55.4521 105.352 55.2935 105.352 55.0998C105.352 54.9062 105.409 54.7434 105.527 54.6198C105.645 54.4962 105.8 54.4364 105.998 54.4364C106.197 54.4364 106.356 54.5497 106.494 54.7764C106.647 54.5497 106.804 54.4364 106.963 54.4364C107.095 54.4364 107.207 54.5436 107.298 54.7537V53.8472H105.139V53.6227H107.8V53.8472H107.542L107.538 53.8514Z" fill="#231F20"/>
<path d="M109.79 53.8513V55.8537H109.528V55.6992C109.528 55.4994 109.414 55.2913 109.189 55.075C108.962 54.8587 108.749 54.7495 108.544 54.7495C108.449 54.7495 108.366 54.7804 108.294 54.8422C108.224 54.904 108.187 54.9823 108.187 55.075C108.187 55.1677 108.22 55.248 108.286 55.3098C108.352 55.3716 108.433 55.4025 108.528 55.4025C108.583 55.4025 108.641 55.3902 108.701 55.3655L108.78 55.6127C108.705 55.6498 108.596 55.6683 108.453 55.6683C108.3 55.6683 108.172 55.6086 108.071 55.4932C107.97 55.3778 107.916 55.2398 107.916 55.0853C107.916 54.9164 107.972 54.7721 108.085 54.6568C108.197 54.5414 108.337 54.4817 108.507 54.4817C108.895 54.4817 109.236 54.7083 109.528 55.1636V53.8492H107.703V53.6246H110.017V53.8492H109.792L109.79 53.8513Z" fill="#231F20"/>
<path d="M111.018 56C110.721 56 110.524 55.9506 110.433 55.8537C110.216 55.6251 110.107 55.3428 110.107 55.007C110.107 54.8072 110.169 54.6032 110.295 54.3972C110.376 54.2654 110.518 54.082 110.723 53.8513H109.938V53.6267H111.2V53.8513C110.989 53.9337 110.799 54.082 110.63 54.2963C110.452 54.5229 110.363 54.7454 110.363 54.9617C110.363 55.5015 110.586 55.7713 111.035 55.7713C111.097 55.7713 111.165 55.7446 111.237 55.6889V55.9506C111.173 55.9835 111.099 56 111.02 56H111.018Z" fill="#231F20"/>
<path d="M111.307 53.8513V54.7454C111.697 54.4899 112.045 54.3045 112.35 54.1871L112.607 54.5208C112.476 54.8401 112.41 55.0894 112.41 55.2687C112.41 55.4314 112.45 55.6209 112.526 55.8373L112.334 55.9279C112.237 55.6724 112.187 55.4891 112.187 55.3778C112.187 55.1059 112.214 54.8278 112.27 54.5476C111.989 54.6588 111.652 54.8793 111.259 55.2068L111.042 55.0008V53.8513H110.84V53.6267H112.788V53.8513H111.305H111.307Z" fill="#231F20"/>
<path d="M114.774 53.8513V55.8537H114.512V55.6992C114.512 55.4994 114.398 55.2913 114.173 55.075C113.946 54.8587 113.733 54.7495 113.528 54.7495C113.433 54.7495 113.351 54.7804 113.278 54.8422C113.208 54.904 113.171 54.9823 113.171 55.075C113.171 55.1677 113.204 55.248 113.27 55.3098C113.336 55.3716 113.417 55.4025 113.512 55.4025C113.568 55.4025 113.626 55.3902 113.686 55.3655L113.764 55.6127C113.69 55.6498 113.58 55.6683 113.438 55.6683C113.285 55.6683 113.157 55.6086 113.055 55.4932C112.952 55.3758 112.9 55.2398 112.9 55.0853C112.9 54.9164 112.956 54.7721 113.07 54.6568C113.183 54.5414 113.322 54.4817 113.491 54.4817C113.88 54.4817 114.221 54.7083 114.512 55.1636V53.8492H112.688V53.6246H115V53.8492H114.774V53.8513Z" fill="#231F20"/>
</g>
<defs>
<clipPath id="clip0_795_216">
<rect width="85" height="35" fill="white" transform="translate(30 21)"/>
</clipPath>
</defs>
</svg>
