<svg width="146" height="78" viewBox="0 0 146 78" fill="none" xmlns="http://www.w3.org/2000/svg">
<rect x="0.5" y="0.5" width="145" height="77" rx="13.5" fill="white" stroke="#CFC3F6"/>
<g clip-path="url(#clip0_795_217)">
<path d="M108 15H38V62H108V15Z" fill="#8C3494"/>
<path fill-rule="evenodd" clip-rule="evenodd" d="M86.7779 22.6355L78.4649 30.9731L79.0483 35.6536L80.5797 32.4349L85.3186 38.5046L91.9538 18.0275L69.8594 27.2436L75.839 30.3881L86.7779 22.6355Z" fill="white"/>
<path d="M79.56 37.2621H70.81C64.1378 38.2855 63.4452 48.0124 70.7378 49.3292H79.5619V40.5533C82.5026 40.6517 83.11 44.3311 80.9471 45.6721C81.3841 46.1847 83.1341 48.0848 83.1341 48.0848C87.7286 44.112 85.1026 37.5778 79.5619 37.2621H79.56ZM76.3545 46.038H71.4693C68.4434 46.22 67.4582 41.2108 71.1767 40.5533H76.3545V46.038Z" fill="white"/>
<path fill-rule="evenodd" clip-rule="evenodd" d="M97.861 41.651H94.6517L93.2665 44.8697H97.3498C98.1702 44.8326 98.2072 46.0399 97.3498 46.1123H90.2776V40.5551H101.142V37.2639H99.5387C99.0647 30.4623 90.9535 30.2618 88.8202 33.9727C89.2387 34.32 91.2258 36.0938 91.2258 36.0938C92.4461 34.1733 95.8369 34.2662 96.3295 37.2639H87.0684V49.3311H97.4961C99.8665 49.2939 100.959 47.5387 101.215 46.0399C101.361 43.6272 99.9017 42.0169 97.861 41.6528V41.651Z" fill="white"/>
<path fill-rule="evenodd" clip-rule="evenodd" d="M66.6509 37.2621H62.4213C61.0731 38.9077 58.7398 45.5625 63.3694 50.5718C63.3694 50.5718 65.375 48.8537 65.775 48.525C64.3528 47.1357 61.9824 41.4671 66.6509 37.2621Z" fill="white"/>
<path fill-rule="evenodd" clip-rule="evenodd" d="M55.8879 50.6888C55.8879 52.1561 54.7009 53.3466 53.2379 53.3466C51.7749 53.3466 50.5879 52.1561 50.5879 50.6888C50.5879 49.2215 51.7749 48.0291 53.2379 48.0291C54.7009 48.0291 55.8879 49.2196 55.8879 50.6888Z" fill="white"/>
<path fill-rule="evenodd" clip-rule="evenodd" d="M50.2436 37.2621C43.5714 38.2855 42.8788 48.0124 50.1714 49.3292H50.2196C50.7362 48.1758 51.8918 47.3734 53.2344 47.3734C54.577 47.3734 55.7307 48.1758 56.2492 49.3292H58.9936V37.2621H50.2436ZM55.7844 46.038H50.8992C47.8733 46.22 46.8881 41.2108 50.6084 40.5533H55.7862V46.038H55.7844Z" fill="white"/>
<path fill-rule="evenodd" clip-rule="evenodd" d="M53.3814 34.4093C54.4554 34.2273 54.9851 32.0133 53.2351 31.5211H50.3906V35.7261H51.5573V34.4093L52.8703 35.7261H54.6943L53.3814 34.4093ZM53.2425 32.9234C53.2425 33.0757 53.1184 33.2002 52.9666 33.2002H51.5721V32.6151H52.9666C53.1184 32.6151 53.2425 32.7395 53.2425 32.8918V32.9234Z" fill="white"/>
<path fill-rule="evenodd" clip-rule="evenodd" d="M56.7237 31.4542C55.5496 31.4542 54.5996 32.4089 54.5996 33.5846C54.5996 34.7603 55.5515 35.715 56.7237 35.715C57.8959 35.715 58.8478 34.7603 58.8478 33.5846C58.8478 32.4089 57.8959 31.4542 56.7237 31.4542ZM56.7237 34.5226C56.2089 34.5226 55.7904 34.1028 55.7904 33.5865C55.7904 33.0701 56.2089 32.6504 56.7237 32.6504C57.2385 32.6504 57.657 33.0701 57.657 33.5865C57.657 34.1028 57.2385 34.5226 56.7237 34.5226Z" fill="white"/>
<path fill-rule="evenodd" clip-rule="evenodd" d="M68.7784 32.6652H70.6876V31.4301H69.071C67.8006 31.4301 66.7617 32.3922 66.7617 33.5679C66.7617 34.7435 67.8006 35.7057 69.071 35.7057H70.6876V34.4705H68.7784C68.4988 34.4705 68.2488 34.3368 68.0876 34.1288H70.6876V33.0069H68.0876C68.2488 32.8008 68.4969 32.6652 68.7784 32.6652Z" fill="white"/>
<path fill-rule="evenodd" clip-rule="evenodd" d="M61.1867 34.4705C60.7052 34.4705 60.3108 34.0749 60.3108 33.592V33.5437C60.3108 33.0608 60.7052 32.6652 61.1867 32.6652H63.0015V31.4301H61.3737C60.1033 31.4301 59.0645 32.3922 59.0645 33.5679C59.0645 34.7435 60.1033 35.7057 61.3737 35.7057H63.0015V34.4705H61.1867Z" fill="white"/>
<path fill-rule="evenodd" clip-rule="evenodd" d="M75.1226 31.5117H71.0078V32.6168H72.5152V35.6387H73.6171V32.6168H75.1226V31.5117Z" fill="white"/>
<path d="M65.3282 33.5604L67.3541 31.5117H65.7134L64.5745 32.6633V31.5117H63.4727V35.6387H64.5745V34.4556L65.7449 35.6387H67.3838L65.3282 33.5604Z" fill="white"/>
<path d="M81.899 51.376C81.7176 51.4131 81.5565 51.5264 81.4194 51.7196C81.2861 51.9035 81.2194 52.0892 81.2194 52.2768C81.2194 52.3901 81.2435 52.4997 81.2898 52.6055C81.349 52.7411 81.4287 52.808 81.5305 52.808C81.5824 52.808 81.649 52.7801 81.7305 52.7244L81.8453 53.0309C81.7416 53.094 81.6416 53.1237 81.5435 53.1237C81.4102 53.1237 81.2842 53.0754 81.1602 52.9752C81.0898 52.9176 81.0213 52.808 80.9583 52.6464C80.9268 52.5665 80.9102 52.4477 80.9102 52.2879V52.1765C80.9102 51.9258 81.0435 51.6453 81.3083 51.3314C81.3639 51.2664 81.4583 51.1754 81.5916 51.0565H82.0083V51.3611C81.9694 51.3667 81.9324 51.3704 81.9009 51.3723L81.899 51.376Z" fill="white"/>
<path d="M83.7426 51.3648V53.1014H83.3963V52.8767C83.3963 52.7987 83.337 52.7003 83.2204 52.5795C83.1315 52.4885 83.0389 52.4087 82.9426 52.3399C82.8352 52.2656 82.7185 52.2285 82.5907 52.2285C82.463 52.2285 82.3667 52.2842 82.3093 52.3957C82.3018 52.4087 82.2981 52.4235 82.2981 52.4421C82.2981 52.4885 82.3204 52.5294 82.3667 52.5665C82.4111 52.6037 82.4574 52.6223 82.5037 52.6223C82.5407 52.6223 82.6278 52.5944 82.7667 52.5405L82.8685 52.8563C82.7148 52.9361 82.5852 52.9752 82.4815 52.9752C82.3667 52.9752 82.2611 52.9436 82.1648 52.8786C82.0685 52.8136 82 52.7281 81.9556 52.6223C81.9352 52.5758 81.9259 52.5201 81.9259 52.4532C81.9259 52.2564 82.0074 52.1059 82.1685 52.0038C82.2815 51.9295 82.4019 51.8923 82.5296 51.8923H82.563C82.5611 51.831 82.5278 51.7642 82.4667 51.688C82.4056 51.6119 82.3444 51.5747 82.287 51.5747H81.9037V51.3611H81.75V51.0565H83.9796V51.3611H83.7426V51.3648ZM83.3963 51.3648H82.5815C82.8111 51.5153 82.9315 51.7103 82.9407 51.9518C83.087 52.0093 83.2389 52.1245 83.3963 52.2954V51.363V51.3648Z" fill="white"/>
<path d="M84.4163 51.3649V53.1015H84.07V51.3649H83.8145V51.0603H84.6478V51.3649H84.4163Z" fill="white"/>
<path d="M86.0865 51.3649H84.5254V51.0603H86.6847V51.3649H86.4458V53.1015H86.1402C86.1106 53.0124 85.9606 52.8749 85.6902 52.6873C85.5791 52.6112 85.4272 52.5369 85.2328 52.4645C85.0254 52.3883 84.8624 52.3493 84.7384 52.3493L84.6458 52.0038C84.7272 51.9388 84.9495 51.8274 85.3161 51.6695C85.4698 51.6026 85.7272 51.5005 86.0846 51.3668L86.0865 51.3649ZM86.1069 51.7401C86.0421 51.7624 85.9735 51.7865 85.8995 51.8162C85.7902 51.8645 85.5939 51.9518 85.3069 52.0763L85.2402 52.106C85.5143 52.2026 85.7754 52.3437 86.0254 52.5313C86.0569 52.5555 86.0846 52.5759 86.1069 52.5926V51.7419V51.7401Z" fill="white"/>
<path d="M87.1214 51.3649V53.1015H86.7751V51.3649H86.5195V51.0603H87.3529V51.3649H87.1214Z" fill="white"/>
<path d="M87.2304 51.3649V51.0603H88.2526C88.2544 51.0491 88.2563 51.0399 88.2563 51.0343C88.2563 50.8746 88.1822 50.7705 88.0322 50.7204C88.0119 50.7148 87.9896 50.713 87.9656 50.713C87.9285 50.713 87.8841 50.7204 87.8285 50.7353C87.7544 50.7557 87.71 50.765 87.697 50.7687C87.6378 50.778 87.5859 50.7965 87.5433 50.8244C87.4859 50.8634 87.4211 50.8987 87.3489 50.9303L87.2378 50.6721C87.3693 50.5811 87.5452 50.5012 87.76 50.4362C87.8507 50.4102 87.9359 50.3972 88.0174 50.3972C88.1026 50.3972 88.2007 50.4288 88.3081 50.4901C88.4915 50.6015 88.5878 50.791 88.5952 51.0603H88.7933V51.3649H87.2285H87.2304ZM88.4341 53.395C88.2933 53.2668 88.1452 53.1498 87.9859 53.0384C87.91 52.9863 87.7841 52.9269 87.6063 52.8619C87.4656 52.8118 87.3841 52.7858 87.36 52.7858L87.3637 52.379C87.3933 52.379 87.4378 52.379 87.497 52.3846C87.5563 52.3883 87.6026 52.3901 87.6322 52.3901C87.7896 52.3901 87.9174 52.3697 88.0156 52.3288C88.2026 52.2508 88.2952 52.158 88.2952 52.0502C88.2952 51.9722 88.26 51.9072 88.1878 51.8552C88.1193 51.8144 88.0489 51.7754 87.9785 51.7382C87.9581 51.7289 87.9396 51.7234 87.9193 51.7234C87.8767 51.7234 87.8322 51.7345 87.7822 51.7549C87.7211 51.7828 87.6933 51.8162 87.697 51.8515C87.71 51.9425 87.8044 51.9797 87.9804 51.9648L87.7933 52.2527C87.7174 52.2583 87.6396 52.2341 87.5619 52.1803C87.4193 52.0837 87.3489 51.9667 87.3489 51.8274C87.3489 51.6881 87.4211 51.5803 87.5656 51.5023C87.6841 51.4373 87.8193 51.4058 87.9711 51.4058C88.0378 51.4058 88.0952 51.4169 88.1415 51.4373C88.1896 51.4596 88.2378 51.4838 88.2878 51.5098C88.523 51.6305 88.6415 51.8125 88.6415 52.0577C88.6415 52.2323 88.5693 52.3734 88.4248 52.483C88.3137 52.5647 88.1563 52.6242 87.9507 52.6595C88.0119 52.6892 88.1007 52.7375 88.2156 52.8062C88.4119 52.9548 88.5693 53.0885 88.6896 53.2055L88.4359 53.3931L88.4341 53.395Z" fill="white"/>
<path d="M90.8648 51.3649V53.1015H90.5185V52.4124C90.5185 52.353 90.4926 52.2917 90.4407 52.2267C90.3889 52.1635 90.3333 52.132 90.2759 52.132C90.2222 52.132 90.1704 52.1654 90.1222 52.2323C90.0741 52.2991 90.0481 52.3753 90.0481 52.4607H89.6741C89.6741 52.3641 89.65 52.2824 89.6 52.2118C89.55 52.1431 89.4944 52.1078 89.4296 52.1078C89.3759 52.1078 89.3241 52.1264 89.2741 52.1654C89.2241 52.2044 89.1981 52.249 89.1926 52.2991L89.1815 52.3901V52.4254C89.1815 52.6037 89.2907 52.6929 89.5074 52.6929C89.5407 52.6929 89.6 52.6855 89.6833 52.6706L89.5611 53.0216C89.4907 53.0291 89.4463 53.0346 89.4315 53.0346C89.2685 53.0346 89.1204 52.9752 88.9833 52.8545C88.9296 52.808 88.8852 52.7393 88.85 52.6446C88.8185 52.561 88.8018 52.4793 88.8018 52.3994C88.8018 52.2118 88.8592 52.0595 88.9741 51.9425C89.0889 51.8255 89.2407 51.7679 89.4278 51.7679C89.6018 51.7679 89.7481 51.8515 89.8666 52.0168C89.9944 51.8496 90.1315 51.7679 90.2796 51.7679C90.3611 51.7679 90.4389 51.8051 90.5148 51.8794V51.3667H88.6426V51.0621H91.0574V51.3667H90.8611L90.8648 51.3649Z" fill="white"/>
<path d="M93.4635 51.3649H91.9023V51.0603H94.0616V51.3649H93.8227V53.1015H93.5172C93.4875 53.0124 93.3375 52.8749 93.0672 52.6873C92.956 52.6112 92.8042 52.5369 92.6098 52.4645C92.4023 52.3883 92.2394 52.3493 92.1153 52.3493L92.0227 52.0038C92.1042 51.9388 92.3264 51.8274 92.6931 51.6695C92.8468 51.6026 93.1042 51.5005 93.4616 51.3668L93.4635 51.3649ZM93.4838 51.7401C93.419 51.7624 93.3505 51.7865 93.2764 51.8162C93.1672 51.8645 92.9709 51.9518 92.6838 52.0763L92.6172 52.106C92.8912 52.2026 93.1523 52.3437 93.4023 52.5313C93.4338 52.5555 93.4616 52.5759 93.4838 52.5926V51.7419V51.7401Z" fill="white"/>
<path d="M94.6436 51.3648C94.5343 51.5171 94.4788 51.6416 94.4788 51.7419C94.4788 51.7883 94.5343 51.9703 94.6473 52.2916C94.7047 52.4532 94.7343 52.5869 94.7343 52.6928C94.7343 52.8953 94.6214 53.0364 94.3954 53.1163C94.3269 53.1423 94.2047 53.1646 94.0269 53.1813L94.0732 52.8804C94.2769 52.8377 94.3806 52.7652 94.3806 52.6631C94.3806 52.5684 94.338 52.4235 94.2528 52.2285C94.1677 52.0335 94.1251 51.8904 94.1251 51.7976C94.1251 51.6787 94.1751 51.5338 94.2732 51.363H93.9121V51.0583H94.8788V51.363H94.6417L94.6436 51.3648Z" fill="white"/>
<path d="M95.387 51.3649V53.1015H95.0407V51.3649H94.7852V51.0603H95.6185V51.3649H95.387Z" fill="white"/>
<path d="M96.1835 52.1877C96.0224 52.1877 95.8909 52.1357 95.7928 52.0335C95.6946 51.9314 95.6465 51.7995 95.6465 51.6379C95.6465 51.4893 95.6965 51.3649 95.7965 51.2646C95.8965 51.1643 96.0224 51.1141 96.1724 51.1141C96.3761 51.1141 96.5224 51.2163 96.6132 51.4206C96.652 51.5079 96.6724 51.5933 96.6724 51.6769C96.6724 51.8329 96.6298 51.9574 96.5446 52.0484C96.4594 52.1394 96.3391 52.1858 96.1817 52.1858L96.1835 52.1877ZM96.5631 53.3077C96.1243 52.9362 95.8261 52.7152 95.6687 52.639L95.6724 52.1598C96.2761 52.5926 96.6706 52.938 96.8576 53.1962V53.5528L96.5631 53.3077ZM96.2557 51.4819C96.2206 51.4577 96.1872 51.4485 96.152 51.4522C96.0206 51.4745 95.9557 51.5395 95.9557 51.6472C95.9557 51.7029 95.978 51.7531 96.0206 51.8014C96.0631 51.8478 96.1132 51.8719 96.1669 51.8719L96.215 51.8645C96.3131 51.8329 96.3632 51.7735 96.3632 51.6843C96.3632 51.6008 96.328 51.532 96.2557 51.4819Z" fill="white"/>
<path d="M99.037 50.8578C98.6333 50.6034 98.3036 50.4752 98.0462 50.4752C97.7425 50.4752 97.5203 50.5718 97.3777 50.7649C97.3296 50.8318 97.3018 50.9302 97.2962 51.0603H97.5388V51.3649H97.2962V53.1015H96.9444V51.3649H96.7129V51.0603H96.9444C96.9518 50.8132 97.0333 50.6126 97.187 50.4603C97.3407 50.3062 97.5518 50.2133 97.8166 50.1762C97.8444 50.1743 97.8944 50.1669 97.9703 50.1576H98.0444C98.2555 50.1576 98.4647 50.204 98.674 50.295C98.787 50.347 98.9721 50.4529 99.2296 50.6126L99.0351 50.8578H99.037Z" fill="white"/>
<path d="M98.7491 51.3649V51.3761C98.8936 51.3835 99.0454 51.4299 99.201 51.5135C99.4214 51.6342 99.5325 51.7977 99.5325 52.0057C99.5325 52.1264 99.4954 52.2304 99.4214 52.3196C99.3473 52.4069 99.251 52.4663 99.1325 52.4942C99.0139 52.522 98.9121 52.5257 98.8288 52.5072V52.1784C98.8677 52.184 98.9047 52.1859 98.938 52.1859C99.1121 52.1859 99.1991 52.1227 99.1991 51.9983C99.1991 51.8497 99.0491 51.7549 98.7491 51.7159V53.1015H98.4436C98.3936 53.0049 98.3454 52.9306 98.2954 52.8786C98.2788 52.8601 98.2343 52.8025 98.1621 52.7059C98.1399 52.6743 98.0991 52.6353 98.0399 52.587C97.9806 52.5387 97.9399 52.4997 97.9176 52.4682C97.9084 52.4533 97.8806 52.4384 97.8362 52.4217C97.6862 52.3697 97.564 52.3419 97.4714 52.3419L97.3788 51.9964C97.4547 51.9407 97.6269 51.8385 97.8954 51.6862C97.9158 51.6714 97.9973 51.6231 98.1399 51.5414C98.1917 51.5098 98.2788 51.4596 98.3991 51.3909V51.3649H97.3047V51.0603H99.6825V51.3649H98.7454H98.7491ZM98.4028 51.7661C98.3473 51.8088 98.2602 51.8664 98.1454 51.9388C98.1158 51.9518 98.0825 51.976 98.0436 52.0131C98.0047 52.0503 97.9695 52.0856 97.9343 52.1153C97.9714 52.1487 98.0306 52.1951 98.1121 52.2564C98.188 52.3437 98.2862 52.4496 98.4028 52.5778V51.7661Z" fill="white"/>
<path d="M100.203 52.1877C100.042 52.1877 99.9105 52.1357 99.8123 52.0335C99.7142 51.9314 99.666 51.7995 99.666 51.6379C99.666 51.4893 99.716 51.3649 99.816 51.2646C99.916 51.1643 100.042 51.1141 100.192 51.1141C100.396 51.1141 100.542 51.2163 100.633 51.4206C100.672 51.5079 100.692 51.5933 100.692 51.6769C100.692 51.8329 100.649 51.9574 100.564 52.0484C100.479 52.1394 100.359 52.1858 100.201 52.1858L100.203 52.1877ZM100.583 53.3077C100.144 52.9362 99.8456 52.7152 99.6882 52.639L99.6919 52.1598C100.296 52.5926 100.69 52.938 100.877 53.1962V53.5528L100.583 53.3077ZM100.275 51.4819C100.24 51.4577 100.207 51.4485 100.172 51.4522C100.04 51.4745 99.9753 51.5395 99.9753 51.6472C99.9753 51.7029 99.9975 51.7531 100.04 51.8014C100.083 51.8478 100.133 51.8719 100.186 51.8719L100.235 51.8645C100.333 51.8329 100.383 51.7735 100.383 51.6843C100.383 51.6008 100.347 51.532 100.275 51.4819Z" fill="white"/>
<path d="M61.9141 53.2519L62.5604 53.4692L62.8178 53.2519L62.1733 53.0234L61.9141 53.2519Z" fill="white"/>
<path d="M62.1292 51.454V51.0621H57.0625V51.454H57.9144V52.3288H58.6458C58.6458 52.3288 58.8532 52.262 58.9032 52.1561V52.5016C58.9032 52.6557 58.7884 52.7895 58.6458 52.7895H57.5699C57.5051 52.7895 57.4403 52.7597 57.4403 52.5016V51.6862H57.0625V52.7319C57.0625 52.8173 57.1162 53.1238 57.3884 53.1238H58.8458C59.0736 53.1164 59.2347 52.8842 59.2477 52.6892V51.6862H58.9032C58.8681 51.8404 58.8884 51.9444 58.731 51.9834H58.3014V51.454H59.5495V53.1238H59.9792V51.454H60.281V53.1238H61.7014C61.8014 53.1238 62.131 53.0402 62.131 52.6743V51.6862H61.7866C61.7866 51.7828 61.7718 51.9258 61.6144 51.9258H60.6681V51.454H62.131H62.1292ZM61.5699 52.2713C61.6347 52.2898 61.7199 52.1858 61.7847 52.0985V52.5016C61.7847 52.6557 61.6625 52.7895 61.5699 52.7895H60.6662V52.2713H61.5699Z" fill="white"/>
<path d="M63.4646 51.9276H62.6035V52.3882H63.4646V51.9276Z" fill="white"/>
<path d="M63.9375 51.0621V51.454H65.3542V51.6862H63.9375V52.6167C63.969 52.9195 64.1227 53.1238 64.4171 53.1238H65.6986V51.454H66.0005V53.1238H66.3875V51.0621H63.9375ZM65.3542 52.847H64.4931C64.3634 52.8285 64.2782 52.6743 64.2782 52.5016V52.041H65.3542V52.847Z" fill="white"/>
<path d="M68.2461 51.454H70.0016V51.6862H69.485C69.4628 51.8496 69.1979 51.9369 69.1405 51.6862H68.2461V52.6743C68.2461 52.7709 68.2609 53.0848 68.5239 53.1238H69.2276V52.7895H68.7554C68.6628 52.7597 68.5831 52.704 68.5831 52.5591V52.041H69.0572V52.3288H69.4868V52.0985C69.4572 51.9927 69.9387 52.0019 69.9609 52.0985V53.1238H70.3479V51.454H70.6054V53.1238H70.9924V51.0621H68.2479V51.454H68.2461Z" fill="white"/>
<path d="M67.6355 51.1772H66.7207V51.7177C66.7559 51.8905 66.8485 52.1041 67.1614 52.1208H67.8929V51.454C67.8707 51.3407 67.7929 51.1958 67.6355 51.1772ZM67.3577 51.7549C67.1929 51.7549 67.0596 51.6936 67.0596 51.6193C67.0596 51.545 67.1929 51.4837 67.3577 51.4837C67.5226 51.4837 67.6559 51.545 67.6559 51.6193C67.6559 51.6936 67.5226 51.7549 67.3577 51.7549Z" fill="white"/>
<path d="M66.7832 52.3251V52.665L67.8869 53.1256V52.7653L66.7832 52.3251Z" fill="white"/>
<path d="M76.9031 51.1772H75.9883V51.7177C76.0235 51.8905 76.1161 52.1041 76.429 52.1208H77.1605V51.454C77.1383 51.3407 77.0605 51.1958 76.9031 51.1772ZM76.6253 51.7549C76.4605 51.7549 76.3272 51.6936 76.3272 51.6193C76.3272 51.545 76.4605 51.4837 76.6253 51.4837C76.7901 51.4837 76.9235 51.545 76.9235 51.6193C76.9235 51.6936 76.7901 51.7549 76.6253 51.7549Z" fill="white"/>
<path d="M76.0488 52.3251V52.665L77.1544 53.1256V52.7653L76.0488 52.3251Z" fill="white"/>
<path d="M79.2494 51.6862V51.454H79.9624V51.0621H77.4883V51.454H78.9049V51.6862H77.4883V52.6167C77.5198 52.9195 77.6735 53.1238 77.9679 53.1238H79.2494V52.0985H79.5938C79.6512 52.0985 79.6661 52.0688 79.679 52.1561V52.3288C79.6568 52.4143 79.6494 52.4737 79.5938 52.5016H79.4679V52.847H79.7235C79.8087 52.8378 79.9679 52.7412 79.9809 52.6167V51.6862H79.2494ZM78.9049 52.847H78.0457C77.9161 52.8285 77.8309 52.6743 77.8309 52.5016V52.041H78.8994L78.9049 52.0985V52.847Z" fill="white"/>
<path d="M72.1504 51.0621V51.454H73.5671V51.6862H72.1504V52.6167C72.18 52.9195 72.3356 53.1238 72.63 53.1238H73.9115V51.454H74.3596L74.1967 51.7809V52.0112H74.4985C74.6578 52.0298 74.7134 52.1357 74.7134 52.4143C74.7134 52.6056 74.6689 52.7449 74.5208 52.7597H74.2393V53.1052H74.5411C74.6263 53.1052 75.0208 53.1442 75.0578 52.7597C75.1004 51.9815 75.1374 51.7809 74.5837 51.7233L74.6652 51.454H75.2708V53.1238H75.6578V51.0621H72.1504ZM73.5671 52.847H72.7059C72.5763 52.8285 72.4911 52.6743 72.4911 52.5016V52.041H73.5671V52.847Z" fill="white"/>
</g>
<defs>
<clipPath id="clip0_795_217">
<rect width="70" height="47" fill="white" transform="translate(38 15)"/>
</clipPath>
</defs>
</svg>
